<?xml version="1.0" encoding="UTF-8"?>
<svg version="1.1" xmlns="http://www.w3.org/2000/svg" width="200" height="200" viewBox="0 0 200 200">
    <path d="M0 0 C27.39 0 54.78 0 83 0 C83 54.45 83 108.9 83 165 C68.15 165 53.3 165 38 165 C36.35 161.7 34.7 158.4 33 155 C30.64343289 152.75779002 30.64343289 152.75779002 28 151.5625 C27.175 151.13066406 26.35 150.69882812 25.5 150.25390625 C23.77707067 149.38974951 22.04600299 148.54169374 20.30859375 147.70703125 C17.28546954 145.47165853 16.96607273 143.73030016 16.0625 140.125 C14.33319379 134.41346675 13.13015063 132.05835903 8 129 C5.3542334 127.83471652 2.75496831 126.90248962 0 126 C0 120.39 0 114.78 0 109 C-1.546875 109.05800781 -3.09375 109.11601563 -4.6875 109.17578125 C-21.86625277 109.62770821 -36.46089714 108.69608362 -50 97 C-51.18529297 95.99646484 -51.18529297 95.99646484 -52.39453125 94.97265625 C-59.10433128 88.81922438 -63.13095122 81.60714634 -66 73 C-66 67.72 -66 62.44 -66 57 C-44.22 57 -22.44 57 0 57 C0 73.83 0 90.66 0 108 C21.69094212 102.95587715 21.69094212 102.95587715 37.71875 88.578125 C39.2583803 86.08754658 40.68115391 83.61434978 42 81 C42.81017578 79.41638672 42.81017578 79.41638672 43.63671875 77.80078125 C45.49975228 73.34179644 45.53510292 68.96644759 45.5 64.1875 C45.49500488 63.3003833 45.49000977 62.4132666 45.48486328 61.49926758 C45.30248306 54.6587516 44.16786086 49.56453764 40 44 C39.5771875 43.37351562 39.154375 42.74703125 38.71875 42.1015625 C32.19298052 33.41318337 21.40312687 28.28181792 11 26 C7.37 25.67 3.74 25.34 0 25 C0 16.75 0 8.5 0 0 Z " fill="#C8E0E1" transform="translate(17,16)" />
</svg>