<?xml version="1.0" encoding="UTF-8"?>
<svg version="1.1" xmlns="http://www.w3.org/2000/svg" width="200" height="200" viewBox="0 0 200 200">
    <path d="M0 0 C4.41780688 2.38670991 7.37114165 5.1527286 9 9.9375 C9 10.948125 9 11.95875 9 13 C9.05800781 13.64066406 9.11601563 14.28132812 9.17578125 14.94140625 C9.58039204 21.03368867 7.39414805 24.22278826 3.4375 28.8125 C-0.13203338 31.76124497 -4.80181762 31.44709061 -9.19921875 31.41796875 C-13.64712278 30.75419507 -16.26919562 28.47122656 -19 25 C-21.90508933 20.32446903 -21.62660605 15.33001934 -21 10 C-19.3125 6.5625 -19.3125 6.5625 -17 4 C-16.34 3.21625 -15.68 2.4325 -15 1.625 C-10.11695743 -1.01998139 -5.40415853 -1.04033543 0 0 Z " fill="#FDF8FB" transform="translate(17,16)" />
</svg>