<?xml version="1.0" encoding="UTF-8"?>
<svg version="1.1" xmlns="http://www.w3.org/2000/svg" width="200" height="200" viewBox="0 0 200 200">
    <path d="M0 0 C16.17 0 32.34 0 49 0 C49 34.32 49 68.64 49 104 C46.69 102.02 44.38 100.04 42 98 C41.28972656 97.39414062 40.57945312 96.78828125 39.84765625 96.1640625 C35.70969231 92.59653998 31.82848892 88.85700337 27.99609375 84.96484375 C26.07892823 83.07769256 24.10424678 81.31314625 22.0625 79.5625 C19.04925207 76.97465178 16.22723019 74.26505704 13.4375 71.4375 C8.91973638 66.86511748 4.35585627 62.57057085 -1 59 C-1.32279968 56.5196228 -1.32279968 56.5196228 -1.2487793 53.35693359 C-1.22853195 52.17586029 -1.20828461 50.99478699 -1.18742371 49.77792358 C-1.13138725 47.85757797 -1.13138725 47.85757797 -1.07421875 45.8984375 C-1.04777786 44.59170074 -1.02133698 43.28496399 -0.99409485 41.93862915 C-0.92359384 38.46285138 -0.83488457 34.98776612 -0.74243164 31.51251221 C-0.65131379 27.96691433 -0.57718011 24.42096477 -0.50195312 20.875 C-0.35306511 13.91601514 -0.17576415 6.95856633 0 0 Z " fill="#BDBCBC" transform="translate(17,16)" />
</svg>