<?xml version="1.0" encoding="UTF-8"?>
<svg version="1.1" xmlns="http://www.w3.org/2000/svg" width="200" height="200" viewBox="0 0 200 200">
    <path d="M0 0 C10.39711061 -0.58176085 19.29877325 3.82503986 27.13671875 10.41796875 C34.94945197 17.62740211 42.53174156 27.32470203 43.30541992 38.35644531 C43.33018106 40.74948998 43.3458125 43.14197404 43.34765625 45.53515625 C43.35990234 46.35628906 43.37214844 47.17742188 43.38476562 48.0234375 C43.41322315 59.99456851 39.16491265 72.43575311 30.84765625 81.28515625 C19.07866783 91.73475135 5.6074723 95.17367427 -9.83007812 94.45556641 C-21.68107656 93.4507077 -31.59599461 86.41578665 -39.15234375 77.59765625 C-40.42380143 75.85693894 -41.65308522 74.08468552 -42.83984375 72.28515625 C-43.44183594 71.38796875 -44.04382813 70.49078125 -44.6640625 69.56640625 C-48.7678608 62.29627407 -49.39639758 55.83949671 -49.46484375 47.59765625 C-49.47580078 46.63577393 -49.48675781 45.6738916 -49.49804688 44.68286133 C-49.23824193 31.62430353 -42.98897482 20.98596899 -33.71484375 12.03515625 C-23.67620296 3.62992142 -12.67030711 1.27225917 0 0 Z " fill="#0F2A51" transform="translate(17,16)" />
</svg>