<?xml version="1.0" encoding="UTF-8"?>
<svg version="1.1" xmlns="http://www.w3.org/2000/svg" width="200" height="200" viewBox="0 0 200 200">
    <path d="M0 0 C0 13.2 0 26.4 0 40 C-10.56 40 -21.12 40 -32 40 C-30.87084871 32.09594096 -30.87084871 32.09594096 -26 28 C-24.9171875 26.9790625 -24.9171875 26.9790625 -23.8125 25.9375 C-19.83602314 23.19814927 -15.5179944 21.64928728 -11 20 C-11.48082031 19.44054687 -11.96164063 18.88109375 -12.45703125 18.3046875 C-14.67893978 14.98588742 -14.72346973 12.40476526 -14.61328125 8.484375 C-13.66414433 4.63946366 -11.49547839 3.15203673 -8.3359375 0.9609375 C-6 0 -6 0 0 0 Z " fill="#EEF2F3" transform="translate(17,16)" />
</svg>