<?xml version="1.0" encoding="UTF-8"?>
<svg version="1.1" xmlns="http://www.w3.org/2000/svg" width="200" height="200" viewBox="0 0 200 200">
    <path d="M0 0 C1.93719378 -0.05406122 3.87481921 -0.09282025 5.8125 -0.125 C6.89144531 -0.14820313 7.97039063 -0.17140625 9.08203125 -0.1953125 C12 0 12 0 15 2 C13.68 3.32 12.36 4.64 11 6 C9.02 5.34 7.04 4.68 5 4 C5 9.28 5 14.56 5 20 C4.67 20 4.34 20 4 20 C3.00749455 14.29309366 2.89522488 8.78591511 3 3 C1.68 3.33 0.36 3.66 -1 4 C-0.67 2.68 -0.34 1.36 0 0 Z " fill="#E4B458" transform="translate(17,16)" />
</svg>