<?xml version="1.0" encoding="UTF-8"?>
<svg version="1.1" xmlns="http://www.w3.org/2000/svg" width="200" height="200" viewBox="0 0 200 200">
    <path d="M0 0 C0.33 0 0.66 0 1 0 C1 2.97 1 5.94 1 9 C9.58 9 18.16 9 27 9 C27 34.41 27 59.82 27 86 C3.57 86 -19.86 86 -44 86 C-44.495 81.545 -44.495 81.545 -45 77 C-46.09038035 74.72438647 -46.09038035 74.72438647 -47.8125 73.125 C-48.45574219 72.46113281 -49.09898438 71.79726563 -49.76171875 71.11328125 C-52.67235698 68.36519175 -55.6199885 65.66051658 -58.60180664 62.98974609 C-65.12824532 57.09010695 -71.26198811 50.7864829 -77.43798828 44.5246582 C-81.85994628 40.06007793 -86.33037792 35.76399384 -91.1015625 31.67578125 C-94.43330542 28.7347983 -97.51634345 25.5481515 -100.625 22.375 C-105.85479869 17.03578345 -105.85479869 17.03578345 -111.4609375 12.1015625 C-112.29882812 11.40804687 -113.13671875 10.71453125 -114 10 C-114 9.67 -114 9.34 -114 9 C-76.38 9 -38.76 9 0 9 C0 6.03 0 3.06 0 0 Z " fill="#E4DFDB" transform="translate(17,16)" />
</svg>