<?xml version="1.0" encoding="UTF-8"?>
<svg version="1.1" xmlns="http://www.w3.org/2000/svg" width="200" height="200" viewBox="0 0 200 200">
    <path d="M0 0 C2.82231153 1.56117897 5.44482668 3.06427788 7.375 5.6875 C7.13742367 10.12834991 3.78835648 13.30273277 1.1640625 16.6640625 C-4.4915575 26.22181333 -4.15667684 36.54837042 -4.3125 47.3125 C-4.34573736 48.90497488 -4.38023275 50.49742403 -4.41601562 52.08984375 C-4.50250563 55.95574599 -4.56318417 59.82081332 -4.625 63.6875 C-15.185 63.6875 -25.745 63.6875 -36.625 63.6875 C-36.76356781 57.35443773 -36.88275027 51.02673601 -36.95458984 44.69335938 C-36.98456618 42.54408851 -37.02536221 40.39493791 -37.07763672 38.24609375 C-37.64114714 14.46816379 -37.64114714 14.46816379 -30.625 5.6875 C-21.8881665 -2.63278737 -11.36484238 -5.57362668 0 0 Z " fill="#F7A7C4" transform="translate(17,16)" />
</svg>