<?xml version="1.0" encoding="UTF-8"?>
<svg version="1.1" xmlns="http://www.w3.org/2000/svg" width="200" height="200" viewBox="0 0 200 200">
    <path d="M0 0 C54.45 0 108.9 0 165 0 C165 24.75 165 49.5 165 75 C163 71 163 71 162.0625 67.5 C157.04731146 54.12616391 142.70289203 45.93659249 130.5 40.3125 C128.34912049 39.4986537 126.17996223 38.73238866 124 38 C123.34789551 37.77151367 122.69579102 37.54302734 122.02392578 37.30761719 C95.31035907 28.31998878 60.14232867 29.87298043 34.5859375 41.69921875 C33.73257813 42.12847656 32.87921875 42.55773437 32 43 C31.08476562 43.43957031 30.16953125 43.87914062 29.2265625 44.33203125 C18.09268446 49.99253227 6.52583965 58.20070693 2.1328125 70.41015625 C1.48296533 72.8012492 1.48296533 72.8012492 1 76 C0.67 76 0.34 76 0 76 C0 50.92 0 25.84 0 0 Z " fill="#023B9A" transform="translate(17,16)" />
</svg>