<?xml version="1.0" encoding="UTF-8"?>
<svg version="1.1" xmlns="http://www.w3.org/2000/svg" width="200" height="200" viewBox="0 0 200 200">
    <path d="M0 0 C26.73 0 53.46 0 81 0 C81 54.78 81 109.56 81 166 C54.27 166 27.54 166 0 166 C0 162.7 0 159.4 0 156 C1.63195312 155.88785156 1.63195312 155.88785156 3.296875 155.7734375 C14.31734607 154.8541217 24.67416063 153.10499434 32.5625 144.5625 C37.79991864 137.45567825 39.06465684 130.69469752 38 122 C35.85601871 115.64874359 31.00854217 110.91098037 25.1875 107.8125 C16.96200751 104.02082316 8.95513935 103.55969621 0 103 C0 95.41 0 87.82 0 80 C2.43375 79.7525 4.8675 79.505 7.375 79.25 C18.05482616 77.97848924 26.63049922 75.25248244 34 67 C38.90111309 60.71439169 38.77959708 53.6804749 38 46 C36.61989317 39.08806002 32.66703319 33.80152225 27.11328125 29.55859375 C18.51199647 23.89763029 10.13982335 22.37310108 0 21 C0 14.07 0 7.14 0 0 Z " fill="#E8ECED" transform="translate(17,16)" />
</svg>