<?xml version="1.0" encoding="UTF-8"?>
<svg version="1.1" xmlns="http://www.w3.org/2000/svg" width="200" height="200" viewBox="0 0 200 200">
    <path d="M0 0 C0.66 0.33 1.32 0.66 2 1 C1.67 12.88 1.34 24.76 1 37 C3.97 37.66 6.94 38.32 10 39 C11.32 39.66 12.64 40.32 14 41 C9.61078349 42.29477815 6.94228883 41.6054454 2.6875 40.0625 C1.08455078 39.49208984 1.08455078 39.49208984 -0.55078125 38.91015625 C-1.35902344 38.60980469 -2.16726563 38.30945313 -3 38 C-1.515 37.505 -1.515 37.505 0 37 C0 24.79 0 12.58 0 0 Z " fill="#EFB90D" transform="translate(17,16)" />
</svg>