<?xml version="1.0" encoding="UTF-8"?>
<svg version="1.1" xmlns="http://www.w3.org/2000/svg" width="200" height="200" viewBox="0 0 200 200">
    <path d="M0 0 C54.45 0 108.9 0 165 0 C165 55.11 165 110.22 165 167 C155.43 167 145.86 167 136 167 C139.62387 162.77215167 143.04226706 158.84132903 147 155 C144.28222647 148.88500955 141.0484598 145.760944 135 143 C132.5542355 142.0704 130.09530373 141.17477583 127.625 140.3125 C126.37976563 139.87550781 125.13453125 139.43851563 123.8515625 138.98828125 C122.91054688 138.66214844 121.96953125 138.33601563 121 138 C121 137.34 121 136.68 121 136 C122.0621875 135.6596875 123.124375 135.319375 124.21875 134.96875 C132.9076986 132.04708461 139.18558245 129.36241183 145 122 C145.78117188 121.07058594 146.56234375 120.14117188 147.3671875 119.18359375 C150.68966513 115.19768209 153.88635357 111.15152858 157 107 C138.19 107 119.38 107 100 107 C101.71508465 102.71228837 103.61660595 98.6177545 105.6875 94.5 C106.00138672 93.86835937 106.31527344 93.23671875 106.63867188 92.5859375 C106.96802734 91.92851563 107.29738281 91.27109375 107.63671875 90.59375 C108.16809448 89.51613403 108.16809448 89.51613403 108.71020508 88.41674805 C110 86 110 86 111.7800293 83.24926758 C117.79148108 73.52324695 118.19385363 64.88115562 118.4375 53.6875 C118.49898682 51.96408432 118.56342085 50.24077117 118.63085938 48.51757812 C118.78783369 44.34545237 118.90512954 40.17398065 119 36 C117.58034888 36.77165244 116.16279016 37.54715499 114.74609375 38.32421875 C113.9564624 38.75565186 113.16683105 39.18708496 112.35327148 39.6315918 C110.1461931 40.9149899 108.11496075 42.29728759 106.0625 43.8125 C103 46 103 46 101 46 C100.62190186 45.29915283 100.24380371 44.59830566 99.85424805 43.8762207 C98.13319413 40.68766688 96.41036529 37.50007542 94.6875 34.3125 C94.09259766 33.20970703 93.49769531 32.10691406 92.88476562 30.97070312 C92.01948242 29.3706543 92.01948242 29.3706543 91.13671875 27.73828125 C90.60780029 26.75899658 90.07888184 25.77971191 89.53393555 24.77075195 C88.50355393 22.90957083 87.42551474 21.0740591 86.30395508 19.26635742 C85 17 85 17 85 15 C84.34 15 83.68 15 83 15 C82.73429199 15.86963379 82.46858398 16.73926758 82.19482422 17.63525391 C80.20009161 23.25262309 77.10137123 28.22848436 74.125 33.375 C73.49980469 34.49261719 72.87460937 35.61023437 72.23046875 36.76171875 C71.62074219 37.81746094 71.01101563 38.87320312 70.3828125 39.9609375 C69.82996582 40.92821777 69.27711914 41.89549805 68.70751953 42.89208984 C68.14403809 43.5877002 67.58055664 44.28331055 67 45 C62.99199085 45 62.25418492 44.84140963 59.109375 42.8125 C58.40039062 42.36132812 57.69140625 41.91015625 56.9609375 41.4453125 C56.23132813 40.96835938 55.50171875 40.49140625 54.75 40 C53.63238281 39.28457031 53.63238281 39.28457031 52.4921875 38.5546875 C50.65613272 37.37772931 48.8258505 36.1927029 47 35 C47.23522368 39.9799329 47.51847123 44.95423983 47.84228516 49.92919922 C47.94562674 51.6136991 48.03689592 53.29899297 48.11474609 54.98486328 C48.65479945 66.44903389 50.6594408 75.00149886 56.41796875 84.99023438 C56.94003906 85.98345703 57.46210938 86.97667969 58 88 C57.67 88.66 57.34 89.32 57 90 C55.22688737 88.08539961 53.45646638 86.16842507 51.6875 84.25 C51.18798828 83.71117187 50.68847656 83.17234375 50.17382812 82.6171875 C49.68720703 82.08867188 49.20058594 81.56015625 48.69921875 81.015625 C48.25408936 80.53383789 47.80895996 80.05205078 47.3503418 79.55566406 C46 78 46 78 44.75976562 75.8359375 C43.05865677 73.68522154 43.05865677 73.68522154 39.90551758 73.54589844 C38.66439209 73.5668457 37.4232666 73.58779297 36.14453125 73.609375 C35.48289474 73.61503479 34.82125824 73.62069458 34.13957214 73.62652588 C32.02980668 73.64888753 29.92175048 73.69907629 27.8125 73.75 C26.38088394 73.7700656 24.9492412 73.78831628 23.51757812 73.8046875 C20.01116485 73.84874931 16.50574928 73.91777223 13 74 C13.41886475 74.57967529 13.83772949 75.15935059 14.26928711 75.7565918 C16.16753127 78.39399395 18.05258418 81.04055796 19.9375 83.6875 C20.59685547 84.59951172 21.25621094 85.51152344 21.93554688 86.45117188 C22.56396484 87.33740234 23.19238281 88.22363281 23.83984375 89.13671875 C24.71177368 90.35427856 24.71177368 90.35427856 25.60131836 91.59643555 C27.062999 94.10826063 27.60580066 96.13815732 28 99 C27.32453125 99.25394531 26.6490625 99.50789063 25.953125 99.76953125 C25.06109375 100.11371094 24.1690625 100.45789062 23.25 100.8125 C22.36828125 101.14894531 21.4865625 101.48539063 20.578125 101.83203125 C18.06960192 102.96846822 16.12720995 104.26542927 14 106 C15.33999498 109.006818 16.79845291 110.99762609 19.1875 113.25 C21.69523724 115.68033794 24.04696237 118.15505658 26.3125 120.8125 C34.11059672 130.95820353 34.11059672 130.95820353 44.9172821 136.15821838 C45.63898087 136.17376266 46.36067963 136.18930695 47.10424805 136.20532227 C47.92487228 136.22526749 48.74549652 136.24521271 49.59098816 136.26576233 C50.47232925 136.28247482 51.35367035 136.29918732 52.26171875 136.31640625 C53.62040825 136.3475779 53.62040825 136.3475779 55.00654602 136.37937927 C57.90012016 136.44476558 60.79378507 136.50370904 63.6875 136.5625 C65.64909793 136.6056956 67.61068668 136.64931023 69.57226562 136.69335938 C74.38141874 136.80122443 79.19064073 136.90037907 84 137 C84 146.9 84 156.8 84 167 C56.28 167 28.56 167 0 167 C0 111.89 0 56.78 0 0 Z " fill="#DCDADA" transform="translate(160,99)" />
    <path d="M0 0 C14.51767584 11.20113782 23.70961487 26.53936818 26.890625 44.59375 C29.33360479 66.12816448 24.7030381 85.50997832 12.0625 103.25 C2.82909243 114.16788057 -13.59735576 124.12079457 -28.05786133 125.54614258 C-47.49422915 126.57429959 -62.98598147 122.96035574 -77.9375 109.875 C-79.53401452 108.36800966 -81.11879105 106.84841364 -82.6875 105.3125 C-83.24179688 104.79429688 -83.79609375 104.27609375 -84.3671875 103.7421875 C-97.23147481 90.46068006 -101.30295103 70.7260993 -101.0859375 52.99609375 C-100.87567309 45.74654266 -100.43966287 39.09494883 -97.6875 32.3125 C-97.44531738 31.71066895 -97.20313477 31.10883789 -96.95361328 30.48876953 C-89.65546563 12.92395592 -77.08257872 -0.1605847 -59.453125 -7.62109375 C-39.35877926 -15.36933723 -17.76678996 -12.27343708 0 0 Z " fill="#7176AA" transform="translate(87.6875,127.6875)" />
    <path d="M0 0 C0 7.92 0 15.84 0 24 C-2.11664063 24.98226563 -4.23328125 25.96453125 -6.4140625 26.9765625 C-14.36956161 30.68212644 -22.27931554 34.4795797 -30.17578125 38.30908203 C-32.42075911 39.39717854 -34.66738664 40.48182082 -36.9140625 41.56640625 C-38.34645425 42.26021008 -39.77874982 42.95421252 -41.2109375 43.6484375 C-42.21536392 44.1327272 -42.21536392 44.1327272 -43.24008179 44.62680054 C-46.32940963 45.99828306 -46.32940963 45.99828306 -49 48 C-32.76303979 55.8895021 -16.47655924 63.61970097 0 71 C0 76.61 0 82.22 0 88 C-3.94812238 86.42075105 -6.63603734 85.0539508 -10.0546875 82.69921875 C-10.99957031 82.05146484 -11.94445312 81.40371094 -12.91796875 80.73632812 C-14.38169922 79.7221582 -14.38169922 79.7221582 -15.875 78.6875 C-16.84308594 78.02298828 -17.81117188 77.35847656 -18.80859375 76.67382812 C-23.90907207 73.16594814 -28.97650158 69.61719872 -34 66 C-34.2025955 83.27437749 -34.2025955 83.27437749 -26.20703125 98.00390625 C-18.46022286 105.41053543 -10.61995458 107.06909917 0 109 C0 117.58 0 126.16 0 135 C-16.61045373 135.66441815 -28.73484776 131.54594704 -41.25 120.5625 C-42.84651452 119.05550966 -44.43129105 117.53591364 -46 116 C-46.55429688 115.48179688 -47.10859375 114.96359375 -47.6796875 114.4296875 C-60.54397481 101.14818006 -64.61545103 81.4135993 -64.3984375 63.68359375 C-64.18817309 56.43404266 -63.75216287 49.78244883 -61 43 C-60.75781738 42.39816895 -60.51563477 41.79633789 -60.26611328 41.17626953 C-52.8655802 23.36503984 -40.3300757 10.80196434 -22.640625 3.04296875 C-14.71037103 -0.08924694 -8.55119919 -0.16134338 0 0 Z " fill="#E5E5EC" transform="translate(51,117)" />
    <path d="M0 0 C20.42685442 -0.69990491 38.08551327 3.94508138 53.40625 18.24609375 C68.6321755 34.12381401 73.61354595 53.41704421 73.26953125 74.92578125 C72.71273998 89.70680676 65.55398837 106.02494168 55.34765625 116.8125 C54 118 54 118 53 118 C52.90737135 109.31616904 52.83627176 100.63250779 52.79275131 91.94829082 C52.77186491 87.91595209 52.74352884 83.88395102 52.69824219 79.85180664 C52.65482078 75.96144601 52.63087083 72.07141041 52.62049103 68.18082619 C52.61309288 66.69560439 52.59864597 65.21040064 52.57707977 63.725317 C52.54809292 61.6468075 52.5440417 59.56964549 52.54589844 57.4909668 C52.53701599 56.30738083 52.52813354 55.12379486 52.51898193 53.90434265 C53 51 53 51 55.02838135 49.09431458 C55.6790155 48.73319077 56.32964966 48.37206696 57 48 C44.37556403 41.90291164 31.7233012 35.89131153 18.92138672 30.17431641 C18.05529785 29.78550293 17.18920898 29.39668945 16.296875 28.99609375 C15.53729492 28.65763428 14.77771484 28.3191748 13.99511719 27.97045898 C12 27 12 27 9 25 C8.65942383 22.56982422 8.65942383 22.56982422 8.70703125 19.5546875 C8.71669922 18.47832031 8.72636719 17.40195313 8.73632812 16.29296875 C8.76146484 15.16503906 8.78660156 14.03710938 8.8125 12.875 C8.82603516 11.73933594 8.83957031 10.60367188 8.85351562 9.43359375 C8.88895681 6.62192613 8.93836483 3.81119583 9 1 C6.03 1 3.06 1 0 1 C0 0.67 0 0.34 0 0 Z " fill="#7377AC" transform="translate(42,116)" />
    <path d="M0 0 C0.98887207 0.45246094 1.97774414 0.90492187 2.99658203 1.37109375 C4.04442871 1.85578125 5.09227539 2.34046875 6.171875 2.83984375 C7.7803833 3.58041016 7.7803833 3.58041016 9.42138672 4.3359375 C18.01213565 8.31139572 26.49302351 12.47152082 34.921875 16.77734375 C36.92096342 17.77916483 38.92065994 18.77977758 40.921875 19.77734375 C38.20001849 23.05815856 34.59869493 24.59874248 30.83203125 26.39453125 C30.13226669 26.73356476 29.43250214 27.07259827 28.71153259 27.42190552 C27.2276609 28.13922503 25.7423138 28.85349932 24.25561523 29.56494141 C22.02039543 30.63509824 19.79015684 31.71508754 17.56054688 32.796875 C13.36392823 34.82579428 9.14818777 36.81114548 4.921875 38.77734375 C3.75640137 39.32422852 2.59092773 39.87111328 1.39013672 40.43457031 C0.34744629 40.90088867 -0.69524414 41.36720703 -1.76953125 41.84765625 C-2.65970947 42.25000488 -3.5498877 42.65235352 -4.46704102 43.06689453 C-10.36740112 44.67232211 -15.24797926 41.99220163 -20.4609375 39.390625 C-21.15645721 39.05113327 -21.85197693 38.71164154 -22.568573 38.36186218 C-24.78372639 37.27842623 -26.99340539 36.18431227 -29.203125 35.08984375 C-30.66371861 34.37364722 -32.12465352 33.65814627 -33.5859375 32.94335938 C-41.77212757 28.93253413 -49.93165501 24.86819908 -58.078125 20.77734375 C-54.64568007 17.95768102 -50.87020235 16.07221125 -46.890625 14.16015625 C-46.19227539 13.82112274 -45.49392578 13.48208923 -44.77441406 13.13278198 C-43.29608991 12.41635861 -41.81673515 11.70205847 -40.33642578 10.98974609 C-38.11082035 9.91808701 -35.88918884 8.83852626 -33.66796875 7.7578125 C-27.24571644 4.64431465 -20.79991869 1.57918282 -14.265625 -1.29296875 C-13.35167969 -1.69531738 -12.43773437 -2.09766602 -11.49609375 -2.51220703 C-7.13321281 -3.79411167 -3.98532471 -1.82715279 0 0 Z " fill="#1E396D" transform="translate(59.078125,144.22265625)" />
    <path d="M0 0 C2.91460118 1.38441509 5.53842091 2.96443758 8.1953125 4.79296875 C8.9896167 5.33800049 9.7839209 5.88303223 10.60229492 6.44458008 C11.4347876 7.01974365 12.26728027 7.59490723 13.125 8.1875 C13.97360596 8.77104248 14.82221191 9.35458496 15.6965332 9.95581055 C21.48517334 13.94073192 27.26144773 17.94318284 33 22 C40.33170678 18.54777443 46.91589944 13.49945925 53.49609375 8.8046875 C54.26219971 8.2586084 55.02830566 7.7125293 55.81762695 7.14990234 C57.34412613 6.05836902 58.86746441 4.96240033 60.38745117 3.86181641 C61.08717041 3.36085449 61.78688965 2.85989258 62.5078125 2.34375 C63.13316895 1.89193359 63.75852539 1.44011719 64.40283203 0.97460938 C66 0 66 0 68 0 C68.48997439 11.6096709 68.69510237 21.99906156 61.5 31.8125 C55.12026857 38.61864021 45.33794238 42.08476841 36.2331543 42.39428711 C24.427928 42.5853032 16.04203642 40.80068991 7 32.6875 C0.84057941 25.64148845 -0.59939213 18.59560513 -0.25 9.4375 C-0.23195313 8.52419922 -0.21390625 7.61089844 -0.1953125 6.66992188 C-0.14872701 4.44546486 -0.08335485 2.22333033 0 0 Z " fill="#141E41" transform="translate(17,183)" />
    <path d="M0 0 C4.72713035 0.78785506 7.5028397 1.47183474 11.67578125 3.40625 C13.27800537 4.14536621 13.27800537 4.14536621 14.91259766 4.89941406 C16.03456543 5.42760742 17.1565332 5.95580078 18.3125 6.5 C19.46282715 7.03592773 20.6131543 7.57185547 21.79833984 8.12402344 C31.02693089 12.45915311 40.07298453 17.07646501 49 22 C46.28229578 25.26901351 42.69969001 26.81881971 38.9453125 28.6171875 C38.24791962 28.95622101 37.55052673 29.29525452 36.83200073 29.64456177 C35.35236317 30.36195119 33.87121073 31.07622331 32.38867188 31.78759766 C30.16373042 32.85639503 27.94489328 33.93709274 25.7265625 35.01953125 C24.27900008 35.71948308 22.83109298 36.41872263 21.3828125 37.1171875 C20.73748566 37.43195038 20.09215881 37.74671326 19.42727661 38.0710144 C13.04801381 41.11600174 6.67107224 43.43420299 0 46 C0 30.82 0 15.64 0 0 Z " fill="#131D3F" transform="translate(51,142)" />
    <path d="M0 0 C6.50180047 1.08363341 9.54203374 2.61226135 14.1875 7.125 C16.00785712 10.01246302 16.2890798 11.54236416 16.875 14.8125 C17.89545399 18.72617297 18.72470948 19.81108188 22.125 22.14453125 C23.99463626 23.16795302 25.88743652 24.13126263 27.79101562 25.08984375 C32.90125409 27.72255299 36.11894622 30.49119966 38 36 C38 36.99 38 37.98 38 39 C25.46 39 12.92 39 0 39 C0 26.13 0 13.26 0 0 Z " fill="#06797C" transform="translate(50,16)" />
    <path d="M0 0 C2.91460118 1.38441509 5.53842091 2.96443758 8.1953125 4.79296875 C8.98953613 5.33791992 9.78375977 5.88287109 10.60205078 6.44433594 C11.85091064 7.30720215 11.85091064 7.30720215 13.125 8.1875 C13.97433105 8.77176758 14.82366211 9.35603516 15.69873047 9.95800781 C18.13472282 11.63546245 20.5680063 13.31675479 23 15 C23.60972656 15.42168457 24.21945313 15.84336914 24.84765625 16.27783203 C32.75240385 21.75240385 32.75240385 21.75240385 34 23 C34.08631874 24.34267413 34.10706473 25.68974322 34.09765625 27.03515625 C34.09443359 27.84404297 34.09121094 28.65292969 34.08789062 29.48632812 C34.07532227 30.7615332 34.07532227 30.7615332 34.0625 32.0625 C34.05798828 32.91650391 34.05347656 33.77050781 34.04882812 34.65039062 C34.03700373 36.76695663 34.01906769 38.88348685 34 41 C32.9275 40.979375 31.855 40.95875 30.75 40.9375 C27.23342762 40.81748687 27.23342762 40.81748687 24.92578125 41.65625 C20.1643917 42.50615321 14.92783174 38.37317226 11 36 C5.36604943 31.78704585 2.11131091 26.67747025 0 20 C-0.43365063 16.45397494 -0.38601249 13.00259656 -0.25 9.4375 C-0.23195313 8.52419922 -0.21390625 7.61089844 -0.1953125 6.66992188 C-0.14872701 4.44546486 -0.08335485 2.22333033 0 0 Z " fill="#1F3A6D" transform="translate(17,183)" />
    <path d="M0 0 C9.9 0 19.8 0 30 0 C30 11.55 30 23.1 30 35 C19.85941043 35 19.85941043 35 17.0859375 32.24609375 C16.47298828 31.64587402 15.86003906 31.0456543 15.22851562 30.42724609 C14.61685547 29.77062988 14.00519531 29.11401367 13.375 28.4375 C12.40723633 27.43323975 12.40723633 27.43323975 11.41992188 26.40869141 C5.63205148 20.12677027 1.31586336 13.2852008 -1 5 C-0.67 3.35 -0.34 1.7 0 0 Z " fill="#B01C1D" transform="translate(213,171)" />
    <path d="M0 0 C0 13.2 0 26.4 0 40 C-10.56 40 -21.12 40 -32 40 C-30.87084871 32.09594096 -30.87084871 32.09594096 -26 28 C-24.9171875 26.9790625 -24.9171875 26.9790625 -23.8125 25.9375 C-19.83602314 23.19814927 -15.5179944 21.64928728 -11 20 C-11.48082031 19.44054687 -11.96164063 18.88109375 -12.45703125 18.3046875 C-14.67893978 14.98588742 -14.72346973 12.40476526 -14.61328125 8.484375 C-13.66414433 4.63946366 -11.49547839 3.15203673 -8.3359375 0.9609375 C-6 0 -6 0 0 0 Z " fill="#EEF2F3" transform="translate(50,16)" />
    <path d="M0 0 C0.11587901 8.27539035 0.20470646 16.55044147 0.25906086 24.82644272 C0.28514926 28.66941749 0.32053148 32.511837 0.37719727 36.35449219 C0.43154711 40.06333109 0.46142624 43.77163618 0.47438622 47.48084259 C0.48362104 48.89549413 0.50165527 50.31011661 0.52865028 51.72454071 C0.56496828 53.70636979 0.5670426 55.6887367 0.56762695 57.67089844 C0.57873001 58.79896912 0.58983307 59.92703979 0.60127258 61.08929443 C0 64 0 64 -5 68 C-5 45.89 -5 23.78 -5 1 C-3 0 -3 0 0 0 Z " fill="#DDDDE6" transform="translate(100,166)" />
    <path d="M0 0 C0.33 0 0.66 0 1 0 C1 5.28 1 10.56 1 16 C1.99 16.33 2.98 16.66 4 17 C2.68 18.32 1.36 19.64 0 21 C0 14.07 0 7.14 0 0 Z " fill="#656CA2" transform="translate(101,206)" />
    <path d="M0 0 C0.66 0.66 1.32 1.32 2 2 C0.625 3.5 0.625 3.5 -1 5 C-1.66 5 -2.32 5 -3 5 C-3.33 6.32 -3.66 7.64 -4 9 C-4.66 9 -5.32 9 -6 9 C-4.68775452 5.06326356 -3.08089673 2.77280706 0 0 Z " fill="#DEEEEF" transform="translate(24,44)" />
    <path d="M0 0 C0.66 0 1.32 0 2 0 C2.99 2.97 3.98 5.94 5 9 C2.5 6.75 2.5 6.75 0 4 C0 2.68 0 1.36 0 0 Z " fill="#DEBFBE" transform="translate(213,180)" />
    <path d="M0 0 C0.66 0 1.32 0 2 0 C2 0.66 2 1.32 2 2 C4.475 2.99 4.475 2.99 7 4 C6.67 4.99 6.34 5.98 6 7 C1.125 3.375 1.125 3.375 0 0 Z " fill="#DDCECF" transform="translate(205,174)" />
</svg>