<?xml version="1.0" encoding="UTF-8"?>
<svg version="1.1" xmlns="http://www.w3.org/2000/svg" width="200" height="200" viewBox="0 0 200 200">
    <path d="M0 0 C-0.0625 2.125 -0.0625 2.125 -1 5 C-2.44921875 6.3515625 -2.44921875 6.3515625 -4.25 7.75 C-8.59612138 11.17313065 -10.54336829 15.08673657 -13 20 C-7.72 20 -2.44 20 3 20 C-0.63719605 22.42479736 -2.85703482 22.38662577 -7.1875 22.625 C-8.45980469 22.69976563 -9.73210938 22.77453125 -11.04296875 22.8515625 C-12.01878906 22.90054687 -12.99460937 22.94953125 -14 23 C-14.66 26.96 -15.32 30.92 -16 35 C-9.73 35 -3.46 35 3 35 C3 32.69 3 30.38 3 28 C3.28520405 26.32442621 3.59955696 24.65182755 4 23 C4.33 23 4.66 23 5 23 C5.495 28.445 5.495 28.445 6 34 C9.3 34.33 12.6 34.66 16 35 C16 35.66 16 36.32 16 37 C11.05 37.495 11.05 37.495 6 38 C5.67 41.63 5.34 45.26 5 49 C13.415 48.505 13.415 48.505 22 48 C23.485 42.555 23.485 42.555 25 37 C25.33 37 25.66 37 26 37 C26 40.96 26 44.92 26 49 C28.31 49 30.62 49 33 49 C33.13921875 48.43410156 33.2784375 47.86820313 33.421875 47.28515625 C33.80117604 45.78589199 34.20669061 44.29296687 34.640625 42.80859375 C36.43543232 35.82495244 35.3800748 30.73074916 33 24 C30.69 23.67 28.38 23.34 26 23 C26 26.63 26 30.26 26 34 C25.01 33.505 25.01 33.505 24 33 C23.5859375 30.71484375 23.5859375 30.71484375 23.375 27.9375 C23.30023437 27.01839844 23.22546875 26.09929687 23.1484375 25.15234375 C23.09945312 24.44207031 23.05046875 23.73179688 23 23 C22.35933594 23.02320313 21.71867188 23.04640625 21.05859375 23.0703125 C15.59012904 23.18440863 11.16901723 22.79791904 6 21 C6 20.67 6 20.34 6 20 C10.95 20 15.9 20 21 20 C21.33 18.68 21.66 17.36 22 16 C22.66 16.33 23.32 16.66 24 17 C24 17.99 24 18.98 24 20 C26.31 20 28.62 20 31 20 C30.09066991 18.72390677 29.17217147 17.45434447 28.25 16.1875 C27.73953125 15.47980469 27.2290625 14.77210937 26.703125 14.04296875 C24.97517642 11.97022309 23.21473524 10.52624146 21 9 C21.33 8.01 21.66 7.02 22 6 C27.2936437 7.40125863 29.9767913 10.65959276 33 15 C38.79624626 25.11623676 40.95189471 34.62199577 37.875 46.1875 C34.55408868 55.79661841 27.89429623 64.02305068 19.04296875 69.12890625 C11.20769941 72.66245909 1.0410285 73.63077339 -7.1875 70.9375 C-17.30663686 66.43543079 -24.66069235 58.04892298 -29 48 C-31.5700747 39.07201504 -31.4757643 27.80060349 -27.5 19.375 C-22.30692711 10.5820452 -14.88106397 3.38505883 -4.921875 0.37109375 C-3 0 -3 0 0 0 Z " fill="#E2AD4E" transform="translate(17,16)" />
</svg>