<?xml version="1.0" encoding="UTF-8"?>
<svg version="1.1" xmlns="http://www.w3.org/2000/svg" width="200" height="200" viewBox="0 0 200 200">
    <path d="M0 0 C0.33 0 0.66 0 1 0 C1.33 3.63 1.66 7.26 2 11 C5.3 11.33 8.6 11.66 12 12 C12 12.66 12 13.32 12 14 C8.7 14.33 5.4 14.66 2 15 C1.67 18.63 1.34 22.26 1 26 C0.67 26 0.34 26 0 26 C-0.33 22.04 -0.66 18.08 -1 14 C-7.27 14 -13.54 14 -20 14 C-20 13.67 -20 13.34 -20 13 C-13.65758005 11.84683274 -7.43311296 11.90492937 -1 12 C-1.020625 10.948125 -1.04125 9.89625 -1.0625 8.8125 C-1.01103198 5.67295096 -0.73482813 3.03116604 0 0 Z " fill="#F1BA58" transform="translate(17,16)" />
</svg>