<?xml version="1.0" encoding="UTF-8"?>
<svg version="1.1" xmlns="http://www.w3.org/2000/svg" width="200" height="200" viewBox="0 0 200 200">
    <path d="M0 0 C0.33 0 0.66 0 1 0 C1.09975053 4.94378949 1.17187902 9.88697822 1.21972656 14.83154297 C1.23969699 16.50938131 1.26688332 18.18715136 1.30175781 19.86474609 C1.58551975 33.87757814 0.45152633 43.30613113 -9.625 53.86328125 C-18.18101166 61.56087726 -26.42848415 61 -38 61 C-38 48.13 -38 35.26 -38 22 C-33.38 21.67 -28.76 21.34 -24 21 C-13.80160162 17.71480164 -6.00116851 12.04060962 -1.0625 2.5 C-0.5365625 1.2625 -0.5365625 1.2625 0 0 Z " fill="#E3EFEA" transform="translate(17,16)" />
</svg>