<?xml version="1.0" encoding="UTF-8"?>
<svg version="1.1" xmlns="http://www.w3.org/2000/svg" width="200" height="200" viewBox="0 0 200 200">
    <path d="M0 0 C4.34468141 2.1723407 7.60032162 4.75441518 10 9 C10.80985775 13.85914653 10.65606333 18.41866501 8.4375 22.875 C5.4731077 26.67550295 3.3792507 28.04497737 -1 30 C-2.32 30 -3.64 30 -5 30 C-5.25910156 30.56460938 -5.51820313 31.12921875 -5.78515625 31.7109375 C-7.1250766 34.23567488 -8.68347327 36.3692839 -10.4375 38.625 C-11.33275391 39.78902344 -11.33275391 39.78902344 -12.24609375 40.9765625 C-14.36169649 43.41728013 -15.98297934 44.89819942 -19.26831055 45.22705078 C-20.56442261 45.21134033 -20.56442261 45.21134033 -21.88671875 45.1953125 C-22.82451172 45.18886719 -23.76230469 45.18242188 -24.72851562 45.17578125 C-25.70498047 45.15902344 -26.68144531 45.14226563 -27.6875 45.125 C-28.67556641 45.11597656 -29.66363281 45.10695313 -30.68164062 45.09765625 C-33.12133765 45.0740843 -35.56054697 45.04118022 -38 45 C-37.24044491 40.23162666 -35.75586034 38.24321522 -32.375 34.75 C-31.47652344 33.78707031 -30.57804688 32.82414063 -29.65234375 31.83203125 C-28.77707031 30.89746094 -27.90179687 29.96289062 -27 29 C-21.88829552 23.46765436 -19.49386706 19.89866334 -19.22265625 12.29296875 C-18.77384676 7.67101841 -15.83973734 4.93852997 -12.875 1.625 C-8.61294051 -0.78399014 -4.78421632 -0.76025267 0 0 Z " fill="#EBEBEC" transform="translate(17,16)" />
</svg>