<?xml version="1.0" encoding="UTF-8"?>
<svg version="1.1" xmlns="http://www.w3.org/2000/svg" width="200" height="200" viewBox="0 0 200 200">
    <path d="M0 0 C0.86625 0.350625 1.7325 0.70125 2.625 1.0625 C19.74869168 8.76816126 29.118202 22.95019276 36.10546875 39.640625 C40.61402122 53.10278168 39.19298779 69.98033148 34 83 C32.19521476 86.2858255 30.30992314 89.41685339 28.1953125 92.51171875 C26.72451218 94.84389469 26.72451218 94.84389469 27.57128906 96.78930664 C29.55615425 99.86055651 32.06732056 102.31259384 34.6640625 104.859375 C35.49216934 105.683237 35.49216934 105.683237 36.33700562 106.52374268 C38.09501815 108.27059293 39.8598689 110.01034601 41.625 111.75 C42.8207708 112.93573591 44.01608865 114.1219288 45.2109375 115.30859375 C48.13540253 118.21105085 51.06601874 121.1071641 54 124 C50.37068427 128.32883834 46.65033216 132.46656422 42.625 136.4375 C41.75101563 137.30246094 40.87703125 138.16742187 39.9765625 139.05859375 C39.32429687 139.69925781 38.67203125 140.33992188 38 141 C34.79172126 139.60020819 32.78683875 137.97223067 30.42578125 135.40234375 C29.76191406 134.6868335 29.09804688 133.97132324 28.4140625 133.23413086 C27.72054687 132.47624268 27.02703125 131.71835449 26.3125 130.9375 C24.88257374 129.39484703 23.45159089 127.85317274 22.01953125 126.3125 C20.98626709 125.19875 20.98626709 125.19875 19.93212891 124.0625 C16.3856237 120.27669307 12.71411794 116.621265 9 113 C5.07916779 114.29150012 1.18799669 115.64094403 -2.6875 117.0625 C-15.45717786 121.74294901 -31.32365025 122.16803355 -44.22265625 117.3203125 C-59.86124995 109.88593181 -72.34751066 98.07487636 -79 82 C-84.98980406 63.73234032 -84.8236602 46.86980024 -76.80078125 29.38671875 C-68.69018177 13.78526659 -55.64474931 2.95975245 -39.0637207 -2.65576172 C-26.45921188 -6.18596894 -11.94466908 -5.04330472 0 0 Z " fill="#1C407A" transform="translate(17,16)" />
</svg>