<?xml version="1.0" encoding="UTF-8"?>
<svg version="1.1" xmlns="http://www.w3.org/2000/svg" width="200" height="200" viewBox="0 0 200 200">
    <path d="M0 0 C1.1122998 0.00837891 2.22459961 0.01675781 3.37060547 0.02539062 C14.10454264 0.32176016 21.19370731 2.6163413 28.8125 10.5 C35.06928243 18.60329626 35.06582404 25.51863069 34.75 35.625 C41.68 35.625 48.61 35.625 55.75 35.625 C55.75 64.335 55.75 93.045 55.75 122.625 C48.16 122.625 40.57 122.625 32.75 122.625 C32.56558321 118.17338355 32.4067319 113.73511952 32.31054688 109.28271484 C32.27045508 107.77118946 32.21596095 106.2599717 32.14648438 104.74951172 C31.58107281 92.13584493 31.58107281 92.13584493 34.49609375 88.36816406 C36.65625 86.7890625 36.65625 86.7890625 38.82226562 85.65478516 C41.07798455 84.64493724 41.07798455 84.64493724 42.75 81.625 C43.12032217 78.32729658 43.12032217 78.32729658 43.1640625 74.55078125 C43.18342865 73.8669487 43.2027948 73.18311615 43.2227478 72.4785614 C43.28243997 70.29833375 43.32888631 68.11805298 43.375 65.9375 C43.41318943 64.4576595 43.45224174 62.977841 43.4921875 61.49804688 C43.58813202 57.8738995 43.67220151 54.24958743 43.75 50.625 C41.44 50.625 39.13 50.625 36.75 50.625 C36.75 57.225 36.75 63.825 36.75 70.625 C35.1 70.625 33.45 70.625 31.75 70.625 C31.75 64.025 31.75 57.425 31.75 50.625 C29.44 50.625 27.13 50.625 24.75 50.625 C24.75 57.225 24.75 63.825 24.75 70.625 C23.1 70.625 21.45 70.625 19.75 70.625 C19.75 64.025 19.75 57.425 19.75 50.625 C17.44 50.625 15.13 50.625 12.75 50.625 C12.81921754 54.64573616 12.90734471 58.66558464 13.01245117 62.68554688 C13.04555386 64.0509925 13.07363086 65.41657013 13.09643555 66.78222656 C13.13024991 68.75353224 13.18408286 70.72446191 13.23828125 72.6953125 C13.26446533 73.87883301 13.29064941 75.06235352 13.31762695 76.28173828 C13.80085201 80.01820579 14.74000133 82.44688843 16.75 85.625 C18.51524143 86.77229143 18.51524143 86.77229143 20.41015625 87.48046875 C22.26611328 88.70068359 22.26611328 88.70068359 23.75 90.625 C24.66012953 96.07556868 24.40774126 101.43384295 24.1875 106.9375 C24.15236712 108.45630889 24.12043152 109.97519533 24.09179688 111.49414062 C24.02080765 115.20789123 23.88393841 118.91086657 23.75 122.625 C16.16 122.625 8.57 122.625 0.75 122.625 C0.75 109.425 0.75 96.225 0.75 82.625 C-17.4 82.625 -35.55 82.625 -54.25 82.625 C-54.25 67.115 -54.25 51.605 -54.25 35.625 C-47.32 35.625 -40.39 35.625 -33.25 35.625 C-33.353125 33.52125 -33.45625 31.4175 -33.5625 29.25 C-33.53801538 21.16191323 -31.8673036 15.62794365 -26.41796875 9.59765625 C-18.29894332 2.02310195 -11.01739905 -0.11203576 0 0 Z " fill="#C3DFBF" transform="translate(17,16)" />
</svg>