<?xml version="1.0" encoding="UTF-8"?>
<svg version="1.1" xmlns="http://www.w3.org/2000/svg" width="200" height="200" viewBox="0 0 200 200">
    <path d="M0 0 C3.29148243 1.13499394 3.9959869 1.99283376 5.75 5.125 C6.1625 6.07375 6.575 7.0225 7 8 C7.61488281 7.89300781 8.22976562 7.78601563 8.86328125 7.67578125 C10.07564453 7.49595703 10.07564453 7.49595703 11.3125 7.3125 C12.11300781 7.18488281 12.91351563 7.05726563 13.73828125 6.92578125 C16 7 16 7 17.78125 8.1484375 C19.41794861 10.63496038 19.23245565 12.35768783 19.1875 15.3125 C19.38120465 18.78995971 19.49056876 20.42987057 21.8359375 23.0546875 C23.83601114 24.52140817 25.81863287 25.82235989 28 27 C25.42215154 29.64752004 23.08351902 31.94432065 20 34 C19.35065469 36.05629457 19.35065469 36.05629457 19.0625 38.375 C18.30716852 42.3840671 17.33548229 44.44279691 14 47 C11.4338007 45.9002003 10.11820761 45.16076235 8.4375 42.875 C4.94965943 40.19204571 2.02012142 40.33391209 -2.29296875 40.4609375 C-6.69499906 41.33753228 -8.31185676 43.51267904 -11 47 C-14.53988141 45.82003953 -15.191612 45.20577872 -17 42 C-17.13929413 40.66987759 -17.24038071 39.33545022 -17.3125 38 C-17.42835486 35.90628791 -17.42835486 35.90628791 -18 34 C-20.86875539 31.6984961 -20.86875539 31.6984961 -24 30 C-25.375 27.75 -25.375 27.75 -26 26 C-20.25 21 -20.25 21 -18 21 C-18.03480469 20.24074219 -18.06960937 19.48148438 -18.10546875 18.69921875 C-18.13253906 17.70535156 -18.15960938 16.71148438 -18.1875 15.6875 C-18.22230469 14.70136719 -18.25710937 13.71523438 -18.29296875 12.69921875 C-18 10 -18 10 -16.8125 8.15625 C-14.36826798 6.59699854 -12.68735627 6.70049261 -9.8125 6.8125 C-8.46091797 6.85310547 -8.46091797 6.85310547 -7.08203125 6.89453125 C-6.39496094 6.92933594 -5.70789063 6.96414063 -5 7 C-4.70351562 6.37609375 -4.40703125 5.7521875 -4.1015625 5.109375 C-2.98017074 2.96202908 -1.78094582 1.61904165 0 0 Z " fill="#E7E6E7" transform="translate(17,16)" />
</svg>