<?xml version="1.0" encoding="UTF-8"?>
<svg version="1.1" xmlns="http://www.w3.org/2000/svg" width="200" height="200" viewBox="0 0 200 200">
    <path d="M0 0 C20.46 0 40.92 0 62 0 C62.4021875 14.293125 62.4021875 14.293125 62.8125 28.875 C62.93085205 31.8641748 63.0492041 34.85334961 63.17114258 37.93310547 C63.63696093 57.89644236 63.63696093 57.89644236 59.3515625 62.89453125 C56.21985588 65.63497696 52.76745089 67.27673254 49 69 C47.45858786 70.06957635 45.94073532 71.1748066 44.4609375 72.328125 C43.10028223 73.30393202 41.73829776 74.27788822 40.375 75.25 C33.90440084 79.89342554 27.46918799 84.58127033 21.0625 89.3125 C19.87043945 90.19204346 19.87043945 90.19204346 18.65429688 91.08935547 C15.80784948 93.18959463 12.96158749 95.2900848 10.11572266 97.39111328 C8.53730629 98.5548875 6.95628104 99.71512115 5.375 100.875 C4.53710938 101.49117187 3.69921875 102.10734375 2.8359375 102.7421875 C1 104 1 104 0 104 C0 69.68 0 35.36 0 0 Z " fill="#EB6104" transform="translate(17,16)" />
</svg>