<?xml version="1.0" encoding="UTF-8"?>
<svg version="1.1" xmlns="http://www.w3.org/2000/svg" width="200" height="200" viewBox="0 0 200 200">
    <path d="M0 0 C53.79 0 107.58 0 163 0 C163 55.11 163 110.22 163 167 C109.21 167 55.42 167 0 167 C0 111.89 0 56.78 0 0 Z " fill="#DFDEDD" transform="translate(134,182)" />
    <path d="M0 0 C20.46 0 40.92 0 62 0 C62.4021875 14.293125 62.4021875 14.293125 62.8125 28.875 C62.93085205 31.8641748 63.0492041 34.85334961 63.17114258 37.93310547 C63.63696093 57.89644236 63.63696093 57.89644236 59.3515625 62.89453125 C56.21985588 65.63497696 52.76745089 67.27673254 49 69 C47.45858786 70.06957635 45.94073532 71.1748066 44.4609375 72.328125 C43.10028223 73.30393202 41.73829776 74.27788822 40.375 75.25 C33.90440084 79.89342554 27.46918799 84.58127033 21.0625 89.3125 C19.87043945 90.19204346 19.87043945 90.19204346 18.65429688 91.08935547 C15.80784948 93.18959463 12.96158749 95.2900848 10.11572266 97.39111328 C8.53730629 98.5548875 6.95628104 99.71512115 5.375 100.875 C4.53710938 101.49117187 3.69921875 102.10734375 2.8359375 102.7421875 C1 104 1 104 0 104 C0 69.68 0 35.36 0 0 Z " fill="#EB6104" transform="translate(160,210)" />
    <path d="M0 0 C5.80333105 4.81883739 5.80333105 4.81883739 6.25 9.06640625 C-0.18150615 19.95049358 -15.50185009 25.43452088 -27.1171875 28.63671875 C-34.3507182 30.40518524 -41.39020476 30.64313312 -48.8125 30.62890625 C-49.48987213 30.62875519 -50.16724426 30.62860413 -50.86514282 30.62844849 C-71.27490848 30.5392363 -88.85390072 24.48057291 -103.75 10.06640625 C-102.78702504 4.48608982 -99.01829854 1.49595617 -94.75 -1.93359375 C-66.70223725 -20.04162304 -27.3995183 -19.26528631 0 0 Z " fill="#033C9C" transform="translate(84.75,40.93359375)" />
    <path d="M0 0 C12.87 0 25.74 0 39 0 C39.66 3.63 40.32 7.26 41 11 C43.93486228 18.33715569 47.10365108 21.62830935 53.875 25.75 C57.69098016 27.42946336 57.69098016 27.42946336 65 28 C65 41.2 65 54.4 65 68 C57.58646751 68 52.45353503 67.76907697 45.6875 65.5625 C44.86789795 65.29808105 44.0482959 65.03366211 43.20385742 64.76123047 C26.4089793 58.97488425 14.66272619 46.76571115 6.55859375 31.23828125 C1.46252139 20.57455969 0 12.13784525 0 0 Z " fill="#F7D4D5" transform="translate(147,47)" />
    <path d="M0 0 C7.92 0 15.84 0 24 0 C24 14.85 24 29.7 24 45 C31.26 45 38.52 45 46 45 C46 49.62 46 54.24 46 59 C30.82 59 15.64 59 0 59 C0 39.53 0 20.06 0 0 Z " fill="#F8E5E6" transform="translate(44,205)" />
    <path d="M0 0 C12.87 0 25.74 0 39 0 C39.495 5.445 39.495 5.445 40 11 C39.01 11 38.02 11 37 11 C37.33 7.7 37.66 4.4 38 1 C25.79 1 13.58 1 1 1 C1 4.63 1 8.26 1 12 C0.67 12 0.34 12 0 12 C0 8.04 0 4.08 0 0 Z " fill="#ECB9BE" transform="translate(147,47)" />
    <path d="M0 0 C9.57 0.33 19.14 0.66 29 1 C29 1.33 29 1.66 29 2 C19.43 2.33 9.86 2.66 0 3 C0 2.01 0 1.02 0 0 Z " fill="#A88F3D" transform="translate(17,25)" />
    <path d="M0 0 C0.804375 0.66 1.60875 1.32 2.4375 2 C4.58961915 4.10254514 4.58961915 4.10254514 6 4 C6 7.96 6 11.92 6 16 C4.65033011 13.30066021 3.48241697 10.80103397 2.4375 8 C2.18871094 7.34 1.93992187 6.68 1.68359375 6 C1.00595724 4.01742919 0.47789706 2.03902746 0 0 Z " fill="#164894" transform="translate(102,25)" />
    <path d="M0 0 C1.7290774 -0.02725341 3.45828176 -0.04650987 5.1875 -0.0625 C6.15042969 -0.07410156 7.11335938 -0.08570313 8.10546875 -0.09765625 C10.85576513 -0.00486622 13.32479591 0.37888315 16 1 C16 1.33 16 1.66 16 2 C7.585 2.495 7.585 2.495 -1 3 C-0.67 2.01 -0.34 1.02 0 0 Z " fill="#164488" transform="translate(21,68)" />
    <path d="M0 0 C-2.93828597 2.50298434 -5.17902761 3.46930939 -9 4 C-9 3.34 -9 2.68 -9 2 C-11.31 2 -13.62 2 -16 2 C-16 1.67 -16 1.34 -16 1 C-10.59255982 0.22750855 -5.46137814 -0.09752461 0 0 Z " fill="#385676" transform="translate(54,101)" />
    <path d="M0 0 C0 0.66 0 1.32 0 2 C-4.625 4.125 -4.625 4.125 -8 3 C-8 2.34 -8 1.68 -8 1 C-4.93251126 -0.86240388 -3.40254489 -1.2151946 0 0 Z " fill="#0C4094" transform="translate(77,60)" />
    <path d="M0 0 C2.4375 0.375 2.4375 0.375 5 1 C5.33 1.66 5.66 2.32 6 3 C6.99 3 7.98 3 9 3 C9 3.99 9 4.98 9 6 C8.01 6.33 7.02 6.66 6 7 C4.02 4.69 2.04 2.38 0 0 Z " fill="#0D3E8B" transform="translate(92,16)" />
    <path d="M0 0 C0.66 0.33 1.32 0.66 2 1 C-0.55068845 3.35448165 -1.71017358 3.98327924 -5.25 4.1875 C-6.1575 4.125625 -7.065 4.06375 -8 4 C-5.31143836 2.20762558 -3.0466145 1.01553817 0 0 Z " fill="#244D8C" transform="translate(71,95)" />
</svg>