<?xml version="1.0" encoding="UTF-8"?>
<svg version="1.1" xmlns="http://www.w3.org/2000/svg" width="200" height="200" viewBox="0 0 200 200">
    <path d="M0 0 C54.45 0 108.9 0 165 0 C165 55.44 165 110.88 165 168 C143.034375 168.309375 143.034375 168.309375 120.625 168.625 C116.01740723 168.71604004 111.40981445 168.80708008 106.66259766 168.90087891 C100.99487305 168.94604492 100.99487305 168.94604492 98.33358765 168.95443726 C96.49211397 168.96969954 94.65073447 169.0046789 92.80990601 169.05575562 C76.44801821 169.48667386 76.44801821 169.48667386 71.63096619 165.82188416 C69.14220056 163.34080587 67.0858288 160.81972024 65 158 C63.77946341 156.87542843 62.53103976 155.77902437 61.23828125 154.73828125 C54.86486956 149.27467047 49.08611557 143.1519256 43.1875 137.1875 C40.76721438 134.74060043 38.34361194 132.29705603 35.91796875 129.85546875 C35.367957 129.29715866 34.81794525 128.73884857 34.25126648 128.16362 C31.92608872 125.82351434 29.75548019 123.83698679 27 122 C27 121.34 27 120.68 27 120 C26.43087891 119.75757568 25.86175781 119.51515137 25.27539062 119.26538086 C22.56659624 117.75897729 20.76080365 115.96963942 18.59375 113.75390625 C17.35431641 112.49803711 17.35431641 112.49803711 16.08984375 111.21679688 C14.80787109 109.90291992 14.80787109 109.90291992 13.5 108.5625 C11.80439387 106.83236796 10.10655993 105.10441578 8.40625 103.37890625 C7.65666016 102.6113501 6.90707031 101.84379395 6.13476562 101.05297852 C4.15827169 98.94929222 4.15827169 98.94929222 1.8949585 97.9437561 C-0.74661453 95.23415919 -0.47266303 93.22324596 -0.497715 89.53955555 C-0.48332256 88.65098708 -0.46893013 87.76241861 -0.45410156 86.84692383 C-0.4545837 85.8949924 -0.45506584 84.94306097 -0.45556259 83.96228313 C-0.4525738 80.87682057 -0.42209966 77.79232119 -0.390625 74.70703125 C-0.38474484 72.80383774 -0.38066353 70.90063779 -0.37841797 68.99743652 C-0.35743505 61.93569245 -0.30159025 54.8740868 -0.25 47.8125 C-0.1675 32.034375 -0.085 16.25625 0 0 Z " fill="#EFEDE8" transform="translate(17,16)" />
</svg>