<?xml version="1.0" encoding="UTF-8"?>
<svg version="1.1" xmlns="http://www.w3.org/2000/svg" width="200" height="200" viewBox="0 0 200 200">
    <path d="M0 0 C0 6.93 0 13.86 0 21 C0.66 21 1.32 21 2 21 C2.495 19.515 2.495 19.515 3 18 C4.671875 16.6484375 4.671875 16.6484375 6.75 15.375 C7.42546875 14.94960938 8.1009375 14.52421875 8.796875 14.0859375 C12.76456515 12.13023207 16.70994094 11.87552111 21.08203125 11.90234375 C22.01337891 11.90556641 22.94472656 11.90878906 23.90429688 11.91210938 C24.86400391 11.92048828 25.82371094 11.92886719 26.8125 11.9375 C27.79154297 11.94201172 28.77058594 11.94652344 29.77929688 11.95117188 C32.18626111 11.96291316 34.59309857 11.97933581 37 12 C37.21596885 19.6809792 35.87816258 25.36775883 31.046875 31.46484375 C21.41117086 41.58907135 11.19977058 45.08950408 -2.5 45.625 C-3.32242188 45.66367187 -4.14484375 45.70234375 -4.9921875 45.7421875 C-6.9944701 45.83531692 -8.99720262 45.91868985 -11 46 C-10.17085083 46.46768799 -10.17085083 46.46768799 -9.32495117 46.94482422 C-4.37336677 49.7829804 0.08527395 52.98747804 3 58 C3.36458653 59.99453949 3.70083199 61.99460487 4 64 C5.82204956 63.9685791 5.82204956 63.9685791 7.6809082 63.93652344 C12.23384582 63.8635357 16.78673287 63.81798863 21.34008789 63.78027344 C23.30209074 63.76029082 25.26403505 63.73309516 27.22583008 63.69824219 C40.628977 63.4662712 51.86997759 63.51998292 63 72 C63.80566406 72.59554687 64.61132812 73.19109375 65.44140625 73.8046875 C73.26319632 80.51590279 77.54834101 91.19336404 80 101 C80 114.86 80 128.72 80 143 C46.67 143 13.34 143 -21 143 C-19.69071497 140.38142995 -18.63697266 140.33579924 -15.9375 139.3125 C-6.63741181 135.27605473 -1.78222522 129.28511941 2 120 C3.23180134 116.30459598 3.12412112 112.89696622 3.09765625 109.05078125 C3.0962413 108.27816452 3.09482635 107.50554779 3.09336853 106.70951843 C3.08777466 104.24380611 3.07522333 101.77818485 3.0625 99.3125 C3.05748421 97.63997527 3.05292144 95.96744912 3.04882812 94.29492188 C3.03780724 90.19657954 3.02054684 86.09830521 3 82 C2.62343262 82.80099121 2.62343262 82.80099121 2.23925781 83.61816406 C-1.85485339 92.10350858 -7.07553953 97.57742341 -16 101 C-24.2189292 103.34208096 -36.55638198 103.98730117 -44.25 100 C-46.21484375 98.6015625 -46.21484375 98.6015625 -48 97 C-48.96099609 96.14535156 -48.96099609 96.14535156 -49.94140625 95.2734375 C-56.29018517 88.83187893 -59.09840619 81.01459471 -59.625 72.0625 C-59.30877953 64.2079916 -56.31478957 57.38569416 -50.80859375 51.76171875 C-43.99834144 46.19597955 -38.58715242 44.92089624 -30 45 C-30.06960937 43.91203125 -30.13921875 42.8240625 -30.2109375 41.703125 C-30.6956152 30.86958933 -29.65866322 22.61487251 -22.3125 14.02734375 C-17.62801772 9.59525814 -6.61204227 0 0 0 Z " fill="#167B54" transform="translate(17,16)" />
</svg>