<?xml version="1.0" encoding="UTF-8"?>
<svg version="1.1" xmlns="http://www.w3.org/2000/svg" width="200" height="200" viewBox="0 0 200 200">
    <path d="M0 0 C2 2 2 2 2.75 4.5625 C7.64045968 18.01126412 19.80727459 27.53446797 32.37109375 33.51953125 C57.41148352 43.73514775 84.4219238 45.77979148 111 41 C111.99128906 40.82855469 112.98257813 40.65710938 114.00390625 40.48046875 C126.80329563 37.78127779 140.40607587 31.99430387 150 23 C150.928125 22.20529297 150.928125 22.20529297 151.875 21.39453125 C157.01367217 16.73207224 159.94959657 11.16691467 163 5 C163.66 3.68 164.32 2.36 165 1 C165 25.42 165 49.84 165 75 C110.55 75 56.1 75 0 75 C0 50.25 0 25.5 0 0 Z " fill="#023A99" transform="translate(17,16)" />
</svg>