<?xml version="1.0" encoding="UTF-8"?>
<svg version="1.1" xmlns="http://www.w3.org/2000/svg" width="200" height="200" viewBox="0 0 200 200">
    <path d="M0 0 C6.18437504 1.63704045 9.09393724 6.15587494 12.4921875 11.2265625 C17.30930887 19.58168261 16.99061318 28.07140523 15 37.3125 C14.67 38.529375 14.34 39.74625 14 41 C13.67 41 13.34 41 13 41 C13.10699219 40.26136719 13.21398437 39.52273438 13.32421875 38.76171875 C14.22480788 31.14060426 13.52094796 25.23526308 11 18 C8.69 17.67 6.38 17.34 4 17 C4 20.63 4 24.26 4 28 C3.34 27.67 2.68 27.34 2 27 C1.5859375 24.71484375 1.5859375 24.71484375 1.375 21.9375 C1.30023437 21.01839844 1.22546875 20.09929687 1.1484375 19.15234375 C1.09945312 18.44207031 1.05046875 17.73179688 1 17 C0.35933594 17.02320313 -0.28132812 17.04640625 -0.94140625 17.0703125 C-6.40987096 17.18440863 -10.83098277 16.79791904 -16 15 C-16 14.67 -16 14.34 -16 14 C-11.05 14 -6.1 14 -1 14 C-0.67 12.68 -0.34 11.36 0 10 C0.66 10.33 1.32 10.66 2 11 C2 11.99 2 12.98 2 14 C4.31 14 6.62 14 9 14 C8.09066991 12.72390677 7.17217147 11.45434447 6.25 10.1875 C5.73953125 9.47980469 5.2290625 8.77210937 4.703125 8.04296875 C2.97517642 5.97022309 1.21473524 4.52624146 -1 3 C-0.67 2.01 -0.34 1.02 0 0 Z " fill="#DAAD5C" transform="translate(17,16)" />
</svg>