<?xml version="1.0" encoding="UTF-8"?>
<svg version="1.1" xmlns="http://www.w3.org/2000/svg" width="200" height="200" viewBox="0 0 200 200">
    <path d="M0 0 C0.33 0 0.66 0 1 0 C1 11.88 1 23.76 1 36 C6.28 36 11.56 36 17 36 C27.83663118 38.40814026 33.76317575 42.86980367 40 52 C42 56 42 56 42 69 C52.89 69 63.78 69 75 69 C75 55.47 75 41.94 75 28 C75.33 28 75.66 28 76 28 C76 41.86 76 55.72 76 70 C42.67 70 9.34 70 -25 70 C-23.69071497 67.38142995 -22.63697266 67.33579924 -19.9375 66.3125 C-10.63741181 62.27605473 -5.78222522 56.28511941 -2 47 C-0.67549404 43.02648213 -0.89694091 39.23707113 -0.9375 35.09765625 C-0.94128662 34.22354599 -0.94507324 33.34943573 -0.94897461 32.44883728 C-0.96533092 28.70810256 -0.99345518 24.96747684 -1.02050781 21.22680664 C-1.03858302 18.49626164 -1.05068414 15.76573435 -1.0625 13.03515625 C-1.07079834 12.19026138 -1.07909668 11.34536652 -1.08764648 10.47486877 C-1.09260132 9.28860146 -1.09260132 9.28860146 -1.09765625 8.07836914 C-1.10551147 7.03937218 -1.10551147 7.03937218 -1.11352539 5.97938538 C-0.99309917 3.87967974 -0.57165839 2.01986083 0 0 Z " fill="#5EA889" transform="translate(17,16)" />
</svg>