<?xml version="1.0" encoding="UTF-8"?>
<svg version="1.1" xmlns="http://www.w3.org/2000/svg" width="200" height="200" viewBox="0 0 200 200">
    <path d="M0 0 C3.79048927 1.26249603 6.02694541 3.67830065 8.73217773 6.49072266 C9.28000412 7.04420883 9.82783051 7.59769501 10.39225769 8.16795349 C12.13369401 9.93171651 13.86068008 11.70889427 15.58764648 13.48681641 C16.76835945 14.68759906 17.94999032 15.88747988 19.13256836 17.08642578 C22.02416918 20.0220447 24.9028918 22.96977123 27.77514648 25.92431641 C24.14583075 30.25315475 20.42547865 34.39088062 16.40014648 38.36181641 C15.52616211 39.22677734 14.65217773 40.09173828 13.75170898 40.98291016 C13.09944336 41.62357422 12.44717773 42.26423828 11.77514648 42.92431641 C8.54998985 41.51941191 6.53960566 39.87306455 4.16577148 37.29150391 C3.49288086 36.56705078 2.81999023 35.84259766 2.12670898 35.09619141 C1.43319336 34.33822266 0.73967773 33.58025391 0.02514648 32.79931641 C-1.34334781 31.3163473 -2.71313807 29.83457306 -4.08422852 28.35400391 C-4.75905273 27.6227832 -5.43387695 26.8915625 -6.12915039 26.13818359 C-8.92167367 23.18820676 -11.8302149 20.36559267 -14.76489258 17.55761719 C-16.22485352 15.92431641 -16.22485352 15.92431641 -16.22485352 13.92431641 C-15.56485352 13.92431641 -14.90485352 13.92431641 -14.22485352 13.92431641 C-14.13977539 13.33779297 -14.05469727 12.75126953 -13.96704102 12.14697266 C-13.0148383 9.2953761 -11.66136463 8.25420737 -9.34985352 6.36181641 C-6.38246399 3.93679562 -6.38246399 3.93679562 -3.77954102 1.14697266 C-2.22485352 -0.07568359 -2.22485352 -0.07568359 0 0 Z " fill="#153159" transform="translate(17,16)" />
</svg>