<?xml version="1.0" encoding="UTF-8"?>
<svg version="1.1" xmlns="http://www.w3.org/2000/svg" width="200" height="200" viewBox="0 0 200 200">
    <path d="M0 0 C54.45 0 108.9 0 165 0 C165 55.11 165 110.22 165 167 C155.43 167 145.86 167 136 167 C139.62387 162.77215167 143.04226706 158.84132903 147 155 C144.28222647 148.88500955 141.0484598 145.760944 135 143 C132.5542355 142.0704 130.09530373 141.17477583 127.625 140.3125 C126.37976563 139.87550781 125.13453125 139.43851563 123.8515625 138.98828125 C122.91054688 138.66214844 121.96953125 138.33601563 121 138 C121 137.34 121 136.68 121 136 C122.0621875 135.6596875 123.124375 135.319375 124.21875 134.96875 C132.9076986 132.04708461 139.18558245 129.36241183 145 122 C145.78117188 121.07058594 146.56234375 120.14117188 147.3671875 119.18359375 C150.68966513 115.19768209 153.88635357 111.15152858 157 107 C138.19 107 119.38 107 100 107 C101.71508465 102.71228837 103.61660595 98.6177545 105.6875 94.5 C106.00138672 93.86835937 106.31527344 93.23671875 106.63867188 92.5859375 C106.96802734 91.92851563 107.29738281 91.27109375 107.63671875 90.59375 C108.16809448 89.51613403 108.16809448 89.51613403 108.71020508 88.41674805 C110 86 110 86 111.7800293 83.24926758 C117.79148108 73.52324695 118.19385363 64.88115562 118.4375 53.6875 C118.49898682 51.96408432 118.56342085 50.24077117 118.63085938 48.51757812 C118.78783369 44.34545237 118.90512954 40.17398065 119 36 C117.58034888 36.77165244 116.16279016 37.54715499 114.74609375 38.32421875 C113.9564624 38.75565186 113.16683105 39.18708496 112.35327148 39.6315918 C110.1461931 40.9149899 108.11496075 42.29728759 106.0625 43.8125 C103 46 103 46 101 46 C100.62190186 45.29915283 100.24380371 44.59830566 99.85424805 43.8762207 C98.13319413 40.68766688 96.41036529 37.50007542 94.6875 34.3125 C94.09259766 33.20970703 93.49769531 32.10691406 92.88476562 30.97070312 C92.01948242 29.3706543 92.01948242 29.3706543 91.13671875 27.73828125 C90.60780029 26.75899658 90.07888184 25.77971191 89.53393555 24.77075195 C88.50355393 22.90957083 87.42551474 21.0740591 86.30395508 19.26635742 C85 17 85 17 85 15 C84.34 15 83.68 15 83 15 C82.73429199 15.86963379 82.46858398 16.73926758 82.19482422 17.63525391 C80.20009161 23.25262309 77.10137123 28.22848436 74.125 33.375 C73.49980469 34.49261719 72.87460937 35.61023437 72.23046875 36.76171875 C71.62074219 37.81746094 71.01101563 38.87320312 70.3828125 39.9609375 C69.82996582 40.92821777 69.27711914 41.89549805 68.70751953 42.89208984 C68.14403809 43.5877002 67.58055664 44.28331055 67 45 C62.99199085 45 62.25418492 44.84140963 59.109375 42.8125 C58.40039062 42.36132812 57.69140625 41.91015625 56.9609375 41.4453125 C56.23132813 40.96835938 55.50171875 40.49140625 54.75 40 C53.63238281 39.28457031 53.63238281 39.28457031 52.4921875 38.5546875 C50.65613272 37.37772931 48.8258505 36.1927029 47 35 C47.23522368 39.9799329 47.51847123 44.95423983 47.84228516 49.92919922 C47.94562674 51.6136991 48.03689592 53.29899297 48.11474609 54.98486328 C48.65479945 66.44903389 50.6594408 75.00149886 56.41796875 84.99023438 C56.94003906 85.98345703 57.46210938 86.97667969 58 88 C57.67 88.66 57.34 89.32 57 90 C55.22688737 88.08539961 53.45646638 86.16842507 51.6875 84.25 C51.18798828 83.71117187 50.68847656 83.17234375 50.17382812 82.6171875 C49.68720703 82.08867188 49.20058594 81.56015625 48.69921875 81.015625 C48.25408936 80.53383789 47.80895996 80.05205078 47.3503418 79.55566406 C46 78 46 78 44.75976562 75.8359375 C43.05865677 73.68522154 43.05865677 73.68522154 39.90551758 73.54589844 C38.66439209 73.5668457 37.4232666 73.58779297 36.14453125 73.609375 C35.48289474 73.61503479 34.82125824 73.62069458 34.13957214 73.62652588 C32.02980668 73.64888753 29.92175048 73.69907629 27.8125 73.75 C26.38088394 73.7700656 24.9492412 73.78831628 23.51757812 73.8046875 C20.01116485 73.84874931 16.50574928 73.91777223 13 74 C13.41886475 74.57967529 13.83772949 75.15935059 14.26928711 75.7565918 C16.16753127 78.39399395 18.05258418 81.04055796 19.9375 83.6875 C20.59685547 84.59951172 21.25621094 85.51152344 21.93554688 86.45117188 C22.56396484 87.33740234 23.19238281 88.22363281 23.83984375 89.13671875 C24.71177368 90.35427856 24.71177368 90.35427856 25.60131836 91.59643555 C27.062999 94.10826063 27.60580066 96.13815732 28 99 C27.32453125 99.25394531 26.6490625 99.50789063 25.953125 99.76953125 C25.06109375 100.11371094 24.1690625 100.45789062 23.25 100.8125 C22.36828125 101.14894531 21.4865625 101.48539063 20.578125 101.83203125 C18.06960192 102.96846822 16.12720995 104.26542927 14 106 C15.33999498 109.006818 16.79845291 110.99762609 19.1875 113.25 C21.69523724 115.68033794 24.04696237 118.15505658 26.3125 120.8125 C34.11059672 130.95820353 34.11059672 130.95820353 44.9172821 136.15821838 C45.63898087 136.17376266 46.36067963 136.18930695 47.10424805 136.20532227 C47.92487228 136.22526749 48.74549652 136.24521271 49.59098816 136.26576233 C50.47232925 136.28247482 51.35367035 136.29918732 52.26171875 136.31640625 C53.62040825 136.3475779 53.62040825 136.3475779 55.00654602 136.37937927 C57.90012016 136.44476558 60.79378507 136.50370904 63.6875 136.5625 C65.64909793 136.6056956 67.61068668 136.64931023 69.57226562 136.69335938 C74.38141874 136.80122443 79.19064073 136.90037907 84 137 C84 146.9 84 156.8 84 167 C56.28 167 28.56 167 0 167 C0 111.89 0 56.78 0 0 Z " fill="#DCDADA" transform="translate(17,16)" />
</svg>