<?xml version="1.0" encoding="UTF-8"?>
<svg version="1.1" xmlns="http://www.w3.org/2000/svg" width="200" height="200" viewBox="0 0 200 200">
    <path d="M0 0 C53.46 0 106.92 0 162 0 C162 55.11 162 110.22 162 167 C108.54 167 55.08 167 0 167 C0 111.89 0 56.78 0 0 Z " fill="#E5E4E4" transform="translate(119,181)" />
    <path d="M0 0 C1.76157944 -0.00929787 1.76157944 -0.00929787 3.55874634 -0.01878357 C6.02776263 -0.02584563 8.4968269 -0.02277151 10.96582031 -0.01000977 C14.70989083 0.00384456 18.45145261 -0.03026206 22.1953125 -0.06835938 C38.10743395 -0.12046824 50.60582332 0.48040833 63.1328125 11.33984375 C71.46431149 19.700679 76.40670475 29.46025665 76.9140625 41.31640625 C76.48590571 53.91250284 72.23728038 64.55944076 63.3515625 73.56640625 C61.409676 75.3728123 59.47662848 76.97260676 57.3515625 78.56640625 C58.80667349 83.93526403 61.35479371 87.92926984 64.4765625 92.44140625 C65.17845703 93.47394531 65.17845703 93.47394531 65.89453125 94.52734375 C67.04057947 96.21133297 68.19520729 97.88947785 69.3515625 99.56640625 C69.0215625 100.22640625 68.6915625 100.88640625 68.3515625 101.56640625 C67.80218018 101.21860107 67.25279785 100.8707959 66.68676758 100.51245117 C64.17957994 98.92566705 61.67182669 97.33977901 59.1640625 95.75390625 C58.29974609 95.20669922 57.43542969 94.65949219 56.54492188 94.09570312 C55.70380859 93.56396484 54.86269531 93.03222656 53.99609375 92.484375 C53.22628174 91.99735107 52.45646973 91.51032715 51.66333008 91.00854492 C50.90044678 90.53263916 50.13756348 90.0567334 49.3515625 89.56640625 C48.21275887 88.79021187 48.21275887 88.79021187 47.0509491 87.99833679 C44.02167396 86.39141187 42.25207277 86.199049 38.84960938 86.21337891 C37.77078491 86.20972321 36.69196045 86.2060675 35.58044434 86.20230103 C33.84292908 86.21624405 33.84292908 86.21624405 32.0703125 86.23046875 C29.59374742 86.21794726 27.11718492 86.20490974 24.640625 86.19140625 C20.75478867 86.18749204 16.86920979 86.19133942 12.98339844 86.20605469 C9.22032186 86.21469661 5.45829679 86.19281157 1.6953125 86.16796875 C-0.01791199 86.18798447 -0.01791199 86.18798447 -1.76574707 86.20840454 C-14.70757026 86.09165095 -25.38575125 81.60078686 -34.6484375 72.56640625 C-44.04640598 62.55395521 -47.08697767 51.4735777 -46.91796875 37.9375 C-46.04269652 26.99025459 -40.11868569 17.50620613 -32.0703125 10.23828125 C-22.10948602 2.55421511 -12.46098402 -0.05590659 0 0 Z " fill="#1E1D1D" transform="translate(182.6484375,218.43359375)" />
    <path d="M0 0 C33.66 0 67.32 0 102 0 C100.65613081 6.71934597 99.20992104 12.88165577 97.0625 19.3125 C94.91489753 25.9048691 93.10443364 32.45540054 91.640625 39.23828125 C91.07583802 41.67306414 90.39285116 43.95836612 89.5625 46.3125 C88.16781961 50.27367987 87.16640452 54.29590089 86.1875 58.375 C84.63985101 64.6945667 82.93611566 70.95654076 81.0625 77.1875 C80.83393311 77.98913574 80.60536621 78.79077148 80.36987305 79.61669922 C78.58641247 85.39960235 76.21240449 88.93354097 70.99609375 92.2890625 C67.07635467 93.68513395 63.08655828 93.54310823 59 93 C55.49747989 90.95686327 53.22638298 88.90212767 52 85 C52 82.69 52 80.38 52 78 C44.74 78 37.48 78 30 78 C30 80.31 30 82.62 30 85 C27.87223102 89.02756271 26.21747142 91.31453674 22 93 C17.03560262 93.86481964 12.32985891 93.83385637 8.0625 90.9375 C-2.34370349 80.60475206 0.41155793 49.81708971 0 37 C0 24.79 0 12.58 0 0 Z " fill="#D31F30" transform="translate(162,16)" />
    <path d="M0 0 C16.17 0 32.34 0 49 0 C49 34.32 49 68.64 49 104 C46.69 102.02 44.38 100.04 42 98 C41.28972656 97.39414062 40.57945312 96.78828125 39.84765625 96.1640625 C35.70969231 92.59653998 31.82848892 88.85700337 27.99609375 84.96484375 C26.07892823 83.07769256 24.10424678 81.31314625 22.0625 79.5625 C19.04925207 76.97465178 16.22723019 74.26505704 13.4375 71.4375 C8.91973638 66.86511748 4.35585627 62.57057085 -1 59 C-1.32279968 56.5196228 -1.32279968 56.5196228 -1.2487793 53.35693359 C-1.22853195 52.17586029 -1.20828461 50.99478699 -1.18742371 49.77792358 C-1.13138725 47.85757797 -1.13138725 47.85757797 -1.07421875 45.8984375 C-1.04777786 44.59170074 -1.02133698 43.28496399 -0.99409485 41.93862915 C-0.92359384 38.46285138 -0.83488457 34.98776612 -0.74243164 31.51251221 C-0.65131379 27.96691433 -0.57718011 24.42096477 -0.50195312 20.875 C-0.35306511 13.91601514 -0.17576415 6.95856633 0 0 Z " fill="#BDBCBC" transform="translate(17,209)" />
    <path d="M0 0 C27.72 0 55.44 0 84 0 C82.68964896 7.2069307 81.34972258 13.94233856 79.1875 20.875 C78.95224609 21.6896875 78.71699219 22.504375 78.47460938 23.34375 C76.64594554 29.23771114 74.32031275 32.8641263 68.99609375 36.2890625 C65.07635467 37.68513395 61.08655828 37.54310823 57 37 C53.49747989 34.95686327 51.22638298 32.90212767 50 29 C50 26.69 50 24.38 50 22 C42.74 22 35.48 22 28 22 C28 24.31 28 26.62 28 29 C25.87223102 33.02756271 24.21747142 35.31453674 20 37 C15.03560262 37.86481964 10.32985891 37.83385637 6.0625 34.9375 C-2.15611004 26.66073941 0 9.92636558 0 0 Z " fill="#192840" transform="translate(164,72)" />
    <path d="M0 0 C5.69829477 4.4373955 9.3545007 10.7431033 10.33203125 17.95703125 C10.76559805 26.90427343 8.01882935 34.20921007 2.01953125 40.921875 C-4.71140955 47.07806753 -10.41082466 48.20615382 -19.4609375 48.0546875 C-26.22510112 47.33317671 -30.76445822 44.24518132 -35.3515625 39.3671875 C-41.3709231 31.54201872 -42.00847986 23.39785433 -40.9765625 13.6796875 C-40.0545464 10.64885508 -38.7910961 8.26287769 -36.9765625 5.6796875 C-36.3990625 4.7928125 -35.8215625 3.9059375 -35.2265625 2.9921875 C-25.07051872 -7.44596861 -11.86908711 -7.92836253 0 0 Z " fill="#0E0C0D" transform="translate(21.9765625,26.3203125)" />
    <path d="M0 0 C13.2 0 26.4 0 40 0 C40 6.93 40 13.86 40 21 C36.37 21.33 32.74 21.66 29 22 C28.773125 23.381875 28.54625 24.76375 28.3125 26.1875 C27.31506827 30.74411256 25.70069562 33.03944351 22 36 C18.21377742 37.89311129 14.1151981 37.59140572 10 37 C6.64175068 35.70645212 4.8911313 34.05207579 3 31 C-0.56781045 20.64060751 0 11.08437607 0 0 Z " fill="#100E1C" transform="translate(164,72)" />
    <path d="M0 0 C53.46 0 106.92 0 162 0 C162 55.11 162 110.22 162 167 C161.67 167 161.34 167 161 167 C161 112.55 161 58.1 161 2 C108.53 2 56.06 2 2 2 C1.67 56.45 1.34 110.9 1 167 C0.67 167 0.34 167 0 167 C0 111.89 0 56.78 0 0 Z " fill="#A6A7A6" transform="translate(119,181)" />
    <path d="M0 0 C8.91 0 17.82 0 27 0 C27 6.19972517 26.8094062 7.48886108 23 12 C18.07373478 15.51876087 12.86529501 15.89105483 7 15 C3.49747989 12.95686327 1.22638298 10.90212767 0 7 C0 4.69 0 2.38 0 0 Z " fill="#110F1D" transform="translate(214,94)" />
    <path d="M0 0 C5.57894737 3.15789474 5.57894737 3.15789474 7 6 C7.5811138 13.08958838 7.5811138 13.08958838 5.125 16.9375 C1.89661432 20.07093316 -0.44929709 20.39218693 -4.9609375 20.359375 C-8.38006698 19.7567698 -9.93189052 17.63213933 -12 15 C-13.45147903 12.09704195 -13.37239025 10.22738221 -13 7 C-9.58798533 1.48730466 -6.4900561 -0.62404386 0 0 Z " fill="#E3E2E2" transform="translate(202,249)" />
    <path d="M0 0 C5.57894737 3.15789474 5.57894737 3.15789474 7 6 C7.5811138 13.08958838 7.5811138 13.08958838 5.125 16.9375 C2.20157849 19.77493852 1.36073651 19.96451772 -2.8125 20.375 C-6.11983012 20.30270863 -7.04807509 19.96995307 -10 18.125 C-12.42870957 14.3301413 -12.78304264 11.82895915 -12.55078125 7.3828125 C-11.94478322 4.76111891 -11.33502657 3.68505092 -9.375 1.875 C-5.6806608 -0.17741067 -4.12830183 -0.77405659 0 0 Z " fill="#E2E2E1" transform="translate(173,249)" />
    <path d="M0 0 C7.26 0 14.52 0 22 0 C22.33 2.97 22.66 5.94 23 9 C22.34 9 21.68 9 21 9 C21 6.36 21 3.72 21 1 C14.4 1 7.8 1 1 1 C1 3.97 1 6.94 1 10 C0.01 10.33 -0.98 10.66 -2 11 C-1.34 7.37 -0.68 3.74 0 0 Z " fill="#C7C5C9" transform="translate(192,94)" />
    <path d="M0 0 C0.33 0.66 0.66 1.32 1 2 C-1.64 2 -4.28 2 -7 2 C-7.268125 2.639375 -7.53625 3.27875 -7.8125 3.9375 C-9 6 -9 6 -12 7 C-9.52030127 1.00739475 -6.36870588 -0.43422995 0 0 Z " fill="#CCCBCB" transform="translate(202,249)" />
    <path d="M0 0 C0.33 0.66 0.66 1.32 1 2 C1.66 2 2.32 2 3 2 C3 4.31 3 6.62 3 9 C1.5 7.875 1.5 7.875 0 6 C-0.1875 2.8125 -0.1875 2.8125 0 0 Z " fill="#F4B3BE" transform="translate(204,31)" />
</svg>