<?xml version="1.0" encoding="UTF-8"?>
<svg version="1.1" xmlns="http://www.w3.org/2000/svg" width="200" height="200" viewBox="0 0 200 200">
    <path d="M0 0 C3.96 0 7.92 0 12 0 C12 27.72 12 55.44 12 84 C7.93711315 81.96855658 5.87483361 80.04893481 2.75 76.8125 C-0.32232728 73.63805779 -3.40071233 70.61809128 -6.75390625 67.7421875 C-11.64740733 63.51155342 -16.15167702 58.9199224 -20.6875 54.3125 C-22.33481982 52.63954096 -23.98448586 50.96888827 -25.63671875 49.30078125 C-26.35561279 48.57028564 -27.07450684 47.83979004 -27.81518555 47.0871582 C-30.10377801 44.90086063 -32.50210097 42.94153261 -35 41 C-34.01773438 40.21689453 -34.01773438 40.21689453 -33.015625 39.41796875 C-26.71917581 34.33990026 -20.70698924 29.05866929 -14.77734375 23.5625 C-11.89843632 20.90629286 -8.96836881 18.32197634 -6.0078125 15.7578125 C-2.7305255 12.88859236 0.48295429 9.94864673 3.703125 7.015625 C5.7200593 5.24566225 7.85325667 3.6100575 10 2 C6.7 1.67 3.4 1.34 0 1 C0 0.67 0 0.34 0 0 Z " fill="#31A884" transform="translate(17,16)" />
</svg>