<?xml version="1.0" encoding="UTF-8"?>
<svg version="1.1" xmlns="http://www.w3.org/2000/svg" width="200" height="200" viewBox="0 0 200 200">
    <path d="M0 0 C1.37427001 0.03513805 2.74862589 0.06707276 4.12304688 0.09570312 C7.48004812 0.17815579 10.83268064 0.2932101 14.1875 0.4375 C15.85470869 23.08588884 14.83571358 45.76472327 14.1875 68.4375 C4.27563857 67.20509987 -5.01844129 61.86433869 -11.8125 54.4375 C-14.29263674 51.19502615 -16.58272311 47.85570678 -18.8125 44.4375 C-19.4725 43.4475 -20.1325 42.4575 -20.8125 41.4375 C-22.63271539 36.22126439 -23.16755593 31.58079353 -23.125 26.125 C-23.12008545 25.37879395 -23.1151709 24.63258789 -23.11010742 23.86376953 C-22.9879345 18.08843607 -22.44491224 12.66638711 -19.8125 7.4375 C-19.57877686 6.8396167 -19.34505371 6.2417334 -19.10424805 5.62573242 C-15.23031506 -2.02651666 -7.49787819 -0.33206551 0 0 Z " fill="#FACB08" transform="translate(17,16)" />
</svg>