<?xml version="1.0" encoding="UTF-8"?>
<svg version="1.1" xmlns="http://www.w3.org/2000/svg" width="200" height="200" viewBox="0 0 200 200">
    <path d="M0 0 C76.09612662 0 76.09612662 0 95.1640625 18.9453125 C100.73319429 24.77507813 105.53418277 31.30127415 110 38 C110.74443359 37.20335937 110.74443359 37.20335937 111.50390625 36.390625 C118.09736864 29.53442502 122.26787612 26.39030341 132 25 C132 44.8 132 64.6 132 85 C124.512905 85 119.58767079 82.547719 114.24609375 77.265625 C113.10031092 75.89460281 112.03853459 74.45394843 111 73 C107.20247442 74.26584186 106.55153018 75.73001678 104.3125 79 C90.94271051 97.74677004 77.634364 105.14977914 55 110 C36.85 110 18.7 110 0 110 C0 73.7 0 37.4 0 0 Z " fill="#2F976F" transform="translate(17,16)" />
</svg>