<?xml version="1.0" encoding="UTF-8"?>
<svg version="1.1" xmlns="http://www.w3.org/2000/svg" width="200" height="200" viewBox="0 0 200 200">
    <path d="M0 0 C54.78 0 109.56 0 166 0 C166 55.44 166 110.88 166 168 C111.22 168 56.44 168 0 168 C0 112.56 0 57.12 0 0 Z " fill="#0243AF" transform="translate(106,204)" />
    <path d="M0 0 C7.92 0 15.84 0 24 0 C24.33 15.18 24.66 30.36 25 46 C44.50447336 35.55453405 44.50447336 35.55453405 63.2265625 23.74609375 C66 22 66 22 69 22 C69.62648438 23.12019531 70.25296875 24.24039062 70.8984375 25.39453125 C71.72389523 26.86722287 72.54941954 28.33987718 73.375 29.8125 C73.99375 30.91948242 73.99375 30.91948242 74.625 32.04882812 C75.02460937 32.76103516 75.42421875 33.47324219 75.8359375 34.20703125 C76.20251465 34.8616333 76.5690918 35.51623535 76.94677734 36.19067383 C77.90206799 37.83176306 78.9466896 39.4200344 80 41 C80 41.99 80 42.98 80 44 C79.33170166 44.3717334 78.66340332 44.7434668 77.97485352 45.12646484 C64.55640016 52.59714875 51.18733832 60.12750367 38 68 C41.57959717 71.00789053 45.22154341 73.39371697 49.296875 75.6796875 C49.88994446 76.01493439 50.48301392 76.35018127 51.09405518 76.69558716 C52.97703341 77.7596037 54.86314425 78.81787697 56.75 79.875 C64.68195088 84.32438012 72.53821319 88.77972799 80 94 C78.39610141 98.18605527 76.34286368 101.85559287 73.9375 105.625 C71.07183463 110.10772343 71.07183463 110.10772343 69 115 C64.46743827 114.43979574 61.16620331 112.51539446 57.375 110.125 C56.05041402 109.30967719 54.72484274 108.49595356 53.3984375 107.68359375 C52.69299805 107.25030762 51.98755859 106.81702148 51.26074219 106.37060547 C47.2097489 103.9146361 43.10384858 101.55371903 39 99.1875 C37.81736572 98.50421631 37.81736572 98.50421631 36.61083984 97.80712891 C32.08086054 95.19230975 27.54141082 92.59509189 23 90 C23 105.18 23 120.36 23 136 C15.41 136 7.82 136 0 136 C0 120.82 0 105.64 0 90 C-11.46601736 96.37000964 -22.8233004 102.75470031 -33.99609375 109.59960938 C-34.98480469 110.18935547 -35.97351563 110.77910156 -36.9921875 111.38671875 C-37.86214355 111.91483154 -38.73209961 112.44294434 -39.62841797 112.98706055 C-42 114 -42 114 -44.16992188 113.86352539 C-47.48294367 112.30027058 -48.88490235 108.82997283 -50.625 105.75 C-51.21667969 104.74646484 -51.21667969 104.74646484 -51.8203125 103.72265625 C-53.85541428 100.22310624 -55.54127422 96.78502239 -57 93 C-56.26064209 92.59273682 -55.52128418 92.18547363 -54.75952148 91.76586914 C-34.69021319 80.71154735 -34.69021319 80.71154735 -15 69 C-17.44678145 66.26130208 -20.09512396 64.68425582 -23.3046875 62.92578125 C-24.35785156 62.3440918 -25.41101563 61.76240234 -26.49609375 61.16308594 C-27.61113281 60.55239258 -28.72617187 59.94169922 -29.875 59.3125 C-44.80603448 51.0407069 -44.80603448 51.0407069 -51 47.25 C-51.969375 46.65703125 -52.93875 46.0640625 -53.9375 45.453125 C-56 44 -56 44 -57 42 C-56.01196289 39.93701172 -56.01196289 39.93701172 -54.47265625 37.4296875 C-53.92802734 36.53378906 -53.38339844 35.63789063 -52.82226562 34.71484375 C-52.24154297 33.77769531 -51.66082031 32.84054687 -51.0625 31.875 C-50.48564453 30.93011719 -49.90878906 29.98523438 -49.31445312 29.01171875 C-47.88340205 26.66999881 -46.44501781 24.33311811 -45 22 C-37.08869393 26.290294 -29.22246104 30.6566566 -21.375 35.0625 C-19.23706035 36.26186348 -17.09904091 37.46108474 -14.9609375 38.66015625 C-14.03071777 39.18230713 -13.10049805 39.70445801 -12.14208984 40.24243164 C-8.09958357 42.50365951 -4.04905729 44.75052373 0 47 C0 31.49 0 15.98 0 0 Z " fill="#F9BD24" transform="translate(177,220)" />
    <path d="M0 0 C7.92 0 15.84 0 24 0 C24.33 15.18 24.66 30.36 25 46 C44.50447336 35.55453405 44.50447336 35.55453405 63.2265625 23.74609375 C66 22 66 22 69 22 C69.62648438 23.12019531 70.25296875 24.24039062 70.8984375 25.39453125 C71.72389523 26.86722287 72.54941954 28.33987718 73.375 29.8125 C73.7875 30.55048828 74.2 31.28847656 74.625 32.04882812 C75.02460937 32.76103516 75.42421875 33.47324219 75.8359375 34.20703125 C76.20251465 34.8616333 76.5690918 35.51623535 76.94677734 36.19067383 C77.90206799 37.83176306 78.9466896 39.4200344 80 41 C80 41.99 80 42.98 80 44 C79.33170166 44.3717334 78.66340332 44.7434668 77.97485352 45.12646484 C65.58404512 52.02501048 53.22380974 58.95620188 41.03515625 66.20703125 C39.38265145 67.18322134 37.71667567 68.14166216 36 69 C33.21484375 68.05859375 33.21484375 68.05859375 29.9375 66.4375 C28.31134766 65.69306641 28.31134766 65.69306641 26.65234375 64.93359375 C22.22480972 60.03657157 23.01533526 54.33526839 23 48 C22.98034401 46.15193558 22.96056024 44.30387251 22.94067383 42.45581055 C22.89162822 36.17857876 22.91241731 29.90229736 22.9375 23.625 C22.94252624 21.42448019 22.94708715 19.22395926 22.95117188 17.0234375 C22.96122684 11.68224102 22.98081771 6.3412023 23 1 C15.41 1 7.82 1 0 1 C0 0.67 0 0.34 0 0 Z " fill="#EBA125" transform="translate(177,220)" />
    <path d="M0 0 C3.84724728 1.95859862 7.08727899 4.0682957 9 8 C9.78117027 13.67433403 9.23563995 18.14654008 6 23 C2.01578387 26.61069587 -1.6526723 27.31491869 -7.0078125 27.20703125 C-10.07377947 26.88841115 -11.66761047 26.00844654 -14 24 C-17.38265491 19.42884472 -18.71436348 15.86026921 -18.4609375 10.1484375 C-16.49576193 0.98872085 -8.12447836 -1.03770596 0 0 Z " fill="#238BDA" transform="translate(43,16)" />
    <path d="M0 0 C4.36045847 2.22136563 7.13277421 4.43567029 9 9 C9.7205356 15.38188672 8.84405165 18.84087804 5 24 C1.1080427 26.74206083 -2.36751918 27.54823533 -7.04296875 27.3515625 C-11.37760432 26.57288545 -14.09464628 24.05624601 -16.875 20.8125 C-18.48186346 16.79534134 -18.66970107 13.26652255 -18 9 C-16.19672394 5.25473434 -14.67282723 3.45874584 -11.25 1.125 C-7.31338799 -0.23767339 -4.11559668 -0.73932875 0 0 Z " fill="#8B62CE" transform="translate(43,56)" />
    <path d="M0 0 C6.6 0 13.2 0 20 0 C17.02982331 5.19780921 14.78107869 8.69377149 11 13 C9.83593677 11.83593677 8.67245135 10.67129061 7.51171875 9.50390625 C6.46205398 8.4596661 5.40128152 7.42652024 4.33203125 6.40234375 C2.85185191 4.97138652 1.42232322 3.48847779 0 2 C0 1.34 0 0.68 0 0 Z " fill="#BFB5CA" transform="translate(17,96)" />
</svg>