<?xml version="1.0" encoding="UTF-8"?>
<svg version="1.1" xmlns="http://www.w3.org/2000/svg" width="200" height="200" viewBox="0 0 200 200">
    <path d="M0 0 C0.77988281 0.24492188 1.55976562 0.48984375 2.36328125 0.7421875 C16.47110525 5.7007695 24.32280593 16.23651399 31 29 C32.19404546 25.41786361 32.168824 22.46378742 32.1875 18.6875 C32.20167969 17.39199219 32.21585938 16.09648438 32.23046875 14.76171875 C32.00819391 11.1337412 31.32059222 8.3667272 30 5 C31.6029053 4.18501438 33.20737278 3.37310073 34.8125 2.5625 C35.70582031 2.11003906 36.59914063 1.65757813 37.51953125 1.19140625 C41.0286106 -0.49405706 43.71253016 -1.12740524 47.5625 -1.1328125 C48.44164062 -1.13410156 49.32078125 -1.13539062 50.2265625 -1.13671875 C51.14179687 -1.13285156 52.05703125 -1.12898438 53 -1.125 C54.37285156 -1.13080078 54.37285156 -1.13080078 55.7734375 -1.13671875 C56.65257812 -1.13542969 57.53171875 -1.13414063 58.4375 -1.1328125 C59.24058594 -1.13168457 60.04367187 -1.13055664 60.87109375 -1.12939453 C63 -1 63 -1 66 0 C65.63284586 11.19820117 60.50372284 19.46940156 52.42578125 27.05859375 C42.39429575 35.08701291 31.53062532 36.76319673 19 36 C18.01 35.505 18.01 35.505 17 35 C21.9945471 41.61042998 27.09122804 43.94371929 35 46 C36.12321975 58.5218202 32.7878685 68.41795295 25.125 78.375 C24.09888406 79.5965666 23.0634027 80.81075083 22 82 C16.06684661 79.54490205 13.36353741 73.94644519 10.76171875 68.32421875 C6.82070118 58.650812 5.13633382 49.28784951 8.9453125 39.203125 C11.48252919 33.90316124 14.72599758 29.04503801 19 25 C13.08092587 24.51681028 9.66719448 25.58047137 5 29 C2.64340632 31.10280634 2.64340632 31.10280634 1 33 C-8.1942027 30.37308494 -15.1388726 24.80021179 -20 16.64453125 C-25.47573408 6.37872023 -25.47573408 6.37872023 -25 0 C-17.01593321 -3.45256942 -8.09624799 -2.72484942 0 0 Z " fill="#38794B" transform="translate(17,16)" />
</svg>