<?xml version="1.0" encoding="UTF-8"?>
<svg version="1.1" xmlns="http://www.w3.org/2000/svg" width="200" height="200" viewBox="0 0 200 200">
    <path d="M0 0 C27.72 0 55.44 0 84 0 C82.68964896 7.2069307 81.34972258 13.94233856 79.1875 20.875 C78.95224609 21.6896875 78.71699219 22.504375 78.47460938 23.34375 C76.64594554 29.23771114 74.32031275 32.8641263 68.99609375 36.2890625 C65.07635467 37.68513395 61.08655828 37.54310823 57 37 C53.49747989 34.95686327 51.22638298 32.90212767 50 29 C50 26.69 50 24.38 50 22 C42.74 22 35.48 22 28 22 C28 24.31 28 26.62 28 29 C25.87223102 33.02756271 24.21747142 35.31453674 20 37 C15.03560262 37.86481964 10.32985891 37.83385637 6.0625 34.9375 C-2.15611004 26.66073941 0 9.92636558 0 0 Z " fill="#192840" transform="translate(17,16)" />
</svg>