<?xml version="1.0" encoding="UTF-8"?>
<svg version="1.1" xmlns="http://www.w3.org/2000/svg" width="200" height="200" viewBox="0 0 200 200">
    <path d="M0 0 C-0.66 0.66 -1.32 1.32 -2 2 C-2.99 2 -3.98 2 -5 2 C-5 2.66 -5 3.32 -5 4 C-5.66 4 -6.32 4 -7 4 C-7.33 3.34 -7.66 2.68 -8 2 C-10.71446979 1.68758545 -13.33909361 1.48663408 -16.0625 1.375 C-17.20041992 1.31699219 -17.20041992 1.31699219 -18.36132812 1.2578125 C-20.24047195 1.16326438 -22.12020336 1.08053244 -24 1 C-24 0.67 -24 0.34 -24 0 C-21.1253509 -0.19586184 -18.25061717 -0.38193799 -15.375 -0.5625 C-14.16263672 -0.64661133 -14.16263672 -0.64661133 -12.92578125 -0.73242188 C-8.43837484 -1.00604422 -4.43137501 -0.96801881 0 0 Z " fill="#ECB355" transform="translate(17,16)" />
</svg>