<?xml version="1.0" encoding="UTF-8"?>
<svg version="1.1" xmlns="http://www.w3.org/2000/svg" width="200" height="200" viewBox="0 0 200 200">
    <path d="M0 0 C54.78 0 109.56 0 166 0 C166 55.11 166 110.22 166 167 C111.22 167 56.44 167 0 167 C0 111.89 0 56.78 0 0 Z " fill="#E14087" transform="translate(17,122)" />
    <path d="M0 0 C3.0625 2.25 3.0625 2.25 5 4 C7.50851945 2.84222179 9.69153468 1.53897688 12 0 C18.67348702 -4.44899135 23.99275588 -4.88457472 32 -4 C40.51736992 -1.39714753 45.2112978 3.8169467 50 11 C50.85487749 14.30397113 51.12290209 17.38654029 51.11352539 20.7902832 C51.11341209 22.17114861 51.11341209 22.17114861 51.11329651 23.57991028 C51.10813522 24.5602977 51.10297394 25.54068512 51.09765625 26.55078125 C51.0962413 27.56472458 51.09482635 28.57866791 51.09336853 29.62333679 C51.08778328 32.85308821 51.07523345 36.08276962 51.0625 39.3125 C51.0574831 41.50585837 51.05292052 43.69921783 51.04882812 45.89257812 C51.03867075 51.26176725 51.01909236 56.6308055 51 62 C40.77 62 30.54 62 20 62 C19.6875 46.625 19.6875 46.625 19.61206055 41.83837891 C19.3539389 31.90414975 18.41343598 23.14787112 13 14.5625 C12.505 13.75941406 12.01 12.95632813 11.5 12.12890625 C9.89963985 9.72888058 9.89963985 9.72888058 7 7 C6.01 25.15 5.02 43.3 4 62 C-9.2 62 -22.4 62 -36 62 C-36.43390615 55.32869298 -36.76658921 48.67961565 -37 42 C-37.02594238 41.28491272 -37.05188477 40.56982544 -37.07861328 39.83306885 C-37.25115662 34.93456856 -37.37440322 30.03749872 -37.4519043 25.13656616 C-37.4838785 23.46686781 -37.52824526 21.79735923 -37.58520508 20.12832642 C-38.02922822 6.63776977 -38.02922822 6.63776977 -35.51391602 2.63525391 C-33.72924329 1.07598631 -32.12630736 0.02750044 -30 -1 C-28.989375 -1.61875 -27.97875 -2.2375 -26.9375 -2.875 C-18.19790366 -6.16961081 -7.80320955 -4.89353819 0 0 Z " fill="#F7B9D2" transform="translate(116,202)" />
    <path d="M0 0 C2.82231153 1.56117897 5.44482668 3.06427788 7.375 5.6875 C7.13742367 10.12834991 3.78835648 13.30273277 1.1640625 16.6640625 C-4.4915575 26.22181333 -4.15667684 36.54837042 -4.3125 47.3125 C-4.34573736 48.90497488 -4.38023275 50.49742403 -4.41601562 52.08984375 C-4.50250563 55.95574599 -4.56318417 59.82081332 -4.625 63.6875 C-15.185 63.6875 -25.745 63.6875 -36.625 63.6875 C-36.76356781 57.35443773 -36.88275027 51.02673601 -36.95458984 44.69335938 C-36.98456618 42.54408851 -37.02536221 40.39493791 -37.07763672 38.24609375 C-37.64114714 14.46816379 -37.64114714 14.46816379 -30.625 5.6875 C-21.8881665 -2.63278737 -11.36484238 -5.57362668 0 0 Z " fill="#F7A7C4" transform="translate(69.625,200.3125)" />
    <path d="M0 0 C6.99811273 3.22826445 10.94374304 7.83553643 15.13671875 14.125 C15.99159624 17.42897113 16.25962084 20.51154029 16.25024414 23.9152832 C16.25016861 24.83586014 16.25009308 25.75643707 16.25001526 26.70491028 C16.24485397 27.6852977 16.23969269 28.66568512 16.234375 29.67578125 C16.23296005 30.68972458 16.2315451 31.70366791 16.23008728 32.74833679 C16.22450203 35.97808821 16.2119522 39.20776962 16.19921875 42.4375 C16.19420185 44.63085837 16.18963927 46.82421783 16.18554688 49.01757812 C16.1753895 54.38676725 16.15581111 59.7558055 16.13671875 65.125 C5.90671875 65.125 -4.32328125 65.125 -14.86328125 65.125 C-15.17578125 49.75 -15.17578125 49.75 -15.2512207 44.96337891 C-15.50934235 35.02914975 -16.44984527 26.27287112 -21.86328125 17.6875 C-22.60578125 16.48287109 -22.60578125 16.48287109 -23.36328125 15.25390625 C-24.76046082 13.09406746 -24.76046082 13.09406746 -26.61328125 11.58984375 C-27.86328125 10.125 -27.86328125 10.125 -27.7578125 8.1015625 C-26.69160424 5.74566129 -25.69214598 4.92146267 -23.55078125 3.5 C-22.95652344 3.09523438 -22.36226562 2.69046875 -21.75 2.2734375 C-14.9442916 -1.86916762 -7.70502076 -2.35460389 0 0 Z " fill="#FCE0EA" transform="translate(150.86328125,198.875)" />
    <path d="M0 0 C12.54 0 25.08 0 38 0 C38 13.86 38 27.72 38 42 C25.46 42 12.92 42 0 42 C0 28.14 0 14.28 0 0 Z " fill="#A79DCE" transform="translate(87,16)" />
    <path d="M0 0 C4.66615139 3.19353114 7.18408485 6.33628359 8.69140625 11.89453125 C9.61785923 18.39142935 8.47086797 23.50575034 4.69140625 28.89453125 C-0.32097072 33.66240202 -4.71897124 34.37205374 -11.4453125 34.30078125 C-16.19143011 33.62738939 -19.14301701 31.40149372 -22.30859375 27.89453125 C-25.40981515 22.7581333 -26.32892297 17.77123515 -25.30859375 11.89453125 C-23.5800298 6.90890467 -21.26523891 3.00736031 -16.62109375 0.33203125 C-11.13558115 -1.88903317 -5.45164771 -2.61051828 0 0 Z " fill="#FDF7FA" transform="translate(108.30859375,154.10546875)" />
    <path d="M0 0 C4.78392681 2.12025061 7.32236281 4.5761241 9.78515625 9.3046875 C11.4395066 14.7451685 11.51936115 20.18365112 9.66015625 25.5546875 C6.64386844 29.97857628 2.79228234 33.26474724 -2.21484375 35.3046875 C-7.49582764 35.72928922 -11.98940566 34.99182455 -16.15234375 31.6171875 C-20.60593054 27.16360071 -22.37596641 23.22933039 -22.71484375 16.9296875 C-22.54458626 11.24153943 -20.98068507 7.53876835 -17.21484375 3.3046875 C-11.98565134 -1.44912378 -6.61997348 -2.07822801 0 0 Z " fill="#FDF8FB" transform="translate(61.21484375,153.6953125)" />
    <path d="M0 0 C4.41780688 2.38670991 7.37114165 5.1527286 9 9.9375 C9 10.948125 9 11.95875 9 13 C9.05800781 13.64066406 9.11601563 14.28132812 9.17578125 14.94140625 C9.58039204 21.03368867 7.39414805 24.22278826 3.4375 28.8125 C-0.13203338 31.76124497 -4.80181762 31.44709061 -9.19921875 31.41796875 C-13.64712278 30.75419507 -16.26919562 28.47122656 -19 25 C-21.90508933 20.32446903 -21.62660605 15.33001934 -21 10 C-19.3125 6.5625 -19.3125 6.5625 -17 4 C-16.34 3.21625 -15.68 2.4325 -15 1.625 C-10.11695743 -1.01998139 -5.40415853 -1.04033543 0 0 Z " fill="#FDF8FB" transform="translate(150,157)" />
</svg>