<?xml version="1.0" encoding="UTF-8"?>
<svg version="1.1" xmlns="http://www.w3.org/2000/svg" width="200" height="200" viewBox="0 0 200 200">
    <path d="M0 0 C4.19897267 2.79931511 7.07416295 4.83409748 10.4609375 8.30078125 C11.26273438 9.11353516 12.06453125 9.92628906 12.890625 10.76367188 C13.71046875 11.60478516 14.5303125 12.44589844 15.375 13.3125 C21.82088319 19.95045338 21.82088319 19.95045338 28.6640625 26.16796875 C36.21420738 32.64073341 43.02734909 39.97682869 50.01855469 47.0390625 C51.98941591 49.02816355 53.96247783 51.0150306 55.9375 53 C56.56575684 53.63147949 57.19401367 54.26295898 57.84130859 54.91357422 C61.55147128 58.61977834 65.31539188 62.19459477 69.38671875 65.5078125 C71.48689145 67.45034512 73.21287441 69.76609301 75 72 C50.25 72 25.5 72 0 72 C0 48.24 0 24.48 0 0 Z " fill="#054592" transform="translate(17,16)" />
</svg>