<?xml version="1.0" encoding="UTF-8"?>
<svg version="1.1" xmlns="http://www.w3.org/2000/svg" width="200" height="200" viewBox="0 0 200 200">
    <path d="M0 0 C54.12 0 108.24 0 164 0 C164 55.44 164 110.88 164 168 C109.88 168 55.76 168 0 168 C0 112.56 0 57.12 0 0 Z " fill="#B81922" transform="translate(123.9375,189)" />
    <path d="M0 0 C1.21881363 0.00264359 1.21881363 0.00264359 2.46224976 0.00534058 C15.47458077 0.06817273 27.60285901 1.03482118 39.9375 5.5 C41.03892334 5.89348633 41.03892334 5.89348633 42.16259766 6.29492188 C56.61210732 11.64255492 69.44701198 20.09668242 77.89453125 33.21484375 C82.29477797 42.85583375 82.46929218 55.42416452 80.25 65.67578125 C78.15494958 71.28877051 74.84082378 75.99476181 70.9375 80.5 C70.38578125 81.15742188 69.8340625 81.81484375 69.265625 82.4921875 C56.42964122 96.5898278 37.16380456 101.92551221 18.9375 104.5 C17.07158203 104.7784375 17.07158203 104.7784375 15.16796875 105.0625 C-13.74495948 108.54998298 -44.76676937 103.35169388 -68.4375 85.6875 C-73.32376739 81.61295781 -76.70901116 76.86367675 -80.0625 71.5 C-80.7225 70.51 -81.3825 69.52 -82.0625 68.5 C-85.42096617 58.8755616 -85.69514741 46.34024017 -82.15234375 36.69140625 C-74.56764503 21.44045291 -57.87200719 11.78871577 -42.3515625 6.15234375 C-38.94042992 5.14433491 -35.52368882 4.31776895 -32.0625 3.5 C-31.04188477 3.23687012 -30.02126953 2.97374023 -28.96972656 2.70263672 C-19.24815159 0.35742898 -9.96120066 -0.05782013 0 0 Z " fill="#F4BE0D" transform="translate(17,220.5)" />
    <path d="M0 0 C0.70511719 0.49886719 1.41023438 0.99773437 2.13671875 1.51171875 C12.26682169 9.412801 19.88945679 23.49714204 22 36 C23.57708838 53.32321967 20.96620359 69.98233106 10 84 C11.6065152 88.49608615 15.13628592 90.97753905 18.6875 93.9375 C19.28755859 94.44990234 19.88761719 94.96230469 20.50585938 95.49023438 C23.56711826 98.07800102 26.67383386 100.51543966 29.95703125 102.81640625 C30.96121094 103.53699219 31.96539062 104.25757813 33 105 C33 105.33 33 105.66 33 106 C22.7514961 106.0231502 12.50299839 106.04092879 2.25447369 106.05181217 C-2.504107 106.05703512 -7.26266983 106.06412215 -12.02124023 106.07543945 C-16.61182519 106.08628916 -21.20239294 106.09228128 -25.79298973 106.09487724 C-27.54610655 106.09672772 -29.29922241 106.10034114 -31.05233192 106.10573006 C-33.5040657 106.11296809 -35.955728 106.11398977 -38.4074707 106.11352539 C-39.13539322 106.11712067 -39.86331573 106.12071594 -40.61329651 106.12442017 C-43.69010181 106.11809644 -46.05625338 105.98124887 -49 105 C-49.00142502 104.3596431 -49.00285004 103.71928619 -49.00431824 103.05952454 C-49.02401147 96.39186827 -49.07827753 89.72512794 -49.15258789 83.05786133 C-49.17577856 80.56997245 -49.19016607 78.08198526 -49.19555664 75.59399414 C-49.2048378 72.01646573 -49.24581411 68.44048621 -49.29296875 64.86328125 C-49.2890361 63.75165115 -49.28510345 62.64002106 -49.28105164 61.4947052 C-49.36169844 55.21191726 -49.36169844 55.21191726 -52.35668945 49.82104492 C-56.77592337 46.77652051 -60.76471392 46.7991066 -65.94921875 46.68359375 C-66.72183548 46.66281265 -67.49445221 46.64203156 -68.29048157 46.62062073 C-70.7560648 46.55528962 -73.22175361 46.49631685 -75.6875 46.4375 C-77.36003691 46.39429913 -79.03256319 46.35068434 -80.70507812 46.30664062 C-84.8032775 46.1996251 -88.90158296 46.09831143 -93 46 C-93.50587672 30.07500081 -87.29810605 15.77528316 -76.42578125 4.1640625 C-54.09864588 -15.75418709 -24.21622671 -17.956782 0 0 Z " fill="#ECDBEC" transform="translate(48.9375,16)" />
    <path d="M0 0 C25.74 0 51.48 0 78 0 C78 4.95 78 9.9 78 15 C75.64875 15.226875 73.2975 15.45375 70.875 15.6875 C57.72016457 17.23250837 47.25008629 21.54367881 37 30 C36.00097656 30.78117187 35.00195312 31.56234375 33.97265625 32.3671875 C20.77800973 44.05337903 14.77347513 61.46613272 13.64453125 78.62109375 C12.87235566 97.08927373 18.743724 114.40164981 31.1875 128.3125 C43.85284075 141.66105134 59.07624028 147.00847114 77 149 C77 155.27 77 161.54 77 168 C51.59 168 26.18 168 0 168 C0 112.56 0 57.12 0 0 Z " fill="#BC1720" transform="translate(123.9375,189)" />
    <path d="M0 0 C3.56851577 2.78296331 6.82580003 5.77760176 10 9 C8.62786999 11.96195371 7.03467645 14.38926339 5 16.9375 C4.38382813 17.71867187 3.76765625 18.49984375 3.1328125 19.3046875 C2.07707031 20.63886719 2.07707031 20.63886719 1 22 C-0.7159831 24.18161299 -2.42219835 26.37058897 -4.125 28.5625 C-4.93195313 29.59503906 -5.73890625 30.62757813 -6.5703125 31.69140625 C-7.93281595 33.441258 -9.02510296 35.0510331 -10.00624084 37.04563904 C-12.80403605 42.57804556 -12.80403605 42.57804556 -15.99017334 43.7021637 C-18.44302315 43.92684575 -20.77803706 43.90088117 -23.23828125 43.78125 C-24.11904831 43.76993042 -24.99981537 43.75861084 -25.90727234 43.74694824 C-28.71125994 43.70227979 -31.51006814 43.60195033 -34.3125 43.5 C-36.21672283 43.45985999 -38.12102611 43.4233601 -40.02539062 43.390625 C-44.68557916 43.3025772 -49.34191271 43.16460791 -54 43 C-54.01304007 41.56569818 -54.02232227 40.13136188 -54.0300293 38.69702148 C-54.03560349 37.8982811 -54.04117767 37.09954071 -54.04692078 36.27659607 C-53.81690643 25.11629991 -48.52542797 13.91197907 -41.0234375 5.8203125 C-29.41787089 -4.62021653 -13.99569706 -7.73927515 0 0 Z " fill="#AEC1D2" transform="translate(189.9375,70)" />
    <path d="M0 0 C4.05523038 2.85709413 7.51585617 6.46921234 9.75 10.9375 C10.54968638 17.72341017 10.11034471 22.64896335 6.13671875 28.28125 C2.76445447 32.30896846 0.06192161 34.4562265 -5.29296875 35.234375 C-11.47749915 35.6175817 -15.61144316 34.03157613 -20.25 29.9375 C-24.68380762 24.61693086 -24.87154408 19.79783803 -24.62890625 12.96484375 C-23.93690281 7.43595027 -21.19129452 4.54240217 -17.125 1.0625 C-11.7673467 -2.50926887 -5.90334763 -1.92994057 0 0 Z " fill="#F2EDEA" transform="translate(181.1875,27.0625)" />
    <path d="M0 0 C5.57894737 3.15789474 5.57894737 3.15789474 7 6 C7.49170132 10.91701315 7.48320696 13.09801367 5.125 17.5 C2.63321806 20.10601836 0.48965677 20.4933644 -3.0625 20.6875 C-6.84034357 20.46825015 -7.69113876 20.28626164 -10.5625 17.625 C-12.72087191 13.6836252 -13.52763342 11.57282301 -13 7 C-9.58798533 1.48730466 -6.4900561 -0.62404386 0 0 Z " fill="#A680C5" transform="translate(45.9375,62)" />
    <path d="M0 0 C2.05859375 0.6953125 2.05859375 0.6953125 4.62109375 2.6953125 C6.59376264 6.8121867 6.96591177 10.2154298 6.05859375 14.6953125 C4.12109375 17.7578125 4.12109375 17.7578125 1.05859375 19.6953125 C-3.66193707 20.72819537 -6.87458518 20.34846826 -11.00390625 17.8203125 C-13.72970453 13.42386366 -14.07914997 9.73271404 -12.94140625 4.6953125 C-9.99222335 -0.39369107 -5.37066447 -0.99624467 0 0 Z " fill="#4A2B80" transform="translate(19.87890625,62.3046875)" />
</svg>