<?xml version="1.0" encoding="UTF-8"?>
<svg version="1.1" xmlns="http://www.w3.org/2000/svg" width="200" height="200" viewBox="0 0 200 200">
    <path d="M0 0 C18.20361745 9.76420451 31.48829916 25.55044057 37.875 45.25 C43.99898659 66.25524958 40.19705262 89.57009339 29.95556641 108.50976562 C27.40961335 112.90449706 24.32740015 116.67163952 20.875 120.375 C20.24980469 121.07882812 19.62460938 121.78265625 18.98046875 122.5078125 C8.33081982 133.91660138 -6.99045822 141.20730521 -22.125 144.375 C-25.755 144.375 -29.385 144.375 -33.125 144.375 C-33.125 134.805 -33.125 125.235 -33.125 115.375 C-30.711875 115.00375 -28.29875 114.6325 -25.8125 114.25 C-18.37603597 112.93461977 -12.39057381 110.71500733 -6.125 106.375 C-5.33609375 105.84519531 -4.5471875 105.31539062 -3.734375 104.76953125 C4.02138834 98.79442786 9.31422252 88.94254117 11.5703125 79.44921875 C13.03005364 64.72080494 12.59829331 51.82185861 3.5 39.4375 C-6.41330163 27.77604625 -17.83258128 22.76521988 -33.125 21.375 C-33.125 12.465 -33.125 3.555 -33.125 -5.625 C-22.4219255 -9.1926915 -9.79431012 -4.56635386 0 0 Z " fill="#E4E4E4" transform="translate(17,16)" />
</svg>