<?xml version="1.0" encoding="UTF-8"?>
<svg version="1.1" xmlns="http://www.w3.org/2000/svg" width="200" height="200" viewBox="0 0 200 200">
    <path d="M0 0 C0 7.92 0 15.84 0 24 C-2.11664063 24.98226563 -4.23328125 25.96453125 -6.4140625 26.9765625 C-14.36956161 30.68212644 -22.27931554 34.4795797 -30.17578125 38.30908203 C-32.42075911 39.39717854 -34.66738664 40.48182082 -36.9140625 41.56640625 C-38.34645425 42.26021008 -39.77874982 42.95421252 -41.2109375 43.6484375 C-42.21536392 44.1327272 -42.21536392 44.1327272 -43.24008179 44.62680054 C-46.32940963 45.99828306 -46.32940963 45.99828306 -49 48 C-32.76303979 55.8895021 -16.47655924 63.61970097 0 71 C0 76.61 0 82.22 0 88 C-3.94812238 86.42075105 -6.63603734 85.0539508 -10.0546875 82.69921875 C-10.99957031 82.05146484 -11.94445312 81.40371094 -12.91796875 80.73632812 C-14.38169922 79.7221582 -14.38169922 79.7221582 -15.875 78.6875 C-16.84308594 78.02298828 -17.81117188 77.35847656 -18.80859375 76.67382812 C-23.90907207 73.16594814 -28.97650158 69.61719872 -34 66 C-34.2025955 83.27437749 -34.2025955 83.27437749 -26.20703125 98.00390625 C-18.46022286 105.41053543 -10.61995458 107.06909917 0 109 C0 117.58 0 126.16 0 135 C-16.61045373 135.66441815 -28.73484776 131.54594704 -41.25 120.5625 C-42.84651452 119.05550966 -44.43129105 117.53591364 -46 116 C-46.55429688 115.48179688 -47.10859375 114.96359375 -47.6796875 114.4296875 C-60.54397481 101.14818006 -64.61545103 81.4135993 -64.3984375 63.68359375 C-64.18817309 56.43404266 -63.75216287 49.78244883 -61 43 C-60.75781738 42.39816895 -60.51563477 41.79633789 -60.26611328 41.17626953 C-52.8655802 23.36503984 -40.3300757 10.80196434 -22.640625 3.04296875 C-14.71037103 -0.08924694 -8.55119919 -0.16134338 0 0 Z " fill="#E5E5EC" transform="translate(17,16)" />
</svg>