<?xml version="1.0" encoding="UTF-8"?>
<svg version="1.1" xmlns="http://www.w3.org/2000/svg" width="200" height="200" viewBox="0 0 200 200">
    <path d="M0 0 C54.45 0 108.9 0 165 0 C165 55.11 165 110.22 165 167 C110.55 167 56.1 167 0 167 C0 111.89 0 56.78 0 0 Z " fill="#472984" transform="translate(84,167.09765625)" />
    <path d="M0 0 C12.54 0 25.08 0 38 0 C38 13.53 38 27.06 38 41 C51.86 41 65.72 41 80 41 C80 54.53 80 68.06 80 82 C66.14 82 52.28 82 38 82 C38 95.86 38 109.72 38 124 C25.46 124 12.92 124 0 124 C0 110.14 0 96.28 0 82 C-13.86 82 -27.72 82 -42 82 C-42 68.47 -42 54.94 -42 41 C-28.14 41 -14.28 41 0 41 C0 27.47 0 13.94 0 0 Z " fill="#E8E7EA" transform="translate(154,190.09765625)" />
    <path d="M0 0 C3.96 0 7.92 0 12 0 C12 27.72 12 55.44 12 84 C7.93711315 81.96855658 5.87483361 80.04893481 2.75 76.8125 C-0.32232728 73.63805779 -3.40071233 70.61809128 -6.75390625 67.7421875 C-11.64740733 63.51155342 -16.15167702 58.9199224 -20.6875 54.3125 C-22.33481982 52.63954096 -23.98448586 50.96888827 -25.63671875 49.30078125 C-26.35561279 48.57028564 -27.07450684 47.83979004 -27.81518555 47.0871582 C-30.10377801 44.90086063 -32.50210097 42.94153261 -35 41 C-34.01773438 40.21689453 -34.01773438 40.21689453 -33.015625 39.41796875 C-26.71917581 34.33990026 -20.70698924 29.05866929 -14.77734375 23.5625 C-11.89843632 20.90629286 -8.96836881 18.32197634 -6.0078125 15.7578125 C-2.7305255 12.88859236 0.48295429 9.94864673 3.703125 7.015625 C5.7200593 5.24566225 7.85325667 3.6100575 10 2 C6.7 1.67 3.4 1.34 0 1 C0 0.67 0 0.34 0 0 Z " fill="#31A884" transform="translate(17,205.09765625)" />
    <path d="M0 0 C13.86 0 27.72 0 42 0 C42 13.53 42 27.06 42 41 C28.14 41 14.28 41 0 41 C0 27.47 0 13.94 0 0 Z " fill="#BA95E2" transform="translate(192,231.09765625)" />
    <path d="M0 0 C-0.75667969 0.75539063 -1.51335938 1.51078125 -2.29296875 2.2890625 C-3.78019082 3.77843063 -5.2649591 5.27031782 -6.73828125 6.7734375 C-10.30252252 10.39958867 -13.99220899 13.80674929 -17.84375 17.125 C-20.19962958 19.17359094 -22.5050746 21.27203002 -24.8125 23.375 C-29.29955443 27.43140834 -33.93624831 31.26823965 -38.65234375 35.0546875 C-40.96072797 36.89324251 -40.96072797 36.89324251 -42.69140625 38.7578125 C-44 40 -44 40 -46 40 C-46 27.13 -46 14.26 -46 1 C-30.64333952 0.23693613 -15.3738055 -0.13970325 0 0 Z " fill="#074F47" transform="translate(28,206.09765625)" />
    <path d="M0 0 C1.93166016 0.01740234 1.93166016 0.01740234 3.90234375 0.03515625 C5.19269531 0.04417969 6.48304687 0.05320312 7.8125 0.0625 C8.81152344 0.07410156 9.81054688 0.08570313 10.83984375 0.09765625 C10.83984375 4.05765625 10.83984375 8.01765625 10.83984375 12.09765625 C8.52740583 12.12451037 6.21488105 12.14398466 3.90234375 12.16015625 C2.61457031 12.17175781 1.32679687 12.18335938 0 12.1953125 C-3.16015625 12.09765625 -3.16015625 12.09765625 -4.16015625 11.09765625 C-4.25839562 9.43336574 -4.28989256 7.76483694 -4.28515625 6.09765625 C-4.28773437 5.19015625 -4.2903125 4.28265625 -4.29296875 3.34765625 C-4.08359213 -0.19943005 -3.64561779 0.11265815 0 0 Z " fill="#3F9E79" transform="translate(126.16015625,16)" />
    <path d="M0 0 C0.99 0.33 1.98 0.66 3 1 C1.35 4.3 -0.3 7.6 -2 11 C-3.65 10.67 -5.3 10.34 -7 10 C-7.33 9.34 -7.66 8.68 -8 8 C-6.576875 7.4121875 -6.576875 7.4121875 -5.125 6.8125 C-1.65872662 4.80206144 -1.0197307 3.77300358 0 0 Z " fill="#DAB031" transform="translate(35,71.09765625)" />
    <path d="M0 0 C0.99 0.66 1.98 1.32 3 2 C1.63016497 5.16115776 1.0109362 5.9927092 -2 8 C-2 4.23312136 -1.76462683 3.08809695 0 0 Z " fill="#1146AB" transform="translate(42,64.09765625)" />
    <path d="M0 0 C4.29 0 8.58 0 13 0 C13 0.33 13 0.66 13 1 C12.24074219 1.04898437 11.48148438 1.09796875 10.69921875 1.1484375 C9.70535156 1.22320312 8.71148438 1.29796875 7.6875 1.375 C6.20830078 1.47941406 6.20830078 1.47941406 4.69921875 1.5859375 C1.78471567 1.83865472 1.78471567 1.83865472 -1 4 C-0.67 2.68 -0.34 1.36 0 0 Z " fill="#4EA886" transform="translate(123,16.09765625)" />
</svg>