<?xml version="1.0" encoding="UTF-8"?>
<svg version="1.1" xmlns="http://www.w3.org/2000/svg" width="200" height="200" viewBox="0 0 200 200">
    <path d="M0 0 C54.78 0 109.56 0 166 0 C166 55.44 166 110.88 166 168 C111.22 168 56.44 168 0 168 C0 112.56 0 57.12 0 0 Z " fill="#146856" transform="translate(88,214)" />
    <path d="M0 0 C76.09612662 0 76.09612662 0 95.1640625 18.9453125 C100.73319429 24.77507813 105.53418277 31.30127415 110 38 C110.74443359 37.20335937 110.74443359 37.20335937 111.50390625 36.390625 C118.09736864 29.53442502 122.26787612 26.39030341 132 25 C132 44.8 132 64.6 132 85 C124.512905 85 119.58767079 82.547719 114.24609375 77.265625 C113.10031092 75.89460281 112.03853459 74.45394843 111 73 C107.20247442 74.26584186 106.55153018 75.73001678 104.3125 79 C90.94271051 97.74677004 77.634364 105.14977914 55 110 C36.85 110 18.7 110 0 110 C0 73.7 0 37.4 0 0 Z " fill="#2F976F" transform="translate(109,244)" />
    <path d="M0 0 C12.59981705 12.31982112 20.69197078 27.72695574 21.16235352 45.44628906 C21.32358907 63.42327023 15.88460709 79.76300543 4 93.57421875 C-4.10034387 101.63116792 -13.9591052 107.50432104 -25.1875 109.75 C-25.1875 100.18 -25.1875 90.61 -25.1875 80.75 C-18.2575 80.75 -11.3275 80.75 -4.1875 80.75 C-4.1875 71.51 -4.1875 62.27 -4.1875 52.75 C-11.1175 52.75 -18.0475 52.75 -25.1875 52.75 C-25.22875 49.98625 -25.27 47.2225 -25.3125 44.375 C-25.33070801 43.50568848 -25.34891602 42.63637695 -25.36767578 41.74072266 C-25.38223738 39.74296522 -25.28706726 37.74532783 -25.1875 35.75 C-23.1875 33.75 -23.1875 33.75 -21.30810547 33.52294922 C-20.19266357 33.53865967 -20.19266357 33.53865967 -19.0546875 33.5546875 C-17.96583252 33.56218018 -17.96583252 33.56218018 -16.85498047 33.56982422 C-15.93346191 33.58803223 -15.01194336 33.60624023 -14.0625 33.625 C-11.13375 33.66625 -8.205 33.7075 -5.1875 33.75 C-5.1875 24.51 -5.1875 15.27 -5.1875 5.75 C-8.9825 5.853125 -12.7775 5.95625 -16.6875 6.0625 C-17.86763672 6.08739502 -19.04777344 6.11229004 -20.26367188 6.13793945 C-30.89288781 6.50666057 -38.41194436 9.30089899 -46.1875 16.75 C-52.41291107 24.5770945 -53.51042265 32.37041899 -53.8125 42.125 C-53.85117187 43.14722656 -53.88984375 44.16945312 -53.9296875 45.22265625 C-54.02347566 47.73148965 -54.10655546 50.24071938 -54.1875 52.75 C-58.4775 52.75 -62.7675 52.75 -67.1875 52.75 C-67.1875 61.66 -67.1875 70.57 -67.1875 79.75 C-62.8975 79.75 -58.6075 79.75 -54.1875 79.75 C-54.1875 89.65 -54.1875 99.55 -54.1875 109.75 C-60.86413298 108.91542088 -64.32432503 108.23629068 -69.9375 105.375 C-70.62706787 105.0248584 -71.31663574 104.6747168 -72.02709961 104.31396484 C-86.89127492 96.37700097 -97.82016443 82.7226961 -102.875 66.6875 C-107.96451715 49.59923292 -105.48964615 32.78257862 -97.3359375 17.21484375 C-88.75428628 2.63907622 -74.46956303 -7.44685853 -58.50390625 -12.390625 C-37.82475519 -17.21814482 -17.05555448 -12.03921493 0 0 Z " fill="#CED8F0" transform="translate(22.1875,37.25)" />
    <path d="M0 0 C6.27 0 12.54 0 19 0 C19 0.66 19 1.32 19 2 C19.68578125 2.22816406 20.3715625 2.45632813 21.078125 2.69140625 C34.10407342 8.52522005 44.88056547 20.83800316 51.02734375 33.41796875 C55.84904681 46.21775077 56.04595824 62.30338654 51.328125 75.14453125 C44.23320707 90.39860479 33.23432446 100.45940532 19 109 C12.73 109 6.46 109 0 109 C0 73.03 0 37.06 0 0 Z " fill="#DEDDDD" transform="translate(109,244)" />
    <path d="M0 0 C3.8652758 1.57474199 6.167945 3.97035977 9 7 C9.80630859 7.79857422 9.80630859 7.79857422 10.62890625 8.61328125 C22.45142343 20.96477012 26.5109939 36.65991309 26.34741211 53.30761719 C25.907018 69.59202494 18.65471185 86.4077241 7 98 C-0.93771796 104.8366016 -9.68346207 109.93669241 -20 112 C-20 102.43 -20 92.86 -20 83 C-13.07 83 -6.14 83 1 83 C1 73.76 1 64.52 1 55 C-5.93 55 -12.86 55 -20 55 C-20.04125 52.23625 -20.0825 49.4725 -20.125 46.625 C-20.14320801 45.75568848 -20.16141602 44.88637695 -20.18017578 43.99072266 C-20.19473738 41.99296522 -20.09956726 39.99532783 -20 38 C-18 36 -18 36 -16.12060547 35.77294922 C-15.37697754 35.78342285 -14.63334961 35.79389648 -13.8671875 35.8046875 C-12.77833252 35.81218018 -12.77833252 35.81218018 -11.66748047 35.81982422 C-10.74596191 35.83803223 -9.82444336 35.85624023 -8.875 35.875 C-5.94625 35.91625 -3.0175 35.9575 0 36 C0 26.76 0 17.52 0 8 C-7.26 8 -14.52 8 -22 8 C-22 7.67 -22 7.34 -22 7 C-14.74 7 -7.48 7 0 7 C0 4.69 0 2.38 0 0 Z " fill="#638EED" transform="translate(17,35)" />
    <path d="M0 0 C4.19897267 2.79931511 7.07416295 4.83409748 10.4609375 8.30078125 C11.26273438 9.11353516 12.06453125 9.92628906 12.890625 10.76367188 C13.71046875 11.60478516 14.5303125 12.44589844 15.375 13.3125 C21.82088319 19.95045338 21.82088319 19.95045338 28.6640625 26.16796875 C36.21420738 32.64073341 43.02734909 39.97682869 50.01855469 47.0390625 C51.98941591 49.02816355 53.96247783 51.0150306 55.9375 53 C56.56575684 53.63147949 57.19401367 54.26295898 57.84130859 54.91357422 C61.55147128 58.61977834 65.31539188 62.19459477 69.38671875 65.5078125 C71.48689145 67.45034512 73.21287441 69.76609301 75 72 C50.25 72 25.5 72 0 72 C0 48.24 0 24.48 0 0 Z " fill="#054592" transform="translate(88,97)" />
    <path d="M0 0 C23.1 0 46.2 0 70 0 C70 22.11 70 44.22 70 67 C58.30304913 56.97404211 47.32699296 46.43911332 36.51123047 35.47436523 C32.10725452 31.02685535 27.65268195 26.75039262 22.90063477 22.67797852 C19.56832752 19.7360456 16.48439594 16.54890623 13.375 13.375 C8.14520131 8.03578345 8.14520131 8.03578345 2.5390625 3.1015625 C1.70117188 2.40804687 0.86328125 1.71453125 0 1 C0 0.67 0 0.34 0 0 Z " fill="#5494CC" transform="translate(110,90)" />
    <path d="M0 0 C3.94605281 1.97302641 6.66390882 4.26280114 9.8125 7.25 C10.37219482 7.77360107 10.93188965 8.29720215 11.50854492 8.83666992 C13.3428487 10.55375611 15.17135509 12.27689024 17 14 C19.6017328 16.44010603 22.2065701 18.87687736 24.8125 21.3125 C25.44961914 21.90828857 26.08673828 22.50407715 26.74316406 23.11791992 C32.99485849 28.95168972 39.40449761 34.55871053 46 40 C44.70413509 42.89077556 43.45709416 44.97775742 41 47 C39.0827179 47.36076355 39.0827179 47.36076355 36.89575195 47.34057617 C35.64767761 47.34003235 35.64767761 47.34003235 34.37438965 47.33947754 C33.50447388 47.32412964 32.63455811 47.30878174 31.73828125 47.29296875 C30.93531616 47.28994751 30.13235107 47.28692627 29.30505371 47.28381348 C26.30740494 47.2681249 23.30993948 47.22624078 20.3125 47.1875 C13.609375 47.125625 6.90625 47.06375 0 47 C0 31.49 0 15.98 0 0 Z " fill="#5899CF" transform="translate(117,16)" />
    <path d="M0 0 C0.66 0 1.32 0 2 0 C3.44873047 1.7565918 3.44873047 1.7565918 5.1171875 4.19921875 C5.72433594 5.07900391 6.33148437 5.95878906 6.95703125 6.86523438 C7.58996094 7.79658203 8.22289062 8.72792969 8.875 9.6875 C10.1208813 11.50494541 11.36823579 13.32138196 12.6171875 15.13671875 C13.20209961 15.98927246 13.78701172 16.84182617 14.38964844 17.72021484 C15.67299679 19.53705943 17.04540913 21.29089658 18.4453125 23.01953125 C20 25 20 25 20 27 C13.4 27 6.8 27 0 27 C0 18.09 0 9.18 0 0 Z " fill="#F6A72F" transform="translate(180,16)" />
    <path d="M0 0 C4.62 0 9.24 0 14 0 C13.34 1.32 12.68 2.64 12 4 C8.37 3.67 4.74 3.34 1 3 C0.67 2.01 0.34 1.02 0 0 Z " fill="#F1E5D0" transform="translate(185,44)" />
    <path d="M0 0 C-1.38188453 3.21043882 -2.92421903 5.04936365 -5.625 7.25 C-6.57246094 8.03117188 -6.57246094 8.03117188 -7.5390625 8.828125 C-8.02117187 9.21484375 -8.50328125 9.6015625 -9 10 C-9.66 9.67 -10.32 9.34 -11 9 C-9.54782324 7.49403892 -8.08807139 5.99537896 -6.625 4.5 C-5.40683594 3.24703125 -5.40683594 3.24703125 -4.1640625 1.96875 C-2 0 -2 0 0 0 Z " fill="#ECA926" transform="translate(169,53)" />
    <path d="M0 0 C0.33 0.66 0.66 1.32 1 2 C-1.31 4.64 -3.62 7.28 -6 10 C-7.32 9.67 -8.64 9.34 -10 9 C-9.44570312 8.51789063 -8.89140625 8.03578125 -8.3203125 7.5390625 C-7.59585937 6.90742188 -6.87140625 6.27578125 -6.125 5.625 C-5.40570312 4.99851563 -4.68640625 4.37203125 -3.9453125 3.7265625 C-2.5923402 2.52573166 -1.2791655 1.2791655 0 0 Z " fill="#F0A635" transform="translate(218,44)" />
    <path d="M0 0 C-1 3 -1 3 -3.375 4.25 C-6 5 -6 5 -9 4 C-2.25 0 -2.25 0 0 0 Z " fill="#E0A329" transform="translate(30,256)" />
</svg>