<?xml version="1.0" encoding="UTF-8"?>
<svg version="1.1" xmlns="http://www.w3.org/2000/svg" width="200" height="200" viewBox="0 0 200 200">
    <path d="M0 0 C12.54 0 25.08 0 38 0 C38 13.53 38 27.06 38 41 C51.86 41 65.72 41 80 41 C80 54.53 80 68.06 80 82 C66.14 82 52.28 82 38 82 C38 95.86 38 109.72 38 124 C25.46 124 12.92 124 0 124 C0 110.14 0 96.28 0 82 C-13.86 82 -27.72 82 -42 82 C-42 68.47 -42 54.94 -42 41 C-28.14 41 -14.28 41 0 41 C0 27.47 0 13.94 0 0 Z " fill="#E8E7EA" transform="translate(17,16)" />
</svg>