<?xml version="1.0" encoding="UTF-8"?>
<svg version="1.1" xmlns="http://www.w3.org/2000/svg" width="200" height="200" viewBox="0 0 200 200">
    <path d="M0 0 C54.45 0 108.9 0 165 0 C165 55.44 165 110.88 165 168 C110.55 168 56.1 168 0 168 C0 112.56 0 57.12 0 0 Z " fill="#FBE7C6" transform="translate(17,16)" />
    <path d="M0 0 C54.45 0 108.9 0 165 0 C165 55.44 165 110.88 165 168 C110.55 168 56.1 168 0 168 C0 112.56 0 57.12 0 0 Z M156.76756287 1.03796387 C155.78249504 1.04407433 155.78249504 1.04407433 154.77752686 1.05030823 C152.55407696 1.06410814 150.33062735 1.07795284 148.10717773 1.09179688 C146.49507429 1.10181184 144.88297083 1.11182408 143.27086735 1.1218338 C138.93864742 1.14874059 134.60642772 1.17568489 130.27420807 1.20263672 C126.21474724 1.22788603 122.15528621 1.25310184 118.0958252 1.27832031 C106.20971659 1.35217972 94.32360831 1.42609319 82.4375 1.5 C55.893125 1.665 29.34875 1.83 2 2 C2 56.12 2 110.24 2 166 C82.19 166.495 82.19 166.495 164 167 C164 112.22 164 57.44 164 1 C161.58920683 1 159.17828623 1.0229788 156.76756287 1.03796387 Z " fill="#D9D0B3" transform="translate(17,16)" />
</svg>