<?xml version="1.0" encoding="UTF-8"?>
<svg version="1.1" xmlns="http://www.w3.org/2000/svg" width="200" height="200" viewBox="0 0 200 200">
    <path d="M0 0 C20.13 0 40.26 0 61 0 C58.38863297 4.5698923 56.30031779 8.11033975 53 12 C54.66070767 16.14673672 57.65948072 19.06757485 60.6875 22.25 C61.77302117 23.40541846 62.85765951 24.56166701 63.94140625 25.71875 C64.46621582 26.27820313 64.99102539 26.83765625 65.53173828 27.4140625 C67.99830481 30.07831527 70.35305661 32.83595758 72.6953125 35.609375 C73.97073611 37.12965958 73.97073611 37.12965958 76 38 C76 38.66 76 39.32 76 40 C37.46314961 42.77531503 37.46314961 42.77531503 29.18359375 36.71875 C25.95973016 33.55477592 23.53066435 30.04700819 21.29833984 26.13354492 C19.00461549 22.36429762 15.9898268 19.22558375 13 16 C12.45037598 15.40687012 11.90075195 14.81374023 11.33447266 14.20263672 C9.23732238 11.95646331 7.1314168 9.71905372 5.01171875 7.49414062 C2.68647779 5.0121086 1.08899043 3.2669713 0 0 Z " fill="#F2EDEB" transform="translate(17,16)" />
</svg>