<?xml version="1.0" encoding="UTF-8"?>
<svg version="1.1" xmlns="http://www.w3.org/2000/svg" width="200" height="200" viewBox="0 0 200 200">
    <path d="M0 0 C14.51767584 11.20113782 23.70961487 26.53936818 26.890625 44.59375 C29.33360479 66.12816448 24.7030381 85.50997832 12.0625 103.25 C2.82909243 114.16788057 -13.59735576 124.12079457 -28.05786133 125.54614258 C-47.49422915 126.57429959 -62.98598147 122.96035574 -77.9375 109.875 C-79.53401452 108.36800966 -81.11879105 106.84841364 -82.6875 105.3125 C-83.24179688 104.79429688 -83.79609375 104.27609375 -84.3671875 103.7421875 C-97.23147481 90.46068006 -101.30295103 70.7260993 -101.0859375 52.99609375 C-100.87567309 45.74654266 -100.43966287 39.09494883 -97.6875 32.3125 C-97.44531738 31.71066895 -97.20313477 31.10883789 -96.95361328 30.48876953 C-89.65546563 12.92395592 -77.08257872 -0.1605847 -59.453125 -7.62109375 C-39.35877926 -15.36933723 -17.76678996 -12.27343708 0 0 Z " fill="#7176AA" transform="translate(17,16)" />
</svg>