<?xml version="1.0" encoding="UTF-8"?>
<svg version="1.1" xmlns="http://www.w3.org/2000/svg" width="200" height="200" viewBox="0 0 200 200">
    <path d="M0 0 C13.47748196 -0.15740125 26.91152198 0.44492025 40.375 1 C42.76821883 1.09661057 45.16144794 1.19296684 47.5546875 1.2890625 C53.36991347 1.52310914 59.18500455 1.76029775 65 2 C65 2.33 65 2.66 65 3 C64.29093506 3.0093457 63.58187012 3.01869141 62.85131836 3.02832031 C41.58272815 3.38006676 20.0622744 4.61290007 4.0625 20.5 C3.02179405 21.64897473 1.99180931 22.80856134 1 24 C0.34 23.67 -0.32 23.34 -1 23 C-0.67 15.41 -0.34 7.82 0 0 Z " fill="#E6A415" transform="translate(17,16)" />
</svg>