<?xml version="1.0" encoding="UTF-8"?>
<svg version="1.1" xmlns="http://www.w3.org/2000/svg" width="200" height="200" viewBox="0 0 200 200">
    <path d="M0 0 C0.33 0 0.66 0 1 0 C1 29.37 1 58.74 1 89 C-9.14541991 89 -9.14541991 89 -11.84375 86.38671875 C-12.44622559 85.80680176 -13.04870117 85.22688477 -13.66943359 84.62939453 C-14.57556396 83.66815674 -14.57556396 83.66815674 -15.5 82.6875 C-16.14146973 82.03120605 -16.78293945 81.37491211 -17.44384766 80.69873047 C-23.96250689 73.63507127 -27.77761665 65.47789163 -31.29833984 56.61962891 C-31.88567959 54.9917386 -31.88567959 54.9917386 -33 54 C-33.52491626 50.08145917 -33.75898625 46.12868222 -34.0625 42.1875 C-34.15337891 41.10017578 -34.24425781 40.01285156 -34.33789062 38.89257812 C-34.91578597 31.57981228 -35.11183941 24.33418014 -35 17 C-30.83195623 18.58509898 -27.48510135 20.57927136 -23.8125 23.125 C-20.21601802 25.96729334 -20.21601802 25.96729334 -16 27 C-15.55084229 26.21761963 -15.10168457 25.43523926 -14.63891602 24.62915039 C-12.97595821 21.73421244 -11.31158703 18.84009701 -9.64624023 15.9465332 C-8.92496561 14.69263 -8.2042604 13.43839908 -7.48413086 12.18383789 C-6.450543 10.38341747 -5.41493106 8.58417519 -4.37890625 6.78515625 C-3.44413452 5.15912476 -3.44413452 5.15912476 -2.49047852 3.50024414 C-1 1 -1 1 0 0 Z " fill="#C4222A" transform="translate(17,16)" />
</svg>