<?xml version="1.0" encoding="UTF-8"?>
<svg version="1.1" xmlns="http://www.w3.org/2000/svg" width="200" height="200" viewBox="0 0 200 200">
    <path d="M0 0 C0.33 0 0.66 0 1 0 C1 8.25 1 16.5 1 25 C4.63 25 8.26 25 12 25 C25.42390579 27.90851292 35.84226884 35.08902863 43.5390625 46.3671875 C45.41798427 49.75326577 46 52.15512722 46 56 C43.65942434 56.41610234 41.3604964 56.73500472 39 57 C38.11957031 57.11472656 37.23914063 57.22945312 36.33203125 57.34765625 C33.36890267 57.57244531 30.91350204 57.61040682 28 57 C25.90496649 55.19630039 24.44360465 53.25821221 22.796875 51.04296875 C18.4142179 46.06007818 11.71391071 44.92244456 5.375 44.25 C3.93125 44.1675 2.4875 44.085 1 44 C1 48.29 1 52.58 1 57 C-20.78 57 -42.56 57 -65 57 C-65 56.67 -65 56.34 -65 56 C-43.55 56 -22.1 56 0 56 C0 52.04 0 48.08 0 44 C-15.84 44 -31.68 44 -48 44 C-48 43.34 -48 42.68 -48 42 C-42.25 39 -42.25 39 -40 39 C-40 38.34 -40 37.68 -40 37 C-41.2375 36.896875 -42.475 36.79375 -43.75 36.6875 C-47.25682248 36.25225608 -49.47569687 35.62948243 -52 33 C-52 32.34 -52 31.68 -52 31 C-41.81841009 25.34948413 -32.68587598 22.37397093 -21 23 C-20.01 23.33 -19.02 23.66 -18 24 C-16.59335074 24.14492123 -15.1818867 24.24628931 -13.76953125 24.31640625 C-13.04612549 24.35451416 -12.32271973 24.39262207 -11.57739258 24.43188477 C-10.20877075 24.49653931 -10.20877075 24.49653931 -8.8125 24.5625 C-4.4503125 24.7790625 -4.4503125 24.7790625 0 25 C0 16.75 0 8.5 0 0 Z " fill="#3D9795" transform="translate(17,16)" />
</svg>