<?xml version="1.0" encoding="UTF-8"?>
<svg version="1.1" xmlns="http://www.w3.org/2000/svg" width="200" height="200" viewBox="0 0 200 200">
    <path d="M0 0 C1.01382963 3.6208201 1.49897691 7.27811418 2 11 C4.64 11 7.28 11 10 11 C10 11.33 10 11.66 10 12 C7.69 12.33 5.38 12.66 3 13 C5.31 13.33 7.62 13.66 10 14 C10 14.33 10 14.66 10 15 C7.36 15 4.72 15 2 15 C2.17917969 15.68707031 2.35835938 16.37414063 2.54296875 17.08203125 C2.75566406 17.98308594 2.96835937 18.88414063 3.1875 19.8125 C3.40792969 20.70582031 3.62835938 21.59914063 3.85546875 22.51953125 C4 25 4 25 2.55078125 26.82421875 C1.78314453 27.40623047 1.78314453 27.40623047 1 28 C-0.87862854 22.44579389 -1.27845957 17.59056176 -1.1875 11.75 C-1.18685547 10.94820312 -1.18621094 10.14640625 -1.18554688 9.3203125 C-1.16036255 5.97359527 -1.06478118 3.19434355 0 0 Z " fill="#BA944E" transform="translate(17,16)" />
</svg>