<?xml version="1.0" encoding="UTF-8"?>
<svg version="1.1" xmlns="http://www.w3.org/2000/svg" width="200" height="200" viewBox="0 0 200 200">
    <path d="M0 0 C34.46345488 0 34.46345488 0 45.89013672 0.09179688 C47.25546258 0.10190418 48.62078918 0.11191237 49.98611641 0.1218338 C53.52308554 0.14779272 57.06004341 0.17504317 60.59700012 0.20263672 C63.96122665 0.22866498 67.32546213 0.25342794 70.68969727 0.27832031 C80.4181407 0.35099364 90.14656957 0.42560572 99.875 0.5 C121.69625 0.665 143.5175 0.83 166 1 C166 56.11 166 111.22 166 168 C111.22 168 56.44 168 0 168 C0 112.56 0 57.12 0 0 Z " fill="#20201F" transform="translate(88,16)" />
    <path d="M0 0 C1.1122998 0.00837891 2.22459961 0.01675781 3.37060547 0.02539062 C14.10454264 0.32176016 21.19370731 2.6163413 28.8125 10.5 C35.06928243 18.60329626 35.06582404 25.51863069 34.75 35.625 C41.68 35.625 48.61 35.625 55.75 35.625 C55.75 64.335 55.75 93.045 55.75 122.625 C48.16 122.625 40.57 122.625 32.75 122.625 C32.56558321 118.17338355 32.4067319 113.73511952 32.31054688 109.28271484 C32.27045508 107.77118946 32.21596095 106.2599717 32.14648438 104.74951172 C31.58107281 92.13584493 31.58107281 92.13584493 34.49609375 88.36816406 C36.65625 86.7890625 36.65625 86.7890625 38.82226562 85.65478516 C41.07798455 84.64493724 41.07798455 84.64493724 42.75 81.625 C43.12032217 78.32729658 43.12032217 78.32729658 43.1640625 74.55078125 C43.18342865 73.8669487 43.2027948 73.18311615 43.2227478 72.4785614 C43.28243997 70.29833375 43.32888631 68.11805298 43.375 65.9375 C43.41318943 64.4576595 43.45224174 62.977841 43.4921875 61.49804688 C43.58813202 57.8738995 43.67220151 54.24958743 43.75 50.625 C41.44 50.625 39.13 50.625 36.75 50.625 C36.75 57.225 36.75 63.825 36.75 70.625 C35.1 70.625 33.45 70.625 31.75 70.625 C31.75 64.025 31.75 57.425 31.75 50.625 C29.44 50.625 27.13 50.625 24.75 50.625 C24.75 57.225 24.75 63.825 24.75 70.625 C23.1 70.625 21.45 70.625 19.75 70.625 C19.75 64.025 19.75 57.425 19.75 50.625 C17.44 50.625 15.13 50.625 12.75 50.625 C12.81921754 54.64573616 12.90734471 58.66558464 13.01245117 62.68554688 C13.04555386 64.0509925 13.07363086 65.41657013 13.09643555 66.78222656 C13.13024991 68.75353224 13.18408286 70.72446191 13.23828125 72.6953125 C13.26446533 73.87883301 13.29064941 75.06235352 13.31762695 76.28173828 C13.80085201 80.01820579 14.74000133 82.44688843 16.75 85.625 C18.51524143 86.77229143 18.51524143 86.77229143 20.41015625 87.48046875 C22.26611328 88.70068359 22.26611328 88.70068359 23.75 90.625 C24.66012953 96.07556868 24.40774126 101.43384295 24.1875 106.9375 C24.15236712 108.45630889 24.12043152 109.97519533 24.09179688 111.49414062 C24.02080765 115.20789123 23.88393841 118.91086657 23.75 122.625 C16.16 122.625 8.57 122.625 0.75 122.625 C0.75 109.425 0.75 96.225 0.75 82.625 C-17.4 82.625 -35.55 82.625 -54.25 82.625 C-54.25 67.115 -54.25 51.605 -54.25 35.625 C-47.32 35.625 -40.39 35.625 -33.25 35.625 C-33.353125 33.52125 -33.45625 31.4175 -33.5625 29.25 C-33.53801538 21.16191323 -31.8673036 15.62794365 -26.41796875 9.59765625 C-18.29894332 2.02310195 -11.01739905 -0.11203576 0 0 Z " fill="#C3DFBF" transform="translate(171.25,41.375)" />
    <path d="M0 0 C0.95068359 -0.01095703 1.90136719 -0.02191406 2.88085938 -0.03320312 C10.00239931 0.04041721 15.64024076 1.36126167 20.9375 6.31640625 C24.95644758 12.77742267 24.0625 14.88295578 24.0625 23.5625 C16.4725 23.5625 8.8825 23.5625 1.0625 23.5625 C1.0625 39.0725 1.0625 54.5825 1.0625 70.5625 C-17.0875 70.5625 -35.2375 70.5625 -53.9375 70.5625 C-53.9375 55.0525 -53.9375 39.5425 -53.9375 23.5625 C-43.3775 23.5625 -32.8175 23.5625 -21.9375 23.5625 C-21.9375 19.9325 -21.9375 16.3025 -21.9375 12.5625 C-17.64524453 1.91770643 -10.54426756 -0.2634287 0 0 Z " fill="#73CE7D" transform="translate(170.9375,53.4375)" />
    <path d="M0 0 C18.15 0 36.3 0 55 0 C55 12.87 55 25.74 55 39 C36.85 39 18.7 39 0 39 C0 26.13 0 13.26 0 0 Z " fill="#16623C" transform="translate(117,124)" />
    <path d="M0 0 C1.1122998 0.00837891 2.22459961 0.01675781 3.37060547 0.02539062 C14.10454264 0.32176016 21.19370731 2.6163413 28.8125 10.5 C34.99942458 18.51282184 35.15956856 25.67400103 34.75 35.625 C31.12 35.625 27.49 35.625 23.75 35.625 C23.6675 33.954375 23.585 32.28375 23.5 30.5625 C22.97358138 25.10178422 22.1821306 21.93716409 18.75 17.625 C12.80462769 13.33343965 6.8154696 12.98034713 -0.3125 13.0625 C-1.26705078 13.03865234 -2.22160156 13.01480469 -3.20507812 12.99023438 C-9.87561948 13.00404502 -13.26460026 14.15739145 -18.25 18.625 C-21.96846311 23.83084835 -21.8712543 29.41357059 -22.25 35.625 C-25.88 35.625 -29.51 35.625 -33.25 35.625 C-33.84125702 26.50650281 -33.82580773 19.17191651 -28.25 11.625 C-20.12927388 2.63852482 -11.92138738 -0.1212284 0 0 Z " fill="#88C88D" transform="translate(171.25,41.375)" />
    <path d="M0 0 C0.95068359 -0.01095703 1.90136719 -0.02191406 2.88085938 -0.03320312 C10.00239931 0.04041721 15.64024076 1.36126167 20.9375 6.31640625 C24.95644758 12.77742267 24.0625 14.88295578 24.0625 23.5625 C8.8825 23.5625 -6.2975 23.5625 -21.9375 23.5625 C-21.9375 10.69070513 -21.9375 10.69070513 -17.9375 5.5625 C-12.08047972 0.31430157 -7.72199408 -0.1929195 0 0 Z " fill="#222322" transform="translate(170.9375,53.4375)" />
    <path d="M0 0 C3.79048927 1.26249603 6.02694541 3.67830065 8.73217773 6.49072266 C9.28000412 7.04420883 9.82783051 7.59769501 10.39225769 8.16795349 C12.13369401 9.93171651 13.86068008 11.70889427 15.58764648 13.48681641 C16.76835945 14.68759906 17.94999032 15.88747988 19.13256836 17.08642578 C22.02416918 20.0220447 24.9028918 22.96977123 27.77514648 25.92431641 C24.14583075 30.25315475 20.42547865 34.39088062 16.40014648 38.36181641 C15.52616211 39.22677734 14.65217773 40.09173828 13.75170898 40.98291016 C13.09944336 41.62357422 12.44717773 42.26423828 11.77514648 42.92431641 C8.54998985 41.51941191 6.53960566 39.87306455 4.16577148 37.29150391 C3.49288086 36.56705078 2.81999023 35.84259766 2.12670898 35.09619141 C1.43319336 34.33822266 0.73967773 33.58025391 0.02514648 32.79931641 C-1.34334781 31.3163473 -2.71313807 29.83457306 -4.08422852 28.35400391 C-4.75905273 27.6227832 -5.43387695 26.8915625 -6.12915039 26.13818359 C-8.92167367 23.18820676 -11.8302149 20.36559267 -14.76489258 17.55761719 C-16.22485352 15.92431641 -16.22485352 15.92431641 -16.22485352 13.92431641 C-15.56485352 13.92431641 -14.90485352 13.92431641 -14.22485352 13.92431641 C-14.13977539 13.33779297 -14.05469727 12.75126953 -13.96704102 12.14697266 C-13.0148383 9.2953761 -11.66136463 8.25420737 -9.34985352 6.36181641 C-6.38246399 3.93679562 -6.38246399 3.93679562 -3.77954102 1.14697266 C-2.22485352 -0.07568359 -2.22485352 -0.07568359 0 0 Z " fill="#153159" transform="translate(23.224853515625,134.07568359375)" />
    <path d="M0 0 C1.11084961 0.02030273 1.11084961 0.02030273 2.24414062 0.04101562 C4.05891075 0.07614021 5.87330288 0.12994028 7.6875 0.1875 C7.6875 3.4875 7.6875 6.7875 7.6875 10.1875 C6.90246094 10.27386719 6.11742187 10.36023437 5.30859375 10.44921875 C-1.30877409 11.33424095 -6.58776891 12.22722514 -11.3125 17.1875 C-15.03096311 22.39334835 -14.9337543 27.97607059 -15.3125 34.1875 C-18.9425 34.1875 -22.5725 34.1875 -26.3125 34.1875 C-26.90272387 25.08493631 -26.90335133 17.71364602 -21.3125 10.1875 C-18.83752297 7.55284703 -16.25299542 5.28705828 -13.3125 3.1875 C-12.57644531 2.63320313 -11.84039063 2.07890625 -11.08203125 1.5078125 C-7.38051961 -0.25680095 -4.00435328 -0.13956191 0 0 Z " fill="#A2DFA3" transform="translate(164.3125,42.8125)" />
    <path d="M0 0 C0.99 0 1.98 0 3 0 C3 4.95 3 9.9 3 15 C2.01 14.34 1.02 13.68 0 13 C-0.29296875 9.9609375 -0.29296875 9.9609375 -0.1875 6.375 C-0.16042969 5.18648437 -0.13335938 3.99796875 -0.10546875 2.7734375 C-0.07066406 1.85820313 -0.03585937 0.94296875 0 0 Z " fill="#292A28" transform="translate(210,92)" />
    <path d="M0 0 C0.99 0 1.98 0 3 0 C3 4.29 3 8.58 3 13 C2.01 13 1.02 13 0 13 C0 8.71 0 4.42 0 0 Z " fill="#272626" transform="translate(198,92)" />
    <path d="M0 0 C0.33 0 0.66 0 1 0 C1.33 1.65 1.66 3.3 2 5 C2.33 5 2.66 5 3 5 C3 7.97 3 10.94 3 14 C2.01 14 1.02 14 0 14 C0 9.38 0 4.76 0 0 Z " fill="#BED8B9" transform="translate(205,98)" />
    <path d="M0 0 C0.33 0 0.66 0 1 0 C1.33 4.95 1.66 9.9 2 15 C1.34 15 0.68 15 0 15 C0 16.65 0 18.3 0 20 C-0.33 20 -0.66 20 -1 20 C-0.67 13.4 -0.34 6.8 0 0 Z " fill="#0D3573" transform="translate(22,87)" />
    <path d="M0 0 C0.66 0.66 1.32 1.32 2 2 C-0.31 4.31 -2.62 6.62 -5 9 C-5.66 8.34 -6.32 7.68 -7 7 C-4.69 4.69 -2.38 2.38 0 0 Z " fill="#D2D4D8" transform="translate(46,165)" />
    <path d="M0 0 C3.7952131 1.49097658 5.61042731 3.75700849 8 7 C5 7 5 7 2.3125 4.625 C0 2 0 2 0 0 Z " fill="#C7CCD2" transform="translate(17,161)" />
    <path d="M0 0 C0 3 0 3 -1.3125 4.38671875 C-2.875 5.59114583 -4.4375 6.79557292 -6 8 C-6 5 -6 5 -4.6875 3.61328125 C-3.125 2.40885417 -1.5625 1.20442708 0 0 Z " fill="#98D399" transform="translate(151,46)" />
</svg>