<?xml version="1.0" encoding="UTF-8"?>
<svg version="1.1" xmlns="http://www.w3.org/2000/svg" width="200" height="200" viewBox="0 0 200 200">
    <path d="M0 0 C0.87462891 0.00451172 1.74925781 0.00902344 2.65039062 0.01367188 C4.78779047 0.02535166 6.92515463 0.04328311 9.0625 0.0625 C9.0625 0.3925 9.0625 0.7225 9.0625 1.0625 C3.7825 1.0625 -1.4975 1.0625 -6.9375 1.0625 C-5.761875 2.980625 -4.58625 4.89875 -3.375 6.875 C-1.37109375 10.14453125 -1.37109375 10.14453125 0.0625 13.0625 C-0.2675 14.0525 -0.5975 15.0425 -0.9375 16.0625 C-0.15375 16.18625 0.63 16.31 1.4375 16.4375 C4.0625 17.0625 4.0625 17.0625 6.0625 19.0625 C2.16952773 20.36015742 0.18843049 20.57353727 -3.60546875 18.8515625 C-9.64439251 15.1699014 -14.9529108 10.97818704 -18.9375 5.0625 C-18.9375 4.4025 -18.9375 3.7425 -18.9375 3.0625 C-18.2775 3.0625 -17.6175 3.0625 -16.9375 3.0625 C-16.9375 2.4025 -16.9375 1.7425 -16.9375 1.0625 C-11.24910882 0.0822752 -5.76455667 -0.05698801 0 0 Z " fill="#D8AB4F" transform="translate(17,16)" />
</svg>