<?xml version="1.0" encoding="UTF-8"?>
<svg version="1.1" xmlns="http://www.w3.org/2000/svg" width="200" height="200" viewBox="0 0 200 200">
    <path d="M0 0 C7.26 0 14.52 0 22 0 C22.54786493 15.5228396 18.34398143 29.7536266 8.3125 41.875 C-1.88682317 52.4477088 -15.15266527 58.74444426 -29.6015625 60.640625 C-32.00703437 60.87445989 -32.00703437 60.87445989 -34 62 C-36.04055005 62.07065617 -38.08334257 62.08421976 -40.125 62.0625 C-41.22070312 62.05347656 -42.31640625 62.04445313 -43.4453125 62.03515625 C-44.28835937 62.02355469 -45.13140625 62.01195312 -46 62 C-46 58.7 -46 55.4 -46 52 C-44.741875 51.5875 -43.48375 51.175 -42.1875 50.75 C-41.36378906 50.4715625 -40.54007813 50.193125 -39.69140625 49.90625 C-37.91272387 49.30733227 -36.12882057 48.72367877 -34.33984375 48.15625 C-20.99210558 43.70060215 -11.19685681 36.62743634 -4.6875 24.0625 C-1.19665795 16.14992468 -0.69586725 8.55916715 0 0 Z " fill="#FAF3F3" transform="translate(17,16)" />
</svg>