<?xml version="1.0" encoding="UTF-8"?>
<svg version="1.1" xmlns="http://www.w3.org/2000/svg" width="200" height="200" viewBox="0 0 200 200">
    <path d="M0 0 C7.92 0 15.84 0 24 0 C24.33 15.18 24.66 30.36 25 46 C44.50447336 35.55453405 44.50447336 35.55453405 63.2265625 23.74609375 C66 22 66 22 69 22 C69.62648438 23.12019531 70.25296875 24.24039062 70.8984375 25.39453125 C71.72389523 26.86722287 72.54941954 28.33987718 73.375 29.8125 C73.99375 30.91948242 73.99375 30.91948242 74.625 32.04882812 C75.02460937 32.76103516 75.42421875 33.47324219 75.8359375 34.20703125 C76.20251465 34.8616333 76.5690918 35.51623535 76.94677734 36.19067383 C77.90206799 37.83176306 78.9466896 39.4200344 80 41 C80 41.99 80 42.98 80 44 C79.33170166 44.3717334 78.66340332 44.7434668 77.97485352 45.12646484 C64.55640016 52.59714875 51.18733832 60.12750367 38 68 C41.57959717 71.00789053 45.22154341 73.39371697 49.296875 75.6796875 C49.88994446 76.01493439 50.48301392 76.35018127 51.09405518 76.69558716 C52.97703341 77.7596037 54.86314425 78.81787697 56.75 79.875 C64.68195088 84.32438012 72.53821319 88.77972799 80 94 C78.39610141 98.18605527 76.34286368 101.85559287 73.9375 105.625 C71.07183463 110.10772343 71.07183463 110.10772343 69 115 C64.46743827 114.43979574 61.16620331 112.51539446 57.375 110.125 C56.05041402 109.30967719 54.72484274 108.49595356 53.3984375 107.68359375 C52.69299805 107.25030762 51.98755859 106.81702148 51.26074219 106.37060547 C47.2097489 103.9146361 43.10384858 101.55371903 39 99.1875 C37.81736572 98.50421631 37.81736572 98.50421631 36.61083984 97.80712891 C32.08086054 95.19230975 27.54141082 92.59509189 23 90 C23 105.18 23 120.36 23 136 C15.41 136 7.82 136 0 136 C0 120.82 0 105.64 0 90 C-11.46601736 96.37000964 -22.8233004 102.75470031 -33.99609375 109.59960938 C-34.98480469 110.18935547 -35.97351563 110.77910156 -36.9921875 111.38671875 C-37.86214355 111.91483154 -38.73209961 112.44294434 -39.62841797 112.98706055 C-42 114 -42 114 -44.16992188 113.86352539 C-47.48294367 112.30027058 -48.88490235 108.82997283 -50.625 105.75 C-51.21667969 104.74646484 -51.21667969 104.74646484 -51.8203125 103.72265625 C-53.85541428 100.22310624 -55.54127422 96.78502239 -57 93 C-56.26064209 92.59273682 -55.52128418 92.18547363 -54.75952148 91.76586914 C-34.69021319 80.71154735 -34.69021319 80.71154735 -15 69 C-17.44678145 66.26130208 -20.09512396 64.68425582 -23.3046875 62.92578125 C-24.35785156 62.3440918 -25.41101563 61.76240234 -26.49609375 61.16308594 C-27.61113281 60.55239258 -28.72617187 59.94169922 -29.875 59.3125 C-44.80603448 51.0407069 -44.80603448 51.0407069 -51 47.25 C-51.969375 46.65703125 -52.93875 46.0640625 -53.9375 45.453125 C-56 44 -56 44 -57 42 C-56.01196289 39.93701172 -56.01196289 39.93701172 -54.47265625 37.4296875 C-53.92802734 36.53378906 -53.38339844 35.63789063 -52.82226562 34.71484375 C-52.24154297 33.77769531 -51.66082031 32.84054687 -51.0625 31.875 C-50.48564453 30.93011719 -49.90878906 29.98523438 -49.31445312 29.01171875 C-47.88340205 26.66999881 -46.44501781 24.33311811 -45 22 C-37.08869393 26.290294 -29.22246104 30.6566566 -21.375 35.0625 C-19.23706035 36.26186348 -17.09904091 37.46108474 -14.9609375 38.66015625 C-14.03071777 39.18230713 -13.10049805 39.70445801 -12.14208984 40.24243164 C-8.09958357 42.50365951 -4.04905729 44.75052373 0 47 C0 31.49 0 15.98 0 0 Z " fill="#F9BD24" transform="translate(17,16)" />
</svg>