<?xml version="1.0" encoding="UTF-8"?>
<svg version="1.1" xmlns="http://www.w3.org/2000/svg" width="200" height="200" viewBox="0 0 200 200">
    <path d="M0 0 C21.36869569 -0.0950189 42.65422065 -0.12346207 64 1 C64 10.9 64 20.8 64 31 C59.05 32.485 59.05 32.485 54 34 C47.42089326 37.55918889 44.44730718 41.93962708 42 49 C40.68658333 55.22144738 42.87257136 60.6894637 46 66 C51.41390625 72.38563302 55.78238764 73.94559691 64 76 C64 85.9 64 95.8 64 106 C42.65638113 107.12334836 21.36633019 107.10302756 0 107 C-0.24828873 102.5529579 -0.42909832 98.10963106 -0.54931641 93.65771484 C-0.59943968 92.14593236 -0.66756841 90.63463087 -0.75439453 89.12451172 C-1.02728854 84.25415624 -1.1154773 79.77075909 0 75 C2.37988872 72.57708504 4.39079397 71.44730154 7.52929688 70.18847656 C11.33402888 68.3582952 12.62345176 65.56438583 14.21875 61.78125 C15.84146594 56.00438127 16.25989516 50.27786284 14.078125 44.6015625 C10.69283879 38.68830281 6.00565381 36.0028269 0 33 C0 22.11 0 11.22 0 0 Z " fill="#FDEFE0" transform="translate(17,16)" />
</svg>