<?xml version="1.0" encoding="UTF-8"?>
<svg version="1.1" xmlns="http://www.w3.org/2000/svg" width="200" height="200" viewBox="0 0 200 200">
    <path d="M0 0 C52.8 0 105.6 0 160 0 C160 54.78 160 109.56 160 166 C107.2 166 54.4 166 0 166 C0 111.22 0 56.44 0 0 Z " fill="#347446" transform="translate(130.8125,105)" />
    <path d="M0 0 C3.09896836 1.98138413 3.09896836 1.98138413 5.91796875 1.69921875 C8.82380282 0.58446057 11.53429802 -0.72181236 14.2890625 -2.171875 C21.66376314 -6.0447823 27.52329677 -7.62357057 35.7890625 -7.609375 C37.1049939 -7.6091333 37.1049939 -7.6091333 38.44750977 -7.60888672 C48.37263508 -7.43743715 57.18835628 -5.03667739 66.3515625 -1.234375 C65.60440134 15.31524469 58.99194717 31.8583532 47.3515625 43.765625 C42.64652442 47.7020538 38.52170226 50.87791395 32.3515625 51.765625 C32.40376953 53.09013672 32.40376953 53.09013672 32.45703125 54.44140625 C32.6380297 62.4656709 31.95596858 69.18256358 29.3515625 76.765625 C29.14660156 77.44882813 28.94164062 78.13203125 28.73046875 78.8359375 C25.23656918 89.55634985 17.59062109 99.25510053 9.3515625 106.765625 C6.546875 108.07421875 6.546875 108.07421875 4.3515625 108.765625 C-6.88808994 100.13181377 -14.59270507 88.91760027 -19.6484375 75.765625 C-19.91398438 75.0953125 -20.17953125 74.425 -20.453125 73.734375 C-21.50652638 70.44429946 -21.7298124 67.16049169 -21.7578125 63.72265625 C-21.76377441 62.99216064 -21.76973633 62.26166504 -21.77587891 61.5090332 C-21.77234296 58.25985299 -21.71939781 55.01403027 -21.6484375 51.765625 C-22.51597656 51.68183594 -23.38351562 51.59804687 -24.27734375 51.51171875 C-32.0740607 49.78614177 -39.01059512 43.169389 -43.5859375 36.828125 C-51.07516116 25.03077997 -56.09428432 12.84111587 -56.6484375 -1.234375 C-39.38225516 -10.01668009 -16.73125711 -10.49202416 0 0 Z " fill="#F1F8D8" transform="translate(204.4609375,148.234375)" />
    <path d="M0 0 C0.77988281 0.24492188 1.55976562 0.48984375 2.36328125 0.7421875 C16.47110525 5.7007695 24.32280593 16.23651399 31 29 C32.19404546 25.41786361 32.168824 22.46378742 32.1875 18.6875 C32.20167969 17.39199219 32.21585938 16.09648438 32.23046875 14.76171875 C32.00819391 11.1337412 31.32059222 8.3667272 30 5 C31.6029053 4.18501438 33.20737278 3.37310073 34.8125 2.5625 C35.70582031 2.11003906 36.59914063 1.65757813 37.51953125 1.19140625 C41.0286106 -0.49405706 43.71253016 -1.12740524 47.5625 -1.1328125 C48.44164062 -1.13410156 49.32078125 -1.13539062 50.2265625 -1.13671875 C51.14179687 -1.13285156 52.05703125 -1.12898438 53 -1.125 C54.37285156 -1.13080078 54.37285156 -1.13080078 55.7734375 -1.13671875 C56.65257812 -1.13542969 57.53171875 -1.13414063 58.4375 -1.1328125 C59.24058594 -1.13168457 60.04367187 -1.13055664 60.87109375 -1.12939453 C63 -1 63 -1 66 0 C65.63284586 11.19820117 60.50372284 19.46940156 52.42578125 27.05859375 C42.39429575 35.08701291 31.53062532 36.76319673 19 36 C18.01 35.505 18.01 35.505 17 35 C21.9945471 41.61042998 27.09122804 43.94371929 35 46 C36.12321975 58.5218202 32.7878685 68.41795295 25.125 78.375 C24.09888406 79.5965666 23.0634027 80.81075083 22 82 C16.06684661 79.54490205 13.36353741 73.94644519 10.76171875 68.32421875 C6.82070118 58.650812 5.13633382 49.28784951 8.9453125 39.203125 C11.48252919 33.90316124 14.72599758 29.04503801 19 25 C13.08092587 24.51681028 9.66719448 25.58047137 5 29 C2.64340632 31.10280634 2.64340632 31.10280634 1 33 C-8.1942027 30.37308494 -15.1388726 24.80021179 -20 16.64453125 C-25.47573408 6.37872023 -25.47573408 6.37872023 -25 0 C-17.01593321 -3.45256942 -8.09624799 -2.72484942 0 0 Z " fill="#38794B" transform="translate(188.8125,156)" />
    <path d="M0 0 C-0.0625 2.125 -0.0625 2.125 -1 5 C-2.44921875 6.3515625 -2.44921875 6.3515625 -4.25 7.75 C-8.59612138 11.17313065 -10.54336829 15.08673657 -13 20 C-7.72 20 -2.44 20 3 20 C-0.63719605 22.42479736 -2.85703482 22.38662577 -7.1875 22.625 C-8.45980469 22.69976563 -9.73210938 22.77453125 -11.04296875 22.8515625 C-12.01878906 22.90054687 -12.99460937 22.94953125 -14 23 C-14.66 26.96 -15.32 30.92 -16 35 C-9.73 35 -3.46 35 3 35 C3 32.69 3 30.38 3 28 C3.28520405 26.32442621 3.59955696 24.65182755 4 23 C4.33 23 4.66 23 5 23 C5.495 28.445 5.495 28.445 6 34 C9.3 34.33 12.6 34.66 16 35 C16 35.66 16 36.32 16 37 C11.05 37.495 11.05 37.495 6 38 C5.67 41.63 5.34 45.26 5 49 C13.415 48.505 13.415 48.505 22 48 C23.485 42.555 23.485 42.555 25 37 C25.33 37 25.66 37 26 37 C26 40.96 26 44.92 26 49 C28.31 49 30.62 49 33 49 C33.13921875 48.43410156 33.2784375 47.86820313 33.421875 47.28515625 C33.80117604 45.78589199 34.20669061 44.29296687 34.640625 42.80859375 C36.43543232 35.82495244 35.3800748 30.73074916 33 24 C30.69 23.67 28.38 23.34 26 23 C26 26.63 26 30.26 26 34 C25.01 33.505 25.01 33.505 24 33 C23.5859375 30.71484375 23.5859375 30.71484375 23.375 27.9375 C23.30023437 27.01839844 23.22546875 26.09929687 23.1484375 25.15234375 C23.09945312 24.44207031 23.05046875 23.73179688 23 23 C22.35933594 23.02320313 21.71867188 23.04640625 21.05859375 23.0703125 C15.59012904 23.18440863 11.16901723 22.79791904 6 21 C6 20.67 6 20.34 6 20 C10.95 20 15.9 20 21 20 C21.33 18.68 21.66 17.36 22 16 C22.66 16.33 23.32 16.66 24 17 C24 17.99 24 18.98 24 20 C26.31 20 28.62 20 31 20 C30.09066991 18.72390677 29.17217147 17.45434447 28.25 16.1875 C27.73953125 15.47980469 27.2290625 14.77210937 26.703125 14.04296875 C24.97517642 11.97022309 23.21473524 10.52624146 21 9 C21.33 8.01 21.66 7.02 22 6 C27.2936437 7.40125863 29.9767913 10.65959276 33 15 C38.79624626 25.11623676 40.95189471 34.62199577 37.875 46.1875 C34.55408868 55.79661841 27.89429623 64.02305068 19.04296875 69.12890625 C11.20769941 72.66245909 1.0410285 73.63077339 -7.1875 70.9375 C-17.30663686 66.43543079 -24.66069235 58.04892298 -29 48 C-31.5700747 39.07201504 -31.4757643 27.80060349 -27.5 19.375 C-22.30692711 10.5820452 -14.88106397 3.38505883 -4.921875 0.37109375 C-3 0 -3 0 0 0 Z " fill="#E2AD4E" transform="translate(20.8125,149)" />
    <path d="M0 0 C6.36728941 -0.22966404 12.73349877 -0.38640197 19.10400391 -0.49438477 C21.26717025 -0.53943055 23.43006585 -0.60068989 25.59228516 -0.67895508 C45.88307751 -1.39460543 45.88307751 -1.39460543 52.28515625 4.26171875 C54.34399414 6.6237793 54.34399414 6.6237793 56 9 C56.83893799 10.17067017 56.83893799 10.17067017 57.69482422 11.36499023 C61.66348785 17.19755141 62 20.50084613 62 28 C35.93 28 9.86 28 -17 28 C-17 18.40685053 -13.54616196 11.88186257 -7 5 C-3.6 2 -3.6 2 0 2 C0 1.34 0 0.68 0 0 Z " fill="#5FBBB1" transform="translate(186.8125,16)" />
    <path d="M0 0 C7.87600323 -0.47975654 14.15518994 -0.20510753 21 4 C21.66 4.66 22.32 5.32 23 6 C22.34 6.99 21.68 7.98 21 9 C21.59296875 9.2578125 22.1859375 9.515625 22.796875 9.78125 C25.17660965 11.09769895 26.50978792 12.42580782 28.25 14.5 C28.77078125 15.1084375 29.2915625 15.716875 29.828125 16.34375 C31 18 31 18 31 20 C28.69 20 26.38 20 24 20 C24 19.01 24 18.02 24 17 C23.34 17 22.68 17 22 17 C21.505 18.485 21.505 18.485 21 20 C16.38 20.33 11.76 20.66 7 21 C12.28 21.66 17.56 22.32 23 23 C23.66 26.3 24.32 29.6 25 33 C25.33 29.7 25.66 26.4 26 23 C28.31 23 30.62 23 33 23 C36.02578972 29.44624767 37.94937102 34.70852309 35.625 41.75 C35.09354353 43.17052851 34.55288708 44.58767458 34 46 C33.67 46.99 33.34 47.98 33 49 C30.69 49 28.38 49 26 49 C25.505 44.545 25.505 44.545 25 40 C24.01 42.97 23.02 45.94 22 49 C16.39 49 10.78 49 5 49 C4.90234375 40.50390625 4.90234375 40.50390625 5 38 C6 37 6 37 8.28515625 36.90234375 C9.65994141 36.91974609 9.65994141 36.91974609 11.0625 36.9375 C11.98160156 36.94652344 12.90070312 36.95554687 13.84765625 36.96484375 C14.55792969 36.97644531 15.26820313 36.98804688 16 37 C16 36.34 16 35.68 16 35 C12.7 35 9.4 35 6 35 C5.34 32.69 4.68 30.38 4 28 C3.67 30.31 3.34 32.62 3 35 C-3.27 35 -9.54 35 -16 35 C-16 25.18378378 -16 25.18378378 -14 23 C-10.7421875 22.171875 -10.7421875 22.171875 -6.875 21.75 C-5.59367188 21.60046875 -4.31234375 21.4509375 -2.9921875 21.296875 C-2.00476563 21.19890625 -1.01734375 21.1009375 0 21 C-4.29 20.67 -8.58 20.34 -13 20 C-11.25801108 14.77403324 -10.48101702 12.92596344 -7 9.125 C-6.29875 8.34382813 -5.5975 7.56265625 -4.875 6.7578125 C-3 5 -3 5 -1 5 C-0.67 3.35 -0.34 1.7 0 0 Z " fill="#AB8B4F" transform="translate(20.8125,149)" />
    <path d="M0 0 C0.77988281 0.24492188 1.55976562 0.48984375 2.36328125 0.7421875 C11.80472024 4.06064039 20.08337365 10.18398033 25 19 C24.61328125 21.203125 24.61328125 21.203125 24 23 C23.05640625 23.03867188 23.05640625 23.03867188 22.09375 23.078125 C13.08060046 23.6753819 7.0143112 26.2338999 1 33 C-8.1942027 30.37308494 -15.1388726 24.80021179 -20 16.64453125 C-25.47573408 6.37872023 -25.47573408 6.37872023 -25 0 C-17.01593321 -3.45256942 -8.09624799 -2.72484942 0 0 Z " fill="#224629" transform="translate(188.8125,156)" />
    <path d="M0 0 C0.99 0 1.98 0 3 0 C4.61328125 1.64453125 4.61328125 1.64453125 6.3125 3.8125 C11.03085446 9.42111002 16.09503261 11.20470848 23 13 C24.12321975 25.5218202 20.7878685 35.41795295 13.125 45.375 C12.09888406 46.5965666 11.0634027 47.81075083 10 49 C4.06684661 46.54490205 1.36353741 40.94644519 -1.23828125 35.32421875 C-5.29418792 25.36881148 -6.67924989 16.31514489 -2.8515625 5.97265625 C-1.9740103 3.93979451 -1.01290534 1.96855951 0 0 Z " fill="#23492B" transform="translate(200.8125,189)" />
    <path d="M0 0 C-0.0625 2.125 -0.0625 2.125 -1 5 C-2.44921875 6.3515625 -2.44921875 6.3515625 -4.25 7.75 C-8.59612138 11.17313065 -10.54336829 15.08673657 -13 20 C-7.72 20 -2.44 20 3 20 C-0.63719605 22.42479736 -2.85703482 22.38662577 -7.1875 22.625 C-8.45980469 22.69976563 -9.73210938 22.77453125 -11.04296875 22.8515625 C-12.01878906 22.90054687 -12.99460937 22.94953125 -14 23 C-14.66 26.96 -15.32 30.92 -16 35 C-9.73 35 -3.46 35 3 35 C3 32.69 3 30.38 3 28 C3.28520405 26.32442621 3.59955696 24.65182755 4 23 C4.33 23 4.66 23 5 23 C5.495 28.445 5.495 28.445 6 34 C9.3 34.33 12.6 34.66 16 35 C16 35.66 16 36.32 16 37 C11.05 37.495 11.05 37.495 6 38 C5.67 41.63 5.34 45.26 5 49 C4.67 49 4.34 49 4 49 C3.505 43.06 3.505 43.06 3 37 C-3.27 37 -9.54 37 -16 37 C-15.01 42.445 -15.01 42.445 -14 48 C-8.39 48.33 -2.78 48.66 3 49 C3 49.33 3 49.66 3 50 C-0.02038089 50.33794471 -3.04119756 50.67048433 -6.0625 51 C-6.91005859 51.09539062 -7.75761719 51.19078125 -8.63085938 51.2890625 C-13.45472589 51.81056158 -18.14836264 52.10532727 -23 52 C-23 52.66 -23 53.32 -23 54 C-23.99 54 -24.98 54 -26 54 C-31.00871846 44.41810382 -32.04027919 32.88123682 -28.94140625 22.4296875 C-24.25516858 12.4984196 -17.05860399 5.40536603 -7 1 C-4.46198068 0.23191521 -2.69094853 0 0 0 Z " fill="#DAA94F" transform="translate(20.8125,149)" />
    <path d="M0 0 C6.18437504 1.63704045 9.09393724 6.15587494 12.4921875 11.2265625 C17.30930887 19.58168261 16.99061318 28.07140523 15 37.3125 C14.67 38.529375 14.34 39.74625 14 41 C13.67 41 13.34 41 13 41 C13.10699219 40.26136719 13.21398437 39.52273438 13.32421875 38.76171875 C14.22480788 31.14060426 13.52094796 25.23526308 11 18 C8.69 17.67 6.38 17.34 4 17 C4 20.63 4 24.26 4 28 C3.34 27.67 2.68 27.34 2 27 C1.5859375 24.71484375 1.5859375 24.71484375 1.375 21.9375 C1.30023437 21.01839844 1.22546875 20.09929687 1.1484375 19.15234375 C1.09945312 18.44207031 1.05046875 17.73179688 1 17 C0.35933594 17.02320313 -0.28132812 17.04640625 -0.94140625 17.0703125 C-6.40987096 17.18440863 -10.83098277 16.79791904 -16 15 C-16 14.67 -16 14.34 -16 14 C-11.05 14 -6.1 14 -1 14 C-0.67 12.68 -0.34 11.36 0 10 C0.66 10.33 1.32 10.66 2 11 C2 11.99 2 12.98 2 14 C4.31 14 6.62 14 9 14 C8.09066991 12.72390677 7.17217147 11.45434447 6.25 10.1875 C5.73953125 9.47980469 5.2290625 8.77210937 4.703125 8.04296875 C2.97517642 5.97022309 1.21473524 4.52624146 -1 3 C-0.67 2.01 -0.34 1.02 0 0 Z " fill="#DAAD5C" transform="translate(42.8125,155)" />
    <path d="M0 0 C-0.0625 2.125 -0.0625 2.125 -1 5 C-2.44921875 6.3515625 -2.44921875 6.3515625 -4.25 7.75 C-8.59612138 11.17313065 -10.54336829 15.08673657 -13 20 C-7.72 20 -2.44 20 3 20 C-1.41104217 22.94069478 -5.74240949 22.44345233 -10.9453125 22.65625 C-11.95335937 22.7696875 -12.96140625 22.883125 -14 23 C-14.33 23.66 -14.66 24.32 -15 25 C-15.33 24.67 -15.66 24.34 -16 24 C-16.33 26.31 -16.66 28.62 -17 31 C-17.33 31 -17.66 31 -18 31 C-18.25 23.375 -18.25 23.375 -16 20 C-18.31 20 -20.62 20 -23 20 C-20.02914407 13.31557415 -15.10734103 8.84683169 -9 5 C-8.34 5 -7.68 5 -7 5 C-7 3.68 -7 2.36 -7 1 C-4.50935112 0.31292445 -2.62113708 0 0 0 Z " fill="#D4A756" transform="translate(20.8125,149)" />
    <path d="M0 0 C6.27 0 12.54 0 19 0 C18.125 9.875 18.125 9.875 17 11 C14.13732433 11.07325168 11.299281 11.09238205 8.4375 11.0625 C7.63119141 11.05798828 6.82488281 11.05347656 5.99414062 11.04882812 C3.99606244 11.03700518 1.99802217 11.01906914 0 11 C0 7.37 0 3.74 0 0 Z " fill="#142A3F" transform="translate(25.8125,187)" />
    <path d="M0 0 C5.61 0 11.22 0 17 0 C17 3.63 17 7.26 17 11 C11.39 11 5.78 11 0 11 C0 7.37 0 3.74 0 0 Z " fill="#092643" transform="translate(26.8125,172)" />
    <path d="M0 0 C3.13614201 4.03218259 6.05405327 7.89188765 7 13 C6.01 13.495 6.01 13.495 5 14 C5.66 14.66 6.32 15.32 7 16 C1.72 16 -3.56 16 -9 16 C-9.33 15.01 -9.66 14.02 -10 13 C-10.66 12.67 -11.32 12.34 -12 12 C-10.02 9.69 -8.04 7.38 -6 5 C-7.65 4.67 -9.3 4.34 -11 4 C-11 3.67 -11 3.34 -11 3 C-10.28972656 2.95101563 -9.57945312 2.90203125 -8.84765625 2.8515625 C-7.92855469 2.77679687 -7.00945313 2.70203125 -6.0625 2.625 C-5.14597656 2.55539062 -4.22945312 2.48578125 -3.28515625 2.4140625 C-2.15400391 2.20910156 -2.15400391 2.20910156 -1 2 C-0.67 1.34 -0.34 0.68 0 0 Z " fill="#4D9A66" transform="translate(213.8125,176)" />
    <path d="M0 0 C0 5.61 0 11.22 0 17 C-5.28 17 -10.56 17 -16 17 C-14.2742547 11.82276411 -13.555289 10.00390117 -10.125 6.25 C-9.44695313 5.49203125 -8.76890625 4.7340625 -8.0703125 3.953125 C-5.56740219 1.59188885 -3.50726538 0 0 0 Z " fill="#122D43" transform="translate(23.8125,152)" />
    <path d="M0 0 C5.71980453 1.14396091 8.94293701 3.11378239 12.26953125 7.78125 C14.00099441 10.66906136 15 12.59354931 15 16 C10.05 16 5.1 16 0 16 C0 10.72 0 5.44 0 0 Z " fill="#0D253B" transform="translate(26.8125,153)" />
    <path d="M0 0 C0.33 0 0.66 0 1 0 C1.64487408 13.90061911 -1.40915304 22.85836552 -10.125 33.625 C-11.053125 34.305625 -11.053125 34.305625 -12 35 C-14.0625 34.5625 -14.0625 34.5625 -16 34 C-17.64594139 35.39588754 -17.64594139 35.39588754 -19 37 C-19.66 37 -20.32 37 -21 37 C-20.58041016 36.16855469 -20.58041016 36.16855469 -20.15234375 35.3203125 C-19.35711275 33.71906771 -18.57948262 32.10900279 -17.81640625 30.4921875 C-17.40261719 29.62851563 -16.98882813 28.76484375 -16.5625 27.875 C-16.15128906 27.00617188 -15.74007812 26.13734375 -15.31640625 25.2421875 C-14 23 -14 23 -11 21 C-11 20.67 -11 20.34 -11 20 C-9.02 20 -7.04 20 -5 20 C-4.87625 19.38125 -4.7525 18.7625 -4.625 18.125 C-4 16 -4 16 -2 14 C-1.54152311 11.63969304 -1.17856869 9.2601826 -0.875 6.875 C-0.70742188 5.59367187 -0.53984375 4.31234375 -0.3671875 2.9921875 C-0.24601563 2.00476562 -0.12484375 1.01734375 0 0 Z " fill="#C2994E" transform="translate(58.8125,178)" />
    <path d="M0 0 C4.95 0 9.9 0 15 0 C13.43038283 6.27846867 9.89926623 10.81769956 5 15 C3.35 15.33 1.7 15.66 0 16 C0 10.72 0 5.44 0 0 Z " fill="#08233D" transform="translate(26.8125,201)" />
    <path d="M0 0 C0.33 0.66 0.66 1.32 1 2 C26.41 2 51.82 2 78 2 C78 2.66 78 3.32 78 4 C51.93 4 25.86 4 -1 4 C-0.67 2.68 -0.34 1.36 0 0 Z " fill="#5AAEAC" transform="translate(170.8125,40)" />
    <path d="M0 0 C0.33 0 0.66 0 1 0 C1 5.28 1 10.56 1 16 C8.75938731 12.12030635 12.51052696 7.94824414 16 0 C16.66 0.66 17.32 1.32 18 2 C17.85884889 6.94028892 14.9187003 10.2627712 12 14 C13.98 12.68 15.96 11.36 18 10 C18.99 11.485 18.99 11.485 20 13 C10.74728784 19.44736858 3.09930779 20.33297923 -8 20 C-8 19.67 -8 19.34 -8 19 C-5.69 18.34 -3.38 17.68 -1 17 C-0.67 11.39 -0.34 5.78 0 0 Z " fill="#CDA24D" transform="translate(25.8125,201)" />
    <path d="M0 0 C5.53846154 0.61538462 5.53846154 0.61538462 7.875 2.5625 C8.431875 3.2740625 8.431875 3.2740625 9 4 C8.01 5.485 8.01 5.485 7 7 C7.59296875 7.2578125 8.1859375 7.515625 8.796875 7.78125 C11.17660965 9.09769895 12.50978792 10.42580782 14.25 12.5 C14.77078125 13.1084375 15.2915625 13.716875 15.828125 14.34375 C17 16 17 16 17 18 C14.69 18 12.38 18 10 18 C10 17.01 10 16.02 10 15 C9.278125 15 8.55625 15 7.8125 15 C3.43386886 13.44315337 2.17221186 9.91760315 0 6 C-0.66 5.01 -1.32 4.02 -2 3 C-1.34 2.01 -0.68 1.02 0 0 Z " fill="#E2B04C" transform="translate(34.8125,151)" />
    <path d="M0 0 C0.33 0 0.66 0 1 0 C1.33 3.63 1.66 7.26 2 11 C5.3 11.33 8.6 11.66 12 12 C12 12.66 12 13.32 12 14 C8.7 14.33 5.4 14.66 2 15 C1.67 18.63 1.34 22.26 1 26 C0.67 26 0.34 26 0 26 C-0.33 22.04 -0.66 18.08 -1 14 C-7.27 14 -13.54 14 -20 14 C-20 13.67 -20 13.34 -20 13 C-13.65758005 11.84683274 -7.43311296 11.90492937 -1 12 C-1.020625 10.948125 -1.04125 9.89625 -1.0625 8.8125 C-1.01103198 5.67295096 -0.73482813 3.03116604 0 0 Z " fill="#F1BA58" transform="translate(24.8125,172)" />
    <path d="M0 0 C2.64 0 5.28 0 8 0 C8.28571429 7.42857143 8.28571429 7.42857143 6 11 C3.69 11 1.38 11 -1 11 C-0.67 7.37 -0.34 3.74 0 0 Z " fill="#0B1F32" transform="translate(47.8125,187)" />
    <path d="M0 0 C2.31 0 4.62 0 7 0 C8.80230168 3.82989106 9.19622241 6.78121808 9 11 C6.36 11 3.72 11 1 11 C0.67 7.37 0.34 3.74 0 0 Z " fill="#0E2237" transform="translate(46.8125,172)" />
    <path d="M0 0 C0.99 0.33 1.98 0.66 3 1 C3 1.99 3 2.98 3 4 C5.31 4 7.62 4 10 4 C6.25 6 6.25 6 4 6 C4.33 9.96 4.66 13.92 5 18 C4.34 17.67 3.68 17.34 3 17 C2.5859375 14.71484375 2.5859375 14.71484375 2.375 11.9375 C2.30023437 11.01839844 2.22546875 10.09929687 2.1484375 9.15234375 C2.09945312 8.44207031 2.05046875 7.73179688 2 7 C1.03900391 7.03480469 1.03900391 7.03480469 0.05859375 7.0703125 C-5.40987096 7.18440863 -9.83098277 6.79791904 -15 5 C-15 4.67 -15 4.34 -15 4 C-10.05 4 -5.1 4 0 4 C0 2.68 0 1.36 0 0 Z " fill="#E9B965" transform="translate(41.8125,165)" />
    <path d="M0 0 C1.93719378 -0.05406122 3.87481921 -0.09282025 5.8125 -0.125 C6.89144531 -0.14820313 7.97039063 -0.17140625 9.08203125 -0.1953125 C12 0 12 0 15 2 C13.68 3.32 12.36 4.64 11 6 C9.02 5.34 7.04 4.68 5 4 C5 9.28 5 14.56 5 20 C4.67 20 4.34 20 4 20 C3.00749455 14.29309366 2.89522488 8.78591511 3 3 C1.68 3.33 0.36 3.66 -1 4 C-0.67 2.68 -0.34 1.36 0 0 Z " fill="#E4B458" transform="translate(20.8125,149)" />
    <path d="M0 0 C5.55429293 2.52807504 10.70328633 6.46060239 13.5 11.9375 C13.665 12.618125 13.83 13.29875 14 14 C11.69 14 9.38 14 7 14 C4.66666667 9.33333333 2.33333333 4.66666667 0 0 Z " fill="#263643" transform="translate(37.8125,155)" />
    <path d="M0 0 C2.31 0 4.62 0 7 0 C4.52840765 5.84194556 0.13100452 10.39442926 -5 14 C-5.66 14 -6.32 14 -7 14 C-4.66666667 9.33333333 -2.33333333 4.66666667 0 0 Z " fill="#253745" transform="translate(44.8125,201)" />
    <path d="M0 0 C0.33 0 0.66 0 1 0 C1 3.96 1 7.92 1 12 C-1.70716242 12.90238747 -3.23776768 13.11851302 -6.01171875 13.09765625 C-7.14770508 13.09282227 -7.14770508 13.09282227 -8.30664062 13.08789062 C-9.09232422 13.07951172 -9.87800781 13.07113281 -10.6875 13.0625 C-11.48478516 13.05798828 -12.28207031 13.05347656 -13.10351562 13.04882812 C-15.06904257 13.0370585 -17.03453085 13.01912348 -19 13 C-19 12.67 -19 12.34 -19 12 C-11.08 11.505 -11.08 11.505 -3 11 C-2.01 7.37 -1.02 3.74 0 0 Z " fill="#DFAE5C" transform="translate(45.8125,186)" />
    <path d="M0 0 C0.66 0 1.32 0 2 0 C2 5.61 2 11.22 2 17 C-1.96 16.67 -5.92 16.34 -10 16 C-10 15.67 -10 15.34 -10 15 C-6.7 15 -3.4 15 0 15 C0 10.05 0 5.1 0 0 Z " fill="#23303F" transform="translate(21.8125,152)" />
    <path d="M0 0 C4.95 0 9.9 0 15 0 C15.33 0.99 15.66 1.98 16 3 C10.22192976 3.2358396 5.48675196 2.86783046 0 1 C0 0.67 0 0.34 0 0 Z " fill="#E2AB51" transform="translate(26.8125,169)" />
    <path d="M0 0 C-0.66 0.66 -1.32 1.32 -2 2 C-2.99 2 -3.98 2 -5 2 C-5 2.66 -5 3.32 -5 4 C-5.66 4 -6.32 4 -7 4 C-7.33 3.34 -7.66 2.68 -8 2 C-10.71446979 1.68758545 -13.33909361 1.48663408 -16.0625 1.375 C-17.20041992 1.31699219 -17.20041992 1.31699219 -18.36132812 1.2578125 C-20.24047195 1.16326438 -22.12020336 1.08053244 -24 1 C-24 0.67 -24 0.34 -24 0 C-21.1253509 -0.19586184 -18.25061717 -0.38193799 -15.375 -0.5625 C-14.16263672 -0.64661133 -14.16263672 -0.64661133 -12.92578125 -0.73242188 C-8.43837484 -1.00604422 -4.43137501 -0.96801881 0 0 Z " fill="#ECB355" transform="translate(49.8125,199)" />
    <path d="M0 0 C0.66 0.66 1.32 1.32 2 2 C1.83107651 5.20954624 1.21262139 6.73605621 -0.8125 9.25 C-3.02345631 11.01876505 -4.29812499 11.43356918 -7 12 C-6.57847656 11.38511719 -6.15695312 10.77023437 -5.72265625 10.13671875 C-4.90087891 8.92435547 -4.90087891 8.92435547 -4.0625 7.6875 C-3.51722656 6.88699219 -2.97195313 6.08648438 -2.41015625 5.26171875 C-0.86162674 2.9741857 -0.86162674 2.9741857 0 0 Z " fill="#D1A655" transform="translate(41.8125,201)" />
    <path d="M0 0 C1.27230469 0.00902344 2.54460938 0.01804687 3.85546875 0.02734375 C5.31919922 0.04474609 5.31919922 0.04474609 6.8125 0.0625 C3.17530395 2.48729736 0.95546518 2.44912577 -3.375 2.6875 C-4.64730469 2.76226563 -5.91960938 2.83703125 -7.23046875 2.9140625 C-8.20628906 2.96304687 -9.18210937 3.01203125 -10.1875 3.0625 C-10.1875 2.4025 -10.1875 1.7425 -10.1875 1.0625 C-6.62704823 -0.12431726 -3.74941663 -0.03439832 0 0 Z " fill="#E2AD55" transform="translate(17,168.9375)" />
    <path d="M0 0 C0.99 0 1.98 0 3 0 C3.17942163 3.94727588 3.09350689 6.5980513 1 10 C-1.31 10 -3.62 10 -6 10 C-6 9.34 -6 8.68 -6 8 C-4.02 8 -2.04 8 0 8 C0 5.36 0 2.72 0 0 Z " fill="#1F2F3D" transform="translate(52.8125,188)" />
    <path d="M0 0 C1.8903118 1.58606636 2.90247933 2.47779255 3.36328125 4.9453125 C3.23376641 10.50448814 2.42330303 15.62448944 1 21 C0.67 21 0.34 21 0 21 C0.12568359 19.85724609 0.12568359 19.85724609 0.25390625 18.69140625 C0.89118275 12.22990652 0.96321028 6.42140189 0 0 Z " fill="#EFBA57" transform="translate(55.8125,175)" />
    <path d="M0 0 C2.31 0 4.62 0 7 0 C6.67 0.99 6.34 1.98 6 3 C2.4375 4.6875 2.4375 4.6875 -1 6 C-0.67 4.02 -0.34 2.04 0 0 Z " fill="#203647" transform="translate(44.8125,201)" />
    <path d="M0 0 C-1.29299694 2.88437779 -2.65941363 4.87219421 -5 7 C-5.99 6.67 -6.98 6.34 -8 6 C-3.375 0 -3.375 0 0 0 Z " fill="#EDBC56" transform="translate(51.8125,206)" />
    <path d="M0 0 C0.66 0.33 1.32 0.66 2 1 C-0.36551942 3.73902249 -2.54857221 4.93170092 -6 6 C-8.8125 6.125 -8.8125 6.125 -11 6 C-8.66460191 4.44306794 -6.42031244 3.09799354 -3.9375 1.8125 C-2.89916016 1.26529297 -2.89916016 1.26529297 -1.83984375 0.70703125 C-1.23269531 0.47371094 -0.62554688 0.24039063 0 0 Z " fill="#C8D8D4" transform="translate(56.8125,34)" />
    <path d="M0 0 C0.9075 0.37125 1.815 0.7425 2.75 1.125 C5.88097015 2.30359299 5.88097015 2.30359299 8.375 1.125 C8.91125 0.75375 9.4475 0.3825 10 0 C9 3 9 3 6.6875 4.375 C4 5 4 5 1.6875 3.75 C0 2 0 2 0 0 Z " fill="#E3EDCD" transform="translate(204.8125,252)" />
    <path d="M0 0 C2.79872437 2.52788007 4.45773019 4.20411134 5 8 C3.125 7.8125 3.125 7.8125 1 7 C-0.3125 4.5625 -0.3125 4.5625 -1 2 C-0.67 1.34 -0.34 0.68 0 0 Z " fill="#D1A556" transform="translate(38.8125,158)" />
    <path d="M0 0 C3.91402949 1.26941497 5.79072873 2.51167694 8 6 C7.01 6 6.02 6 5 6 C4.34 5.34 3.68 4.68 3 4 C0.93125966 3.3574765 0.93125966 3.3574765 -1 3 C-0.67 2.01 -0.34 1.02 0 0 Z " fill="#D6A652" transform="translate(42.8125,155)" />
    <path d="M0 0 C6.93 0.495 6.93 0.495 14 1 C14 1.33 14 1.66 14 2 C10.7 2 7.4 2 4 2 C3.67 2.99 3.34 3.98 3 5 C1.5 3.625 1.5 3.625 0 2 C0 1.34 0 0.68 0 0 Z " fill="#E4EED0" transform="translate(205.8125,191)" />
    <path d="M0 0 C0.99 0 1.98 0 3 0 C3 1.32 3 2.64 3 4 C2.34 4 1.68 4 1 4 C1 4.66 1 5.32 1 6 C0.01 6 -0.98 6 -2 6 C-1.34 4.02 -0.68 2.04 0 0 Z " fill="#2C5537" transform="translate(200.8125,189)" />
    <path d="M0 0 C2.97 0 5.94 0 9 0 C8 4 8 4 6 6 C5.67 4.68 5.34 3.36 5 2 C3.35 1.67 1.7 1.34 0 1 C0 0.67 0 0.34 0 0 Z " fill="#293B49" transform="translate(32.8125,201)" />
    <path d="M0 0 C0.66 0 1.32 0 2 0 C1.4409112 3.24271506 0.5867822 4.93057424 -2 7 C-2.66 7 -3.32 7 -4 7 C-2.79618552 4.50638429 -1.54571278 2.31856917 0 0 Z " fill="#2F4050" transform="translate(41.8125,208)" />
    <path d="M0 0 C0.6875 1.8125 0.6875 1.8125 1 4 C-0.4375 5.75 -0.4375 5.75 -2 7 C-2.99 6.67 -3.98 6.34 -5 6 C-3.35 4.02 -1.7 2.04 0 0 Z " fill="#478057" transform="translate(224.8125,241)" />
    <path d="M0 0 C2.12508244 3.18762365 2.5020163 5.26512223 3 9 C2.34 8.34 1.68 7.68 1 7 C0.01 7.495 0.01 7.495 -1 8 C-0.67 5.36 -0.34 2.72 0 0 Z " fill="#B48E50" transform="translate(55.8125,169)" />
    <path d="M0 0 C2.31 0 4.62 0 7 0 C7.33 0.99 7.66 1.98 8 3 C5.6568787 2.74438677 3.32156597 2.40729228 1 2 C0.67 1.34 0.34 0.68 0 0 Z " fill="#E7B355" transform="translate(34.8125,169)" />
</svg>