<?xml version="1.0" encoding="UTF-8"?>
<svg version="1.1" xmlns="http://www.w3.org/2000/svg" width="200" height="200" viewBox="0 0 200 200">
    <path d="M0 0 C53.79 0 107.58 0 163 0 C163.04030303 41.5882532 163.04030303 41.5882532 163.04882812 58.95898438 C163.05477158 70.97323023 163.06177454 82.9874691 163.07543945 95.00170898 C163.08538493 103.74995302 163.0918531 112.49819141 163.09408849 121.24644095 C163.09539583 125.88154999 163.09848315 130.51664287 163.10573006 135.15174675 C163.11248813 139.50925479 163.1146174 143.86673992 163.11310768 148.2242527 C163.11338411 149.82832844 163.11539049 151.43240491 163.11920547 153.03647614 C163.12413941 155.2169273 163.12299942 157.39729057 163.12025452 159.57774353 C163.12163721 161.41257246 163.12163721 161.41257246 163.12304783 163.28446865 C163 166 163 166 162 167 C159.91172679 167.09685318 157.82011638 167.12186882 155.729599 167.12025452 C155.06881348 167.12111053 154.40802795 167.12196655 153.72721863 167.12284851 C151.48991257 167.12451326 149.25268016 167.11896467 147.01538086 167.11352539 C145.39326511 167.11321929 143.77114923 167.11335215 142.14903355 167.11389065 C137.78986825 167.11411718 133.4307302 167.10830514 129.07157135 167.10128021 C124.98688162 167.09560154 120.90219864 167.09531798 116.81750488 167.09460449 C104.85749962 167.0893491 92.89749947 167.07538805 80.9375 167.0625 C54.228125 167.041875 27.51875 167.02125 0 167 C0 111.89 0 56.78 0 0 Z " fill="#E1E1DF" transform="translate(138,127)" />
    <path d="M0 0 C26.73 0 53.46 0 81 0 C81 54.78 81 109.56 81 166 C54.27 166 27.54 166 0 166 C0 162.7 0 159.4 0 156 C1.63195312 155.88785156 1.63195312 155.88785156 3.296875 155.7734375 C14.31734607 154.8541217 24.67416063 153.10499434 32.5625 144.5625 C37.79991864 137.45567825 39.06465684 130.69469752 38 122 C35.85601871 115.64874359 31.00854217 110.91098037 25.1875 107.8125 C16.96200751 104.02082316 8.95513935 103.55969621 0 103 C0 95.41 0 87.82 0 80 C2.43375 79.7525 4.8675 79.505 7.375 79.25 C18.05482616 77.97848924 26.63049922 75.25248244 34 67 C38.90111309 60.71439169 38.77959708 53.6804749 38 46 C36.61989317 39.08806002 32.66703319 33.80152225 27.11328125 29.55859375 C18.51199647 23.89763029 10.13982335 22.37310108 0 21 C0 14.07 0 7.14 0 0 Z " fill="#E8ECED" transform="translate(32,127)" />
    <path d="M0 0 C0.33 0 0.66 0 1 0 C1 6.6 1 13.2 1 20 C2.93875 20.0825 4.8775 20.165 6.875 20.25 C17.3178485 21.08814619 25.46337341 24.63596791 33 32 C39.67760358 40.30491874 41.07390627 47.37332284 40 58 C37.78887561 64.89168209 32.94179983 70.02848449 27 74 C18.19261921 78.41711628 11.10663348 79 1 79 C1 86.59 1 94.18 1 102 C2.876875 101.9175 4.75375 101.835 6.6875 101.75 C16.37050205 101.76055944 26.90652039 103.92590148 34 111 C39.1288137 117.08207488 40.42500703 121.96740988 40.33984375 129.79296875 C39.64060693 136.3915139 36.65062765 141.80685032 31.8125 146.3125 C24.10744475 152.24724715 16.37658988 155.16897352 6.6875 155.0625 C5.61886719 155.05347656 4.55023438 155.04445313 3.44921875 155.03515625 C2.64097656 155.02355469 1.83273437 155.01195312 1 155 C1 158.3 1 161.6 1 165 C0.67 165 0.34 165 0 165 C0 161.7 0 158.4 0 155 C-7.59 155 -15.18 155 -23 155 C-21.92128583 148.52771496 -20.71348432 146.20276818 -16 142 C-10.3724995 138.81462236 -6.8447565 138.7605285 0 138 C0 131.73 0 125.46 0 119 C-1.753125 119.061875 -3.50625 119.12375 -5.3125 119.1875 C-16.46404511 119.14814161 -25.69975632 116.1210245 -33.78515625 108.265625 C-39.80807068 101.57678637 -41.5270618 96.14443523 -41.28125 87.12109375 C-40.63604157 79.96107237 -37.14199971 74.88489973 -32 70 C-22.51563008 62.30434897 -11.79387084 61.61955255 0 62 C0 56.06 0 50.12 0 44 C-10.56 44 -21.12 44 -32 44 C-27.63393969 35.26787938 -18.96277252 26.04770372 -10 22 C-6.7 21.67 -3.4 21.34 0 21 C0 14.07 0 7.14 0 0 Z " fill="#70B8B5" transform="translate(31,128)" />
    <path d="M0 0 C7.08138153 4.03023965 12.44940095 10.10082687 14.6875 18 C15.78292222 27.77664329 13.93103005 35.01459977 8 42.8125 C4.55243051 46.61276202 0.41586949 48.24104655 -4.3125 50 C-5.3025 50.495 -5.3025 50.495 -6.3125 51 C-14.32872016 51.97419342 -20.74540367 50.79946222 -27.3125 46 C-33.52759439 39.94876874 -37.25612632 32.71374839 -37.6875 24 C-37.30990668 16.38771863 -34.64305947 10.29922538 -29.3828125 4.796875 C-20.83637468 -2.62078801 -10.48090433 -4.6758511 0 0 Z " fill="#F7E5E6" transform="translate(80.3125,16)" />
    <path d="M0 0 C6.7048238 1.65463712 12.87942937 3.53931185 19 6.75 C20.02009155 7.2749707 20.02009155 7.2749707 21.06079102 7.81054688 C34.97102815 15.07520147 47.77605484 23.55210969 55 38 C55.40837661 42.87695917 55.64885631 47.44274485 53.75 52 C50.60910595 55.5895932 47.51491482 57.49074682 43 59 C31.30362329 59.75359206 21.90080717 55.53164749 13.0625 48.125 C5.65776291 41.0951863 0.31057958 31.5801456 -0.11352539 21.22924805 C-0.10828857 20.24996338 -0.10305176 19.27067871 -0.09765625 18.26171875 C-0.09443359 17.19501953 -0.09121094 16.12832031 -0.08789062 15.02929688 C-0.07951172 13.92650391 -0.07113281 12.82371094 -0.0625 11.6875 C-0.05798828 10.56537109 -0.05347656 9.44324219 -0.04882812 8.28710938 C-0.03707313 5.5246849 -0.02064077 2.76237002 0 0 Z " fill="#9ABBB7" transform="translate(170,217)" />
    <path d="M0 0 C12.24551621 -0.5210858 20.39564673 1.13711007 29.953125 9 C36.38724791 15.28677659 39.09911439 21.3061055 39.375 30.1875 C39.28967662 37.80687824 37.2716725 42.35110584 32.23828125 47.96484375 C24.87466158 55.02973645 17.38472731 57.35226406 7.375 57.25 C4.94125 57.1675 2.5075 57.085 0 57 C0 52.05 0 47.1 0 42 C1.381875 41.731875 2.76375 41.46375 4.1875 41.1875 C8.33393554 40.27332524 11.92148114 39.07851886 15 36 C15.34413754 33.00108717 15.57500396 30.89756897 15 28 C10.24187152 23.24187152 7.15124255 23.79458251 0 23 C0 15.41 0 7.82 0 0 Z " fill="#098D86" transform="translate(32,149)" />
    <path d="M0 0 C0.83144531 0.00902344 1.66289062 0.01804687 2.51953125 0.02734375 C4.55481337 0.0507378 6.58994564 0.08660275 8.625 0.125 C8.625 5.405 8.625 10.685 8.625 16.125 C6.583125 16.24875 6.583125 16.24875 4.5 16.375 C-0.03203369 16.87459427 -2.81562149 18.17332026 -6.375 21.125 C-8.85778896 24.84918344 -8.78410371 27.81635451 -8.375 32.125 C-7.54273081 35.00011176 -6.97550831 35.78721408 -4.375 37.25 C-0.08682038 38.50071906 4.23371619 39.30529369 8.625 40.125 C8.625 45.075 8.625 50.025 8.625 55.125 C-4.25613475 55.66295922 -13.46031676 55.52191814 -23.75 46.875 C-30.0618807 40.76160611 -32.53916811 36.42047789 -32.8125 27.5625 C-32.50195963 18.87738708 -29.72194919 13.1011162 -23.375 7.125 C-15.93882576 1.49963067 -9.20711775 -0.19089718 0 0 Z " fill="#E2EAEB" transform="translate(22.375,190.875)" />
    <path d="M0 0 C11.58599103 -0.45435259 20.76638232 -0.66166472 30.8125 5.8125 C36.13669201 11.13669201 39.11562324 15.91088556 39.375 23.5625 C39.29595244 30.8260921 37.22472674 36.27601353 32.4609375 41.77734375 C30.73040009 43.38895797 28.96885224 44.69131518 27 46 C26.31550781 46.48597656 25.63101562 46.97195313 24.92578125 47.47265625 C16.91655835 52.3543388 9.10310963 51.36123451 0 51 C0 45.72 0 40.44 0 35 C1.546875 34.7525 3.09375 34.505 4.6875 34.25 C9.05606111 33.34530507 12.13178861 32.63306776 15 29 C15.60918385 26.04366662 15.39272445 24.09270502 15 21 C13.25690379 18.45377072 12.10831901 18.027116 9.08203125 17.26953125 C8.00308594 17.11871094 6.92414063 16.96789062 5.8125 16.8125 C3.894375 16.544375 1.97625 16.27625 0 16 C0 10.72 0 5.44 0 0 Z " fill="#098D85" transform="translate(32,231)" />
    <path d="M0 0 C0 7.59 0 15.18 0 23 C-10.56 23 -21.12 23 -32 23 C-27.52854266 14.05708532 -18.99196795 5.41710706 -10 1 C-6.39803048 -0.08896753 -3.88748139 0 0 0 Z " fill="#F0F6F6" transform="translate(31,149)" />
    <path d="M0 0 C0 7.59 0 15.18 0 23 C-11.77777778 23 -11.77777778 23 -16.8125 18.3125 C-18.57157637 14.88693023 -18.7704434 11.70954231 -18 8 C-13.73505503 0.28248053 -8.56254693 0 0 0 Z " fill="#0B8E87" transform="translate(31,207)" />
    <path d="M0 0 C10.15151515 0 10.15151515 0 15 4 C16 5 16 5 16.3125 8.8125 C16.27831671 11.99154601 16.15861406 12.78669144 14.1875 15.4375 C9.28932257 18.93619817 6.69985725 18 0 18 C0 12.06 0 6.12 0 0 Z " fill="#E8EEEE" transform="translate(32,172)" />
    <path d="M0 0 C2.31 0 4.62 0 7 0 C5.68 0.33 4.36 0.66 3 1 C1.90684754 5.5838914 1.67717375 10.12511007 1.4375 14.8125 C1.39431641 15.60076172 1.35113281 16.38902344 1.30664062 17.20117188 C1.20121679 19.13394215 1.10016906 21.06695026 1 23 C0.67 23 0.34 23 0 23 C0 15.41 0 7.82 0 0 Z " fill="#037D77" transform="translate(32,149)" />
    <path d="M0 0 C0.33 0 0.66 0 1 0 C1.06058594 0.75925781 1.12117188 1.51851562 1.18359375 2.30078125 C1.26738281 3.29464844 1.35117187 4.28851562 1.4375 5.3125 C1.51871094 6.29863281 1.59992188 7.28476562 1.68359375 8.30078125 C1.91812559 11.09375599 1.91812559 11.09375599 3 14 C6.3 14 9.6 14 13 14 C13 14.33 13 14.66 13 15 C8.71 15 4.42 15 0 15 C0 10.05 0 5.1 0 0 Z " fill="#04847E" transform="translate(32,191)" />
    <path d="M0 0 C0.33 0 0.66 0 1 0 C1.144375 1.2375 1.28875 2.475 1.4375 3.75 C1.78640918 6.57117996 2.26025677 9.2523823 3 12 C3 12.66 3 13.32 3 14 C4.32 14.33 5.64 14.66 7 15 C4.69 15 2.38 15 0 15 C0 10.05 0 5.1 0 0 Z " fill="#03807B" transform="translate(32,231)" />
    <path d="M0 0 C1.67542976 0.28604898 3.34385343 0.61781233 5 1 C4.67 2.32 4.34 3.64 4 5 C2.35 5 0.7 5 -1 5 C-1 1 -1 1 0 0 Z " fill="#78CDB9" transform="translate(20,157)" />
    <path d="M0 0 C0 3 0 3 -1.53125 4.82421875 C-2.1809375 5.43910156 -2.830625 6.05398438 -3.5 6.6875 C-4.1496875 7.31011719 -4.799375 7.93273437 -5.46875 8.57421875 C-5.9740625 9.04472656 -6.479375 9.51523437 -7 10 C-7.99 9.67 -8.98 9.34 -10 9 C-8.71142987 7.68445979 -7.41904109 6.37265903 -6.125 5.0625 C-5.04605469 3.96615234 -5.04605469 3.96615234 -3.9453125 2.84765625 C-2 1 -2 1 0 0 Z " fill="#179B92" transform="translate(188,150)" />
    <path d="M0 0 C0.33 0 0.66 0 1 0 C1 2.97 1 5.94 1 9 C-0.98 9 -2.96 9 -5 9 C-4.34 8.67 -3.68 8.34 -3 8 C-3 7.01 -3 6.02 -3 5 C-2.34 5 -1.68 5 -1 5 C-0.67 3.35 -0.34 1.7 0 0 Z " fill="#058178" transform="translate(30,221)" />
    <path d="M0 0 C0.99 0.33 1.98 0.66 3 1 C2.0409375 1.7734375 2.0409375 1.7734375 1.0625 2.5625 C-1.55791681 5.65935623 -1.69389817 8.02067623 -2 12 C-2.33 12 -2.66 12 -3 12 C-3.08131463 10.56344146 -3.13933559 9.1255517 -3.1875 7.6875 C-3.22230469 6.88699219 -3.25710938 6.08648438 -3.29296875 5.26171875 C-2.93801608 2.52148416 -2.10633718 1.70828921 0 0 Z " fill="#09857F" transform="translate(17,210)" />
</svg>