<?xml version="1.0" encoding="UTF-8"?>
<svg version="1.1" xmlns="http://www.w3.org/2000/svg" width="200" height="200" viewBox="0 0 200 200">
    <path d="M0 0 C7.92 0 15.84 0 24 0 C24.33 15.18 24.66 30.36 25 46 C44.50447336 35.55453405 44.50447336 35.55453405 63.2265625 23.74609375 C66 22 66 22 69 22 C69.62648438 23.12019531 70.25296875 24.24039062 70.8984375 25.39453125 C71.72389523 26.86722287 72.54941954 28.33987718 73.375 29.8125 C73.7875 30.55048828 74.2 31.28847656 74.625 32.04882812 C75.02460937 32.76103516 75.42421875 33.47324219 75.8359375 34.20703125 C76.20251465 34.8616333 76.5690918 35.51623535 76.94677734 36.19067383 C77.90206799 37.83176306 78.9466896 39.4200344 80 41 C80 41.99 80 42.98 80 44 C79.33170166 44.3717334 78.66340332 44.7434668 77.97485352 45.12646484 C65.58404512 52.02501048 53.22380974 58.95620188 41.03515625 66.20703125 C39.38265145 67.18322134 37.71667567 68.14166216 36 69 C33.21484375 68.05859375 33.21484375 68.05859375 29.9375 66.4375 C28.31134766 65.69306641 28.31134766 65.69306641 26.65234375 64.93359375 C22.22480972 60.03657157 23.01533526 54.33526839 23 48 C22.98034401 46.15193558 22.96056024 44.30387251 22.94067383 42.45581055 C22.89162822 36.17857876 22.91241731 29.90229736 22.9375 23.625 C22.94252624 21.42448019 22.94708715 19.22395926 22.95117188 17.0234375 C22.96122684 11.68224102 22.98081771 6.3412023 23 1 C15.41 1 7.82 1 0 1 C0 0.67 0 0.34 0 0 Z " fill="#EBA125" transform="translate(17,16)" />
</svg>