<?xml version="1.0" encoding="UTF-8"?>
<svg version="1.1" xmlns="http://www.w3.org/2000/svg" width="200" height="200" viewBox="0 0 200 200">
    <path d="M0 0 C6.7048238 1.65463712 12.87942937 3.53931185 19 6.75 C20.02009155 7.2749707 20.02009155 7.2749707 21.06079102 7.81054688 C34.97102815 15.07520147 47.77605484 23.55210969 55 38 C55.40837661 42.87695917 55.64885631 47.44274485 53.75 52 C50.60910595 55.5895932 47.51491482 57.49074682 43 59 C31.30362329 59.75359206 21.90080717 55.53164749 13.0625 48.125 C5.65776291 41.0951863 0.31057958 31.5801456 -0.11352539 21.22924805 C-0.10828857 20.24996338 -0.10305176 19.27067871 -0.09765625 18.26171875 C-0.09443359 17.19501953 -0.09121094 16.12832031 -0.08789062 15.02929688 C-0.07951172 13.92650391 -0.07113281 12.82371094 -0.0625 11.6875 C-0.05798828 10.56537109 -0.05347656 9.44324219 -0.04882812 8.28710938 C-0.03707313 5.5246849 -0.02064077 2.76237002 0 0 Z " fill="#9ABBB7" transform="translate(17,16)" />
</svg>