<?xml version="1.0" encoding="UTF-8"?>
<svg version="1.1" xmlns="http://www.w3.org/2000/svg" width="200" height="200" viewBox="0 0 200 200">
    <path d="M0 0 C0.66 0 1.32 0 2 0 C2.34256836 0.6297876 2.68513672 1.2595752 3.03808594 1.90844727 C4.60796833 4.79354341 6.17897536 7.6780257 7.75 10.5625 C8.28882813 11.55314453 8.82765625 12.54378906 9.3828125 13.56445312 C11.67332955 17.76838991 13.96383497 21.96280267 16.390625 26.08984375 C18 29 18 29 18 31 C19.04800781 30.278125 20.09601563 29.55625 21.17578125 28.8125 C22.55444039 27.87463664 23.93336026 26.93715648 25.3125 26 C26.00279297 25.52304688 26.69308594 25.04609375 27.40429688 24.5546875 C28.07138672 24.10351562 28.73847656 23.65234375 29.42578125 23.1875 C30.03848877 22.76855469 30.65119629 22.34960938 31.2824707 21.91796875 C33 21 33 21 36 21 C36.05703183 27.40248116 36.05728491 33.80252311 36.0078125 40.20507812 C36.00128377 42.54073212 36.03799686 44.8684621 36.09375 47.203125 C36.00532396 57.41633284 32.23688021 64.35092186 27.18994141 72.92333984 C25.3311516 76.16725985 23.69747006 79.51422821 22.0625 82.875 C20.49096413 86.07751518 18.97952364 89.03071454 17 92 C35.81 92 54.62 92 74 92 C73.67 92.66 73.34 93.32 73 94 C54.19 94 35.38 94 16 94 C13.36 98.95 10.72 103.9 8 109 C3.25396825 117.87301587 3.25396825 117.87301587 1 119 C0.99576806 118.4152399 0.99153612 117.83047979 0.98717594 117.22799969 C0.88392046 103.00667884 0.77529035 88.78540756 0.66066074 74.5641737 C0.60535692 67.68692409 0.55187959 60.8096693 0.50268555 53.93237305 C0.45523361 47.29933697 0.40271362 40.66635368 0.34705925 34.03338051 C0.32662931 31.4987754 0.30791731 28.96415587 0.29092598 26.42952538 C0.26689623 22.88810366 0.23683951 19.34678179 0.20532227 15.80541992 C0.1995668 14.75022156 0.19381134 13.69502319 0.18788147 12.60784912 C0.17809265 11.64451157 0.16830383 10.68117401 0.15821838 9.68864441 C0.14853956 8.43177968 0.14853956 8.43177968 0.1386652 7.14952374 C0.07959624 4.81462296 0.07959624 4.81462296 -1 2 C-0.67 1.34 -0.34 0.68 0 0 Z " fill="#DB2D2E" transform="translate(17,16)" />
</svg>