<?xml version="1.0" encoding="UTF-8"?>
<svg version="1.1" xmlns="http://www.w3.org/2000/svg" width="200" height="200" viewBox="0 0 200 200">
    <path d="M0 0 C4.34468141 2.1723407 7.60032162 4.75441518 10 9 C10.80985775 13.85914653 10.65606333 18.41866501 8.4375 22.875 C5.4731077 26.67550295 3.3792507 28.04497737 -1 30 C-2.32 30 -3.64 30 -5 30 C-5.2578125 30.56203125 -5.515625 31.1240625 -5.78125 31.703125 C-7.14169777 34.26704579 -8.72788962 36.45226365 -10.5 38.75 C-11.1084375 39.54921875 -11.716875 40.3484375 -12.34375 41.171875 C-12.8903125 41.77515625 -13.436875 42.3784375 -14 43 C-14.66 43 -15.32 43 -16 43 C-16 43.66 -16 44.32 -16 45 C-4.78 45 6.44 45 18 45 C18 58.19011205 14.03113835 69.11844318 5.19140625 79.02734375 C-0.09257355 84.04767383 -6.41744153 87.0049359 -13 90 C-12.319375 90.66 -11.63875 91.32 -10.9375 92 C-2.51259395 100.49691379 2 105.46674601 2 118 C-24.07 118 -50.14 118 -77 118 C-77 108.40685053 -73.54616196 101.88186257 -67 95 C-63.6 92 -63.6 92 -60 92 C-60 91.34 -60 90.68 -60 90 C-61.07314453 89.84724609 -61.07314453 89.84724609 -62.16796875 89.69140625 C-71.88914005 87.3180996 -80.82662784 79.08355734 -86.01171875 70.77734375 C-89.95967175 63.67423156 -92.16081318 58.34749418 -92.0625 50.1875 C-92.05347656 49.21167969 -92.04445313 48.23585938 -92.03515625 47.23046875 C-92.02355469 46.49441406 -92.01195312 45.75835938 -92 45 C-91.37518738 45.01856049 -90.75037476 45.03712097 -90.10662842 45.0562439 C-83.55135086 45.23690935 -77.00006263 45.31729527 -70.44238281 45.34179688 C-68.00192084 45.36374231 -65.56154228 45.41050977 -63.12207031 45.48339844 C-48.59410312 46.49994138 -48.59410312 46.49994138 -35.81518555 40.97460938 C-33.15676857 38.12985654 -31.04753743 35.06171005 -29.073349 31.71429443 C-27.45091933 29.12303833 -25.39647547 26.97487318 -23.3125 24.75 C-19.97232822 20.57992928 -19.31949519 17.52112065 -19.1875 12.2578125 C-18.80498912 7.65174397 -15.81860869 4.9149156 -12.875 1.625 C-8.61294051 -0.78399014 -4.78421632 -0.76025267 0 0 Z " fill="#C5E2DF" transform="translate(17,16)" />
</svg>