<?xml version="1.0" encoding="UTF-8"?>
<svg version="1.1" xmlns="http://www.w3.org/2000/svg" width="200" height="200" viewBox="0 0 200 200">
    <path d="M0 0 C7.87600323 -0.47975654 14.15518994 -0.20510753 21 4 C21.66 4.66 22.32 5.32 23 6 C22.34 6.99 21.68 7.98 21 9 C21.59296875 9.2578125 22.1859375 9.515625 22.796875 9.78125 C25.17660965 11.09769895 26.50978792 12.42580782 28.25 14.5 C28.77078125 15.1084375 29.2915625 15.716875 29.828125 16.34375 C31 18 31 18 31 20 C28.69 20 26.38 20 24 20 C24 19.01 24 18.02 24 17 C23.34 17 22.68 17 22 17 C21.505 18.485 21.505 18.485 21 20 C16.38 20.33 11.76 20.66 7 21 C12.28 21.66 17.56 22.32 23 23 C23.66 26.3 24.32 29.6 25 33 C25.33 29.7 25.66 26.4 26 23 C28.31 23 30.62 23 33 23 C36.02578972 29.44624767 37.94937102 34.70852309 35.625 41.75 C35.09354353 43.17052851 34.55288708 44.58767458 34 46 C33.67 46.99 33.34 47.98 33 49 C30.69 49 28.38 49 26 49 C25.505 44.545 25.505 44.545 25 40 C24.01 42.97 23.02 45.94 22 49 C16.39 49 10.78 49 5 49 C4.90234375 40.50390625 4.90234375 40.50390625 5 38 C6 37 6 37 8.28515625 36.90234375 C9.65994141 36.91974609 9.65994141 36.91974609 11.0625 36.9375 C11.98160156 36.94652344 12.90070312 36.95554687 13.84765625 36.96484375 C14.55792969 36.97644531 15.26820313 36.98804688 16 37 C16 36.34 16 35.68 16 35 C12.7 35 9.4 35 6 35 C5.34 32.69 4.68 30.38 4 28 C3.67 30.31 3.34 32.62 3 35 C-3.27 35 -9.54 35 -16 35 C-16 25.18378378 -16 25.18378378 -14 23 C-10.7421875 22.171875 -10.7421875 22.171875 -6.875 21.75 C-5.59367188 21.60046875 -4.31234375 21.4509375 -2.9921875 21.296875 C-2.00476563 21.19890625 -1.01734375 21.1009375 0 21 C-4.29 20.67 -8.58 20.34 -13 20 C-11.25801108 14.77403324 -10.48101702 12.92596344 -7 9.125 C-6.29875 8.34382813 -5.5975 7.56265625 -4.875 6.7578125 C-3 5 -3 5 -1 5 C-0.67 3.35 -0.34 1.7 0 0 Z " fill="#AB8B4F" transform="translate(17,16)" />
</svg>