<?xml version="1.0" encoding="UTF-8"?>
<svg version="1.1" xmlns="http://www.w3.org/2000/svg" width="200" height="200" viewBox="0 0 200 200">
    <path d="M0 0 C5.53846154 0.61538462 5.53846154 0.61538462 7.875 2.5625 C8.431875 3.2740625 8.431875 3.2740625 9 4 C8.01 5.485 8.01 5.485 7 7 C7.59296875 7.2578125 8.1859375 7.515625 8.796875 7.78125 C11.17660965 9.09769895 12.50978792 10.42580782 14.25 12.5 C14.77078125 13.1084375 15.2915625 13.716875 15.828125 14.34375 C17 16 17 16 17 18 C14.69 18 12.38 18 10 18 C10 17.01 10 16.02 10 15 C9.278125 15 8.55625 15 7.8125 15 C3.43386886 13.44315337 2.17221186 9.91760315 0 6 C-0.66 5.01 -1.32 4.02 -2 3 C-1.34 2.01 -0.68 1.02 0 0 Z " fill="#E2B04C" transform="translate(17,16)" />
</svg>