<?xml version="1.0" encoding="UTF-8"?>
<svg version="1.1" xmlns="http://www.w3.org/2000/svg" width="200" height="200" viewBox="0 0 200 200">
    <path d="M0 0 C3.12505696 -0.02688864 6.24988425 -0.04678462 9.375 -0.0625 C10.70917969 -0.07506836 10.70917969 -0.07506836 12.0703125 -0.08789062 C13.34648438 -0.09272461 13.34648438 -0.09272461 14.6484375 -0.09765625 C15.43395996 -0.10289307 16.21948242 -0.10812988 17.02880859 -0.11352539 C19 0 19 0 21 1 C21.4140625 4.16015625 21.4140625 4.16015625 21.625 8.0625 C21.69976563 9.35285156 21.77453125 10.64320313 21.8515625 11.97265625 C21.90054688 12.97167969 21.94953125 13.97070312 22 15 C20.83082031 15.06058594 19.66164063 15.12117187 18.45703125 15.18359375 C16.90884386 15.26804034 15.36066732 15.35268625 13.8125 15.4375 C13.04357422 15.47681641 12.27464844 15.51613281 11.48242188 15.55664062 C10.73154297 15.59853516 9.98066406 15.64042969 9.20703125 15.68359375 C8.5210083 15.72025146 7.83498535 15.75690918 7.12817383 15.79467773 C4.72952425 16.026095 2.36299064 16.52740187 0 17 C0 11.39 0 5.78 0 0 Z " fill="#E86307" transform="translate(17,16)" />
</svg>