<?xml version="1.0" encoding="UTF-8"?>
<svg version="1.1" xmlns="http://www.w3.org/2000/svg" width="200" height="200" viewBox="0 0 200 200">
    <path d="M0 0 C0.99 0.33 1.98 0.66 3 1 C3 1.99 3 2.98 3 4 C5.31 4 7.62 4 10 4 C6.25 6 6.25 6 4 6 C4.33 9.96 4.66 13.92 5 18 C4.34 17.67 3.68 17.34 3 17 C2.5859375 14.71484375 2.5859375 14.71484375 2.375 11.9375 C2.30023437 11.01839844 2.22546875 10.09929687 2.1484375 9.15234375 C2.09945312 8.44207031 2.05046875 7.73179688 2 7 C1.03900391 7.03480469 1.03900391 7.03480469 0.05859375 7.0703125 C-5.40987096 7.18440863 -9.83098277 6.79791904 -15 5 C-15 4.67 -15 4.34 -15 4 C-10.05 4 -5.1 4 0 4 C0 2.68 0 1.36 0 0 Z " fill="#E9B965" transform="translate(17,16)" />
</svg>