<?xml version="1.0" encoding="UTF-8"?>
<svg version="1.1" xmlns="http://www.w3.org/2000/svg" width="200" height="200" viewBox="0 0 200 200">
    <path d="M0 0 C0.83136475 -0.00644531 1.66272949 -0.01289062 2.51928711 -0.01953125 C16.13896775 0.2614819 27.17092301 6.92318047 36.4765625 16.56640625 C43.66339363 25.59200856 46.99959506 35.20775417 47.0625 46.625 C47.083125 47.53765625 47.10375 48.4503125 47.125 49.390625 C47.16075301 55.66527839 46.11837239 60.6839431 43.8125 66.5 C43.3175 67.985 43.3175 67.985 42.8125 69.5 C42.1525 69.5 41.4925 69.5 40.8125 69.5 C40.4 68.4275 39.9875 67.355 39.5625 66.25 C37.82292654 62.20732928 35.63231637 59.75504577 32 57.25 C28.74614921 56.13439402 26.23215225 56.14624287 22.8125 56.5 C19.53939447 58.40356987 19.53939447 58.40356987 16.8125 60.5 C16.1525 60.5 15.4925 60.5 14.8125 60.5 C14.255625 59.736875 13.69875 58.97375 13.125 58.1875 C9.93676991 54.48225963 6.66444586 52.96035347 1.828125 52.1796875 C-3.60357198 51.86389116 -6.75290511 53.42989585 -11.1875 56.5 C-13.54409368 58.60280634 -13.54409368 58.60280634 -15.1875 60.5 C-17.68111571 59.29618552 -19.86893083 58.04571278 -22.1875 56.5 C-27.41904276 56.00645823 -30.76446797 56.64960158 -35.1875 59.5 C-38.66572112 62.97822112 -39.73375711 65.62226395 -40.1875 70.5 C-40.8475 70.5 -41.5075 70.5 -42.1875 70.5 C-47.39719881 59.17456781 -48.13383422 45.01293847 -45.3515625 32.84375 C-44.18104176 29.85852933 -42.85322387 27.23828753 -41.1875 24.5 C-40.33285156 23.07300781 -40.33285156 23.07300781 -39.4609375 21.6171875 C-34.81325351 14.59784584 -29.38859863 9.80701704 -22.1875 5.5 C-21.30707031 4.97148438 -20.42664063 4.44296875 -19.51953125 3.8984375 C-13.07705792 0.64539737 -7.09785844 0.05223334 0 0 Z " fill="#DDDDDE" transform="translate(17,16)" />
</svg>