<?xml version="1.0" encoding="UTF-8"?>
<svg version="1.1" xmlns="http://www.w3.org/2000/svg" width="200" height="200" viewBox="0 0 200 200">
    <path d="M0 0 C0.66 0 1.32 0 2 0 C2.34256836 0.6297876 2.68513672 1.2595752 3.03808594 1.90844727 C4.60796833 4.79354341 6.17897536 7.6780257 7.75 10.5625 C8.28882813 11.55314453 8.82765625 12.54378906 9.3828125 13.56445312 C11.67332955 17.76838991 13.96383497 21.96280267 16.390625 26.08984375 C18 29 18 29 18 31 C19.57201172 29.9171875 19.57201172 29.9171875 21.17578125 28.8125 C22.55444039 27.87463664 23.93336026 26.93715648 25.3125 26 C26.00279297 25.52304688 26.69308594 25.04609375 27.40429688 24.5546875 C28.07138672 24.10351562 28.73847656 23.65234375 29.42578125 23.1875 C30.03848877 22.76855469 30.65119629 22.34960938 31.2824707 21.91796875 C33 21 33 21 36 21 C36.05703183 27.40248116 36.05728491 33.80252311 36.0078125 40.20507812 C36.00128377 42.54073212 36.03799686 44.8684621 36.09375 47.203125 C36.00532396 57.41633284 32.23688021 64.35092186 27.18994141 72.92333984 C25.3311516 76.16725985 23.69747006 79.51422821 22.0625 82.875 C20.49096413 86.07751518 18.97952364 89.03071454 17 92 C35.81 92 54.62 92 74 92 C72.44747362 95.10505276 71.33395786 96.97816697 69.13671875 99.49609375 C68.57919922 100.13740234 68.02167969 100.77871094 67.44726562 101.43945312 C66.86654297 102.09880859 66.28582031 102.75816406 65.6875 103.4375 C65.11837891 104.09298828 64.54925781 104.74847656 63.96289062 105.42382812 C54.57571742 116.16896209 54.57571742 116.16896209 47.9375 118.8125 C46.91527344 119.23144531 45.89304687 119.65039062 44.83984375 120.08203125 C42 121 42 121 38 121 C38 121.66 38 122.32 38 123 C38.86496094 123.11730469 39.72992188 123.23460937 40.62109375 123.35546875 C44.01696088 124.00323531 46.87618683 124.9845269 50.0625 126.3125 C51.06410156 126.72113281 52.06570313 127.12976562 53.09765625 127.55078125 C58.21521462 130.10611659 61.59187652 133.45583536 65 138 C63 142 63 142 54 151 C63.24 151.33 72.48 151.66 82 152 C82 152.33 82 152.66 82 153 C27.55 153 -26.9 153 -83 153 C-83 152.67 -83 152.34 -83 152 C-55.28 152 -27.56 152 1 152 C1 142.1 1 132.2 1 122 C-3.35251953 122.05220703 -3.35251953 122.05220703 -7.79296875 122.10546875 C-10.60944638 122.12887825 -13.42591308 122.14708691 -16.24243164 122.16479492 C-18.19690823 122.17986301 -20.15135112 122.20032124 -22.10571289 122.22631836 C-24.91821623 122.26278865 -27.73027174 122.27974622 -30.54296875 122.29296875 C-31.84949654 122.31619453 -31.84949654 122.31619453 -33.18241882 122.33988953 C-39.09459004 122.34152231 -42.29248833 121.34879341 -46.83349609 117.40942383 C-47.39117676 116.84763428 -47.94885742 116.28584473 -48.5234375 115.70703125 C-49.14895508 115.08022461 -49.77447266 114.45341797 -50.41894531 113.80761719 C-51.06444336 113.14922852 -51.70994141 112.49083984 -52.375 111.8125 C-53.04112305 111.13993164 -53.70724609 110.46736328 -54.39355469 109.77441406 C-58.30206283 105.80450569 -62.1235325 101.78804186 -65.703125 97.515625 C-67.06261413 95.92682445 -68.50441849 94.46039136 -70 93 C-68.47973184 88.43919552 -64.87930171 87.10547159 -60.875 84.75 C-59 84 -59 84 -55 84 C-56.33477913 80.31564951 -57.98077827 77.3552644 -60.2578125 74.171875 C-60.88300781 73.29015625 -61.50820313 72.4084375 -62.15234375 71.5 C-62.80332031 70.5925 -63.45429688 69.685 -64.125 68.75 C-65.42126204 66.93371112 -66.71564334 65.11607796 -68.0078125 63.296875 C-68.58160645 62.49604492 -69.15540039 61.69521484 -69.74658203 60.87011719 C-71 59 -71 59 -71 58 C-41.92146969 55.74077252 -41.92146969 55.74077252 -35.33984375 60.82421875 C-32.30733356 63.88135188 -30.12398504 67.26984117 -28 71 C-27.01 71.99 -27.01 71.99 -26 73 C-26.83144531 71.70255859 -26.83144531 71.70255859 -27.6796875 70.37890625 C-36.88600688 54.82951728 -36.14095364 37.59571282 -36 20 C-31.83195623 21.58509898 -28.48510135 23.57927136 -24.8125 26.125 C-21.21601802 28.96729334 -21.21601802 28.96729334 -17 30 C-14.73897707 26.0493839 -12.4786581 22.09836622 -10.21899414 18.14697266 C-9.44998257 16.80246055 -8.68077783 15.4580589 -7.91137695 14.11376953 C-6.80629641 12.18290668 -5.70190829 10.25164926 -4.59765625 8.3203125 C-4.25283707 7.71816925 -3.90801788 7.116026 -3.55274963 6.49563599 C-2.32594364 4.34879783 -1.10604986 2.21209971 0 0 Z " fill="#CC2228" transform="translate(17,16)" />
</svg>