<?xml version="1.0" encoding="UTF-8"?>
<svg version="1.1" xmlns="http://www.w3.org/2000/svg" width="200" height="200" viewBox="0 0 200 200">
    <path d="M0 0 C12.24551621 -0.5210858 20.39564673 1.13711007 29.953125 9 C36.38724791 15.28677659 39.09911439 21.3061055 39.375 30.1875 C39.28967662 37.80687824 37.2716725 42.35110584 32.23828125 47.96484375 C24.87466158 55.02973645 17.38472731 57.35226406 7.375 57.25 C4.94125 57.1675 2.5075 57.085 0 57 C0 52.05 0 47.1 0 42 C1.381875 41.731875 2.76375 41.46375 4.1875 41.1875 C8.33393554 40.27332524 11.92148114 39.07851886 15 36 C15.34413754 33.00108717 15.57500396 30.89756897 15 28 C10.24187152 23.24187152 7.15124255 23.79458251 0 23 C0 15.41 0 7.82 0 0 Z " fill="#098D86" transform="translate(17,16)" />
</svg>