<?xml version="1.0" encoding="UTF-8"?>
<svg version="1.1" xmlns="http://www.w3.org/2000/svg" width="200" height="200" viewBox="0 0 200 200">
    <path d="M0 0 C54.45 0 108.9 0 165 0 C165 55.44 165 110.88 165 168 C110.55 168 56.1 168 0 168 C0 112.56 0 57.12 0 0 Z " fill="#DB2438" transform="translate(139.71484375,179)" />
    <path d="M0 0 C17.80618898 -0.35578314 33.66800173 8.59537678 46.66821289 20.07519531 C60.8671002 34.63324504 68.09301676 53.07426367 68.16821289 73.20019531 C67.8392858 93.50353608 62.78627616 111.93086811 48.66821289 127.07519531 C48.04301758 127.77902344 47.41782227 128.48285156 46.77368164 129.20800781 C35.579986 141.19962473 17.78397412 150.5143233 1.28540039 151.35644531 C-19.23235411 151.96046192 -39.02352371 147.39323887 -54.33178711 133.07519531 C-55.11038086 132.37523437 -55.88897461 131.67527344 -56.69116211 130.95410156 C-62.36905581 125.60964121 -66.49733504 119.84295724 -70.33178711 113.07519531 C-70.87963867 112.12644531 -71.42749023 111.17769531 -71.99194336 110.20019531 C-78.5536047 98.07643774 -79.58062826 86.81020808 -79.64428711 73.26269531 C-79.64992676 72.10568115 -79.65556641 70.94866699 -79.66137695 69.7565918 C-79.50327356 51.16068566 -72.2565768 34.60113802 -59.33178711 21.07519531 C-42.03894767 4.67787792 -23.05169541 0.74336951 0 0 Z " fill="#BA212E" transform="translate(37.046630859375,190.9248046875)" />
    <path d="M0 0 C10.39711061 -0.58176085 19.29877325 3.82503986 27.13671875 10.41796875 C34.94945197 17.62740211 42.53174156 27.32470203 43.30541992 38.35644531 C43.33018106 40.74948998 43.3458125 43.14197404 43.34765625 45.53515625 C43.35990234 46.35628906 43.37214844 47.17742188 43.38476562 48.0234375 C43.41322315 59.99456851 39.16491265 72.43575311 30.84765625 81.28515625 C19.07866783 91.73475135 5.6074723 95.17367427 -9.83007812 94.45556641 C-21.68107656 93.4507077 -31.59599461 86.41578665 -39.15234375 77.59765625 C-40.42380143 75.85693894 -41.65308522 74.08468552 -42.83984375 72.28515625 C-43.44183594 71.38796875 -44.04382813 70.49078125 -44.6640625 69.56640625 C-48.7678608 62.29627407 -49.39639758 55.83949671 -49.46484375 47.59765625 C-49.47580078 46.63577393 -49.48675781 45.6738916 -49.49804688 44.68286133 C-49.23824193 31.62430353 -42.98897482 20.98596899 -33.71484375 12.03515625 C-23.67620296 3.62992142 -12.67030711 1.27225917 0 0 Z " fill="#0F2A51" transform="translate(34.5546875,218.71484375)" />
    <path d="M0 0 C2 2 2 2 2.75 4.5625 C7.64045968 18.01126412 19.80727459 27.53446797 32.37109375 33.51953125 C57.41148352 43.73514775 84.4219238 45.77979148 111 41 C111.99128906 40.82855469 112.98257813 40.65710938 114.00390625 40.48046875 C126.80329563 37.78127779 140.40607587 31.99430387 150 23 C150.928125 22.20529297 150.928125 22.20529297 151.875 21.39453125 C157.01367217 16.73207224 159.94959657 11.16691467 163 5 C163.66 3.68 164.32 2.36 165 1 C165 25.42 165 49.84 165 75 C110.55 75 56.1 75 0 75 C0 50.25 0 25.5 0 0 Z " fill="#023A99" transform="translate(139.71484375,58)" />
    <path d="M0 0 C18.20361745 9.76420451 31.48829916 25.55044057 37.875 45.25 C43.99898659 66.25524958 40.19705262 89.57009339 29.95556641 108.50976562 C27.40961335 112.90449706 24.32740015 116.67163952 20.875 120.375 C20.24980469 121.07882812 19.62460938 121.78265625 18.98046875 122.5078125 C8.33081982 133.91660138 -6.99045822 141.20730521 -22.125 144.375 C-25.755 144.375 -29.385 144.375 -33.125 144.375 C-33.125 134.805 -33.125 125.235 -33.125 115.375 C-30.711875 115.00375 -28.29875 114.6325 -25.8125 114.25 C-18.37603597 112.93461977 -12.39057381 110.71500733 -6.125 106.375 C-5.33609375 105.84519531 -4.5471875 105.31539062 -3.734375 104.76953125 C4.02138834 98.79442786 9.31422252 88.94254117 11.5703125 79.44921875 C13.03005364 64.72080494 12.59829331 51.82185861 3.5 39.4375 C-6.41330163 27.77604625 -17.83258128 22.76521988 -33.125 21.375 C-33.125 12.465 -33.125 3.555 -33.125 -5.625 C-22.4219255 -9.1926915 -9.79431012 -4.56635386 0 0 Z " fill="#E4E4E4" transform="translate(64.83984375,197.625)" />
    <path d="M0 0 C18.48 0 36.96 0 56 0 C56 20.46 56 40.92 56 62 C37.52 62 19.04 62 0 62 C0 41.54 0 21.08 0 0 Z " fill="#F8E5E5" transform="translate(157.71484375,203)" />
    <path d="M0 0 C1.37427001 0.03513805 2.74862589 0.06707276 4.12304688 0.09570312 C7.48004812 0.17815579 10.83268064 0.2932101 14.1875 0.4375 C15.85470869 23.08588884 14.83571358 45.76472327 14.1875 68.4375 C4.27563857 67.20509987 -5.01844129 61.86433869 -11.8125 54.4375 C-14.29263674 51.19502615 -16.58272311 47.85570678 -18.8125 44.4375 C-19.4725 43.4475 -20.1325 42.4575 -20.8125 41.4375 C-22.63271539 36.22126439 -23.16755593 31.58079353 -23.125 26.125 C-23.12008545 25.37879395 -23.1151709 24.63258789 -23.11010742 23.86376953 C-22.9879345 18.08843607 -22.44491224 12.66638711 -19.8125 7.4375 C-19.57877686 6.8396167 -19.34505371 6.2417334 -19.10424805 5.62573242 C-15.23031506 -2.02651666 -7.49787819 -0.33206551 0 0 Z " fill="#FACB08" transform="translate(162.52734375,23.5625)" />
    <path d="M0 0 C0.33 0 0.66 0 1 0 C1 11.88 1 23.76 1 36 C6.28 36 11.56 36 17 36 C27.83663118 38.40814026 33.76317575 42.86980367 40 52 C42 56 42 56 42 69 C52.89 69 63.78 69 75 69 C75 55.47 75 41.94 75 28 C75.33 28 75.66 28 76 28 C76 41.86 76 55.72 76 70 C42.67 70 9.34 70 -25 70 C-23.69071497 67.38142995 -22.63697266 67.33579924 -19.9375 66.3125 C-10.63741181 62.27605473 -5.78222522 56.28511941 -2 47 C-0.67549404 43.02648213 -0.89694091 39.23707113 -0.9375 35.09765625 C-0.94128662 34.22354599 -0.94507324 33.34943573 -0.94897461 32.44883728 C-0.96533092 28.70810256 -0.99345518 24.96747684 -1.02050781 21.22680664 C-1.03858302 18.49626164 -1.05068414 15.76573435 -1.0625 13.03515625 C-1.07079834 12.19026138 -1.07909668 11.34536652 -1.08764648 10.47486877 C-1.09260132 9.28860146 -1.09260132 9.28860146 -1.09765625 8.07836914 C-1.10551147 7.03937218 -1.10551147 7.03937218 -1.11352539 5.97938538 C-0.99309917 3.87967974 -0.57165839 2.01986083 0 0 Z " fill="#5EA889" transform="translate(19.71484375,51)" />
    <path d="M0 0 C0.33 0 0.66 0 1 0 C1.09975053 4.94378949 1.17187902 9.88697822 1.21972656 14.83154297 C1.23969699 16.50938131 1.26688332 18.18715136 1.30175781 19.86474609 C1.58551975 33.87757814 0.45152633 43.30613113 -9.625 53.86328125 C-18.18101166 61.56087726 -26.42848415 61 -38 61 C-38 48.13 -38 35.26 -38 22 C-33.38 21.67 -28.76 21.34 -24 21 C-13.80160162 17.71480164 -6.00116851 12.04060962 -1.0625 2.5 C-0.5365625 1.2625 -0.5365625 1.2625 0 0 Z " fill="#E3EFEA" transform="translate(18.71484375,59)" />
    <path d="M0 0 C3.29148243 1.13499394 3.9959869 1.99283376 5.75 5.125 C6.1625 6.07375 6.575 7.0225 7 8 C7.61488281 7.89300781 8.22976562 7.78601563 8.86328125 7.67578125 C10.07564453 7.49595703 10.07564453 7.49595703 11.3125 7.3125 C12.11300781 7.18488281 12.91351563 7.05726563 13.73828125 6.92578125 C16 7 16 7 17.78125 8.1484375 C19.41794861 10.63496038 19.23245565 12.35768783 19.1875 15.3125 C19.38120465 18.78995971 19.49056876 20.42987057 21.8359375 23.0546875 C23.83601114 24.52140817 25.81863287 25.82235989 28 27 C25.42215154 29.64752004 23.08351902 31.94432065 20 34 C19.35065469 36.05629457 19.35065469 36.05629457 19.0625 38.375 C18.30716852 42.3840671 17.33548229 44.44279691 14 47 C11.4338007 45.9002003 10.11820761 45.16076235 8.4375 42.875 C4.94965943 40.19204571 2.02012142 40.33391209 -2.29296875 40.4609375 C-6.69499906 41.33753228 -8.31185676 43.51267904 -11 47 C-14.53988141 45.82003953 -15.191612 45.20577872 -17 42 C-17.13929413 40.66987759 -17.24038071 39.33545022 -17.3125 38 C-17.42835486 35.90628791 -17.42835486 35.90628791 -18 34 C-20.86875539 31.6984961 -20.86875539 31.6984961 -24 30 C-25.375 27.75 -25.375 27.75 -26 26 C-20.25 21 -20.25 21 -18 21 C-18.03480469 20.24074219 -18.06960937 19.48148438 -18.10546875 18.69921875 C-18.13253906 17.70535156 -18.15960938 16.71148438 -18.1875 15.6875 C-18.22230469 14.70136719 -18.25710937 13.71523438 -18.29296875 12.69921875 C-18 10 -18 10 -16.8125 8.15625 C-14.36826798 6.59699854 -12.68735627 6.70049261 -9.8125 6.8125 C-8.46091797 6.85310547 -8.46091797 6.85310547 -7.08203125 6.89453125 C-6.39496094 6.92933594 -5.70789063 6.96414063 -5 7 C-4.70351562 6.37609375 -4.40703125 5.7521875 -4.1015625 5.109375 C-2.98017074 2.96202908 -1.78094582 1.61904165 0 0 Z " fill="#E7E6E7" transform="translate(30.71484375,239)" />
    <path d="M0 0 C54.12 0 108.24 0 164 0 C164 0.33 164 0.66 164 1 C110.54 1 57.08 1 2 1 C2 55.45 2 109.9 2 166 C55.79 166 109.58 166 165 166 C165 166.66 165 167.32 165 168 C110.55 168 56.1 168 0 168 C0 112.56 0 57.12 0 0 Z " fill="#D31E33" transform="translate(139.71484375,179)" />
    <path d="M0 0 C13.47748196 -0.15740125 26.91152198 0.44492025 40.375 1 C42.76821883 1.09661057 45.16144794 1.19296684 47.5546875 1.2890625 C53.36991347 1.52310914 59.18500455 1.76029775 65 2 C65 2.33 65 2.66 65 3 C64.29093506 3.0093457 63.58187012 3.01869141 62.85131836 3.02832031 C41.58272815 3.38006676 20.0622744 4.61290007 4.0625 20.5 C3.02179405 21.64897473 1.99180931 22.80856134 1 24 C0.34 23.67 -0.32 23.34 -1 23 C-0.67 15.41 -0.34 7.82 0 0 Z " fill="#E6A415" transform="translate(177.71484375,23)" />
    <path d="M0 0 C2.93661919 1.54268925 5.05329005 3.3100008 7 6 C7.69365499 9.95383344 7.39433079 12.0868129 5.8125 15.75 C2.76508145 19.53300234 0.32980485 20.83377439 -4.5 21.4375 C-8.5691036 20.92886205 -10.13345069 19.86654931 -13 17 C-14.72869779 13.54260443 -14.48966895 9.78024432 -14 6 C-10.45924931 0.3347989 -6.60868176 -1.23393699 0 0 Z " fill="#DC283C" transform="translate(190.71484375,224)" />
    <path d="M0 0 C0.66 0.33 1.32 0.66 2 1 C1.67 12.88 1.34 24.76 1 37 C3.97 37.66 6.94 38.32 10 39 C11.32 39.66 12.64 40.32 14 41 C9.61078349 42.29477815 6.94228883 41.6054454 2.6875 40.0625 C1.08455078 39.49208984 1.08455078 39.49208984 -0.55078125 38.91015625 C-1.35902344 38.60980469 -2.16726563 38.30945313 -3 38 C-1.515 37.505 -1.515 37.505 0 37 C0 24.79 0 12.58 0 0 Z " fill="#EFB90D" transform="translate(176.71484375,55)" />
    <path d="M0 0 C2.0234375 0.171875 2.0234375 0.171875 4.375 0.75 C5.53128906 1.02070313 5.53128906 1.02070313 6.7109375 1.296875 C8.96653119 1.98971948 10.92628382 2.88265521 13 4 C9.02840314 5.08056059 6.57446843 4.85815614 2.6875 3.5625 C1.36298828 3.13130859 1.36298828 3.13130859 0.01171875 2.69140625 C-0.65214844 2.46324219 -1.31601562 2.23507812 -2 2 C-1.34 1.34 -0.68 0.68 0 0 Z " fill="#DBA013" transform="translate(177.71484375,92)" />
    <path d="M0 0 C1.37478516 0.01740234 1.37478516 0.01740234 2.77734375 0.03515625 C3.69644531 0.04417969 4.61554688 0.05320312 5.5625 0.0625 C6.27277344 0.07410156 6.98304688 0.08570313 7.71484375 0.09765625 C7.71484375 0.42765625 7.71484375 0.75765625 7.71484375 1.09765625 C5.6640625 1.32552083 3.61328125 1.55338542 1.5625 1.78125 C-0.29655854 1.91652239 -0.29655854 1.91652239 -1.28515625 3.09765625 C-1.51802633 4.77949573 -1.69779791 6.46889785 -1.84765625 8.16015625 C-1.93144531 9.07925781 -2.01523438 9.99835937 -2.1015625 10.9453125 C-2.16214844 11.65558594 -2.22273437 12.36585938 -2.28515625 13.09765625 C-2.61515625 13.09765625 -2.94515625 13.09765625 -3.28515625 13.09765625 C-3.31202178 11.11856227 -3.33149 9.13936654 -3.34765625 7.16015625 C-3.35925781 6.05800781 -3.37085938 4.95585938 -3.3828125 3.8203125 C-3.25076835 0.13892172 -3.25076835 0.13892172 0 0 Z " fill="#F4F2F2" transform="translate(17,246.90234375)" />
    <path d="M0 0 C0.99 0.33 1.98 0.66 3 1 C2.09972412 2.03531726 1.17906965 3.05294165 0.25 4.0625 C-0.51570313 4.91521484 -0.51570313 4.91521484 -1.296875 5.78515625 C-3 7 -3 7 -5.203125 6.68359375 C-5.79609375 6.45800781 -6.3890625 6.23242188 -7 6 C-5.90716423 4.96704564 -4.80029421 3.94892165 -3.6875 2.9375 C-3.07261719 2.36902344 -2.45773437 1.80054688 -1.82421875 1.21484375 C-0.92123047 0.61349609 -0.92123047 0.61349609 0 0 Z " fill="#D79A15" transform="translate(156.71484375,16)" />
    <path d="M0 0 C0.66 0 1.32 0 2 0 C0.55746343 3.36591866 -1.33264727 5.51047079 -4 8 C-4 4.06830895 -2.60580385 2.83572772 0 0 Z " fill="#1E3656" transform="translate(28.71484375,238)" />
</svg>