<?xml version="1.0" encoding="UTF-8"?>
<svg version="1.1" xmlns="http://www.w3.org/2000/svg" width="200" height="200" viewBox="0 0 200 200">
    <path d="M0 0 C0.33 0 0.66 0 1 0 C1 5.28 1 10.56 1 16 C8.75938731 12.12030635 12.51052696 7.94824414 16 0 C16.66 0.66 17.32 1.32 18 2 C17.85884889 6.94028892 14.9187003 10.2627712 12 14 C13.98 12.68 15.96 11.36 18 10 C18.99 11.485 18.99 11.485 20 13 C10.74728784 19.44736858 3.09930779 20.33297923 -8 20 C-8 19.67 -8 19.34 -8 19 C-5.69 18.34 -3.38 17.68 -1 17 C-0.67 11.39 -0.34 5.78 0 0 Z " fill="#CDA24D" transform="translate(17,16)" />
</svg>