<?xml version="1.0" encoding="UTF-8"?>
<svg version="1.1" xmlns="http://www.w3.org/2000/svg" width="200" height="200" viewBox="0 0 200 200">
    <path d="M0 0 C0 6.93 0 13.86 0 21 C0.66 21 1.32 21 2 21 C2.495 19.515 2.495 19.515 3 18 C4.671875 16.6484375 4.671875 16.6484375 6.75 15.375 C7.42546875 14.94960938 8.1009375 14.52421875 8.796875 14.0859375 C12.76456515 12.13023207 16.70994094 11.87552111 21.08203125 11.90234375 C22.01337891 11.90556641 22.94472656 11.90878906 23.90429688 11.91210938 C24.86400391 11.92048828 25.82371094 11.92886719 26.8125 11.9375 C27.79154297 11.94201172 28.77058594 11.94652344 29.77929688 11.95117188 C32.18626111 11.96291316 34.59309857 11.97933581 37 12 C37.21596885 19.6809792 35.87816258 25.36775883 31.046875 31.46484375 C21.41117086 41.58907135 11.19977058 45.08950408 -2.5 45.625 C-3.32242188 45.66367187 -4.14484375 45.70234375 -4.9921875 45.7421875 C-6.9944701 45.83531692 -8.99720262 45.91868985 -11 46 C-10.17085083 46.46768799 -10.17085083 46.46768799 -9.32495117 46.94482422 C-4.37336677 49.7829804 0.08527395 52.98747804 3 58 C3.36458653 59.99453949 3.70083199 61.99460487 4 64 C5.82204956 63.9685791 5.82204956 63.9685791 7.6809082 63.93652344 C12.23384582 63.8635357 16.78673287 63.81798863 21.34008789 63.78027344 C23.30209074 63.76029082 25.26403505 63.73309516 27.22583008 63.69824219 C40.628977 63.4662712 51.86997759 63.51998292 63 72 C63.80566406 72.59554687 64.61132812 73.19109375 65.44140625 73.8046875 C73.26319632 80.51590279 77.54834101 91.19336404 80 101 C80 114.86 80 128.72 80 143 C46.67 143 13.34 143 -21 143 C-19.69071497 140.38142995 -18.63697266 140.33579924 -15.9375 139.3125 C-6.63741181 135.27605473 -1.78222522 129.28511941 2 120 C3.23180134 116.30459598 3.12412112 112.89696622 3.09765625 109.05078125 C3.0962413 108.27816452 3.09482635 107.50554779 3.09336853 106.70951843 C3.08777466 104.24380611 3.07522333 101.77818485 3.0625 99.3125 C3.05748421 97.63997527 3.05292144 95.96744912 3.04882812 94.29492188 C3.03780724 90.19657954 3.02054684 86.09830521 3 82 C2.62343262 82.80099121 2.62343262 82.80099121 2.23925781 83.61816406 C-1.85485339 92.10350858 -7.07553953 97.57742341 -16 101 C-24.2189292 103.34208096 -36.55638198 103.98730117 -44.25 100 C-46.21484375 98.6015625 -46.21484375 98.6015625 -48 97 C-48.96099609 96.14535156 -48.96099609 96.14535156 -49.94140625 95.2734375 C-56.29018517 88.83187893 -59.09840619 81.01459471 -59.625 72.0625 C-59.30877953 64.2079916 -56.31478957 57.38569416 -50.80859375 51.76171875 C-43.99834144 46.19597955 -38.58715242 44.92089624 -30 45 C-30.06960937 43.91203125 -30.13921875 42.8240625 -30.2109375 41.703125 C-30.6956152 30.86958933 -29.65866322 22.61487251 -22.3125 14.02734375 C-17.62801772 9.59525814 -6.61204227 0 0 0 Z " fill="#167B54" transform="translate(27,216)" />
    <path d="M0 0 C3.1205998 1.3862943 5.24145627 2.99291088 7.64770508 5.40478516 C8.34555618 6.09955963 9.04340729 6.79433411 9.7624054 7.51016235 C10.87968269 8.63821793 10.87968269 8.63821793 12.01953125 9.7890625 C12.79632736 10.56631683 13.57312347 11.34357117 14.37345886 12.14437866 C16.01737633 13.79131673 17.65886313 15.44068405 19.2980957 17.09228516 C21.78747093 19.59978866 24.28462575 22.0993256 26.78320312 24.59765625 C28.38328261 26.20265647 29.98290648 27.80811106 31.58203125 29.4140625 C32.32081009 30.15395416 33.05958893 30.89384583 33.820755 31.65615845 C37.21723883 35.08327826 40.48791596 38.53715796 43.59570312 42.22924805 C45.73569427 44.73020224 47.74759932 46.6517038 50.4987793 48.45385742 C55.81670082 52.12754821 59.35889064 55.84133126 60.67779541 62.3394165 C61.57057275 71.55786508 61.250796 80.78307824 60.89263916 90.02416992 C60.734663 94.5350931 60.67630278 99.04832964 60.60074615 103.56124115 C60.47569167 110.37886665 60.22644092 117.18161232 60 124 C47.13 124 34.26 124 21 124 C21 108.82 21 93.64 21 78 C7.8 78 -5.4 78 -19 78 C-19 93.18 -19 108.36 -19 124 C-31.87 124 -44.74 124 -58 124 C-59.61814929 114.16090832 -60.95911022 104.54402259 -61.625 94.625 C-61.67464905 93.8907505 -61.7242981 93.15650101 -61.77545166 92.40000153 C-62.94351914 72.80405848 -60.16724921 57.82831165 -46.98151779 42.78778458 C-41.27170551 36.50843312 -35.25060098 30.61297015 -29 24.875 C-28.30644661 24.2379438 -27.61289322 23.6008876 -26.89832306 22.94452667 C-18.18267817 14.98881868 -9.22163761 7.36164077 0 0 Z " fill="#F0AF21" transform="translate(42,16)" />
    <path d="M0 0 C54.45 0 108.9 0 165 0 C165 24.75 165 49.5 165 75 C163 71 163 71 162.0625 67.5 C157.04731146 54.12616391 142.70289203 45.93659249 130.5 40.3125 C128.34912049 39.4986537 126.17996223 38.73238866 124 38 C123.34789551 37.77151367 122.69579102 37.54302734 122.02392578 37.30761719 C95.31035907 28.31998878 60.14232867 29.87298043 34.5859375 41.69921875 C33.73257813 42.12847656 32.87921875 42.55773437 32 43 C31.08476562 43.43957031 30.16953125 43.87914062 29.2265625 44.33203125 C18.09268446 49.99253227 6.52583965 58.20070693 2.1328125 70.41015625 C1.48296533 72.8012492 1.48296533 72.8012492 1 76 C0.67 76 0.34 76 0 76 C0 50.92 0 25.84 0 0 Z " fill="#023B9A" transform="translate(151,203)" />
    <path d="M0 0 C2.97294484 1.32452368 4.92152864 2.71751478 7.1015625 5.125 C7.67519531 5.75019531 8.24882812 6.37539062 8.83984375 7.01953125 C9.42894531 7.67308594 10.01804688 8.32664063 10.625 9 C11.78178007 10.27272158 12.94068525 11.54351444 14.1015625 12.8125 C14.67424866 13.4542215 15.24693481 14.09594299 15.8369751 14.7571106 C17.97519005 17.06412005 17.97519005 17.06412005 20.53387451 19.06222534 C24.5499049 22.47335718 27.53438025 25.19784406 28.87863159 30.4006958 C29.15284964 34.35584029 29.12861397 38.23992682 28.9765625 42.1953125 C28.95787024 43.63828589 28.943655 45.08132352 28.9336853 46.52438354 C28.89581727 50.29081899 28.79789333 54.05328934 28.68664551 57.81817627 C28.56548354 62.35215302 28.52029437 66.88746926 28.46211243 71.42260742 C28.36570044 78.28448098 28.17397413 85.1376871 28 92 C15.46 92 2.92 92 -10 92 C-10 76.49 -10 60.98 -10 45 C-23.2 45 -36.4 45 -50 45 C-41.28915745 36.28915745 -32.34022669 27.95538781 -22.72265625 20.25 C-18.61144552 16.85250017 -14.72617818 13.22281124 -10.81640625 9.59765625 C-7.27112315 6.32773494 -3.65329198 3.14827809 0 0 Z " fill="#564625" transform="translate(74,48)" />
    <path d="M0 0 C4.87464091 -0.07443657 9.74894728 -0.12873667 14.62402344 -0.16479492 C16.28065763 -0.17983465 17.93725231 -0.20027177 19.59375 -0.22631836 C21.9818703 -0.26291515 24.36946188 -0.27977439 26.7578125 -0.29296875 C27.85973434 -0.31619453 27.85973434 -0.31619453 28.98391724 -0.33988953 C33.75244275 -0.34143252 36.99133363 0.40238712 41 3 C43.80788626 6.04932465 44.37109834 8.0254233 44.34057617 12.13574219 C44.34023628 13.66687653 44.34023628 13.66687653 44.33988953 15.22894287 C44.32440567 16.32386047 44.30892181 17.41877808 44.29296875 18.546875 C44.28872391 19.6732135 44.28447906 20.799552 44.28010559 21.96002197 C44.26331497 25.55692463 44.22566099 29.15326672 44.1875 32.75 C44.17245371 35.18879399 44.15876521 37.62759677 44.14648438 40.06640625 C44.11341015 46.04446205 44.06320643 52.02219097 44 58 C32.21336856 56.47167111 24.27321827 50.24488533 16 42 C15.3503125 41.37351562 14.700625 40.74703125 14.03125 40.1015625 C8.69842329 34.55822947 5.87672643 28.06105578 3 21 C2.65710938 20.20335937 2.31421875 19.40671875 1.9609375 18.5859375 C0.25715832 14.20706579 -0.1281033 10.42618552 -0.0703125 5.72265625 C-0.06016113 4.64894775 -0.05000977 3.57523926 -0.03955078 2.46899414 C-0.02649902 1.65422607 -0.01344727 0.83945801 0 0 Z " fill="#45267C" transform="translate(174,76)" />
    <path d="M0 0 C0.93134766 0.00322266 1.86269531 0.00644531 2.82226562 0.00976562 C4.26182617 0.02233398 4.26182617 0.02233398 5.73046875 0.03515625 C6.70951172 0.03966797 7.68855469 0.04417969 8.69726562 0.04882812 C11.10422986 0.06056941 13.51106732 0.07699206 15.91796875 0.09765625 C16.1339376 7.77863545 14.79613133 13.46541508 9.96484375 19.5625 C-0.0654691 30.1013427 -10.57473823 33.23341518 -24.76953125 33.78515625 C-25.69314453 33.83220703 -26.61675781 33.87925781 -27.56835938 33.92773438 C-31.96048377 34.12062105 -35.77227243 34.08338624 -40.08203125 33.09765625 C-38.70438576 30.04522606 -37.0913496 27.81051679 -34.83203125 25.34765625 C-31.79746075 21.9787152 -29.11611503 18.48990425 -26.5390625 14.76171875 C-24.89206345 12.88069571 -23.36682521 12.06636975 -21.08203125 11.09765625 C-21.08203125 10.43765625 -21.08203125 9.77765625 -21.08203125 9.09765625 C-20.42203125 9.09765625 -19.76203125 9.09765625 -19.08203125 9.09765625 C-18.75203125 8.10765625 -18.42203125 7.11765625 -18.08203125 6.09765625 C-16.41015625 4.74609375 -16.41015625 4.74609375 -14.33203125 3.47265625 C-13.6565625 3.04726563 -12.98109375 2.621875 -12.28515625 2.18359375 C-8.3174661 0.22788832 -4.37209031 -0.02682264 0 0 Z " fill="#339C72" transform="translate(48.08203125,227.90234375)" />
    <path d="M0 0 C-0.99 0.495 -0.99 0.495 -2 1 C-2 6.28 -2 11.56 -2 17 C-10.91 17 -19.82 17 -29 17 C-9 -3 -9 -3 0 0 Z " fill="#E2A114" transform="translate(190,244)" />
    <path d="M0 0 C0.66 0.33 1.32 0.66 2 1 C-0.51301462 3.61221257 -3.20799003 5.93994413 -6 8.25 C-7.299375 9.34054687 -7.299375 9.34054687 -8.625 10.453125 C-9.40875 10.96359375 -10.1925 11.4740625 -11 12 C-11.99 11.67 -12.98 11.34 -14 11 C-9.5128202 7.03109629 -4.92245182 3.41557881 0 0 Z " fill="#19877B" transform="translate(18,220)" />
    <path d="M0 0 C0.66 0.33 1.32 0.66 2 1 C-0.08310086 2.60446931 -2.16647227 4.20858518 -4.25 5.8125 C-5.12978516 6.49022461 -5.12978516 6.49022461 -6.02734375 7.18164062 C-9.00457848 9.4731078 -11.98719555 11.75531153 -15 14 C-12.35550077 7.82950179 -5.99883993 2.82298349 0 0 Z " fill="#C5E2DB" transform="translate(17,219)" />
    <path d="M0 0 C0.66 0.33 1.32 0.66 2 1 C-0.97 3.64 -3.94 6.28 -7 9 C-7.66 8.67 -8.32 8.34 -9 8 C-6.03 5.36 -3.06 2.72 0 0 Z " fill="#E6D2EA" transform="translate(196,30)" />
    <path d="M0 0 C1.65 0.33 3.3 0.66 5 1 C5 1.66 5 2.32 5 3 C2.69 3.66 0.38 4.32 -2 5 C-1.34 3.35 -0.68 1.7 0 0 Z " fill="#124089" transform="translate(193,237)" />
</svg>