<?xml version="1.0" encoding="UTF-8"?>
<svg version="1.1" xmlns="http://www.w3.org/2000/svg" width="200" height="200" viewBox="0 0 200 200">
    <path d="M0 0 C11.58599103 -0.45435259 20.76638232 -0.66166472 30.8125 5.8125 C36.13669201 11.13669201 39.11562324 15.91088556 39.375 23.5625 C39.29595244 30.8260921 37.22472674 36.27601353 32.4609375 41.77734375 C30.73040009 43.38895797 28.96885224 44.69131518 27 46 C26.31550781 46.48597656 25.63101562 46.97195313 24.92578125 47.47265625 C16.91655835 52.3543388 9.10310963 51.36123451 0 51 C0 45.72 0 40.44 0 35 C1.546875 34.7525 3.09375 34.505 4.6875 34.25 C9.05606111 33.34530507 12.13178861 32.63306776 15 29 C15.60918385 26.04366662 15.39272445 24.09270502 15 21 C13.25690379 18.45377072 12.10831901 18.027116 9.08203125 17.26953125 C8.00308594 17.11871094 6.92414063 16.96789062 5.8125 16.8125 C3.894375 16.544375 1.97625 16.27625 0 16 C0 10.72 0 5.44 0 0 Z " fill="#098D85" transform="translate(17,16)" />
</svg>