<?xml version="1.0" encoding="UTF-8"?>
<svg version="1.1" xmlns="http://www.w3.org/2000/svg" width="200" height="200" viewBox="0 0 200 200">
    <path d="M0 0 C0.11587901 8.27539035 0.20470646 16.55044147 0.25906086 24.82644272 C0.28514926 28.66941749 0.32053148 32.511837 0.37719727 36.35449219 C0.43154711 40.06333109 0.46142624 43.77163618 0.47438622 47.48084259 C0.48362104 48.89549413 0.50165527 50.31011661 0.52865028 51.72454071 C0.56496828 53.70636979 0.5670426 55.6887367 0.56762695 57.67089844 C0.57873001 58.79896912 0.58983307 59.92703979 0.60127258 61.08929443 C0 64 0 64 -5 68 C-5 45.89 -5 23.78 -5 1 C-3 0 -3 0 0 0 Z " fill="#DDDDE6" transform="translate(17,16)" />
</svg>