<?xml version="1.0" encoding="UTF-8"?>
<svg version="1.1" xmlns="http://www.w3.org/2000/svg" width="200" height="200" viewBox="0 0 200 200">
    <path d="M0 0 C0.66 0 1.32 0 2 0 C2 12.87 2 25.74 2 39 C-4.6 39 -11.2 39 -18 39 C-17.195625 40.588125 -16.39125 42.17625 -15.5625 43.8125 C-11.28017024 52.26735619 -12 54.55682422 -12 66 C-36.09 66 -60.18 66 -85 66 C-85 52.74069517 -81.77222736 42.13454853 -72.8125 32.3125 C-65.23077555 25.09416975 -56.41539058 22.68396681 -46.109375 22.84375 C-40.93452077 23.22707254 -36.31206427 24.3315899 -31.6875 26.6875 C-29.21688351 28.17227694 -29.21688351 28.17227694 -27.1328125 27.8671875 C-24.1317512 26.64697576 -22.43651358 24.75734865 -20.1875 22.4375 C-19.30835938 21.53257812 -18.42921875 20.62765625 -17.5234375 19.6953125 C-14.82987105 16.81828332 -12.22693511 13.88332306 -9.66796875 10.88671875 C-7.36197703 8.27830189 -4.88826379 5.86088213 -2.3828125 3.4453125 C-0.89145515 2.02890223 -0.89145515 2.02890223 0 0 Z " fill="#F3A01D" transform="translate(17,16)" />
</svg>