<?xml version="1.0" encoding="UTF-8"?>
<svg version="1.1" xmlns="http://www.w3.org/2000/svg" width="200" height="200" viewBox="0 0 200 200">
    <path d="M0 0 C1.76157944 -0.00929787 1.76157944 -0.00929787 3.55874634 -0.01878357 C6.02776263 -0.02584563 8.4968269 -0.02277151 10.96582031 -0.01000977 C14.70989083 0.00384456 18.45145261 -0.03026206 22.1953125 -0.06835938 C38.10743395 -0.12046824 50.60582332 0.48040833 63.1328125 11.33984375 C71.46431149 19.700679 76.40670475 29.46025665 76.9140625 41.31640625 C76.48590571 53.91250284 72.23728038 64.55944076 63.3515625 73.56640625 C61.409676 75.3728123 59.47662848 76.97260676 57.3515625 78.56640625 C58.80667349 83.93526403 61.35479371 87.92926984 64.4765625 92.44140625 C65.17845703 93.47394531 65.17845703 93.47394531 65.89453125 94.52734375 C67.04057947 96.21133297 68.19520729 97.88947785 69.3515625 99.56640625 C69.0215625 100.22640625 68.6915625 100.88640625 68.3515625 101.56640625 C67.80218018 101.21860107 67.25279785 100.8707959 66.68676758 100.51245117 C64.17957994 98.92566705 61.67182669 97.33977901 59.1640625 95.75390625 C58.29974609 95.20669922 57.43542969 94.65949219 56.54492188 94.09570312 C55.70380859 93.56396484 54.86269531 93.03222656 53.99609375 92.484375 C53.22628174 91.99735107 52.45646973 91.51032715 51.66333008 91.00854492 C50.90044678 90.53263916 50.13756348 90.0567334 49.3515625 89.56640625 C48.21275887 88.79021187 48.21275887 88.79021187 47.0509491 87.99833679 C44.02167396 86.39141187 42.25207277 86.199049 38.84960938 86.21337891 C37.77078491 86.20972321 36.69196045 86.2060675 35.58044434 86.20230103 C33.84292908 86.21624405 33.84292908 86.21624405 32.0703125 86.23046875 C29.59374742 86.21794726 27.11718492 86.20490974 24.640625 86.19140625 C20.75478867 86.18749204 16.86920979 86.19133942 12.98339844 86.20605469 C9.22032186 86.21469661 5.45829679 86.19281157 1.6953125 86.16796875 C-0.01791199 86.18798447 -0.01791199 86.18798447 -1.76574707 86.20840454 C-14.70757026 86.09165095 -25.38575125 81.60078686 -34.6484375 72.56640625 C-44.04640598 62.55395521 -47.08697767 51.4735777 -46.91796875 37.9375 C-46.04269652 26.99025459 -40.11868569 17.50620613 -32.0703125 10.23828125 C-22.10948602 2.55421511 -12.46098402 -0.05590659 0 0 Z " fill="#1E1D1D" transform="translate(17,16)" />
</svg>