<?xml version="1.0" encoding="UTF-8"?>
<svg version="1.1" xmlns="http://www.w3.org/2000/svg" width="200" height="200" viewBox="0 0 200 200">
    <path d="M0 0 C54.12 0 108.24 0 164 0 C164 55.11 164 110.22 164 167 C109.88 167 55.76 167 0 167 C0 111.89 0 56.78 0 0 Z M31.1640625 40.9921875 C17.8909936 57.35528302 15.50059596 76.61533109 17 97 C18.87015541 111.86229329 27.28717951 126.79821512 38 137 C38.64710937 137.64324219 39.29421875 138.28648437 39.9609375 138.94921875 C51.53319428 149.83658686 65.63085203 154.31520097 81.25 154.4375 C82.17272705 154.44765137 83.0954541 154.45780273 84.04614258 154.46826172 C98.55450947 154.28330902 115.75320152 146.26669517 126 136 C140.49408499 119.70341381 146.15047807 100.92994007 145.15527344 79.40966797 C144.09554325 62.96385518 137.29405482 47.98508686 126 36 C125.33613281 35.29488281 124.67226562 34.58976562 123.98828125 33.86328125 C111.87602941 22.10924758 94.9748005 16.70254136 78.38549805 16.68530273 C59.13235382 17.05391963 43.77586391 27.30704129 31.1640625 40.9921875 Z " fill="#1C3062" transform="translate(17,16)" />
</svg>