<?xml version="1.0" encoding="UTF-8"?>
<svg version="1.1" xmlns="http://www.w3.org/2000/svg" width="200" height="200" viewBox="0 0 200 200">
    <path d="M0 0 C0.33 0 0.66 0 1 0 C1 3.96 1 7.92 1 12 C-1.70716242 12.90238747 -3.23776768 13.11851302 -6.01171875 13.09765625 C-7.14770508 13.09282227 -7.14770508 13.09282227 -8.30664062 13.08789062 C-9.09232422 13.07951172 -9.87800781 13.07113281 -10.6875 13.0625 C-11.48478516 13.05798828 -12.28207031 13.05347656 -13.10351562 13.04882812 C-15.06904257 13.0370585 -17.03453085 13.01912348 -19 13 C-19 12.67 -19 12.34 -19 12 C-11.08 11.505 -11.08 11.505 -3 11 C-2.01 7.37 -1.02 3.74 0 0 Z " fill="#DFAE5C" transform="translate(17,16)" />
</svg>