<?xml version="1.0" encoding="UTF-8"?>
<svg version="1.1" xmlns="http://www.w3.org/2000/svg" width="200" height="200" viewBox="0 0 200 200">
    <path d="M0 0 C53.79 0 107.58 0 163 0 C163.04030303 41.5882532 163.04030303 41.5882532 163.04882812 58.95898438 C163.05477158 70.97323023 163.06177454 82.9874691 163.07543945 95.00170898 C163.08538493 103.74995302 163.0918531 112.49819141 163.09408849 121.24644095 C163.09539583 125.88154999 163.09848315 130.51664287 163.10573006 135.15174675 C163.11248813 139.50925479 163.1146174 143.86673992 163.11310768 148.2242527 C163.11338411 149.82832844 163.11539049 151.43240491 163.11920547 153.03647614 C163.12413941 155.2169273 163.12299942 157.39729057 163.12025452 159.57774353 C163.12163721 161.41257246 163.12163721 161.41257246 163.12304783 163.28446865 C163 166 163 166 162 167 C159.91172679 167.09685318 157.82011638 167.12186882 155.729599 167.12025452 C155.06881348 167.12111053 154.40802795 167.12196655 153.72721863 167.12284851 C151.48991257 167.12451326 149.25268016 167.11896467 147.01538086 167.11352539 C145.39326511 167.11321929 143.77114923 167.11335215 142.14903355 167.11389065 C137.78986825 167.11411718 133.4307302 167.10830514 129.07157135 167.10128021 C124.98688162 167.09560154 120.90219864 167.09531798 116.81750488 167.09460449 C104.85749962 167.0893491 92.89749947 167.07538805 80.9375 167.0625 C54.228125 167.041875 27.51875 167.02125 0 167 C0 111.89 0 56.78 0 0 Z " fill="#E1E1DF" transform="translate(17,16)" />
</svg>