<?xml version="1.0" encoding="UTF-8"?>
<svg version="1.1" xmlns="http://www.w3.org/2000/svg" width="200" height="200" viewBox="0 0 200 200">
    <path d="M0 0 C54.12 0 108.24 0 164 0 C164 55.11 164 110.22 164 167 C109.88 167 55.76 167 0 167 C0 111.89 0 56.78 0 0 Z " fill="#0A2345" transform="translate(143,107)" />
    <path d="M0 0 C0.66 0 1.32 0 2 0 C2.34256836 0.6297876 2.68513672 1.2595752 3.03808594 1.90844727 C4.60796833 4.79354341 6.17897536 7.6780257 7.75 10.5625 C8.28882813 11.55314453 8.82765625 12.54378906 9.3828125 13.56445312 C11.67332955 17.76838991 13.96383497 21.96280267 16.390625 26.08984375 C18 29 18 29 18 31 C19.57201172 29.9171875 19.57201172 29.9171875 21.17578125 28.8125 C22.55444039 27.87463664 23.93336026 26.93715648 25.3125 26 C26.00279297 25.52304688 26.69308594 25.04609375 27.40429688 24.5546875 C28.07138672 24.10351562 28.73847656 23.65234375 29.42578125 23.1875 C30.03848877 22.76855469 30.65119629 22.34960938 31.2824707 21.91796875 C33 21 33 21 36 21 C36.05703183 27.40248116 36.05728491 33.80252311 36.0078125 40.20507812 C36.00128377 42.54073212 36.03799686 44.8684621 36.09375 47.203125 C36.00532396 57.41633284 32.23688021 64.35092186 27.18994141 72.92333984 C25.3311516 76.16725985 23.69747006 79.51422821 22.0625 82.875 C20.49096413 86.07751518 18.97952364 89.03071454 17 92 C35.81 92 54.62 92 74 92 C72.44747362 95.10505276 71.33395786 96.97816697 69.13671875 99.49609375 C68.57919922 100.13740234 68.02167969 100.77871094 67.44726562 101.43945312 C66.86654297 102.09880859 66.28582031 102.75816406 65.6875 103.4375 C65.11837891 104.09298828 64.54925781 104.74847656 63.96289062 105.42382812 C54.57571742 116.16896209 54.57571742 116.16896209 47.9375 118.8125 C46.91527344 119.23144531 45.89304687 119.65039062 44.83984375 120.08203125 C42 121 42 121 38 121 C38 121.66 38 122.32 38 123 C38.86496094 123.11730469 39.72992188 123.23460937 40.62109375 123.35546875 C44.01696088 124.00323531 46.87618683 124.9845269 50.0625 126.3125 C51.06410156 126.72113281 52.06570313 127.12976562 53.09765625 127.55078125 C58.21521462 130.10611659 61.59187652 133.45583536 65 138 C63 142 63 142 54 151 C63.24 151.33 72.48 151.66 82 152 C82 152.33 82 152.66 82 153 C27.55 153 -26.9 153 -83 153 C-83 152.67 -83 152.34 -83 152 C-55.28 152 -27.56 152 1 152 C1 142.1 1 132.2 1 122 C-3.35251953 122.05220703 -3.35251953 122.05220703 -7.79296875 122.10546875 C-10.60944638 122.12887825 -13.42591308 122.14708691 -16.24243164 122.16479492 C-18.19690823 122.17986301 -20.15135112 122.20032124 -22.10571289 122.22631836 C-24.91821623 122.26278865 -27.73027174 122.27974622 -30.54296875 122.29296875 C-31.84949654 122.31619453 -31.84949654 122.31619453 -33.18241882 122.33988953 C-39.09459004 122.34152231 -42.29248833 121.34879341 -46.83349609 117.40942383 C-47.39117676 116.84763428 -47.94885742 116.28584473 -48.5234375 115.70703125 C-49.14895508 115.08022461 -49.77447266 114.45341797 -50.41894531 113.80761719 C-51.06444336 113.14922852 -51.70994141 112.49083984 -52.375 111.8125 C-53.04112305 111.13993164 -53.70724609 110.46736328 -54.39355469 109.77441406 C-58.30206283 105.80450569 -62.1235325 101.78804186 -65.703125 97.515625 C-67.06261413 95.92682445 -68.50441849 94.46039136 -70 93 C-68.47973184 88.43919552 -64.87930171 87.10547159 -60.875 84.75 C-59 84 -59 84 -55 84 C-56.33477913 80.31564951 -57.98077827 77.3552644 -60.2578125 74.171875 C-60.88300781 73.29015625 -61.50820313 72.4084375 -62.15234375 71.5 C-62.80332031 70.5925 -63.45429688 69.685 -64.125 68.75 C-65.42126204 66.93371112 -66.71564334 65.11607796 -68.0078125 63.296875 C-68.58160645 62.49604492 -69.15540039 61.69521484 -69.74658203 60.87011719 C-71 59 -71 59 -71 58 C-41.92146969 55.74077252 -41.92146969 55.74077252 -35.33984375 60.82421875 C-32.30733356 63.88135188 -30.12398504 67.26984117 -28 71 C-27.01 71.99 -27.01 71.99 -26 73 C-26.83144531 71.70255859 -26.83144531 71.70255859 -27.6796875 70.37890625 C-36.88600688 54.82951728 -36.14095364 37.59571282 -36 20 C-31.83195623 21.58509898 -28.48510135 23.57927136 -24.8125 26.125 C-21.21601802 28.96729334 -21.21601802 28.96729334 -17 30 C-14.73897707 26.0493839 -12.4786581 22.09836622 -10.21899414 18.14697266 C-9.44998257 16.80246055 -8.68077783 15.4580589 -7.91137695 14.11376953 C-6.80629641 12.18290668 -5.70190829 10.25164926 -4.59765625 8.3203125 C-4.25283707 7.71816925 -3.90801788 7.116026 -3.55274963 6.49563599 C-2.32594364 4.34879783 -1.10604986 2.21209971 0 0 Z " fill="#CC2228" transform="translate(35,122)" />
    <path d="M0 0 C1.01037827 0.00222061 2.02075653 0.00444122 3.06175232 0.00672913 C4.77341331 0.00684242 4.77341331 0.00684242 6.51965332 0.00695801 C7.76129745 0.01211929 9.00294159 0.01728058 10.2822113 0.02259827 C12.17785072 0.02472069 12.17785072 0.02472069 14.11178589 0.02688599 C17.47705394 0.0315487 20.84225495 0.04053972 24.20750427 0.05158997 C27.63930175 0.06180606 31.07110614 0.06638403 34.50291443 0.07142639 C41.2405633 0.08248071 47.9781803 0.09923742 54.71580505 0.12025452 C53.3869131 2.85358989 52.05916594 5.09317387 50.0712738 7.39759827 C49.55887146 7.99378967 49.04646912 8.58998108 48.51853943 9.20423889 C47.71899841 10.12172913 47.71899841 10.12172913 46.90330505 11.05775452 C46.38187927 11.66554749 45.86045349 12.27334045 45.32322693 12.89955139 C36.37419802 23.25629272 36.37419802 23.25629272 29.65330505 25.93275452 C28.63107849 26.35169983 27.60885193 26.77064514 26.5556488 27.20228577 C23.71580505 28.12025452 23.71580505 28.12025452 19.71580505 28.12025452 C19.71580505 28.78025452 19.71580505 29.44025452 19.71580505 30.12025452 C20.58076599 30.2375592 21.44572693 30.35486389 22.3368988 30.47572327 C25.73276594 31.12348983 28.59199188 32.10478141 31.77830505 33.43275452 C32.77990662 33.84138733 33.78150818 34.25002014 34.8134613 34.67103577 C39.93101967 37.2263711 43.30768157 40.57608987 46.71580505 45.12025452 C44.71580505 49.12025452 44.71580505 49.12025452 35.71580505 58.12025452 C49.57580505 58.61525452 49.57580505 58.61525452 63.71580505 59.12025452 C63.71580505 59.45025452 63.71580505 59.78025452 63.71580505 60.12025452 C9.26580505 60.12025452 -45.18419495 60.12025452 -101.28419495 60.12025452 C-101.28419495 59.79025452 -101.28419495 59.46025452 -101.28419495 59.12025452 C-73.56419495 59.12025452 -45.84419495 59.12025452 -17.28419495 59.12025452 C-17.28419495 48.89025452 -17.28419495 38.66025452 -17.28419495 28.12025452 C-14.27696704 22.10579871 -11.22561179 16.13275057 -8.09669495 10.18275452 C-7.6461676 9.32101624 -7.19564026 8.45927795 -6.73146057 7.57142639 C-6.08660706 6.34456116 -6.08660706 6.34456116 -5.4287262 5.09291077 C-5.04047668 4.35306946 -4.65222717 3.61322815 -4.25221252 2.85096741 C-2.73824774 0.14415874 -2.73824774 0.14415874 0 0 Z " fill="#921C15" transform="translate(53.28419494628906,214.87974548339844)" />
    <path d="M0 0 C0.66 0 1.32 0 2 0 C2.34256836 0.6297876 2.68513672 1.2595752 3.03808594 1.90844727 C4.60796833 4.79354341 6.17897536 7.6780257 7.75 10.5625 C8.28882813 11.55314453 8.82765625 12.54378906 9.3828125 13.56445312 C11.67332955 17.76838991 13.96383497 21.96280267 16.390625 26.08984375 C18 29 18 29 18 31 C19.04800781 30.278125 20.09601563 29.55625 21.17578125 28.8125 C22.55444039 27.87463664 23.93336026 26.93715648 25.3125 26 C26.00279297 25.52304688 26.69308594 25.04609375 27.40429688 24.5546875 C28.07138672 24.10351562 28.73847656 23.65234375 29.42578125 23.1875 C30.03848877 22.76855469 30.65119629 22.34960938 31.2824707 21.91796875 C33 21 33 21 36 21 C36.05703183 27.40248116 36.05728491 33.80252311 36.0078125 40.20507812 C36.00128377 42.54073212 36.03799686 44.8684621 36.09375 47.203125 C36.00532396 57.41633284 32.23688021 64.35092186 27.18994141 72.92333984 C25.3311516 76.16725985 23.69747006 79.51422821 22.0625 82.875 C20.49096413 86.07751518 18.97952364 89.03071454 17 92 C35.81 92 54.62 92 74 92 C73.67 92.66 73.34 93.32 73 94 C54.19 94 35.38 94 16 94 C13.36 98.95 10.72 103.9 8 109 C3.25396825 117.87301587 3.25396825 117.87301587 1 119 C0.99576806 118.4152399 0.99153612 117.83047979 0.98717594 117.22799969 C0.88392046 103.00667884 0.77529035 88.78540756 0.66066074 74.5641737 C0.60535692 67.68692409 0.55187959 60.8096693 0.50268555 53.93237305 C0.45523361 47.29933697 0.40271362 40.66635368 0.34705925 34.03338051 C0.32662931 31.4987754 0.30791731 28.96415587 0.29092598 26.42952538 C0.26689623 22.88810366 0.23683951 19.34678179 0.20532227 15.80541992 C0.1995668 14.75022156 0.19381134 13.69502319 0.18788147 12.60784912 C0.17809265 11.64451157 0.16830383 10.68117401 0.15821838 9.68864441 C0.14853956 8.43177968 0.14853956 8.43177968 0.1386652 7.14952374 C0.07959624 4.81462296 0.07959624 4.81462296 -1 2 C-0.67 1.34 -0.34 0.68 0 0 Z " fill="#DB2D2E" transform="translate(35,122)" />
    <path d="M0 0 C0.33 0 0.66 0 1 0 C1 29.37 1 58.74 1 89 C-9.14541991 89 -9.14541991 89 -11.84375 86.38671875 C-12.44622559 85.80680176 -13.04870117 85.22688477 -13.66943359 84.62939453 C-14.57556396 83.66815674 -14.57556396 83.66815674 -15.5 82.6875 C-16.14146973 82.03120605 -16.78293945 81.37491211 -17.44384766 80.69873047 C-23.96250689 73.63507127 -27.77761665 65.47789163 -31.29833984 56.61962891 C-31.88567959 54.9917386 -31.88567959 54.9917386 -33 54 C-33.52491626 50.08145917 -33.75898625 46.12868222 -34.0625 42.1875 C-34.15337891 41.10017578 -34.24425781 40.01285156 -34.33789062 38.89257812 C-34.91578597 31.57981228 -35.11183941 24.33418014 -35 17 C-30.83195623 18.58509898 -27.48510135 20.57927136 -23.8125 23.125 C-20.21601802 25.96729334 -20.21601802 25.96729334 -16 27 C-15.55084229 26.21761963 -15.10168457 25.43523926 -14.63891602 24.62915039 C-12.97595821 21.73421244 -11.31158703 18.84009701 -9.64624023 15.9465332 C-8.92496561 14.69263 -8.2042604 13.43839908 -7.48413086 12.18383789 C-6.450543 10.38341747 -5.41493106 8.58417519 -4.37890625 6.78515625 C-3.44413452 5.15912476 -3.44413452 5.15912476 -2.49047852 3.50024414 C-1 1 -1 1 0 0 Z " fill="#C4222A" transform="translate(34,125)" />
    <path d="M0 0 C1.29349365 0.00523682 2.5869873 0.01047363 3.91967773 0.01586914 C4.9496714 0.01799156 4.9496714 0.01799156 6.00047302 0.02015686 C8.20144949 0.0257706 10.40232557 0.03832532 12.60327148 0.05102539 C14.09220231 0.05603863 15.58113473 0.06060184 17.07006836 0.06469727 C20.72700223 0.07574446 24.38387707 0.09301826 28.04077148 0.11352539 C26.8399916 3.3014823 25.53409268 6.11959769 23.65795898 8.96118164 C23.21323242 9.64889648 22.76850586 10.33661133 22.31030273 11.04516602 C21.37647958 12.47205826 20.43894098 13.89652548 19.49780273 15.31860352 C19.0556543 16.0050293 18.61350586 16.69145508 18.15795898 17.39868164 C17.75174316 18.01622314 17.34552734 18.63376465 16.92700195 19.27001953 C15.75192717 21.37345883 15.75192717 21.37345883 16.04077148 25.11352539 C18.44314792 27.07742829 18.44314792 27.07742829 21.47827148 28.73852539 C26.95503141 31.94204525 26.95503141 31.94204525 28.04077148 34.11352539 C9.23077148 34.11352539 -9.57922852 34.11352539 -28.95922852 34.11352539 C-27.14576456 29.57986551 -25.13713112 25.28577608 -22.95922852 20.92602539 C-22.60344727 20.2022168 -22.24766602 19.4784082 -21.88110352 18.73266602 C-19.1988505 13.35314738 -19.1988505 13.35314738 -16.95922852 11.11352539 C-16.95922852 11.77352539 -16.95922852 12.43352539 -16.95922852 13.11352539 C-11.53983708 9.9411987 -7.95058897 5.91855161 -3.95922852 1.11352539 C-2.95922852 0.11352539 -2.95922852 0.11352539 0 0 Z " fill="#E7B0B1" transform="translate(80.959228515625,179.886474609375)" />
    <path d="M0 0 C33.33 0 66.66 0 101 0 C101 1.65 101 3.3 101 5 C67.67 5 34.34 5 0 5 C0 3.35 0 1.7 0 0 Z " fill="#E7B959" transform="translate(178,129)" />
    <path d="M0 0 C26.07 0 52.14 0 79 0 C79 1.98 79 3.96 79 6 C52.93 6 26.86 6 0 6 C0 4.02 0 2.04 0 0 Z " fill="#D2AC5A" transform="translate(185,247)" />
    <path d="M0 0 C26.07 0 52.14 0 79 0 C79 1.98 79 3.96 79 6 C52.93 6 26.86 6 0 6 C0 4.02 0 2.04 0 0 Z " fill="#D4AD59" transform="translate(185,237)" />
    <path d="M0 0 C0 4.95 0 9.9 0 15 C-7.59 15 -15.18 15 -23 15 C-21.85583789 9.27918945 -20.20785294 6.84690845 -16 3 C-10.51344448 -0.20911738 -6.17660246 -0.28507396 0 0 Z " fill="#E7EEEE" transform="translate(35,37)" />
    <path d="M0 0 C10.19230769 0 10.19230769 0 14 3 C16 5 16 5 16.5 8.8125 C16.38274827 12.38867771 15.99972909 13.0003422 13.625 16 C9.4079612 19.03099664 4.98624236 18.33690827 0 18 C0 12.06 0 6.12 0 0 Z " fill="#E6EDED" transform="translate(36,17)" />
    <path d="M0 0 C1.65800798 4.42135462 0.66509036 6.67927714 0 12 C6.27 12 12.54 12 19 12 C19 9.69 19 7.38 19 5 C19.28520405 3.32442621 19.59955696 1.65182755 20 0 C20.33 0 20.66 0 21 0 C21.495 5.445 21.495 5.445 22 11 C25.3 11.33 28.6 11.66 32 12 C32 12.66 32 13.32 32 14 C28.7 14.33 25.4 14.66 22 15 C21.67 18.63 21.34 22.26 21 26 C20.67 26 20.34 26 20 26 C19.67 22.04 19.34 18.08 19 14 C12.73 14 6.46 14 0 14 C0.66 17.63 1.32 21.26 2 25 C7.61 25.33 13.22 25.66 19 26 C19 26.33 19 26.66 19 27 C15.97961911 27.33794471 12.95880244 27.67048433 9.9375 28 C9.08994141 28.09539062 8.24238281 28.19078125 7.36914062 28.2890625 C2.54527411 28.81056158 -2.14836264 29.10532727 -7 29 C-7 29.66 -7 30.32 -7 31 C-7.99 31 -8.98 31 -10 31 C-10.33 28.69 -10.66 26.38 -11 24 C-6.05 24.99 -6.05 24.99 -1 26 C-1.66 22.37 -2.32 18.74 -3 15 C-5.64 14.67 -8.28 14.34 -11 14 C-10.67 13.34 -10.34 12.68 -10 12 C-7.67843403 11.59270772 -5.3431213 11.25561323 -3 11 C-2.86722656 10.28972656 -2.73445312 9.57945313 -2.59765625 8.84765625 C-2.42105469 7.92855469 -2.24445312 7.00945312 -2.0625 6.0625 C-1.88847656 5.14597656 -1.71445312 4.22945312 -1.53515625 3.28515625 C-1 1 -1 1 0 0 Z " fill="#E8B359" transform="translate(208,174)" />
    <path d="M0 0 C25.74 0 51.48 0 78 0 C78.495 1.485 78.495 1.485 79 3 C52.93 3 26.86 3 0 3 C0 4.98 0 6.96 0 9 C-0.33 9 -0.66 9 -1 9 C-1.125 2.25 -1.125 2.25 0 0 Z " fill="#0B223A" transform="translate(185,244)" />
    <path d="M0 0 C0.87462891 0.00451172 1.74925781 0.00902344 2.65039062 0.01367188 C4.78779047 0.02535166 6.92515463 0.04328311 9.0625 0.0625 C9.0625 0.3925 9.0625 0.7225 9.0625 1.0625 C3.7825 1.0625 -1.4975 1.0625 -6.9375 1.0625 C-5.761875 2.980625 -4.58625 4.89875 -3.375 6.875 C-1.37109375 10.14453125 -1.37109375 10.14453125 0.0625 13.0625 C-0.2675 14.0525 -0.5975 15.0425 -0.9375 16.0625 C-0.15375 16.18625 0.63 16.31 1.4375 16.4375 C4.0625 17.0625 4.0625 17.0625 6.0625 19.0625 C2.16952773 20.36015742 0.18843049 20.57353727 -3.60546875 18.8515625 C-9.64439251 15.1699014 -14.9529108 10.97818704 -18.9375 5.0625 C-18.9375 4.4025 -18.9375 3.7425 -18.9375 3.0625 C-18.2775 3.0625 -17.6175 3.0625 -16.9375 3.0625 C-16.9375 2.4025 -16.9375 1.7425 -16.9375 1.0625 C-11.24910882 0.0822752 -5.76455667 -0.05698801 0 0 Z " fill="#D8AB4F" transform="translate(217.9375,201.9375)" />
    <path d="M0 0 C6.27 0 12.54 0 19 0 C19 3.96 19 7.92 19 12 C13.39 12 7.78 12 2 12 C0 6 0 6 0 0 Z " fill="#203443" transform="translate(208,188)" />
    <path d="M0 0 C5.28 0 10.56 0 16 0 C16 3.63 16 7.26 16 11 C10.39 11 4.78 11 -1 11 C-1.125 2.25 -1.125 2.25 0 0 Z " fill="#082037" transform="translate(210,174)" />
    <path d="M0 0 C5.28 0 10.56 0 16 0 C16 5.28 16 10.56 16 16 C10.05545107 14.81109021 7.00026074 12.73334059 3.5078125 7.9609375 C0 2.51094633 0 2.51094633 0 0 Z " fill="#12273B" transform="translate(211,203)" />
    <path d="M0 0 C4.29 0 8.58 0 13 0 C13 6.27 13 12.54 13 19 C15.64 19 18.28 19 21 19 C21 19.33 21 19.66 21 20 C18.36 20 15.72 20 13 20 C13 25.28 13 30.56 13 36 C16.96 36 20.92 36 25 36 C25 36.33 25 36.66 25 37 C21.04 37 17.08 37 13 37 C13 40.3 13 43.6 13 47 C12.67 47 12.34 47 12 47 C12 43.7 12 40.4 12 37 C4.41 37 -3.18 37 -11 37 C-11 36.67 -11 36.34 -11 36 C-3.41 36 4.18 36 12 36 C12 31.05 12 26.1 12 21 C10.02 21 8.04 21 6 21 C6 20.67 6 20.34 6 20 C7.98 20 9.96 20 12 20 C12 13.73 12 7.46 12 1 C8.04 1 4.08 1 0 1 C0 0.67 0 0.34 0 0 Z " fill="#85C3C0" transform="translate(23,16)" />
    <path d="M0 0 C2.31 0 4.62 0 7 0 C7 3.63 7 7.26 7 11 C4.03 11 1.06 11 -2 11 C-2.28571429 3.57142857 -2.28571429 3.57142857 0 0 Z " fill="#192D40" transform="translate(199,174)" />
    <path d="M0 0 C25.74 0 51.48 0 78 0 C78 0.33 78 0.66 78 1 C53.58 1 29.16 1 4 1 C4 1.66 4 2.32 4 3 C2.68 3 1.36 3 0 3 C0 4.98 0 6.96 0 9 C-0.33 9 -0.66 9 -1 9 C-1.125 2.25 -1.125 2.25 0 0 Z " fill="#00193B" transform="translate(185,244)" />
    <path d="M0 0 C2.97 0 5.94 0 9 0 C9.33 3.63 9.66 7.26 10 11 C7.36 11 4.72 11 2 11 C0.80712589 7.12315913 0 4.08378077 0 0 Z " fill="#1D2D39" transform="translate(197,189)" />
    <path d="M0 0 C1.01382963 3.6208201 1.49897691 7.27811418 2 11 C4.64 11 7.28 11 10 11 C10 11.33 10 11.66 10 12 C7.69 12.33 5.38 12.66 3 13 C5.31 13.33 7.62 13.66 10 14 C10 14.33 10 14.66 10 15 C7.36 15 4.72 15 2 15 C2.17917969 15.68707031 2.35835938 16.37414063 2.54296875 17.08203125 C2.75566406 17.98308594 2.96835937 18.88414063 3.1875 19.8125 C3.40792969 20.70582031 3.62835938 21.59914063 3.85546875 22.51953125 C4 25 4 25 2.55078125 26.82421875 C1.78314453 27.40623047 1.78314453 27.40623047 1 28 C-0.87862854 22.44579389 -1.27845957 17.59056176 -1.1875 11.75 C-1.18685547 10.94820312 -1.18621094 10.14640625 -1.18554688 9.3203125 C-1.16036255 5.97359527 -1.06478118 3.19434355 0 0 Z " fill="#BA944E" transform="translate(195,174)" />
    <path d="M0 0 C2.31 0 4.62 0 7 0 C7.9795958 1.79143207 8.9586633 3.58315304 9.9375 5.375 C10.48277344 6.37273437 11.02804687 7.37046875 11.58984375 8.3984375 C12.4149759 9.92070346 13.22564391 11.45128783 14 13 C7.82075772 10.88140265 3.76404163 7.29754008 0 2 C0 1.34 0 0.68 0 0 Z " fill="#213542" transform="translate(201,203)" />
    <path d="M0 0 C0.66 0.33 1.32 0.66 2 1 C1.59007812 1.51949219 1.18015625 2.03898437 0.7578125 2.57421875 C-2.07636576 6.2423777 -4.59828033 9.51449706 -6 14 C-8.31 14 -10.62 14 -13 14 C-10.10875142 7.4946907 -5.76686831 3.88154598 0 0 Z " fill="#253644" transform="translate(214,157)" />
    <path d="M0 0 C6.27 0 12.54 0 19 0 C19 0.33 19 0.66 19 1 C13.72 1 8.44 1 3 1 C5.31 4.96 7.62 8.92 10 13 C9.34 13 8.68 13 8 13 C8 13.66 8 14.32 8 15 C5.24850262 13.62425131 4.46180456 11.80534424 2.875 9.1875 C2.33617187 8.31480469 1.79734375 7.44210937 1.2421875 6.54296875 C0 4 0 4 0 0 Z " fill="#C8A151" transform="translate(208,202)" />
    <path d="M0 0 C0.66 0.33 1.32 0.66 2 1 C1.67 1.66 1.34 2.32 1 3 C3.31 3 5.62 3 8 3 C7.67 3.99 7.34 4.98 7 6 C4.36 6.33 1.72 6.66 -1 7 C-2.485 12.445 -2.485 12.445 -4 18 C-4.33 18 -4.66 18 -5 18 C-5.20606587 12.23015553 -4.80464178 7.50890648 -3 2 C-2.01 1.34 -1.02 0.68 0 0 Z " fill="#E6B559" transform="translate(200,168)" />
    <path d="M0 0 C0.66 0.33 1.32 0.66 2 1 C-0.64 3.64 -3.28 6.28 -6 9 C-6 6 -6 6 -4.6875 4.39453125 C-4.130625 3.87246094 -3.57375 3.35039063 -3 2.8125 C-2.443125 2.28269531 -1.88625 1.75289062 -1.3125 1.20703125 C-0.6628125 0.60955078 -0.6628125 0.60955078 0 0 Z M-15 11 C-14.67 11.66 -14.34 12.32 -14 13 C-12.35 12.34 -10.7 11.68 -9 11 C-10.3125 13 -10.3125 13 -12 15 C-12.99 15 -13.98 15 -15 15 C-15.33 15.66 -15.66 16.32 -16 17 C-15.67 15.02 -15.34 13.04 -15 11 Z " fill="#E3B8B8" transform="translate(78,180)" />
    <path d="M0 0 C3.3 0.99 6.6 1.98 10 3 C10 3.66 10 4.32 10 5 C8.02 5 6.04 5 4 5 C4 5.66 4 6.32 4 7 C3.01 7 2.02 7 1 7 C0.67 4.69 0.34 2.38 0 0 Z " fill="#E7B048" transform="translate(197,198)" />
    <path d="M0 0 C-0.61875 0.0825 -1.2375 0.165 -1.875 0.25 C-4.17972859 0.79394438 -4.17972859 0.79394438 -5.0625 3 C-5.371875 3.66 -5.68125 4.32 -6 5 C-9.13349732 6.04449911 -9.98968256 5.93423645 -13 5 C-13 4.34 -13 3.68 -13 3 C-11.21189234 2.30329584 -9.41937948 1.61788811 -7.625 0.9375 C-6.62726563 0.55464844 -5.62953125 0.17179687 -4.6015625 -0.22265625 C-2 -1 -2 -1 0 0 Z " fill="#D4BCBA" transform="translate(86,240)" />
    <path d="M0 0 C-2.77280706 3.08089673 -5.06326356 4.68775452 -9 6 C-8.8125 4.1875 -8.8125 4.1875 -8 2 C-3.744 -1.248 -3.744 -1.248 0 0 Z " fill="#E6B559" transform="translate(218,154)" />
    <path d="M0 0 C3.875 4.75 3.875 4.75 5 7 C4.34 7 3.68 7 3 7 C3 7.66 3 8.32 3 9 C1 8 1 8 -0.1875 5.625 C-1 3 -1 3 0 0 Z " fill="#C79D55" transform="translate(213,208)" />
    <path d="M0 0 C1.65 0 3.3 0 5 0 C5 0.66 5 1.32 5 2 C4.01 2 3.02 2 2 2 C1.67 4.64 1.34 7.28 1 10 C0.67 10 0.34 10 0 10 C0 6.7 0 3.4 0 0 Z " fill="#17273D" transform="translate(209,189)" />
    <path d="M0 0 C2 1.1875 2 1.1875 4 3 C4.25 5.6875 4.25 5.6875 4 8 C3.34 8 2.68 8 2 8 C0.23537317 4.91190305 0 3.76687864 0 0 Z " fill="#E0B35D" transform="translate(209,203)" />
    <path d="M0 0 C0.66 0.66 1.32 1.32 2 2 C1.01 2.33 0.02 2.66 -1 3 C-2.22520264 6.00847418 -2.22520264 6.00847418 -3 9 C-3.66 9 -4.32 9 -5 9 C-3.90931332 5.22454612 -3.0916909 2.52956528 0 0 Z " fill="#D3E8E7" transform="translate(17,42)" />
    <path d="M0 0 C1.875 0.3125 1.875 0.3125 4 1 C4.66 1.99 5.32 2.98 6 4 C5.34 4 4.68 4 4 4 C3.67 4.66 3.34 5.32 3 6 C0 2.25 0 2.25 0 0 Z " fill="#CFA54F" transform="translate(199,205)" />
    <path d="M0 0 C1.32 0.33 2.64 0.66 4 1 C3.34 3.31 2.68 5.62 2 8 C0.23537317 4.91190305 0 3.76687864 0 0 Z " fill="#17293D" transform="translate(197,189)" />
    <path d="M0 0 C0.33 0 0.66 0 1 0 C1.36625971 4.51720311 1.36625971 4.51720311 -0.375 6.8125 C-2 8 -2 8 -4 8 C-2.87548273 5.0280615 -1.77706209 2.66559313 0 0 Z " fill="#C62D30" transform="translate(34,125)" />
    <path d="M0 0 C-1.15173355 2.46800047 -2.04783565 4.04783565 -4 6 C-4.99 5.67 -5.98 5.34 -7 5 C-2.25 0 -2.25 0 0 0 Z " fill="#D9CDCD" transform="translate(97,231)" />
</svg>