<?xml version="1.0" encoding="UTF-8"?>
<svg version="1.1" xmlns="http://www.w3.org/2000/svg" width="200" height="200" viewBox="0 0 200 200">
    <path d="M0 0 C1.65800798 4.42135462 0.66509036 6.67927714 0 12 C6.27 12 12.54 12 19 12 C19 9.69 19 7.38 19 5 C19.28520405 3.32442621 19.59955696 1.65182755 20 0 C20.33 0 20.66 0 21 0 C21.495 5.445 21.495 5.445 22 11 C25.3 11.33 28.6 11.66 32 12 C32 12.66 32 13.32 32 14 C28.7 14.33 25.4 14.66 22 15 C21.67 18.63 21.34 22.26 21 26 C20.67 26 20.34 26 20 26 C19.67 22.04 19.34 18.08 19 14 C12.73 14 6.46 14 0 14 C0.66 17.63 1.32 21.26 2 25 C7.61 25.33 13.22 25.66 19 26 C19 26.33 19 26.66 19 27 C15.97961911 27.33794471 12.95880244 27.67048433 9.9375 28 C9.08994141 28.09539062 8.24238281 28.19078125 7.36914062 28.2890625 C2.54527411 28.81056158 -2.14836264 29.10532727 -7 29 C-7 29.66 -7 30.32 -7 31 C-7.99 31 -8.98 31 -10 31 C-10.33 28.69 -10.66 26.38 -11 24 C-6.05 24.99 -6.05 24.99 -1 26 C-1.66 22.37 -2.32 18.74 -3 15 C-5.64 14.67 -8.28 14.34 -11 14 C-10.67 13.34 -10.34 12.68 -10 12 C-7.67843403 11.59270772 -5.3431213 11.25561323 -3 11 C-2.86722656 10.28972656 -2.73445312 9.57945313 -2.59765625 8.84765625 C-2.42105469 7.92855469 -2.24445312 7.00945312 -2.0625 6.0625 C-1.88847656 5.14597656 -1.71445312 4.22945312 -1.53515625 3.28515625 C-1 1 -1 1 0 0 Z " fill="#E8B359" transform="translate(17,16)" />
</svg>