<?xml version="1.0" encoding="UTF-8"?>
<svg version="1.1" xmlns="http://www.w3.org/2000/svg" width="200" height="200" viewBox="0 0 200 200">
    <path d="M0 0 C0.33 0 0.66 0 1 0 C1 6.6 1 13.2 1 20 C2.93875 20.0825 4.8775 20.165 6.875 20.25 C17.3178485 21.08814619 25.46337341 24.63596791 33 32 C39.67760358 40.30491874 41.07390627 47.37332284 40 58 C37.78887561 64.89168209 32.94179983 70.02848449 27 74 C18.19261921 78.41711628 11.10663348 79 1 79 C1 86.59 1 94.18 1 102 C2.876875 101.9175 4.75375 101.835 6.6875 101.75 C16.37050205 101.76055944 26.90652039 103.92590148 34 111 C39.1288137 117.08207488 40.42500703 121.96740988 40.33984375 129.79296875 C39.64060693 136.3915139 36.65062765 141.80685032 31.8125 146.3125 C24.10744475 152.24724715 16.37658988 155.16897352 6.6875 155.0625 C5.61886719 155.05347656 4.55023438 155.04445313 3.44921875 155.03515625 C2.64097656 155.02355469 1.83273437 155.01195312 1 155 C1 158.3 1 161.6 1 165 C0.67 165 0.34 165 0 165 C0 161.7 0 158.4 0 155 C-7.59 155 -15.18 155 -23 155 C-21.92128583 148.52771496 -20.71348432 146.20276818 -16 142 C-10.3724995 138.81462236 -6.8447565 138.7605285 0 138 C0 131.73 0 125.46 0 119 C-1.753125 119.061875 -3.50625 119.12375 -5.3125 119.1875 C-16.46404511 119.14814161 -25.69975632 116.1210245 -33.78515625 108.265625 C-39.80807068 101.57678637 -41.5270618 96.14443523 -41.28125 87.12109375 C-40.63604157 79.96107237 -37.14199971 74.88489973 -32 70 C-22.51563008 62.30434897 -11.79387084 61.61955255 0 62 C0 56.06 0 50.12 0 44 C-10.56 44 -21.12 44 -32 44 C-27.63393969 35.26787938 -18.96277252 26.04770372 -10 22 C-6.7 21.67 -3.4 21.34 0 21 C0 14.07 0 7.14 0 0 Z " fill="#70B8B5" transform="translate(17,16)" />
</svg>