<?xml version="1.0" encoding="UTF-8"?>
<svg version="1.1" xmlns="http://www.w3.org/2000/svg" width="200" height="200" viewBox="0 0 200 200">
    <path d="M0 0 C53.46 0 106.92 0 162 0 C162 55.44 162 110.88 162 168 C108.54 168 55.08 168 0 168 C0 112.56 0 57.12 0 0 Z " fill="#F0EBE8" transform="translate(129,204)" />
    <path d="M0 0 C28.05 0 56.1 0 85 0 C85 54.78 85 109.56 85 166 C56.95 166 28.9 166 0 166 C0 160.39 0 154.78 0 149 C2.701875 148.443125 5.40375 147.88625 8.1875 147.3125 C26.45822601 143.31268349 41.89244754 135.83797033 52.5625 119.9375 C62.82597783 103.18694815 65.74679306 85.02607757 62.6015625 65.53027344 C61.59244739 61.41812938 59.97062077 57.73215711 58 54 C57.34837891 52.68128906 57.34837891 52.68128906 56.68359375 51.3359375 C47.49303734 34.42112429 33.04941415 26.01764791 15.5 19.75 C10.41592368 18.66055508 5.18153219 18.43179435 0 18 C0 30.21 0 42.42 0 55 C-3.96 55.99 -7.92 56.98 -12 58 C-17.86672366 60.8247188 -20.86655278 65.45777901 -24 71 C-26.27009031 77.81027093 -26.11939637 86.36757552 -23.3125 93 C-19.72645894 99.73476004 -15.43244966 104.5964715 -8 107 C-5.36 107.33 -2.72 107.66 0 108 C0 121.2 0 134.4 0 148 C-7.41353249 148 -12.54646497 147.76907697 -19.3125 145.5625 C-20.13210205 145.29808105 -20.9517041 145.03366211 -21.79614258 144.76123047 C-38.5910207 138.97488425 -50.33727381 126.76571115 -58.44140625 111.23828125 C-59.7382275 108.5246344 -60.90187231 105.79962224 -62 103 C-62.32097656 102.1853125 -62.64195312 101.370625 -62.97265625 100.53125 C-68.29768487 84.4818614 -65.65666912 64.67214513 -58.375 49.75 C-50.69372698 34.9619536 -38.80164866 22.98725172 -23 17 C-15.23923654 14.63052092 -8.09517033 13.63752969 0 14 C0 9.38 0 4.76 0 0 Z " fill="#EB5271" transform="translate(17,205)" />
    <path d="M0 0 C4.13883201 1.84473655 7.44553705 4.24184985 9.8828125 8.1015625 C12.03326005 13.75753413 12.11081095 20.28753494 9.62890625 25.828125 C6.43504021 30.41286818 2.72865299 32.95618406 -2.26171875 35.3515625 C-0.99328125 35.78855469 -0.99328125 35.78855469 0.30078125 36.234375 C13.36012624 40.95354739 23.52151997 48.01596385 29.61328125 60.9140625 C30.35271516 62.71409857 31.06427633 64.52601882 31.73828125 66.3515625 C32.10759766 67.35123047 32.10759766 67.35123047 32.484375 68.37109375 C33.7817552 72.62113233 33.81174318 76.67954749 33.78125 81.109375 C33.77504639 82.27871582 33.76884277 83.44805664 33.76245117 84.65283203 C33.7544751 85.54341309 33.74649902 86.43399414 33.73828125 87.3515625 C17.51717239 87.37498769 1.29606907 87.39258874 -14.92505264 87.40337467 C-22.45785337 87.40851727 -29.99064355 87.4155209 -37.5234375 87.42700195 C-44.09379323 87.43701129 -50.66414132 87.44343072 -57.23450446 87.44565099 C-60.70910321 87.44694754 -64.18368009 87.44996585 -67.65827179 87.45729256 C-71.54985444 87.46543096 -75.44141626 87.46554964 -79.33300781 87.46508789 C-80.46805756 87.46868317 -81.6031073 87.47227844 -82.77255249 87.47598267 C-89.98264656 87.46677709 -97.08682241 87.06148666 -104.26171875 86.3515625 C-104.90745435 73.43685043 -101.22464249 61.2272654 -93.07421875 51.1015625 C-86.27948099 43.77274055 -77.51592104 39.38495078 -67.57421875 38.9765625 C-56.3399691 39.22683044 -49.02366704 43.45545708 -41.26171875 51.3515625 C-37.91832365 49.86645534 -35.46294178 47.92032633 -32.69921875 45.5390625 C-26.30245403 40.33459416 -19.43080202 36.74485318 -11.26171875 35.3515625 C-11.7928125 35.07183594 -12.32390625 34.79210937 -12.87109375 34.50390625 C-17.76668444 31.7255692 -21.67352618 28.99957232 -23.26171875 23.3515625 C-23.97363421 17.41151787 -24.16305255 12.25437829 -21.57421875 6.7890625 C-15.13236442 -0.00100017 -9.31398641 -2.67033116 0 0 Z " fill="#4B6798" transform="translate(55.26171875,41.6484375)" />
    <path d="M0 0 C8.91 0 17.82 0 27 0 C27 26.4 27 52.8 27 80 C18.09 80 9.18 80 0 80 C0 53.6 0 27.2 0 0 Z " fill="#F0EBEA" transform="translate(158,56)" />
    <path d="M0 0 C20.13 0 40.26 0 61 0 C58.38863297 4.5698923 56.30031779 8.11033975 53 12 C54.66070767 16.14673672 57.65948072 19.06757485 60.6875 22.25 C61.77302117 23.40541846 62.85765951 24.56166701 63.94140625 25.71875 C64.46621582 26.27820313 64.99102539 26.83765625 65.53173828 27.4140625 C67.99830481 30.07831527 70.35305661 32.83595758 72.6953125 35.609375 C73.97073611 37.12965958 73.97073611 37.12965958 76 38 C76 38.66 76 39.32 76 40 C37.46314961 42.77531503 37.46314961 42.77531503 29.18359375 36.71875 C25.95973016 33.55477592 23.53066435 30.04700819 21.29833984 26.13354492 C19.00461549 22.36429762 15.9898268 19.22558375 13 16 C12.45037598 15.40687012 11.90075195 14.81374023 11.33447266 14.20263672 C9.23732238 11.95646331 7.1314168 9.71905372 5.01171875 7.49414062 C2.68647779 5.0121086 1.08899043 3.2669713 0 0 Z " fill="#F2EDEB" transform="translate(186,96)" />
    <path d="M0 0 C4.13883201 1.84473655 7.44553705 4.24184985 9.8828125 8.1015625 C12.03326005 13.75753413 12.11081095 20.28753494 9.62890625 25.828125 C6.10574154 30.88557112 1.7641839 34.58853041 -4.42578125 35.76171875 C-9.62993201 36.1104505 -13.30956399 34.9208796 -17.53125 31.87890625 C-21.56746504 28.31646815 -23.01072665 25.44577781 -23.63671875 20.22265625 C-23.82113564 15.15695481 -23.76280329 11.40940764 -21.57421875 6.7890625 C-15.13236442 -0.00100017 -9.31398641 -2.67033116 0 0 Z " fill="#F1EDEA" transform="translate(55.26171875,41.6484375)" />
    <path d="M0 0 C4.37285072 1.99127993 7.20243803 4.51027546 9 9 C9.84722694 13.82473448 9.55737513 17.81155562 6.8125 21.9375 C3.33389253 26.13514924 0.46038101 26.86091609 -4.9375 27.375 C-9.25099975 27.24478114 -11.73512803 25.8852357 -15 23 C-17.84703529 18.91924942 -18.63681735 15.14612073 -18.49609375 10.25390625 C-17.61580235 6.25447212 -15.02579848 3.63385567 -12 1 C-8.26130057 -0.86934972 -4.07064072 -0.54761983 0 0 Z " fill="#37CF95" transform="translate(215,56)" />
    <path d="M0 0 C3.54890658 1.61607768 6.07648171 3.79541092 8.4375 6.875 C9.75380666 11.84771405 9.48903952 16.49602373 7 21 C3.15765386 25.33495462 1.01738159 26.83464085 -4.8125 27.3125 C-9.1858685 27.25622504 -11.62397294 25.82644126 -15 23 C-18.54430056 19.07413599 -18.61300219 15.90662564 -18.49609375 10.76953125 C-17.71089847 6.38603948 -15.37480898 3.78028304 -12 1 C-8.26130057 -0.86934972 -4.07064072 -0.54761983 0 0 Z " fill="#F5653A" transform="translate(215,16)" />
    <path d="M0 0 C4.4125235 2.1661479 7.09058512 4.43862 9 9 C9.77882904 14.89684848 8.29488986 19.18772666 5 24 C1.39091942 27.29973081 -2.14566205 27.47260937 -6.85546875 27.27734375 C-9.97798712 26.87352079 -11.63653173 26.09335761 -14 24 C-17.77109363 18.80200607 -18.81155954 15.39103136 -18 9 C-13.68570319 0.83365247 -8.92023453 -1.26827979 0 0 Z " fill="#F5B31A" transform="translate(176,16)" />
    <path d="M0 0 C7.26 0 14.52 0 22 0 C22 6.93 22 13.86 22 21 C14.74 21 7.48 21 0 21 C0 14.07 0 7.14 0 0 Z " fill="#C9222F" transform="translate(150,234)" />
    <path d="M0 0 C-1.45255699 3.82946843 -3.42895561 5.12050295 -7 7 C-3.86206897 0 -3.86206897 0 0 0 Z " fill="#E56642" transform="translate(205,17)" />
</svg>