<?xml version="1.0" encoding="UTF-8"?>
<svg version="1.1" xmlns="http://www.w3.org/2000/svg" width="200" height="200" viewBox="0 0 200 200">
    <path d="M0 0 C1.37478516 0.01740234 1.37478516 0.01740234 2.77734375 0.03515625 C3.69644531 0.04417969 4.61554688 0.05320312 5.5625 0.0625 C6.27277344 0.07410156 6.98304688 0.08570313 7.71484375 0.09765625 C7.71484375 0.42765625 7.71484375 0.75765625 7.71484375 1.09765625 C5.6640625 1.32552083 3.61328125 1.55338542 1.5625 1.78125 C-0.29655854 1.91652239 -0.29655854 1.91652239 -1.28515625 3.09765625 C-1.51802633 4.77949573 -1.69779791 6.46889785 -1.84765625 8.16015625 C-1.93144531 9.07925781 -2.01523438 9.99835937 -2.1015625 10.9453125 C-2.16214844 11.65558594 -2.22273437 12.36585938 -2.28515625 13.09765625 C-2.61515625 13.09765625 -2.94515625 13.09765625 -3.28515625 13.09765625 C-3.31202178 11.11856227 -3.33149 9.13936654 -3.34765625 7.16015625 C-3.35925781 6.05800781 -3.37085938 4.95585938 -3.3828125 3.8203125 C-3.25076835 0.13892172 -3.25076835 0.13892172 0 0 Z " fill="#F4F2F2" transform="translate(17,16)" />
</svg>