<?xml version="1.0" encoding="UTF-8"?>
<svg version="1.1" xmlns="http://www.w3.org/2000/svg" width="200" height="200" viewBox="0 0 200 200">
    <path d="M0 0 C4.29 0 8.58 0 13 0 C13 6.27 13 12.54 13 19 C15.64 19 18.28 19 21 19 C21 19.33 21 19.66 21 20 C18.36 20 15.72 20 13 20 C13 25.28 13 30.56 13 36 C16.96 36 20.92 36 25 36 C25 36.33 25 36.66 25 37 C21.04 37 17.08 37 13 37 C13 40.3 13 43.6 13 47 C12.67 47 12.34 47 12 47 C12 43.7 12 40.4 12 37 C4.41 37 -3.18 37 -11 37 C-11 36.67 -11 36.34 -11 36 C-3.41 36 4.18 36 12 36 C12 31.05 12 26.1 12 21 C10.02 21 8.04 21 6 21 C6 20.67 6 20.34 6 20 C7.98 20 9.96 20 12 20 C12 13.73 12 7.46 12 1 C8.04 1 4.08 1 0 1 C0 0.67 0 0.34 0 0 Z " fill="#85C3C0" transform="translate(17,16)" />
</svg>