<?xml version="1.0" encoding="UTF-8"?>
<svg version="1.1" xmlns="http://www.w3.org/2000/svg" width="200" height="200" viewBox="0 0 200 200">
    <path d="M0 0 C3.09896836 1.98138413 3.09896836 1.98138413 5.91796875 1.69921875 C8.82380282 0.58446057 11.53429802 -0.72181236 14.2890625 -2.171875 C21.66376314 -6.0447823 27.52329677 -7.62357057 35.7890625 -7.609375 C37.1049939 -7.6091333 37.1049939 -7.6091333 38.44750977 -7.60888672 C48.37263508 -7.43743715 57.18835628 -5.03667739 66.3515625 -1.234375 C65.60440134 15.31524469 58.99194717 31.8583532 47.3515625 43.765625 C42.64652442 47.7020538 38.52170226 50.87791395 32.3515625 51.765625 C32.40376953 53.09013672 32.40376953 53.09013672 32.45703125 54.44140625 C32.6380297 62.4656709 31.95596858 69.18256358 29.3515625 76.765625 C29.14660156 77.44882813 28.94164062 78.13203125 28.73046875 78.8359375 C25.23656918 89.55634985 17.59062109 99.25510053 9.3515625 106.765625 C6.546875 108.07421875 6.546875 108.07421875 4.3515625 108.765625 C-6.88808994 100.13181377 -14.59270507 88.91760027 -19.6484375 75.765625 C-19.91398438 75.0953125 -20.17953125 74.425 -20.453125 73.734375 C-21.50652638 70.44429946 -21.7298124 67.16049169 -21.7578125 63.72265625 C-21.76377441 62.99216064 -21.76973633 62.26166504 -21.77587891 61.5090332 C-21.77234296 58.25985299 -21.71939781 55.01403027 -21.6484375 51.765625 C-22.51597656 51.68183594 -23.38351562 51.59804687 -24.27734375 51.51171875 C-32.0740607 49.78614177 -39.01059512 43.169389 -43.5859375 36.828125 C-51.07516116 25.03077997 -56.09428432 12.84111587 -56.6484375 -1.234375 C-39.38225516 -10.01668009 -16.73125711 -10.49202416 0 0 Z " fill="#F1F8D8" transform="translate(17,16)" />
</svg>