<?xml version="1.0" encoding="UTF-8"?>
<svg version="1.1" xmlns="http://www.w3.org/2000/svg" width="200" height="200" viewBox="0 0 200 200">
    <path d="M0 0 C6.99811273 3.22826445 10.94374304 7.83553643 15.13671875 14.125 C15.99159624 17.42897113 16.25962084 20.51154029 16.25024414 23.9152832 C16.25016861 24.83586014 16.25009308 25.75643707 16.25001526 26.70491028 C16.24485397 27.6852977 16.23969269 28.66568512 16.234375 29.67578125 C16.23296005 30.68972458 16.2315451 31.70366791 16.23008728 32.74833679 C16.22450203 35.97808821 16.2119522 39.20776962 16.19921875 42.4375 C16.19420185 44.63085837 16.18963927 46.82421783 16.18554688 49.01757812 C16.1753895 54.38676725 16.15581111 59.7558055 16.13671875 65.125 C5.90671875 65.125 -4.32328125 65.125 -14.86328125 65.125 C-15.17578125 49.75 -15.17578125 49.75 -15.2512207 44.96337891 C-15.50934235 35.02914975 -16.44984527 26.27287112 -21.86328125 17.6875 C-22.60578125 16.48287109 -22.60578125 16.48287109 -23.36328125 15.25390625 C-24.76046082 13.09406746 -24.76046082 13.09406746 -26.61328125 11.58984375 C-27.86328125 10.125 -27.86328125 10.125 -27.7578125 8.1015625 C-26.69160424 5.74566129 -25.69214598 4.92146267 -23.55078125 3.5 C-22.95652344 3.09523438 -22.36226562 2.69046875 -21.75 2.2734375 C-14.9442916 -1.86916762 -7.70502076 -2.35460389 0 0 Z " fill="#FCE0EA" transform="translate(17,16)" />
</svg>