<?xml version="1.0" encoding="UTF-8"?>
<svg version="1.1" xmlns="http://www.w3.org/2000/svg" width="200" height="200" viewBox="0 0 200 200">
    <path d="M0 0 C25.74 0 51.48 0 78 0 C78 4.95 78 9.9 78 15 C75.64875 15.226875 73.2975 15.45375 70.875 15.6875 C57.72016457 17.23250837 47.25008629 21.54367881 37 30 C36.00097656 30.78117187 35.00195312 31.56234375 33.97265625 32.3671875 C20.77800973 44.05337903 14.77347513 61.46613272 13.64453125 78.62109375 C12.87235566 97.08927373 18.743724 114.40164981 31.1875 128.3125 C43.85284075 141.66105134 59.07624028 147.00847114 77 149 C77 155.27 77 161.54 77 168 C51.59 168 26.18 168 0 168 C0 112.56 0 57.12 0 0 Z " fill="#BC1720" transform="translate(17,16)" />
</svg>