<?xml version="1.0" encoding="UTF-8"?>
<svg version="1.1" xmlns="http://www.w3.org/2000/svg" width="200" height="200" viewBox="0 0 200 200">
    <path d="M0 0 C54.45 0 108.9 0 165 0 C165 55.44 165 110.88 165 168 C110.55 168 56.1 168 0 168 C0 112.56 0 57.12 0 0 Z " fill="#BFDED0" transform="translate(17,16)" />
    <path d="M0 0 C54.45 0 108.9 0 165 0 C165 55.44 165 110.88 165 168 C110.55 168 56.1 168 0 168 C0 112.56 0 57.12 0 0 Z M2 1 C2 55.45 2 109.9 2 166 C55.13 166 108.26 166 163 166 C163 111.55 163 57.1 163 1 C109.87 1 56.74 1 2 1 Z " fill="#A6BFB2" transform="translate(17,16)" />
    <path d="M0 0 C0.66 0.99 1.32 1.98 2 3 C1.35419751 4.6748616 0.68243007 6.3397255 0 8 C-0.38743491 10.76242511 -0.50551843 13.52708585 -0.625 16.3125 C-0.66367188 17.05306641 -0.70234375 17.79363281 -0.7421875 18.55664062 C-0.83581705 20.37071309 -0.91896851 22.18532116 -1 24 C-1.66 24 -2.32 24 -3 24 C-3.08164159 21.3118751 -3.14079668 18.626277 -3.1875 15.9375 C-3.21263672 15.18533203 -3.23777344 14.43316406 -3.26367188 13.65820312 C-3.33282151 8.33368144 -2.40669334 4.75653566 0 0 Z " fill="#288F84" transform="translate(57,50)" />
</svg>