<?xml version="1.0" encoding="UTF-8"?>
<svg version="1.1" xmlns="http://www.w3.org/2000/svg" width="200" height="200" viewBox="0 0 200 200">
    <path d="M0 0 C0.98887207 0.45246094 1.97774414 0.90492187 2.99658203 1.37109375 C4.04442871 1.85578125 5.09227539 2.34046875 6.171875 2.83984375 C7.7803833 3.58041016 7.7803833 3.58041016 9.42138672 4.3359375 C18.01213565 8.31139572 26.49302351 12.47152082 34.921875 16.77734375 C36.92096342 17.77916483 38.92065994 18.77977758 40.921875 19.77734375 C38.20001849 23.05815856 34.59869493 24.59874248 30.83203125 26.39453125 C30.13226669 26.73356476 29.43250214 27.07259827 28.71153259 27.42190552 C27.2276609 28.13922503 25.7423138 28.85349932 24.25561523 29.56494141 C22.02039543 30.63509824 19.79015684 31.71508754 17.56054688 32.796875 C13.36392823 34.82579428 9.14818777 36.81114548 4.921875 38.77734375 C3.75640137 39.32422852 2.59092773 39.87111328 1.39013672 40.43457031 C0.34744629 40.90088867 -0.69524414 41.36720703 -1.76953125 41.84765625 C-2.65970947 42.25000488 -3.5498877 42.65235352 -4.46704102 43.06689453 C-10.36740112 44.67232211 -15.24797926 41.99220163 -20.4609375 39.390625 C-21.15645721 39.05113327 -21.85197693 38.71164154 -22.568573 38.36186218 C-24.78372639 37.27842623 -26.99340539 36.18431227 -29.203125 35.08984375 C-30.66371861 34.37364722 -32.12465352 33.65814627 -33.5859375 32.94335938 C-41.77212757 28.93253413 -49.93165501 24.86819908 -58.078125 20.77734375 C-54.64568007 17.95768102 -50.87020235 16.07221125 -46.890625 14.16015625 C-46.19227539 13.82112274 -45.49392578 13.48208923 -44.77441406 13.13278198 C-43.29608991 12.41635861 -41.81673515 11.70205847 -40.33642578 10.98974609 C-38.11082035 9.91808701 -35.88918884 8.83852626 -33.66796875 7.7578125 C-27.24571644 4.64431465 -20.79991869 1.57918282 -14.265625 -1.29296875 C-13.35167969 -1.69531738 -12.43773437 -2.09766602 -11.49609375 -2.51220703 C-7.13321281 -3.79411167 -3.98532471 -1.82715279 0 0 Z " fill="#1E396D" transform="translate(17,16)" />
</svg>