<?xml version="1.0" encoding="UTF-8"?>
<svg version="1.1" xmlns="http://www.w3.org/2000/svg" width="200" height="200" viewBox="0 0 200 200">
    <path d="M0 0 C1.93166016 0.01740234 1.93166016 0.01740234 3.90234375 0.03515625 C5.19269531 0.04417969 6.48304687 0.05320312 7.8125 0.0625 C8.81152344 0.07410156 9.81054688 0.08570313 10.83984375 0.09765625 C10.83984375 4.05765625 10.83984375 8.01765625 10.83984375 12.09765625 C8.52740583 12.12451037 6.21488105 12.14398466 3.90234375 12.16015625 C2.61457031 12.17175781 1.32679687 12.18335938 0 12.1953125 C-3.16015625 12.09765625 -3.16015625 12.09765625 -4.16015625 11.09765625 C-4.25839562 9.43336574 -4.28989256 7.76483694 -4.28515625 6.09765625 C-4.28773437 5.19015625 -4.2903125 4.28265625 -4.29296875 3.34765625 C-4.08359213 -0.19943005 -3.64561779 0.11265815 0 0 Z " fill="#3F9E79" transform="translate(17,16)" />
</svg>