<?xml version="1.0" encoding="UTF-8"?>
<svg version="1.1" xmlns="http://www.w3.org/2000/svg" width="200" height="200" viewBox="0 0 200 200">
    <path d="M0 0 C33.66 0 67.32 0 102 0 C100.65613081 6.71934597 99.20992104 12.88165577 97.0625 19.3125 C94.91489753 25.9048691 93.10443364 32.45540054 91.640625 39.23828125 C91.07583802 41.67306414 90.39285116 43.95836612 89.5625 46.3125 C88.16781961 50.27367987 87.16640452 54.29590089 86.1875 58.375 C84.63985101 64.6945667 82.93611566 70.95654076 81.0625 77.1875 C80.83393311 77.98913574 80.60536621 78.79077148 80.36987305 79.61669922 C78.58641247 85.39960235 76.21240449 88.93354097 70.99609375 92.2890625 C67.07635467 93.68513395 63.08655828 93.54310823 59 93 C55.49747989 90.95686327 53.22638298 88.90212767 52 85 C52 82.69 52 80.38 52 78 C44.74 78 37.48 78 30 78 C30 80.31 30 82.62 30 85 C27.87223102 89.02756271 26.21747142 91.31453674 22 93 C17.03560262 93.86481964 12.32985891 93.83385637 8.0625 90.9375 C-2.34370349 80.60475206 0.41155793 49.81708971 0 37 C0 24.79 0 12.58 0 0 Z " fill="#D31F30" transform="translate(17,16)" />
</svg>