<?xml version="1.0" encoding="UTF-8"?>
<svg version="1.1" xmlns="http://www.w3.org/2000/svg" width="200" height="200" viewBox="0 0 200 200">
    <path d="M0 0 C54.45 0 108.9 0 165 0 C165 55.11 165 110.22 165 167 C110.55 167 56.1 167 0 167 C0 111.89 0 56.78 0 0 Z " fill="#A6D8D4" transform="translate(107.9375,182)" />
    <path d="M0 0 C0.66 0 1.32 0 2 0 C2 0.66 2 1.32 2 2 C2.53109375 2.23074219 3.0621875 2.46148438 3.609375 2.69921875 C6.75459498 4.41058844 9.46314557 6.5842718 12.25 8.8125 C12.8584375 9.29460938 13.466875 9.77671875 14.09375 10.2734375 C19.44291577 14.52450217 24.73952191 18.84027018 30.03393555 23.15917969 C34.90093668 27.12414528 39.81299545 31.02602799 44.76147461 34.88867188 C47.87060983 37.31800333 50.96140334 39.76722186 54.03125 42.24609375 C54.70406006 42.7887085 55.37687012 43.33132324 56.07006836 43.89038086 C57.36206819 44.93414447 58.65207301 45.9803843 59.93969727 47.02954102 C60.52807373 47.50447998 61.1164502 47.97941895 61.72265625 48.46875 C62.23578369 48.88576172 62.74891113 49.30277344 63.27758789 49.73242188 C65.41529669 51.30563011 67.7240414 52.63442484 70 54 C70 41.46 70 28.92 70 16 C75.5275 15.67 81.055 15.34 86.75 15 C88.46799805 14.89558594 90.18599609 14.79117188 91.95605469 14.68359375 C93.36131192 14.60128537 94.76658447 14.51923799 96.171875 14.4375 C96.86619629 14.39431641 97.56051758 14.35113281 98.27587891 14.30664062 C104.54729887 13.94754091 110.68185411 14 117 14 C117 41.72 117 69.44 117 98 C112.93711315 95.96855658 110.87483361 94.04893481 107.75 90.8125 C104.67788578 87.63827794 101.6004848 84.62008733 98.24609375 81.74609375 C92.43706912 76.72532857 87.15901029 71.16961134 81.80273438 65.67578125 C80.59520508 64.45181641 80.59520508 64.45181641 79.36328125 63.203125 C78.64438721 62.46739258 77.92549316 61.73166016 77.18481445 60.97363281 C74.69962696 58.60102087 74.69962696 58.60102087 70 56 C70 77.12 70 98.24 70 120 C46.9 120 23.8 120 0 120 C0 80.4 0 40.8 0 0 Z " fill="#108B7B" transform="translate(126.9375,206)" />
    <path d="M0 0 C3.49406769 1.66762322 4.82670681 2.74006022 7 6 C7.67226891 12.94677871 7.67226891 12.94677871 5.125 16.9375 C1.87071886 20.09606699 -0.42411752 20.33855508 -4.9609375 20.2890625 C-8.16544562 19.83478357 -9.82724211 18.30444019 -12 16 C-13.24242813 12.2727156 -13.53133458 9.91859249 -13 6 C-9.58118073 1.47451091 -5.78642459 -1.13212655 0 0 Z " fill="#E2E1E1" transform="translate(32.9375,250)" />
    <path d="M0 0 C3.46145669 0.86536417 4.94931405 2.62635769 6.9375 5.484375 C7.5625 8.484375 7.5625 8.484375 6.9375 11.484375 C4.94931405 14.34239231 3.46145669 16.10338583 0 16.96875 C-4.00236585 17.24163858 -5.7199165 16.72703831 -9.0625 14.359375 C-11.0625 11.484375 -11.0625 11.484375 -11.6875 8.484375 C-10.35313773 2.07943611 -6.22244986 -0.42425795 0 0 Z " fill="#F8CDD6" transform="translate(17,26.515625)" />
    <path d="M0 0 C3.44150865 2.43773529 4.762119 3.85817119 5.625 8 C4.762119 12.14182881 3.44150865 13.56226471 0 16 C-3.89784294 16.8876276 -7.01402996 16.59158203 -10.5 14.5 C-12.62153384 10.96411027 -12.791013 8.02098277 -12 4 C-9.22048525 -0.63252459 -5.03465073 -1.14650462 0 0 Z " fill="#F8D9DE" transform="translate(43.9375,27)" />
    <path d="M0 0 C1.40668945 0.00966797 1.40668945 0.00966797 2.84179688 0.01953125 C4.30649414 0.04466797 4.30649414 0.04466797 5.80078125 0.0703125 C6.78884766 0.07933594 7.77691406 0.08835937 8.79492188 0.09765625 C11.2346189 0.1212282 13.67382822 0.15413228 16.11328125 0.1953125 C15.78328125 1.1853125 15.45328125 2.1753125 15.11328125 3.1953125 C3.72828125 2.7003125 3.72828125 2.7003125 -7.88671875 2.1953125 C-4.63281887 0.02604591 -3.75275918 -0.04548799 0 0 Z " fill="#0844A3" transform="translate(186.82421875,119.8046875)" />
    <path d="M0 0 C0.66 0.33 1.32 0.66 2 1 C1.505 1.515625 1.01 2.03125 0.5 2.5625 C-1.54753364 5.88974216 -1.33786825 8.14830194 -1 12 C-0.1025173 14.83378132 -0.1025173 14.83378132 1 17 C-2.875 14.375 -2.875 14.375 -4 11 C-4.57289003 4.69820972 -4.57289003 4.69820972 -2 1.5625 C-1.34 1.046875 -0.68 0.53125 0 0 Z " fill="#D7D7D7" transform="translate(23.9375,252)" />
    <path d="M0 0 C2.475 0.99 2.475 0.99 5 2 C5 2.99 5 3.98 5 5 C3.02 5.99 1.04 6.98 -1 8 C-2.2077558 4.37673261 -1.54311128 3.35853631 0 0 Z " fill="#154A9B" transform="translate(158.9375,47)" />
    <path d="M0 0 C0.33 0 0.66 0 1 0 C1 2.64 1 5.28 1 8 C4.465 7.505 4.465 7.505 8 7 C8.33 7.66 8.66 8.32 9 9 C6.03 10.32 3.06 11.64 0 13 C0 8.71 0 4.42 0 0 Z " fill="#0D49A9" transform="translate(202.9375,16)" />
    <path d="M0 0 C0.66 0 1.32 0 2 0 C2.6875 1.625 2.6875 1.625 3 4 C1.5625 7.25 1.5625 7.25 0 10 C-0.66 9.67 -1.32 9.34 -2 9 C-1.34 6.03 -0.68 3.06 0 0 Z " fill="#DCD8D8" transform="translate(44.9375,90)" />
    <path d="M0 0 C1.18005182 3.68766192 1.20993972 7.15110517 1 11 C0.34 11.99 -0.32 12.98 -1 14 C-2.12029814 8.51053913 -1.79217969 5.16569441 0 0 Z " fill="#EECACC" transform="translate(52.9375,61)" />
    <path d="M0 0 C-0.5775 0.2475 -1.155 0.495 -1.75 0.75 C-5.75745663 2.97636479 -8.20202055 5.80471463 -10 10 C-10.32152515 6.46322336 -10.4131192 4.6037896 -8.375 1.625 C-5.3962104 -0.4131192 -3.53677664 -0.32152515 0 0 Z " fill="#F9DFE2" transform="translate(41.9375,27)" />
    <path d="M0 0 C0 0.66 0 1.32 0 2 C-1.4540625 2.433125 -1.4540625 2.433125 -2.9375 2.875 C-6.10664203 3.64214682 -6.10664203 3.64214682 -7 6 C-6.625 3.5625 -6.625 3.5625 -6 1 C-4 0 -4 0 0 0 Z " fill="#0D48AB" transform="translate(127.9375,71)" />
    <path d="M0 0 C3.45925163 1.2491742 6.14693203 2.67527795 9 5 C5.26512223 4.5020163 3.18762365 4.12508244 0 2 C0 1.34 0 0.68 0 0 Z " fill="#1E4F9C" transform="translate(210.9375,77)" />
    <path d="M0 0 C0.66 0.33 1.32 0.66 2 1 C2 2.32 2 3.64 2 5 C1.01 5.495 1.01 5.495 0 6 C-0.66 4.35 -1.32 2.7 -2 1 C-1.34 0.67 -0.68 0.34 0 0 Z " fill="#DFBB38" transform="translate(123.9375,74)" />
    <path d="M0 0 C0.33 0 0.66 0 1 0 C1.25 2.75 1.25 2.75 1 6 C-1 8.375 -1 8.375 -3 10 C-2.39009109 6.44219804 -1.4216319 3.3171411 0 0 Z " fill="#F0B7BE" transform="translate(47.9375,32)" />
</svg>