<?xml version="1.0" encoding="UTF-8"?>
<svg version="1.1" xmlns="http://www.w3.org/2000/svg" width="200" height="200" viewBox="0 0 200 200">
    <path d="M0 0 C12.67957176 -0.85672782 23.49144301 2.84703898 33.515625 10.69140625 C38.58094924 15.3983349 43.93986455 21.11037957 45 28.1875 C45 29.115625 45 30.04375 45 31 C42.65942434 31.41610234 40.3604964 31.73500472 38 32 C37.11957031 32.11472656 36.23914063 32.22945312 35.33203125 32.34765625 C32.36890267 32.57244531 29.91350204 32.61040682 27 32 C24.90496649 30.19630039 23.44360465 28.25821221 21.796875 26.04296875 C17.4142179 21.06007818 10.71391071 19.92244456 4.375 19.25 C2.93125 19.1675 1.4875 19.085 0 19 C0 12.73 0 6.46 0 0 Z " fill="#2FB68E" transform="translate(17,16)" />
</svg>