<?xml version="1.0" encoding="UTF-8"?>
<svg version="1.1" xmlns="http://www.w3.org/2000/svg" width="200" height="200" viewBox="0 0 200 200">
    <path d="M0 0 C1.37478516 0.01740234 1.37478516 0.01740234 2.77734375 0.03515625 C3.69644531 0.04417969 4.61554688 0.05320312 5.5625 0.0625 C6.27277344 0.07410156 6.98304687 0.08570313 7.71484375 0.09765625 C8.33984375 2.47265625 8.33984375 2.47265625 8.71484375 5.09765625 C6.71484375 7.09765625 6.71484375 7.09765625 4.62109375 7.36328125 C3.82703125 7.358125 3.03296875 7.35296875 2.21484375 7.34765625 C1.42078125 7.3528125 0.62671875 7.35796875 -0.19140625 7.36328125 C-2.28515625 7.09765625 -2.28515625 7.09765625 -4.28515625 5.09765625 C-3.53567763 0.15109733 -3.53567763 0.15109733 0 0 Z " fill="#D8EAE1" transform="translate(17,16)" />
</svg>