<?xml version="1.0" encoding="UTF-8"?>
<svg version="1.1" xmlns="http://www.w3.org/2000/svg" width="200" height="200" viewBox="0 0 200 200">
    <path d="M0 0 C54.78 0 109.56 0 166 0 C166 55.11 166 110.22 166 167 C111.22 167 56.44 167 0 167 C0 111.89 0 56.78 0 0 Z " fill="#F1700F" transform="translate(107,147)" />
    <path d="M0 0 C38.28 0 76.56 0 116 0 C116 35.31 116 70.62 116 107 C77.72 107 39.44 107 0 107 C0 96.44 0 85.88 0 75 C3.3 73.02 6.6 71.04 10 69 C14.80124845 61.89415229 16.45839703 55.53867936 15 47 C12.15914522 39.60896257 6.89097566 36.44548783 0 33 C0 22.11 0 11.22 0 0 Z " fill="#FCC75F" transform="translate(129,177)" />
    <path d="M0 0 C4.34468141 2.1723407 7.60032162 4.75441518 10 9 C10.80985775 13.85914653 10.65606333 18.41866501 8.4375 22.875 C5.4731077 26.67550295 3.3792507 28.04497737 -1 30 C-2.32 30 -3.64 30 -5 30 C-5.2578125 30.56203125 -5.515625 31.1240625 -5.78125 31.703125 C-7.14169777 34.26704579 -8.72788962 36.45226365 -10.5 38.75 C-11.1084375 39.54921875 -11.716875 40.3484375 -12.34375 41.171875 C-12.8903125 41.77515625 -13.436875 42.3784375 -14 43 C-14.66 43 -15.32 43 -16 43 C-16 43.66 -16 44.32 -16 45 C-4.78 45 6.44 45 18 45 C18 58.19011205 14.03113835 69.11844318 5.19140625 79.02734375 C-0.09257355 84.04767383 -6.41744153 87.0049359 -13 90 C-12.319375 90.66 -11.63875 91.32 -10.9375 92 C-2.51259395 100.49691379 2 105.46674601 2 118 C-24.07 118 -50.14 118 -77 118 C-77 108.40685053 -73.54616196 101.88186257 -67 95 C-63.6 92 -63.6 92 -60 92 C-60 91.34 -60 90.68 -60 90 C-61.07314453 89.84724609 -61.07314453 89.84724609 -62.16796875 89.69140625 C-71.88914005 87.3180996 -80.82662784 79.08355734 -86.01171875 70.77734375 C-89.95967175 63.67423156 -92.16081318 58.34749418 -92.0625 50.1875 C-92.05347656 49.21167969 -92.04445313 48.23585938 -92.03515625 47.23046875 C-92.02355469 46.49441406 -92.01195312 45.75835938 -92 45 C-91.37518738 45.01856049 -90.75037476 45.03712097 -90.10662842 45.0562439 C-83.55135086 45.23690935 -77.00006263 45.31729527 -70.44238281 45.34179688 C-68.00192084 45.36374231 -65.56154228 45.41050977 -63.12207031 45.48339844 C-48.59410312 46.49994138 -48.59410312 46.49994138 -35.81518555 40.97460938 C-33.15676857 38.12985654 -31.04753743 35.06171005 -29.073349 31.71429443 C-27.45091933 29.12303833 -25.39647547 26.97487318 -23.3125 24.75 C-19.97232822 20.57992928 -19.31949519 17.52112065 -19.1875 12.2578125 C-18.80498912 7.65174397 -15.81860869 4.9149156 -12.875 1.625 C-8.61294051 -0.78399014 -4.78421632 -0.76025267 0 0 Z " fill="#C5E2DF" transform="translate(37,178)" />
    <path d="M0 0 C21.36869569 -0.0950189 42.65422065 -0.12346207 64 1 C64 10.9 64 20.8 64 31 C59.05 32.485 59.05 32.485 54 34 C47.42089326 37.55918889 44.44730718 41.93962708 42 49 C40.68658333 55.22144738 42.87257136 60.6894637 46 66 C51.41390625 72.38563302 55.78238764 73.94559691 64 76 C64 85.9 64 95.8 64 106 C42.65638113 107.12334836 21.36633019 107.10302756 0 107 C-0.24828873 102.5529579 -0.42909832 98.10963106 -0.54931641 93.65771484 C-0.59943968 92.14593236 -0.66756841 90.63463087 -0.75439453 89.12451172 C-1.02728854 84.25415624 -1.1154773 79.77075909 0 75 C2.37988872 72.57708504 4.39079397 71.44730154 7.52929688 70.18847656 C11.33402888 68.3582952 12.62345176 65.56438583 14.21875 61.78125 C15.84146594 56.00438127 16.25989516 50.27786284 14.078125 44.6015625 C10.69283879 38.68830281 6.00565381 36.0028269 0 33 C0 22.11 0 11.22 0 0 Z " fill="#FDEFE0" transform="translate(129,177)" />
    <path d="M0 0 C4.78475911 1.91390364 7.23254203 3.84544769 10.67578125 7.41796875 C11.46906075 8.22117302 11.46906075 8.22117302 12.27836609 9.04060364 C13.96370049 10.7492461 15.63855377 12.46770546 17.3125 14.1875 C28.36889671 25.79954527 28.36889671 25.79954527 40.75 35.9140625 C43 37.625 43 37.625 47 43 C47 49.93 47 56.86 47 64 C31.49 64 15.98 64 0 64 C0 42.88 0 21.76 0 0 Z " fill="#D8EDEC" transform="translate(196,16)" />
    <path d="M0 0 C6.97502429 2.7298802 11.72853782 7.71259823 14.890625 14.44921875 C16.30195819 21.81951429 15.13936503 26.96903529 11.453125 33.38671875 C7.14649416 38.7700073 2.16746169 41.83731623 -4.63671875 42.84375 C-11.54767294 43.19050733 -16.23843945 42.39178934 -21.7421875 38.09765625 C-26.98049871 33.1314651 -29.16058354 27.69778841 -29.984375 20.63671875 C-29.78217612 14.42802369 -26.99085922 8.69985869 -22.50390625 4.453125 C-15.39208933 -0.94874687 -8.8841699 -2.13928631 0 0 Z " fill="#F06809" transform="translate(199.546875,209.61328125)" />
    <path d="M0 0 C4.34468141 2.1723407 7.60032162 4.75441518 10 9 C10.80985775 13.85914653 10.65606333 18.41866501 8.4375 22.875 C5.4731077 26.67550295 3.3792507 28.04497737 -1 30 C-2.32 30 -3.64 30 -5 30 C-5.25910156 30.56460938 -5.51820313 31.12921875 -5.78515625 31.7109375 C-7.1250766 34.23567488 -8.68347327 36.3692839 -10.4375 38.625 C-11.33275391 39.78902344 -11.33275391 39.78902344 -12.24609375 40.9765625 C-14.36169649 43.41728013 -15.98297934 44.89819942 -19.26831055 45.22705078 C-20.56442261 45.21134033 -20.56442261 45.21134033 -21.88671875 45.1953125 C-22.82451172 45.18886719 -23.76230469 45.18242188 -24.72851562 45.17578125 C-25.70498047 45.15902344 -26.68144531 45.14226563 -27.6875 45.125 C-28.67556641 45.11597656 -29.66363281 45.10695313 -30.68164062 45.09765625 C-33.12133765 45.0740843 -35.56054697 45.04118022 -38 45 C-37.24044491 40.23162666 -35.75586034 38.24321522 -32.375 34.75 C-31.47652344 33.78707031 -30.57804688 32.82414063 -29.65234375 31.83203125 C-28.77707031 30.89746094 -27.90179687 29.96289062 -27 29 C-21.88829552 23.46765436 -19.49386706 19.89866334 -19.22265625 12.29296875 C-18.77384676 7.67101841 -15.83973734 4.93852997 -12.875 1.625 C-8.61294051 -0.78399014 -4.78421632 -0.76025267 0 0 Z " fill="#EBEBEC" transform="translate(37,178)" />
    <path d="M0 0 C3.12505696 -0.02688864 6.24988425 -0.04678462 9.375 -0.0625 C10.70917969 -0.07506836 10.70917969 -0.07506836 12.0703125 -0.08789062 C13.34648438 -0.09272461 13.34648438 -0.09272461 14.6484375 -0.09765625 C15.43395996 -0.10289307 16.21948242 -0.10812988 17.02880859 -0.11352539 C19 0 19 0 21 1 C21.4140625 4.16015625 21.4140625 4.16015625 21.625 8.0625 C21.69976563 9.35285156 21.77453125 10.64320313 21.8515625 11.97265625 C21.90054688 12.97167969 21.94953125 13.97070312 22 15 C20.83082031 15.06058594 19.66164063 15.12117187 18.45703125 15.18359375 C16.90884386 15.26804034 15.36066732 15.35268625 13.8125 15.4375 C13.04357422 15.47681641 12.27464844 15.51613281 11.48242188 15.55664062 C10.73154297 15.59853516 9.98066406 15.64042969 9.20703125 15.68359375 C8.5210083 15.72025146 7.83498535 15.75690918 7.12817383 15.79467773 C4.72952425 16.026095 2.36299064 16.52740187 0 17 C0 11.39 0 5.78 0 0 Z " fill="#E86307" transform="translate(107,177)" />
    <path d="M0 0 C2.91488977 2.6234008 4.88503898 5.71816394 7 9 C6.67 9.66 6.34 10.32 6 11 C3.36 9.35 0.72 7.7 -2 6 C-1.34 5.67 -0.68 5.34 0 5 C0 3.35 0 1.7 0 0 Z " fill="#343434" transform="translate(46,64)" />
    <path d="M0 0 C0.33 0 0.66 0 1 0 C1.49230769 6.4 1.49230769 6.4 -1 9.4375 C-1.99 10.2109375 -1.99 10.2109375 -3 11 C-2.88590407 9.54077307 -2.75834456 8.08259402 -2.625 6.625 C-2.55539062 5.81289063 -2.48578125 5.00078125 -2.4140625 4.1640625 C-2 2 -2 2 0 0 Z " fill="#1D395B" transform="translate(17,191)" />
</svg>