<?xml version="1.0" encoding="UTF-8"?>
<svg version="1.1" xmlns="http://www.w3.org/2000/svg" width="200" height="200" viewBox="0 0 200 200">
    <path d="M0 0 C-0.0625 2.125 -0.0625 2.125 -1 5 C-2.44921875 6.3515625 -2.44921875 6.3515625 -4.25 7.75 C-8.59612138 11.17313065 -10.54336829 15.08673657 -13 20 C-7.72 20 -2.44 20 3 20 C-1.41104217 22.94069478 -5.74240949 22.44345233 -10.9453125 22.65625 C-11.95335937 22.7696875 -12.96140625 22.883125 -14 23 C-14.33 23.66 -14.66 24.32 -15 25 C-15.33 24.67 -15.66 24.34 -16 24 C-16.33 26.31 -16.66 28.62 -17 31 C-17.33 31 -17.66 31 -18 31 C-18.25 23.375 -18.25 23.375 -16 20 C-18.31 20 -20.62 20 -23 20 C-20.02914407 13.31557415 -15.10734103 8.84683169 -9 5 C-8.34 5 -7.68 5 -7 5 C-7 3.68 -7 2.36 -7 1 C-4.50935112 0.31292445 -2.62113708 0 0 0 Z " fill="#D4A756" transform="translate(17,16)" />
</svg>