<?xml version="1.0" encoding="UTF-8"?>
<svg version="1.1" xmlns="http://www.w3.org/2000/svg" width="200" height="200" viewBox="0 0 200 200">
    <path d="M0 0 C3.13614201 4.03218259 6.05405327 7.89188765 7 13 C6.01 13.495 6.01 13.495 5 14 C5.66 14.66 6.32 15.32 7 16 C1.72 16 -3.56 16 -9 16 C-9.33 15.01 -9.66 14.02 -10 13 C-10.66 12.67 -11.32 12.34 -12 12 C-10.02 9.69 -8.04 7.38 -6 5 C-7.65 4.67 -9.3 4.34 -11 4 C-11 3.67 -11 3.34 -11 3 C-10.28972656 2.95101563 -9.57945312 2.90203125 -8.84765625 2.8515625 C-7.92855469 2.77679687 -7.00945313 2.70203125 -6.0625 2.625 C-5.14597656 2.55539062 -4.22945312 2.48578125 -3.28515625 2.4140625 C-2.15400391 2.20910156 -2.15400391 2.20910156 -1 2 C-0.67 1.34 -0.34 0.68 0 0 Z " fill="#4D9A66" transform="translate(17,16)" />
</svg>