<?xml version="1.0" encoding="UTF-8"?>
<svg version="1.1" xmlns="http://www.w3.org/2000/svg" width="200" height="200" viewBox="0 0 200 200">
    <path d="M0 0 C17.80618898 -0.35578314 33.66800173 8.59537678 46.66821289 20.07519531 C60.8671002 34.63324504 68.09301676 53.07426367 68.16821289 73.20019531 C67.8392858 93.50353608 62.78627616 111.93086811 48.66821289 127.07519531 C48.04301758 127.77902344 47.41782227 128.48285156 46.77368164 129.20800781 C35.579986 141.19962473 17.78397412 150.5143233 1.28540039 151.35644531 C-19.23235411 151.96046192 -39.02352371 147.39323887 -54.33178711 133.07519531 C-55.11038086 132.37523437 -55.88897461 131.67527344 -56.69116211 130.95410156 C-62.36905581 125.60964121 -66.49733504 119.84295724 -70.33178711 113.07519531 C-70.87963867 112.12644531 -71.42749023 111.17769531 -71.99194336 110.20019531 C-78.5536047 98.07643774 -79.58062826 86.81020808 -79.64428711 73.26269531 C-79.64992676 72.10568115 -79.65556641 70.94866699 -79.66137695 69.7565918 C-79.50327356 51.16068566 -72.2565768 34.60113802 -59.33178711 21.07519531 C-42.03894767 4.67787792 -23.05169541 0.74336951 0 0 Z " fill="#BA212E" transform="translate(17,16)" />
</svg>