<?xml version="1.0" encoding="UTF-8"?>
<svg version="1.1" xmlns="http://www.w3.org/2000/svg" width="200" height="200" viewBox="0 0 200 200">
    <path d="M0 0 C54.45 0 108.9 0 165 0 C165 55.77 165 111.54 165 169 C110.55 169 56.1 169 0 169 C0 113.23 0 57.46 0 0 Z M83.75 13.015625 C64.06190424 13.25783356 45.50348005 18.23950918 30.796875 32.09765625 C12.62969095 51.33117501 8.11511672 70.91170125 8.82958984 96.703125 C9.86530445 116.74078974 20.40724786 133.16105643 34.5703125 146.87109375 C50.51060584 160.83807103 70.92859137 165.39397121 91.63671875 164.23388672 C109.17807274 162.49787255 125.09042829 152.45491399 137 140 C137.73863281 139.23171875 138.47726563 138.4634375 139.23828125 137.671875 C154.16748772 120.62648975 157.37785077 98.75182489 156.25 76.85742188 C154.69738748 59.11154602 144.63976646 41.31188511 131.42919922 29.60839844 C117.41775945 18.01986504 101.7573275 12.89057411 83.75 13.015625 Z " fill="#0D274D" transform="translate(17,159.09765625)" />
    <path d="M0 0 C1.37478516 0.01740234 1.37478516 0.01740234 2.77734375 0.03515625 C3.69644531 0.04417969 4.61554688 0.05320312 5.5625 0.0625 C6.27277344 0.07410156 6.98304687 0.08570313 7.71484375 0.09765625 C8.33984375 2.47265625 8.33984375 2.47265625 8.71484375 5.09765625 C6.71484375 7.09765625 6.71484375 7.09765625 4.62109375 7.36328125 C3.82703125 7.358125 3.03296875 7.35296875 2.21484375 7.34765625 C1.42078125 7.3528125 0.62671875 7.35796875 -0.19140625 7.36328125 C-2.28515625 7.09765625 -2.28515625 7.09765625 -4.28515625 5.09765625 C-3.53567763 0.15109733 -3.53567763 0.15109733 0 0 Z " fill="#D8EAE1" transform="translate(45.28515625,16)" />
</svg>