<?xml version="1.0" encoding="UTF-8"?>
<svg version="1.1" xmlns="http://www.w3.org/2000/svg" width="200" height="200" viewBox="0 0 200 200">
    <path d="M0 0 C34.46345488 0 34.46345488 0 45.89013672 0.09179688 C47.25546258 0.10190418 48.62078918 0.11191237 49.98611641 0.1218338 C53.52308554 0.14779272 57.06004341 0.17504317 60.59700012 0.20263672 C63.96122665 0.22866498 67.32546213 0.25342794 70.68969727 0.27832031 C80.4181407 0.35099364 90.14656957 0.42560572 99.875 0.5 C121.69625 0.665 143.5175 0.83 166 1 C166 56.11 166 111.22 166 168 C111.22 168 56.44 168 0 168 C0 112.56 0 57.12 0 0 Z " fill="#20201F" transform="translate(17,16)" />
</svg>