<?xml version="1.0" encoding="UTF-8"?>
<svg version="1.1" xmlns="http://www.w3.org/2000/svg" width="200" height="200" viewBox="0 0 200 200">
    <path d="M0 0 C2.65568752 1.40595221 4.7290803 2.89162952 6.6875 5.1875 C6.6875 5.8475 6.6875 6.5075 6.6875 7.1875 C7.18378906 6.8265625 7.68007813 6.465625 8.19140625 6.09375 C12.80091858 2.94493702 15.94449366 1.16196315 21.6875 2.1875 C25.6896816 4.00330461 28.81068189 6.17367906 31.6875 9.5 C33.11446053 13.33495641 33.82051706 16.24859951 32.6875 20.1875 C26.15307796 30.84811811 16.03999237 38.19321028 4.375 42.375 C-7.40792497 44.97123771 -21.44143585 43.31541453 -31.7421875 37.02734375 C-47.10770066 26.02862536 -47.10770066 26.02862536 -48.75 18.06640625 C-49.11465433 13.56140584 -48.48173722 10.79323996 -45.625 7.25 C-41.92033059 3.51070751 -39.05308712 2.37399148 -33.8125 1.8125 C-29.74905032 2.24786961 -28.20348742 3.38411826 -25.3125 6.1875 C-22.48712936 4.99215088 -20.64174926 3.62625959 -18.25 1.625 C-12.67206991 -3.00349518 -6.35569061 -3.07230801 0 0 Z " fill="#152F53" transform="translate(17,16)" />
</svg>