<?xml version="1.0" encoding="UTF-8"?>
<svg version="1.1" xmlns="http://www.w3.org/2000/svg" width="200" height="200" viewBox="0 0 200 200">
    <path d="M0 0 C0.33 0 0.66 0 1 0 C1.64487408 13.90061911 -1.40915304 22.85836552 -10.125 33.625 C-11.053125 34.305625 -11.053125 34.305625 -12 35 C-14.0625 34.5625 -14.0625 34.5625 -16 34 C-17.64594139 35.39588754 -17.64594139 35.39588754 -19 37 C-19.66 37 -20.32 37 -21 37 C-20.58041016 36.16855469 -20.58041016 36.16855469 -20.15234375 35.3203125 C-19.35711275 33.71906771 -18.57948262 32.10900279 -17.81640625 30.4921875 C-17.40261719 29.62851563 -16.98882813 28.76484375 -16.5625 27.875 C-16.15128906 27.00617188 -15.74007812 26.13734375 -15.31640625 25.2421875 C-14 23 -14 23 -11 21 C-11 20.67 -11 20.34 -11 20 C-9.02 20 -7.04 20 -5 20 C-4.87625 19.38125 -4.7525 18.7625 -4.625 18.125 C-4 16 -4 16 -2 14 C-1.54152311 11.63969304 -1.17856869 9.2601826 -0.875 6.875 C-0.70742188 5.59367187 -0.53984375 4.31234375 -0.3671875 2.9921875 C-0.24601563 2.00476562 -0.12484375 1.01734375 0 0 Z " fill="#C2994E" transform="translate(17,16)" />
</svg>