<?xml version="1.0" encoding="UTF-8"?>
<svg version="1.1" xmlns="http://www.w3.org/2000/svg" width="200" height="200" viewBox="0 0 200 200">
    <path d="M0 0 C1.11084961 0.02030273 1.11084961 0.02030273 2.24414062 0.04101562 C4.05891075 0.07614021 5.87330288 0.12994028 7.6875 0.1875 C7.6875 3.4875 7.6875 6.7875 7.6875 10.1875 C6.90246094 10.27386719 6.11742187 10.36023437 5.30859375 10.44921875 C-1.30877409 11.33424095 -6.58776891 12.22722514 -11.3125 17.1875 C-15.03096311 22.39334835 -14.9337543 27.97607059 -15.3125 34.1875 C-18.9425 34.1875 -22.5725 34.1875 -26.3125 34.1875 C-26.90272387 25.08493631 -26.90335133 17.71364602 -21.3125 10.1875 C-18.83752297 7.55284703 -16.25299542 5.28705828 -13.3125 3.1875 C-12.57644531 2.63320313 -11.84039063 2.07890625 -11.08203125 1.5078125 C-7.38051961 -0.25680095 -4.00435328 -0.13956191 0 0 Z " fill="#A2DFA3" transform="translate(17,16)" />
</svg>