<?xml version="1.0" encoding="UTF-8"?>
<svg version="1.1" xmlns="http://www.w3.org/2000/svg" width="200" height="200" viewBox="0 0 200 200">
    <path d="M0 0 C12.87 0 25.74 0 39 0 C39.66 3.63 40.32 7.26 41 11 C43.93486228 18.33715569 47.10365108 21.62830935 53.875 25.75 C57.69098016 27.42946336 57.69098016 27.42946336 65 28 C65 41.2 65 54.4 65 68 C57.58646751 68 52.45353503 67.76907697 45.6875 65.5625 C44.86789795 65.29808105 44.0482959 65.03366211 43.20385742 64.76123047 C26.4089793 58.97488425 14.66272619 46.76571115 6.55859375 31.23828125 C1.46252139 20.57455969 0 12.13784525 0 0 Z " fill="#F7D4D5" transform="translate(17,16)" />
</svg>