<?xml version="1.0" encoding="UTF-8"?>
<svg version="1.1" xmlns="http://www.w3.org/2000/svg" width="200" height="200" viewBox="0 0 200 200">
    <path d="M0 0 C54.78 0 109.56 0 166 0 C166 55.11 166 110.22 166 167 C111.22 167 56.44 167 0 167 C0 111.89 0 56.78 0 0 Z " fill="#088B83" transform="translate(159.0625,130)" />
    <path d="M0 0 C27.39 0 54.78 0 83 0 C83 54.45 83 108.9 83 165 C68.15 165 53.3 165 38 165 C36.35 161.7 34.7 158.4 33 155 C30.64343289 152.75779002 30.64343289 152.75779002 28 151.5625 C27.175 151.13066406 26.35 150.69882812 25.5 150.25390625 C23.77707067 149.38974951 22.04600299 148.54169374 20.30859375 147.70703125 C17.28546954 145.47165853 16.96607273 143.73030016 16.0625 140.125 C14.33319379 134.41346675 13.13015063 132.05835903 8 129 C5.3542334 127.83471652 2.75496831 126.90248962 0 126 C0 120.39 0 114.78 0 109 C-1.546875 109.05800781 -3.09375 109.11601563 -4.6875 109.17578125 C-21.86625277 109.62770821 -36.46089714 108.69608362 -50 97 C-51.18529297 95.99646484 -51.18529297 95.99646484 -52.39453125 94.97265625 C-59.10433128 88.81922438 -63.13095122 81.60714634 -66 73 C-66 67.72 -66 62.44 -66 57 C-44.22 57 -22.44 57 0 57 C0 73.83 0 90.66 0 108 C21.69094212 102.95587715 21.69094212 102.95587715 37.71875 88.578125 C39.2583803 86.08754658 40.68115391 83.61434978 42 81 C42.81017578 79.41638672 42.81017578 79.41638672 43.63671875 77.80078125 C45.49975228 73.34179644 45.53510292 68.96644759 45.5 64.1875 C45.49500488 63.3003833 45.49000977 62.4132666 45.48486328 61.49926758 C45.30248306 54.6587516 44.16786086 49.56453764 40 44 C39.5771875 43.37351562 39.154375 42.74703125 38.71875 42.1015625 C32.19298052 33.41318337 21.40312687 28.28181792 11 26 C7.37 25.67 3.74 25.34 0 25 C0 16.75 0 8.5 0 0 Z " fill="#C8E0E1" transform="translate(49.0625,131)" />
    <path d="M0 0 C0.33 0 0.66 0 1 0 C1 8.25 1 16.5 1 25 C4.63 25 8.26 25 12 25 C25.57861426 27.94203309 35.59065793 35.10840879 43.44140625 46.38671875 C48.44576038 54.77747792 48.24884985 64.476824 47 74 C45.63333746 79.19355307 43.01258831 83.58809044 40 88 C39.42121094 88.84949219 38.84242188 89.69898438 38.24609375 90.57421875 C30.5473142 100.36813053 18.16580833 106.25943726 6 108 C4.35 108 2.7 108 1 108 C1 91.17 1 74.34 1 57 C-20.78 57 -42.56 57 -65 57 C-65 56.67 -65 56.34 -65 56 C-43.55 56 -22.1 56 0 56 C0 52.04 0 48.08 0 44 C-15.84 44 -31.68 44 -48 44 C-48 43.34 -48 42.68 -48 42 C-42.25 39 -42.25 39 -40 39 C-40 38.34 -40 37.68 -40 37 C-41.2375 36.896875 -42.475 36.79375 -43.75 36.6875 C-47.25682248 36.25225608 -49.47569687 35.62948243 -52 33 C-52 32.34 -52 31.68 -52 31 C-41.81841009 25.34948413 -32.68587598 22.37397093 -21 23 C-20.01 23.33 -19.02 23.66 -18 24 C-16.59335074 24.14492123 -15.1818867 24.24628931 -13.76953125 24.31640625 C-13.04612549 24.35451416 -12.32271973 24.39262207 -11.57739258 24.43188477 C-10.20877075 24.49653931 -10.20877075 24.49653931 -8.8125 24.5625 C-4.4503125 24.7790625 -4.4503125 24.7790625 0 25 C0 16.75 0 8.5 0 0 Z " fill="#4C9F9B" transform="translate(48.0625,131)" />
    <path d="M0 0 C0.33 0 0.66 0 1 0 C1 8.25 1 16.5 1 25 C4.63 25 8.26 25 12 25 C25.42390579 27.90851292 35.84226884 35.08902863 43.5390625 46.3671875 C45.41798427 49.75326577 46 52.15512722 46 56 C43.65942434 56.41610234 41.3604964 56.73500472 39 57 C38.11957031 57.11472656 37.23914063 57.22945312 36.33203125 57.34765625 C33.36890267 57.57244531 30.91350204 57.61040682 28 57 C25.90496649 55.19630039 24.44360465 53.25821221 22.796875 51.04296875 C18.4142179 46.06007818 11.71391071 44.92244456 5.375 44.25 C3.93125 44.1675 2.4875 44.085 1 44 C1 48.29 1 52.58 1 57 C-20.78 57 -42.56 57 -65 57 C-65 56.67 -65 56.34 -65 56 C-43.55 56 -22.1 56 0 56 C0 52.04 0 48.08 0 44 C-15.84 44 -31.68 44 -48 44 C-48 43.34 -48 42.68 -48 42 C-42.25 39 -42.25 39 -40 39 C-40 38.34 -40 37.68 -40 37 C-41.2375 36.896875 -42.475 36.79375 -43.75 36.6875 C-47.25682248 36.25225608 -49.47569687 35.62948243 -52 33 C-52 32.34 -52 31.68 -52 31 C-41.81841009 25.34948413 -32.68587598 22.37397093 -21 23 C-20.01 23.33 -19.02 23.66 -18 24 C-16.59335074 24.14492123 -15.1818867 24.24628931 -13.76953125 24.31640625 C-13.04612549 24.35451416 -12.32271973 24.39262207 -11.57739258 24.43188477 C-10.20877075 24.49653931 -10.20877075 24.49653931 -8.8125 24.5625 C-4.4503125 24.7790625 -4.4503125 24.7790625 0 25 C0 16.75 0 8.5 0 0 Z " fill="#3D9795" transform="translate(48.0625,131)" />
    <path d="M0 0 C7.26 0 14.52 0 22 0 C22.54786493 15.5228396 18.34398143 29.7536266 8.3125 41.875 C-1.88682317 52.4477088 -15.15266527 58.74444426 -29.6015625 60.640625 C-32.00703437 60.87445989 -32.00703437 60.87445989 -34 62 C-36.04055005 62.07065617 -38.08334257 62.08421976 -40.125 62.0625 C-41.22070312 62.05347656 -42.31640625 62.04445313 -43.4453125 62.03515625 C-44.28835937 62.02355469 -45.13140625 62.01195312 -46 62 C-46 58.7 -46 55.4 -46 52 C-44.741875 51.5875 -43.48375 51.175 -42.1875 50.75 C-41.36378906 50.4715625 -40.54007813 50.193125 -39.69140625 49.90625 C-37.91272387 49.30733227 -36.12882057 48.72367877 -34.33984375 48.15625 C-20.99210558 43.70060215 -11.19685681 36.62743634 -4.6875 24.0625 C-1.19665795 16.14992468 -0.69586725 8.55916715 0 0 Z " fill="#FAF3F3" transform="translate(96.0625,188)" />
    <path d="M0 0 C7.59 0 15.18 0 23 0 C23 11.55 23 23.1 23 35 C30.59 35 38.18 35 46 35 C46 39.95 46 44.9 46 50 C30.82 50 15.64 50 0 50 C0 33.5 0 17 0 0 Z " fill="#F7E7E7" transform="translate(190.0625,24)" />
    <path d="M0 0 C12.67957176 -0.85672782 23.49144301 2.84703898 33.515625 10.69140625 C38.58094924 15.3983349 43.93986455 21.11037957 45 28.1875 C45 29.115625 45 30.04375 45 31 C42.65942434 31.41610234 40.3604964 31.73500472 38 32 C37.11957031 32.11472656 36.23914063 32.22945312 35.33203125 32.34765625 C32.36890267 32.57244531 29.91350204 32.61040682 27 32 C24.90496649 30.19630039 23.44360465 28.25821221 21.796875 26.04296875 C17.4142179 21.06007818 10.71391071 19.92244456 4.375 19.25 C2.93125 19.1675 1.4875 19.085 0 19 C0 12.73 0 6.46 0 0 Z " fill="#2FB68E" transform="translate(49.0625,156)" />
    <path d="M0 0 C7.49475852 -0.42827192 13.44140549 0.11217336 20 4 C22.35869407 6.1096686 24.35704411 8.28845491 26 11 C26 11.66 26 12.32 26 13 C17.42 13 8.84 13 0 13 C0 8.71 0 4.42 0 0 Z " fill="#C8EBE3" transform="translate(49.0625,175)" />
    <path d="M0 0 C1.010625 0.0825 2.02125 0.165 3.0625 0.25 C3.7225 1.24 4.3825 2.23 5.0625 3.25 C3.0625 5.25 3.0625 5.25 -0.0625 5.375 C-1.485625 5.313125 -1.485625 5.313125 -2.9375 5.25 C-3.5 3.3125 -3.5 3.3125 -3.9375 1.25 C-2.9375 0.25 -2.9375 0.25 0 0 Z " fill="#0A546D" transform="translate(17,159.75)" />
    <path d="M0 0 C1.9375 0.75 1.9375 0.75 4 2 C4.33 3.32 4.66 4.64 5 6 C1.37 6 -2.26 6 -6 6 C-6 5.67 -6 5.34 -6 5 C-3.36 4.67 -0.72 4.34 2 4 C1.34 2.68 0.68 1.36 0 0 Z " fill="#D7F1E9" transform="translate(69.0625,181)" />
    <path d="M0 0 C-1 3 -1 3 -2.75 4.1875 C-5.29960574 5.10819096 -7.30923081 5.14948718 -10 5 C-3.63636364 0 -3.63636364 0 0 0 Z " fill="#2E476A" transform="translate(88.0625,70)" />
    <path d="M0 0 C2.46800047 1.15173355 4.04783565 2.04783565 6 4 C5.67 4.99 5.34 5.98 5 7 C3.29115995 5.37660195 1.62553283 3.70680947 0 2 C0 1.34 0 0.68 0 0 Z " fill="#DEDFE1" transform="translate(56.0625,16)" />
</svg>