<?xml version="1.0" encoding="UTF-8"?>
<svg version="1.1" xmlns="http://www.w3.org/2000/svg" width="200" height="200" viewBox="0 0 200 200">
    <path d="M0 0 C0.33 0 0.66 0 1 0 C1.06058594 0.75925781 1.12117188 1.51851562 1.18359375 2.30078125 C1.26738281 3.29464844 1.35117187 4.28851562 1.4375 5.3125 C1.51871094 6.29863281 1.59992188 7.28476562 1.68359375 8.30078125 C1.91812559 11.09375599 1.91812559 11.09375599 3 14 C6.3 14 9.6 14 13 14 C13 14.33 13 14.66 13 15 C8.71 15 4.42 15 0 15 C0 10.05 0 5.1 0 0 Z " fill="#04847E" transform="translate(17,16)" />
</svg>