<?xml version="1.0" encoding="UTF-8"?>
<svg version="1.1" xmlns="http://www.w3.org/2000/svg" width="200" height="200" viewBox="0 0 200 200">
    <path d="M0 0 C1.21881363 0.00264359 1.21881363 0.00264359 2.46224976 0.00534058 C15.47458077 0.06817273 27.60285901 1.03482118 39.9375 5.5 C41.03892334 5.89348633 41.03892334 5.89348633 42.16259766 6.29492188 C56.61210732 11.64255492 69.44701198 20.09668242 77.89453125 33.21484375 C82.29477797 42.85583375 82.46929218 55.42416452 80.25 65.67578125 C78.15494958 71.28877051 74.84082378 75.99476181 70.9375 80.5 C70.38578125 81.15742188 69.8340625 81.81484375 69.265625 82.4921875 C56.42964122 96.5898278 37.16380456 101.92551221 18.9375 104.5 C17.07158203 104.7784375 17.07158203 104.7784375 15.16796875 105.0625 C-13.74495948 108.54998298 -44.76676937 103.35169388 -68.4375 85.6875 C-73.32376739 81.61295781 -76.70901116 76.86367675 -80.0625 71.5 C-80.7225 70.51 -81.3825 69.52 -82.0625 68.5 C-85.42096617 58.8755616 -85.69514741 46.34024017 -82.15234375 36.69140625 C-74.56764503 21.44045291 -57.87200719 11.78871577 -42.3515625 6.15234375 C-38.94042992 5.14433491 -35.52368882 4.31776895 -32.0625 3.5 C-31.04188477 3.23687012 -30.02126953 2.97374023 -28.96972656 2.70263672 C-19.24815159 0.35742898 -9.96120066 -0.05782013 0 0 Z " fill="#F4BE0D" transform="translate(17,16)" />
</svg>