<?xml version="1.0" encoding="UTF-8"?>
<svg version="1.1" xmlns="http://www.w3.org/2000/svg" width="200" height="200" viewBox="0 0 200 200">
    <path d="M0 0 C6.17733665 0 7.45874419 0.28442706 12 4 C13.171875 6.140625 13.171875 6.140625 14 8 C14.49628906 7.6390625 14.99257813 7.278125 15.50390625 6.90625 C20.11341858 3.75743702 23.25699366 1.97446315 29 3 C33.0021816 4.81580461 36.12318189 6.98617906 39 10.3125 C40.42696053 14.14745641 41.13301706 17.06109951 40 21 C33.95308787 30.86526745 23.6318723 39.88998677 12.1875 42.6875 C8.14305524 43.08401419 4.06383525 43 0 43 C0 28.81 0 14.62 0 0 Z " fill="#0D162A" transform="translate(17,16)" />
</svg>