<?xml version="1.0" encoding="UTF-8"?>
<svg version="1.1" xmlns="http://www.w3.org/2000/svg" width="200" height="200" viewBox="0 0 200 200">
    <path d="M0 0 C20.42685442 -0.69990491 38.08551327 3.94508138 53.40625 18.24609375 C68.6321755 34.12381401 73.61354595 53.41704421 73.26953125 74.92578125 C72.71273998 89.70680676 65.55398837 106.02494168 55.34765625 116.8125 C54 118 54 118 53 118 C52.90737135 109.31616904 52.83627176 100.63250779 52.79275131 91.94829082 C52.77186491 87.91595209 52.74352884 83.88395102 52.69824219 79.85180664 C52.65482078 75.96144601 52.63087083 72.07141041 52.62049103 68.18082619 C52.61309288 66.69560439 52.59864597 65.21040064 52.57707977 63.725317 C52.54809292 61.6468075 52.5440417 59.56964549 52.54589844 57.4909668 C52.53701599 56.30738083 52.52813354 55.12379486 52.51898193 53.90434265 C53 51 53 51 55.02838135 49.09431458 C55.6790155 48.73319077 56.32964966 48.37206696 57 48 C44.37556403 41.90291164 31.7233012 35.89131153 18.92138672 30.17431641 C18.05529785 29.78550293 17.18920898 29.39668945 16.296875 28.99609375 C15.53729492 28.65763428 14.77771484 28.3191748 13.99511719 27.97045898 C12 27 12 27 9 25 C8.65942383 22.56982422 8.65942383 22.56982422 8.70703125 19.5546875 C8.71669922 18.47832031 8.72636719 17.40195313 8.73632812 16.29296875 C8.76146484 15.16503906 8.78660156 14.03710938 8.8125 12.875 C8.82603516 11.73933594 8.83957031 10.60367188 8.85351562 9.43359375 C8.88895681 6.62192613 8.93836483 3.81119583 9 1 C6.03 1 3.06 1 0 1 C0 0.67 0 0.34 0 0 Z " fill="#7377AC" transform="translate(17,16)" />
</svg>