<?xml version="1.0" encoding="UTF-8"?>
<svg version="1.1" xmlns="http://www.w3.org/2000/svg" width="200" height="200" viewBox="0 0 200 200">
    <path d="M0 0 C1.1122998 0.00837891 2.22459961 0.01675781 3.37060547 0.02539062 C14.10454264 0.32176016 21.19370731 2.6163413 28.8125 10.5 C34.99942458 18.51282184 35.15956856 25.67400103 34.75 35.625 C31.12 35.625 27.49 35.625 23.75 35.625 C23.6675 33.954375 23.585 32.28375 23.5 30.5625 C22.97358138 25.10178422 22.1821306 21.93716409 18.75 17.625 C12.80462769 13.33343965 6.8154696 12.98034713 -0.3125 13.0625 C-1.26705078 13.03865234 -2.22160156 13.01480469 -3.20507812 12.99023438 C-9.87561948 13.00404502 -13.26460026 14.15739145 -18.25 18.625 C-21.96846311 23.83084835 -21.8712543 29.41357059 -22.25 35.625 C-25.88 35.625 -29.51 35.625 -33.25 35.625 C-33.84125702 26.50650281 -33.82580773 19.17191651 -28.25 11.625 C-20.12927388 2.63852482 -11.92138738 -0.1212284 0 0 Z " fill="#88C88D" transform="translate(17,16)" />
</svg>