<?xml version="1.0" encoding="UTF-8"?>
<svg version="1.1" xmlns="http://www.w3.org/2000/svg" width="200" height="200" viewBox="0 0 200 200">
    <path d="M0 0 C0.93134766 0.00322266 1.86269531 0.00644531 2.82226562 0.00976562 C4.26182617 0.02233398 4.26182617 0.02233398 5.73046875 0.03515625 C6.70951172 0.03966797 7.68855469 0.04417969 8.69726562 0.04882812 C11.10422986 0.06056941 13.51106732 0.07699206 15.91796875 0.09765625 C16.1339376 7.77863545 14.79613133 13.46541508 9.96484375 19.5625 C-0.0654691 30.1013427 -10.57473823 33.23341518 -24.76953125 33.78515625 C-25.69314453 33.83220703 -26.61675781 33.87925781 -27.56835938 33.92773438 C-31.96048377 34.12062105 -35.77227243 34.08338624 -40.08203125 33.09765625 C-38.70438576 30.04522606 -37.0913496 27.81051679 -34.83203125 25.34765625 C-31.79746075 21.9787152 -29.11611503 18.48990425 -26.5390625 14.76171875 C-24.89206345 12.88069571 -23.36682521 12.06636975 -21.08203125 11.09765625 C-21.08203125 10.43765625 -21.08203125 9.77765625 -21.08203125 9.09765625 C-20.42203125 9.09765625 -19.76203125 9.09765625 -19.08203125 9.09765625 C-18.75203125 8.10765625 -18.42203125 7.11765625 -18.08203125 6.09765625 C-16.41015625 4.74609375 -16.41015625 4.74609375 -14.33203125 3.47265625 C-13.6565625 3.04726563 -12.98109375 2.621875 -12.28515625 2.18359375 C-8.3174661 0.22788832 -4.37209031 -0.02682264 0 0 Z " fill="#339C72" transform="translate(17,16)" />
</svg>