<?xml version="1.0" encoding="UTF-8"?>
<svg version="1.1" xmlns="http://www.w3.org/2000/svg" width="200" height="200" viewBox="0 0 200 200">
    <path d="M0 0 C2.91460118 1.38441509 5.53842091 2.96443758 8.1953125 4.79296875 C8.98953613 5.33791992 9.78375977 5.88287109 10.60205078 6.44433594 C11.85091064 7.30720215 11.85091064 7.30720215 13.125 8.1875 C13.97433105 8.77176758 14.82366211 9.35603516 15.69873047 9.95800781 C18.13472282 11.63546245 20.5680063 13.31675479 23 15 C23.60972656 15.42168457 24.21945313 15.84336914 24.84765625 16.27783203 C32.75240385 21.75240385 32.75240385 21.75240385 34 23 C34.08631874 24.34267413 34.10706473 25.68974322 34.09765625 27.03515625 C34.09443359 27.84404297 34.09121094 28.65292969 34.08789062 29.48632812 C34.07532227 30.7615332 34.07532227 30.7615332 34.0625 32.0625 C34.05798828 32.91650391 34.05347656 33.77050781 34.04882812 34.65039062 C34.03700373 36.76695663 34.01906769 38.88348685 34 41 C32.9275 40.979375 31.855 40.95875 30.75 40.9375 C27.23342762 40.81748687 27.23342762 40.81748687 24.92578125 41.65625 C20.1643917 42.50615321 14.92783174 38.37317226 11 36 C5.36604943 31.78704585 2.11131091 26.67747025 0 20 C-0.43365063 16.45397494 -0.38601249 13.00259656 -0.25 9.4375 C-0.23195313 8.52419922 -0.21390625 7.61089844 -0.1953125 6.66992188 C-0.14872701 4.44546486 -0.08335485 2.22333033 0 0 Z " fill="#1F3A6D" transform="translate(17,16)" />
</svg>