<?xml version="1.0" encoding="UTF-8"?>
<svg version="1.1" xmlns="http://www.w3.org/2000/svg" width="200" height="200" viewBox="0 0 200 200">
    <path d="M0 0 C-0.75667969 0.75539063 -1.51335938 1.51078125 -2.29296875 2.2890625 C-3.78019082 3.77843063 -5.2649591 5.27031782 -6.73828125 6.7734375 C-10.30252252 10.39958867 -13.99220899 13.80674929 -17.84375 17.125 C-20.19962958 19.17359094 -22.5050746 21.27203002 -24.8125 23.375 C-29.29955443 27.43140834 -33.93624831 31.26823965 -38.65234375 35.0546875 C-40.96072797 36.89324251 -40.96072797 36.89324251 -42.69140625 38.7578125 C-44 40 -44 40 -46 40 C-46 27.13 -46 14.26 -46 1 C-30.64333952 0.23693613 -15.3738055 -0.13970325 0 0 Z " fill="#074F47" transform="translate(17,16)" />
</svg>