<?xml version="1.0" encoding="UTF-8"?>
<svg version="1.1" xmlns="http://www.w3.org/2000/svg" width="200" height="200" viewBox="0 0 200 200">
    <path d="M0 0 C0.83144531 0.00902344 1.66289062 0.01804687 2.51953125 0.02734375 C4.55481337 0.0507378 6.58994564 0.08660275 8.625 0.125 C8.625 5.405 8.625 10.685 8.625 16.125 C6.583125 16.24875 6.583125 16.24875 4.5 16.375 C-0.03203369 16.87459427 -2.81562149 18.17332026 -6.375 21.125 C-8.85778896 24.84918344 -8.78410371 27.81635451 -8.375 32.125 C-7.54273081 35.00011176 -6.97550831 35.78721408 -4.375 37.25 C-0.08682038 38.50071906 4.23371619 39.30529369 8.625 40.125 C8.625 45.075 8.625 50.025 8.625 55.125 C-4.25613475 55.66295922 -13.46031676 55.52191814 -23.75 46.875 C-30.0618807 40.76160611 -32.53916811 36.42047789 -32.8125 27.5625 C-32.50195963 18.87738708 -29.72194919 13.1011162 -23.375 7.125 C-15.93882576 1.49963067 -9.20711775 -0.19089718 0 0 Z " fill="#E2EAEB" transform="translate(17,16)" />
</svg>