<?xml version="1.0" encoding="UTF-8"?>
<svg version="1.1" xmlns="http://www.w3.org/2000/svg" width="200" height="200" viewBox="0 0 200 200">
    <path d="M0 0 C6.36728941 -0.22966404 12.73349877 -0.38640197 19.10400391 -0.49438477 C21.26717025 -0.53943055 23.43006585 -0.60068989 25.59228516 -0.67895508 C45.88307751 -1.39460543 45.88307751 -1.39460543 52.28515625 4.26171875 C54.34399414 6.6237793 54.34399414 6.6237793 56 9 C56.83893799 10.17067017 56.83893799 10.17067017 57.69482422 11.36499023 C61.66348785 17.19755141 62 20.50084613 62 28 C35.93 28 9.86 28 -17 28 C-17 18.40685053 -13.54616196 11.88186257 -7 5 C-3.6 2 -3.6 2 0 2 C0 1.34 0 0.68 0 0 Z " fill="#5FBBB1" transform="translate(17,16)" />
</svg>