<?xml version="1.0" encoding="UTF-8"?>
<svg version="1.1" xmlns="http://www.w3.org/2000/svg" width="200" height="200" viewBox="0 0 200 200">
    <path d="M0 0 C3.0625 2.25 3.0625 2.25 5 4 C7.50851945 2.84222179 9.69153468 1.53897688 12 0 C18.67348702 -4.44899135 23.99275588 -4.88457472 32 -4 C40.51736992 -1.39714753 45.2112978 3.8169467 50 11 C50.85487749 14.30397113 51.12290209 17.38654029 51.11352539 20.7902832 C51.11341209 22.17114861 51.11341209 22.17114861 51.11329651 23.57991028 C51.10813522 24.5602977 51.10297394 25.54068512 51.09765625 26.55078125 C51.0962413 27.56472458 51.09482635 28.57866791 51.09336853 29.62333679 C51.08778328 32.85308821 51.07523345 36.08276962 51.0625 39.3125 C51.0574831 41.50585837 51.05292052 43.69921783 51.04882812 45.89257812 C51.03867075 51.26176725 51.01909236 56.6308055 51 62 C40.77 62 30.54 62 20 62 C19.6875 46.625 19.6875 46.625 19.61206055 41.83837891 C19.3539389 31.90414975 18.41343598 23.14787112 13 14.5625 C12.505 13.75941406 12.01 12.95632813 11.5 12.12890625 C9.89963985 9.72888058 9.89963985 9.72888058 7 7 C6.01 25.15 5.02 43.3 4 62 C-9.2 62 -22.4 62 -36 62 C-36.43390615 55.32869298 -36.76658921 48.67961565 -37 42 C-37.02594238 41.28491272 -37.05188477 40.56982544 -37.07861328 39.83306885 C-37.25115662 34.93456856 -37.37440322 30.03749872 -37.4519043 25.13656616 C-37.4838785 23.46686781 -37.52824526 21.79735923 -37.58520508 20.12832642 C-38.02922822 6.63776977 -38.02922822 6.63776977 -35.51391602 2.63525391 C-33.72924329 1.07598631 -32.12630736 0.02750044 -30 -1 C-28.989375 -1.61875 -27.97875 -2.2375 -26.9375 -2.875 C-18.19790366 -6.16961081 -7.80320955 -4.89353819 0 0 Z " fill="#F7B9D2" transform="translate(17,16)" />
</svg>