<?xml version="1.0" encoding="UTF-8"?>
<svg version="1.1" xmlns="http://www.w3.org/2000/svg" width="200" height="200" viewBox="0 0 200 200">
    <path d="M0 0 C52.8 0 105.6 0 160 0 C160 54.45 160 108.9 160 165 C107.2 165 54.4 165 0 165 C0 110.55 0 56.1 0 0 Z " fill="#143053" transform="translate(108.88671875,16)" />
    <path d="M0 0 C7.3883895 5.88122357 12.42564022 14.24663105 13.88671875 23.58984375 C13.88671875 26.88984375 13.88671875 30.18984375 13.88671875 33.58984375 C3.98671875 33.58984375 -5.91328125 33.58984375 -16.11328125 33.58984375 C-16.11328125 42.16984375 -16.11328125 50.74984375 -16.11328125 59.58984375 C-33.27328125 59.58984375 -50.43328125 59.58984375 -68.11328125 59.58984375 C-68.17515625 54.02109375 -68.23703125 48.45234375 -68.30078125 42.71484375 C-68.32809326 40.9786377 -68.35540527 39.24243164 -68.38354492 37.45361328 C-68.4990096 25.00356654 -66.99169994 15.62544851 -59.11328125 5.58984375 C-58.63375 4.97238281 -58.15421875 4.35492187 -57.66015625 3.71875 C-42.08773437 -13.93785966 -18.11821146 -12.08997105 0 0 Z " fill="#0F998E" transform="translate(17,40.41015625)" />
    <path d="M0 0 C16.08867572 6.1879522 29.832608 12.149659 38.125 27.95703125 C41.32217652 35.42186751 41.21310503 44.68232475 38.4375 52.25 C31.44338136 67.25821292 17.88364914 75.16327485 3 81 C2.01 81 1.02 81 0 81 C0 54.27 0 27.54 0 0 Z " fill="#067974" transform="translate(20.88671875,79)" />
</svg>