<?xml version="1.0" encoding="UTF-8"?>
<svg version="1.1" xmlns="http://www.w3.org/2000/svg" width="200" height="200" viewBox="0 0 200 200">
    <path d="M0 0 C2.91460118 1.38441509 5.53842091 2.96443758 8.1953125 4.79296875 C8.9896167 5.33800049 9.7839209 5.88303223 10.60229492 6.44458008 C11.4347876 7.01974365 12.26728027 7.59490723 13.125 8.1875 C13.97360596 8.77104248 14.82221191 9.35458496 15.6965332 9.95581055 C21.48517334 13.94073192 27.26144773 17.94318284 33 22 C40.33170678 18.54777443 46.91589944 13.49945925 53.49609375 8.8046875 C54.26219971 8.2586084 55.02830566 7.7125293 55.81762695 7.14990234 C57.34412613 6.05836902 58.86746441 4.96240033 60.38745117 3.86181641 C61.08717041 3.36085449 61.78688965 2.85989258 62.5078125 2.34375 C63.13316895 1.89193359 63.75852539 1.44011719 64.40283203 0.97460938 C66 0 66 0 68 0 C68.48997439 11.6096709 68.69510237 21.99906156 61.5 31.8125 C55.12026857 38.61864021 45.33794238 42.08476841 36.2331543 42.39428711 C24.427928 42.5853032 16.04203642 40.80068991 7 32.6875 C0.84057941 25.64148845 -0.59939213 18.59560513 -0.25 9.4375 C-0.23195313 8.52419922 -0.21390625 7.61089844 -0.1953125 6.66992188 C-0.14872701 4.44546486 -0.08335485 2.22333033 0 0 Z " fill="#141E41" transform="translate(17,16)" />
</svg>