<?xml version="1.0" encoding="UTF-8"?>
<svg version="1.1" xmlns="http://www.w3.org/2000/svg" width="200" height="200" viewBox="0 0 200 200">
    <path d="M0 0 C28.05 0 56.1 0 85 0 C85 54.78 85 109.56 85 166 C56.95 166 28.9 166 0 166 C0 160.39 0 154.78 0 149 C2.701875 148.443125 5.40375 147.88625 8.1875 147.3125 C26.45822601 143.31268349 41.89244754 135.83797033 52.5625 119.9375 C62.82597783 103.18694815 65.74679306 85.02607757 62.6015625 65.53027344 C61.59244739 61.41812938 59.97062077 57.73215711 58 54 C57.34837891 52.68128906 57.34837891 52.68128906 56.68359375 51.3359375 C47.49303734 34.42112429 33.04941415 26.01764791 15.5 19.75 C10.41592368 18.66055508 5.18153219 18.43179435 0 18 C0 30.21 0 42.42 0 55 C-3.96 55.99 -7.92 56.98 -12 58 C-17.86672366 60.8247188 -20.86655278 65.45777901 -24 71 C-26.27009031 77.81027093 -26.11939637 86.36757552 -23.3125 93 C-19.72645894 99.73476004 -15.43244966 104.5964715 -8 107 C-5.36 107.33 -2.72 107.66 0 108 C0 121.2 0 134.4 0 148 C-7.41353249 148 -12.54646497 147.76907697 -19.3125 145.5625 C-20.13210205 145.29808105 -20.9517041 145.03366211 -21.79614258 144.76123047 C-38.5910207 138.97488425 -50.33727381 126.76571115 -58.44140625 111.23828125 C-59.7382275 108.5246344 -60.90187231 105.79962224 -62 103 C-62.32097656 102.1853125 -62.64195312 101.370625 -62.97265625 100.53125 C-68.29768487 84.4818614 -65.65666912 64.67214513 -58.375 49.75 C-50.69372698 34.9619536 -38.80164866 22.98725172 -23 17 C-15.23923654 14.63052092 -8.09517033 13.63752969 0 14 C0 9.38 0 4.76 0 0 Z " fill="#EB5271" transform="translate(17,16)" />
</svg>