<?xml version="1.0" encoding="UTF-8"?>
<svg version="1.1" xmlns="http://www.w3.org/2000/svg" width="200" height="200" viewBox="0 0 200 200">
    <path d="M0 0 C7.3883895 5.88122357 12.42564022 14.24663105 13.88671875 23.58984375 C13.88671875 26.88984375 13.88671875 30.18984375 13.88671875 33.58984375 C3.98671875 33.58984375 -5.91328125 33.58984375 -16.11328125 33.58984375 C-16.11328125 42.16984375 -16.11328125 50.74984375 -16.11328125 59.58984375 C-33.27328125 59.58984375 -50.43328125 59.58984375 -68.11328125 59.58984375 C-68.17515625 54.02109375 -68.23703125 48.45234375 -68.30078125 42.71484375 C-68.32809326 40.9786377 -68.35540527 39.24243164 -68.38354492 37.45361328 C-68.4990096 25.00356654 -66.99169994 15.62544851 -59.11328125 5.58984375 C-58.63375 4.97238281 -58.15421875 4.35492187 -57.66015625 3.71875 C-42.08773437 -13.93785966 -18.11821146 -12.08997105 0 0 Z " fill="#0F998E" transform="translate(17,16)" />
</svg>