<?xml version="1.0" encoding="UTF-8"?>
<svg version="1.1" xmlns="http://www.w3.org/2000/svg" width="200" height="200" viewBox="0 0 200 200">
    <path d="M0 0 C54.45 0 108.9 0 165 0 C165 55.11 165 110.22 165 167 C110.55 167 56.1 167 0 167 C0 111.89 0 56.78 0 0 Z " fill="#E0DFDF" transform="translate(76,16)" />
    <path d="M0 0 C0.86625 0.350625 1.7325 0.70125 2.625 1.0625 C19.74869168 8.76816126 29.118202 22.95019276 36.10546875 39.640625 C40.61402122 53.10278168 39.19298779 69.98033148 34 83 C32.19521476 86.2858255 30.30992314 89.41685339 28.1953125 92.51171875 C26.72451218 94.84389469 26.72451218 94.84389469 27.57128906 96.78930664 C29.55615425 99.86055651 32.06732056 102.31259384 34.6640625 104.859375 C35.49216934 105.683237 35.49216934 105.683237 36.33700562 106.52374268 C38.09501815 108.27059293 39.8598689 110.01034601 41.625 111.75 C42.8207708 112.93573591 44.01608865 114.1219288 45.2109375 115.30859375 C48.13540253 118.21105085 51.06601874 121.1071641 54 124 C50.37068427 128.32883834 46.65033216 132.46656422 42.625 136.4375 C41.75101563 137.30246094 40.87703125 138.16742187 39.9765625 139.05859375 C39.32429687 139.69925781 38.67203125 140.33992188 38 141 C34.79172126 139.60020819 32.78683875 137.97223067 30.42578125 135.40234375 C29.76191406 134.6868335 29.09804688 133.97132324 28.4140625 133.23413086 C27.72054687 132.47624268 27.02703125 131.71835449 26.3125 130.9375 C24.88257374 129.39484703 23.45159089 127.85317274 22.01953125 126.3125 C20.98626709 125.19875 20.98626709 125.19875 19.93212891 124.0625 C16.3856237 120.27669307 12.71411794 116.621265 9 113 C5.07916779 114.29150012 1.18799669 115.64094403 -2.6875 117.0625 C-15.45717786 121.74294901 -31.32365025 122.16803355 -44.22265625 117.3203125 C-59.86124995 109.88593181 -72.34751066 98.07487636 -79 82 C-84.98980406 63.73234032 -84.8236602 46.86980024 -76.80078125 29.38671875 C-68.69018177 13.78526659 -55.64474931 2.95975245 -39.0637207 -2.65576172 C-26.45921188 -6.18596894 -11.94466908 -5.04330472 0 0 Z " fill="#1C407A" transform="translate(176,35)" />
    <path d="M0 0 C0.83136475 -0.00644531 1.66272949 -0.01289062 2.51928711 -0.01953125 C16.13896775 0.2614819 27.17092301 6.92318047 36.4765625 16.56640625 C43.66339363 25.59200856 46.99959506 35.20775417 47.0625 46.625 C47.083125 47.53765625 47.10375 48.4503125 47.125 49.390625 C47.16075301 55.66527839 46.11837239 60.6839431 43.8125 66.5 C43.3175 67.985 43.3175 67.985 42.8125 69.5 C42.1525 69.5 41.4925 69.5 40.8125 69.5 C40.4 68.4275 39.9875 67.355 39.5625 66.25 C37.82292654 62.20732928 35.63231637 59.75504577 32 57.25 C28.74614921 56.13439402 26.23215225 56.14624287 22.8125 56.5 C19.53939447 58.40356987 19.53939447 58.40356987 16.8125 60.5 C16.1525 60.5 15.4925 60.5 14.8125 60.5 C14.255625 59.736875 13.69875 58.97375 13.125 58.1875 C9.93676991 54.48225963 6.66444586 52.96035347 1.828125 52.1796875 C-3.60357198 51.86389116 -6.75290511 53.42989585 -11.1875 56.5 C-13.54409368 58.60280634 -13.54409368 58.60280634 -15.1875 60.5 C-17.68111571 59.29618552 -19.86893083 58.04571278 -22.1875 56.5 C-27.41904276 56.00645823 -30.76446797 56.64960158 -35.1875 59.5 C-38.66572112 62.97822112 -39.73375711 65.62226395 -40.1875 70.5 C-40.8475 70.5 -41.5075 70.5 -42.1875 70.5 C-47.39719881 59.17456781 -48.13383422 45.01293847 -45.3515625 32.84375 C-44.18104176 29.85852933 -42.85322387 27.23828753 -41.1875 24.5 C-40.33285156 23.07300781 -40.33285156 23.07300781 -39.4609375 21.6171875 C-34.81325351 14.59784584 -29.38859863 9.80701704 -22.1875 5.5 C-21.30707031 4.97148438 -20.42664063 4.44296875 -19.51953125 3.8984375 C-13.07705792 0.64539737 -7.09785844 0.05223334 0 0 Z " fill="#DDDDDE" transform="translate(153.1875,45.5)" />
    <path d="M0 0 C2.65568752 1.40595221 4.7290803 2.89162952 6.6875 5.1875 C6.6875 5.8475 6.6875 6.5075 6.6875 7.1875 C7.18378906 6.8265625 7.68007813 6.465625 8.19140625 6.09375 C12.80091858 2.94493702 15.94449366 1.16196315 21.6875 2.1875 C25.6896816 4.00330461 28.81068189 6.17367906 31.6875 9.5 C33.11446053 13.33495641 33.82051706 16.24859951 32.6875 20.1875 C26.15307796 30.84811811 16.03999237 38.19321028 4.375 42.375 C-7.40792497 44.97123771 -21.44143585 43.31541453 -31.7421875 37.02734375 C-47.10770066 26.02862536 -47.10770066 26.02862536 -48.75 18.06640625 C-49.11465433 13.56140584 -48.48173722 10.79323996 -45.625 7.25 C-41.92033059 3.51070751 -39.05308712 2.37399148 -33.8125 1.8125 C-29.74905032 2.24786961 -28.20348742 3.38411826 -25.3125 6.1875 C-22.48712936 4.99215088 -20.64174926 3.62625959 -18.25 1.625 C-12.67206991 -3.00349518 -6.35569061 -3.07230801 0 0 Z " fill="#152F53" transform="translate(161.3125,98.8125)" />
    <path d="M0 0 C6.17733665 0 7.45874419 0.28442706 12 4 C13.171875 6.140625 13.171875 6.140625 14 8 C14.49628906 7.6390625 14.99257813 7.278125 15.50390625 6.90625 C20.11341858 3.75743702 23.25699366 1.97446315 29 3 C33.0021816 4.81580461 36.12318189 6.98617906 39 10.3125 C40.42696053 14.14745641 41.13301706 17.06109951 40 21 C33.95308787 30.86526745 23.6318723 39.88998677 12.1875 42.6875 C8.14305524 43.08401419 4.06383525 43 0 43 C0 28.81 0 14.62 0 0 Z " fill="#0D162A" transform="translate(154,98)" />
    <path d="M0 0 C54.12 0 108.24 0 164 0 C164 55.11 164 110.22 164 167 C109.55 167 55.1 167 -1 167 C-1 166.34 -1 165.68 -1 165 C52.79 165 106.58 165 162 165 C162 110.88 162 56.76 162 1 C108.54 1 55.08 1 0 1 C0 0.67 0 0.34 0 0 Z " fill="#E6E5E5" transform="translate(77,16)" />
    <path d="M0 0 C2.87029869 1.79393668 4.49131638 2.98263276 6 6 C6.34717992 11.29449372 6.52421718 14.74663444 3 19 C0.28575479 21.12738138 -1.5239277 21.92909561 -4.9375 22.4375 C-8.8124426 21.88393677 -10.95425348 20.40826469 -14 18 C-15.84862688 14.30274625 -15.47587094 10.03538558 -15 6 C-11.1658506 -0.26244401 -6.95765643 -0.90125083 0 0 Z " fill="#101A2D" transform="translate(158,71)" />
    <path d="M0 0 C2.9375 1.4375 2.9375 1.4375 5 4 C5.72241241 7.14807359 5.69537012 9.84840316 5 13 C2.56579582 16.50811779 1.20657416 17.77376734 -3 18.5625 C-6.65907504 17.87642343 -8.35167676 16.57265686 -11 14 C-12.56935594 10.86128812 -12.35201103 8.46144178 -12 5 C-8.57935012 0.12816532 -5.85570965 -0.94109619 0 0 Z " fill="#1C385F" transform="translate(130,80)" />
    <path d="M0 0 C2.9375 1.4375 2.9375 1.4375 5 4 C5.89919689 8.29879217 5.78222333 11.74844267 3.4375 15.5 C0.12803865 17.5365916 -2.10687114 18.06830051 -6 18 C-8.9375 16.125 -8.9375 16.125 -11 13 C-11.88090879 8.64954696 -11.76549316 5.25540879 -9.4375 1.4375 C-6.02983728 -0.57214724 -3.89581737 -0.54678139 0 0 Z " fill="#0F1728" transform="translate(183,80)" />
    <path d="M0 0 C0 6.93 0 13.86 0 21 C0.99 21.33 1.98 21.66 3 22 C-2.2858549 22.50341475 -4.86554151 21.26910671 -9 18 C-10.84862688 14.30274625 -10.47587094 10.03538558 -10 6 C-7.11985005 1.29575509 -5.53506735 0 0 0 Z " fill="#183255" transform="translate(153,71)" />
    <path d="M0 0 C0.66 0.33 1.32 0.66 2 1 C0.54782324 2.50596108 -0.91192861 4.00462104 -2.375 5.5 C-3.18710937 6.3353125 -3.99921875 7.170625 -4.8359375 8.03125 C-7 10 -7 10 -9 10 C-7.61811547 6.78956118 -6.07578097 4.95063635 -3.375 2.75 C-2.74335937 2.22921875 -2.11171875 1.7084375 -1.4609375 1.171875 C-0.73777344 0.59179688 -0.73777344 0.59179688 0 0 Z " fill="#244980" transform="translate(116,44)" />
    <path d="M0 0 C2.91596344 2.12070068 4.84085877 4.6612362 7.0625 7.5 C4.78566722 6.44289907 2.95272008 5.41018007 1 3.8125 C0.360625 3.379375 -0.27875 2.94625 -0.9375 2.5 C-1.9275 2.83 -2.9175 3.16 -3.9375 3.5 C-4.5975 2.84 -5.2575 2.18 -5.9375 1.5 C-2.5717711 -0.66368286 -2.5717711 -0.66368286 0 0 Z " fill="#CDD2D8" transform="translate(184.9375,147.5)" />
    <path d="M0 0 C2.88575819 0.39803561 3.82189513 0.79009069 5.75 3.0625 C6.1625 3.701875 6.575 4.34125 7 5 C6.01 5.33 5.02 5.66 4 6 C2.68 4.02 1.36 2.04 0 0 Z " fill="#D4D4D6" transform="translate(164,100)" />
    <path d="M0 0 C0.66 0.99 1.32 1.98 2 3 C0.35 4.65 -1.3 6.3 -3 8 C-3.66 7.67 -4.32 7.34 -5 7 C-3.35 4.69 -1.7 2.38 0 0 Z " fill="#3D764C" transform="translate(17,94)" />
</svg>