<?xml version="1.0" encoding="UTF-8"?>
<svg version="1.1" xmlns="http://www.w3.org/2000/svg" width="200" height="200" viewBox="0 0 200 200">
    <path d="M0 0 C-0.0625 2.125 -0.0625 2.125 -1 5 C-2.44921875 6.3515625 -2.44921875 6.3515625 -4.25 7.75 C-8.59612138 11.17313065 -10.54336829 15.08673657 -13 20 C-7.72 20 -2.44 20 3 20 C-0.63719605 22.42479736 -2.85703482 22.38662577 -7.1875 22.625 C-8.45980469 22.69976563 -9.73210938 22.77453125 -11.04296875 22.8515625 C-12.01878906 22.90054687 -12.99460937 22.94953125 -14 23 C-14.66 26.96 -15.32 30.92 -16 35 C-9.73 35 -3.46 35 3 35 C3 32.69 3 30.38 3 28 C3.28520405 26.32442621 3.59955696 24.65182755 4 23 C4.33 23 4.66 23 5 23 C5.495 28.445 5.495 28.445 6 34 C9.3 34.33 12.6 34.66 16 35 C16 35.66 16 36.32 16 37 C11.05 37.495 11.05 37.495 6 38 C5.67 41.63 5.34 45.26 5 49 C4.67 49 4.34 49 4 49 C3.505 43.06 3.505 43.06 3 37 C-3.27 37 -9.54 37 -16 37 C-15.01 42.445 -15.01 42.445 -14 48 C-8.39 48.33 -2.78 48.66 3 49 C3 49.33 3 49.66 3 50 C-0.02038089 50.33794471 -3.04119756 50.67048433 -6.0625 51 C-6.91005859 51.09539062 -7.75761719 51.19078125 -8.63085938 51.2890625 C-13.45472589 51.81056158 -18.14836264 52.10532727 -23 52 C-23 52.66 -23 53.32 -23 54 C-23.99 54 -24.98 54 -26 54 C-31.00871846 44.41810382 -32.04027919 32.88123682 -28.94140625 22.4296875 C-24.25516858 12.4984196 -17.05860399 5.40536603 -7 1 C-4.46198068 0.23191521 -2.69094853 0 0 0 Z " fill="#DAA94F" transform="translate(17,16)" />
</svg>