<?xml version="1.0" encoding="UTF-8"?>
<svg version="1.1" xmlns="http://www.w3.org/2000/svg" width="200" height="200" viewBox="0 0 200 200">
    <path d="M0 0 C1.29349365 0.00523682 2.5869873 0.01047363 3.91967773 0.01586914 C4.9496714 0.01799156 4.9496714 0.01799156 6.00047302 0.02015686 C8.20144949 0.0257706 10.40232557 0.03832532 12.60327148 0.05102539 C14.09220231 0.05603863 15.58113473 0.06060184 17.07006836 0.06469727 C20.72700223 0.07574446 24.38387707 0.09301826 28.04077148 0.11352539 C26.8399916 3.3014823 25.53409268 6.11959769 23.65795898 8.96118164 C23.21323242 9.64889648 22.76850586 10.33661133 22.31030273 11.04516602 C21.37647958 12.47205826 20.43894098 13.89652548 19.49780273 15.31860352 C19.0556543 16.0050293 18.61350586 16.69145508 18.15795898 17.39868164 C17.75174316 18.01622314 17.34552734 18.63376465 16.92700195 19.27001953 C15.75192717 21.37345883 15.75192717 21.37345883 16.04077148 25.11352539 C18.44314792 27.07742829 18.44314792 27.07742829 21.47827148 28.73852539 C26.95503141 31.94204525 26.95503141 31.94204525 28.04077148 34.11352539 C9.23077148 34.11352539 -9.57922852 34.11352539 -28.95922852 34.11352539 C-27.14576456 29.57986551 -25.13713112 25.28577608 -22.95922852 20.92602539 C-22.60344727 20.2022168 -22.24766602 19.4784082 -21.88110352 18.73266602 C-19.1988505 13.35314738 -19.1988505 13.35314738 -16.95922852 11.11352539 C-16.95922852 11.77352539 -16.95922852 12.43352539 -16.95922852 13.11352539 C-11.53983708 9.9411987 -7.95058897 5.91855161 -3.95922852 1.11352539 C-2.95922852 0.11352539 -2.95922852 0.11352539 0 0 Z " fill="#E7B0B1" transform="translate(17,16)" />
</svg>