<?xml version="1.0" encoding="UTF-8"?>
<svg version="1.1" xmlns="http://www.w3.org/2000/svg" width="200" height="200" viewBox="0 0 200 200">
    <path d="M0 0 C4.72713035 0.78785506 7.5028397 1.47183474 11.67578125 3.40625 C13.27800537 4.14536621 13.27800537 4.14536621 14.91259766 4.89941406 C16.03456543 5.42760742 17.1565332 5.95580078 18.3125 6.5 C19.46282715 7.03592773 20.6131543 7.57185547 21.79833984 8.12402344 C31.02693089 12.45915311 40.07298453 17.07646501 49 22 C46.28229578 25.26901351 42.69969001 26.81881971 38.9453125 28.6171875 C38.24791962 28.95622101 37.55052673 29.29525452 36.83200073 29.64456177 C35.35236317 30.36195119 33.87121073 31.07622331 32.38867188 31.78759766 C30.16373042 32.85639503 27.94489328 33.93709274 25.7265625 35.01953125 C24.27900008 35.71948308 22.83109298 36.41872263 21.3828125 37.1171875 C20.73748566 37.43195038 20.09215881 37.74671326 19.42727661 38.0710144 C13.04801381 41.11600174 6.67107224 43.43420299 0 46 C0 30.82 0 15.64 0 0 Z " fill="#131D3F" transform="translate(17,16)" />
</svg>