<?xml version="1.0" encoding="UTF-8"?>
<svg version="1.1" xmlns="http://www.w3.org/2000/svg" width="200" height="200" viewBox="0 0 200 200">
    <path d="M0 0 C0.66 0.33 1.32 0.66 2 1 C-0.64 3.64 -3.28 6.28 -6 9 C-6 6 -6 6 -4.6875 4.39453125 C-4.130625 3.87246094 -3.57375 3.35039063 -3 2.8125 C-2.443125 2.28269531 -1.88625 1.75289062 -1.3125 1.20703125 C-0.6628125 0.60955078 -0.6628125 0.60955078 0 0 Z M-15 11 C-14.67 11.66 -14.34 12.32 -14 13 C-12.35 12.34 -10.7 11.68 -9 11 C-10.3125 13 -10.3125 13 -12 15 C-12.99 15 -13.98 15 -15 15 C-15.33 15.66 -15.66 16.32 -16 17 C-15.67 15.02 -15.34 13.04 -15 11 Z " fill="#E3B8B8" transform="translate(17,16)" />
</svg>