<?xml version="1.0" encoding="UTF-8"?>
<svg version="1.1" xmlns="http://www.w3.org/2000/svg" width="200" height="200" viewBox="0 0 200 200">
    <path d="M0 0 C54.12 0 108.24 0 164 0 C164 55.11 164 110.22 164 167 C136.775 167.0309375 136.775 167.0309375 109 167.0625 C100.57146484 167.07615601 100.57146484 167.07615601 91.97265625 167.09008789 C84.82617188 167.09460449 84.82617188 167.09460449 81.42553711 167.09544373 C79.17097778 167.09692699 76.91641894 167.10032521 74.66186523 167.10557556 C49.75758666 167.16039727 24.91204432 166.51900092 0 166 C0 111.22 0 56.44 0 0 Z " fill="#07787D" transform="translate(17,16)" />
    <path d="M0 0 C21.78 0 43.56 0 66 0 C66 17.16 66 34.32 66 52 C29.89090909 52 29.89090909 52 16 40 C14.81470703 38.99646484 14.81470703 38.99646484 13.60546875 37.97265625 C6.89566872 31.81922438 2.86904878 24.60714634 0 16 C0 10.72 0 5.44 0 0 Z " fill="#B4D8DA" transform="translate(31,74)" />
</svg>