<?xml version="1.0" encoding="UTF-8"?>
<svg version="1.1" xmlns="http://www.w3.org/2000/svg" width="200" height="200" viewBox="0 0 200 200">
    <path d="M0 0 C1.01037827 0.00222061 2.02075653 0.00444122 3.06175232 0.00672913 C4.77341331 0.00684242 4.77341331 0.00684242 6.51965332 0.00695801 C7.76129745 0.01211929 9.00294159 0.01728058 10.2822113 0.02259827 C12.17785072 0.02472069 12.17785072 0.02472069 14.11178589 0.02688599 C17.47705394 0.0315487 20.84225495 0.04053972 24.20750427 0.05158997 C27.63930175 0.06180606 31.07110614 0.06638403 34.50291443 0.07142639 C41.2405633 0.08248071 47.9781803 0.09923742 54.71580505 0.12025452 C53.3869131 2.85358989 52.05916594 5.09317387 50.0712738 7.39759827 C49.55887146 7.99378967 49.04646912 8.58998108 48.51853943 9.20423889 C47.71899841 10.12172913 47.71899841 10.12172913 46.90330505 11.05775452 C46.38187927 11.66554749 45.86045349 12.27334045 45.32322693 12.89955139 C36.37419802 23.25629272 36.37419802 23.25629272 29.65330505 25.93275452 C28.63107849 26.35169983 27.60885193 26.77064514 26.5556488 27.20228577 C23.71580505 28.12025452 23.71580505 28.12025452 19.71580505 28.12025452 C19.71580505 28.78025452 19.71580505 29.44025452 19.71580505 30.12025452 C20.58076599 30.2375592 21.44572693 30.35486389 22.3368988 30.47572327 C25.73276594 31.12348983 28.59199188 32.10478141 31.77830505 33.43275452 C32.77990662 33.84138733 33.78150818 34.25002014 34.8134613 34.67103577 C39.93101967 37.2263711 43.30768157 40.57608987 46.71580505 45.12025452 C44.71580505 49.12025452 44.71580505 49.12025452 35.71580505 58.12025452 C49.57580505 58.61525452 49.57580505 58.61525452 63.71580505 59.12025452 C63.71580505 59.45025452 63.71580505 59.78025452 63.71580505 60.12025452 C9.26580505 60.12025452 -45.18419495 60.12025452 -101.28419495 60.12025452 C-101.28419495 59.79025452 -101.28419495 59.46025452 -101.28419495 59.12025452 C-73.56419495 59.12025452 -45.84419495 59.12025452 -17.28419495 59.12025452 C-17.28419495 48.89025452 -17.28419495 38.66025452 -17.28419495 28.12025452 C-14.27696704 22.10579871 -11.22561179 16.13275057 -8.09669495 10.18275452 C-7.6461676 9.32101624 -7.19564026 8.45927795 -6.73146057 7.57142639 C-6.08660706 6.34456116 -6.08660706 6.34456116 -5.4287262 5.09291077 C-5.04047668 4.35306946 -4.65222717 3.61322815 -4.25221252 2.85096741 C-2.73824774 0.14415874 -2.73824774 0.14415874 0 0 Z " fill="#921C15" transform="translate(17,16)" />
</svg>