<?xml version="1.0" encoding="UTF-8"?>
<svg version="1.1" xmlns="http://www.w3.org/2000/svg" width="200" height="200" viewBox="0 0 200 200">
    <path d="M0 0 C0.95068359 -0.01095703 1.90136719 -0.02191406 2.88085938 -0.03320312 C10.00239931 0.04041721 15.64024076 1.36126167 20.9375 6.31640625 C24.95644758 12.77742267 24.0625 14.88295578 24.0625 23.5625 C16.4725 23.5625 8.8825 23.5625 1.0625 23.5625 C1.0625 39.0725 1.0625 54.5825 1.0625 70.5625 C-17.0875 70.5625 -35.2375 70.5625 -53.9375 70.5625 C-53.9375 55.0525 -53.9375 39.5425 -53.9375 23.5625 C-43.3775 23.5625 -32.8175 23.5625 -21.9375 23.5625 C-21.9375 19.9325 -21.9375 16.3025 -21.9375 12.5625 C-17.64524453 1.91770643 -10.54426756 -0.2634287 0 0 Z " fill="#73CE7D" transform="translate(17,16)" />
</svg>