<?xml version="1.0" encoding="UTF-8"?>
<svg version="1.1" xmlns="http://www.w3.org/2000/svg" width="1254" height="1254">
<path d="M0 0 C98.67 0 197.34 0 299 0 C299.0825 34.340625 299.165 68.68125 299.25 104.0625 C299.28641602 114.8687915 299.32283203 125.67508301 299.36035156 136.80883789 C299.37841797 150.09851074 299.37841797 150.09851074 299.3817749 156.33811951 C299.38547174 160.65636065 299.40034128 164.97440113 299.42230225 169.29258728 C299.45007937 174.82918206 299.4579028 180.36549205 299.4522891 185.90215003 C299.45346004 187.91628875 299.46118792 189.93043917 299.47686052 191.94451725 C299.76447221 230.76107878 287.5291734 267.21189162 260.41015625 295.44921875 C258.0014557 297.90130758 258.0014557 297.90130758 256.171875 300.44140625 C253.22236344 303.91610063 249.81489213 306.51187778 246.1875 309.25 C245.0596106 310.10380249 245.0596106 310.10380249 243.90893555 310.97485352 C217.15700683 330.92282348 187.20134606 339.57803588 154.05395508 339.34057617 C152.32952488 339.33965376 150.60509356 339.34006342 148.88066387 339.34167194 C144.32772904 339.3423399 139.77503832 339.3251525 135.22216034 339.30384064 C130.92524072 339.28655538 126.62837579 339.28594054 122.3314209 339.28381348 C109.82508251 339.26816945 97.31878803 339.22628575 84.8125 339.1875 C56.824375 339.125625 28.83625 339.06375 0 339 C0 227.13 0 115.26 0 0 Z " fill="#2C7731" transform="translate(748,105)"/>
<path d="M0 0 C97.68 0 195.36 0 296 0 C297.44057116 191.59596411 297.44057116 191.59596411 296.67306137 221.79111671 C296.636619 223.24454567 296.60258197 224.69803751 296.57129288 226.15158653 C296.29280948 238.67259326 294.94118228 250.815102 292 263 C291.34 263 290.68 263 290 263 C289.85304688 263.59425781 289.70609375 264.18851562 289.5546875 264.80078125 C286.46970142 276.20104591 280.65439135 285.12146886 273 294 C272.29875 294.82371094 271.5975 295.64742188 270.875 296.49609375 C261.92990026 306.73503828 252.28967836 314.98671155 240.68603516 321.97705078 C239.13440054 322.91845667 237.60317978 323.89329357 236.07421875 324.87109375 C201.09265129 346.59546967 151.86361293 351.98853973 112 343 C110.62328125 342.69400879 110.62328125 342.69400879 109.21875 342.38183594 C73.89496392 334.31420261 38.88554038 316.85689494 18.375 285.75 C17.2261064 283.84755956 16.10181262 281.93008939 15 280 C14.41347656 278.97519531 13.82695312 277.95039063 13.22265625 276.89453125 C9.56757209 270.07224068 6.92830436 263.26722252 4.6875 255.875 C4.44507568 255.07650635 4.20265137 254.2780127 3.95288086 253.45532227 C-0.10978498 239.34433916 -0.27698244 225.72672368 -0.22705078 211.15722656 C-0.2264374 208.81288535 -0.22670631 206.46854377 -0.2277813 204.12420273 C-0.228231 197.8719851 -0.21667753 191.61984473 -0.20256042 185.36764526 C-0.19113218 179.49102548 -0.1906321 173.61442405 -0.18920898 167.73779297 C-0.17873328 150.57518516 -0.15081081 133.41259159 -0.125 116.25 C-0.08375 77.8875 -0.0425 39.525 0 0 Z " fill="#064497" transform="translate(210,105)"/>
<path d="M0 0 C1.24230062 -0.00092085 2.48460125 -0.0018417 3.76454735 -0.00279045 C26.32611883 -0.01578144 48.88768734 0.02861442 71.44921875 0.06640625 C71.47254544 22.34476436 71.49019679 44.62312047 71.50103092 66.9014883 C71.50619437 77.24495794 71.51323799 87.58841999 71.5246582 97.93188477 C71.53460356 106.94381737 71.54107182 115.95574449 71.54330724 124.96768242 C71.54461461 129.74251964 71.54770205 134.51734118 71.55494881 139.29217339 C71.56170668 143.78100538 71.56383619 148.26981514 71.56232643 152.75865173 C71.56260286 154.41110416 71.56460936 156.06355728 71.56842422 157.71600533 C71.57335785 159.96214156 71.57221828 162.20819246 71.56947327 164.45433044 C71.57085596 166.34446696 71.57085596 166.34446696 71.57226658 168.27278805 C71.44921875 171.06640625 71.44921875 171.06640625 70.44921875 172.06640625 C68.86426127 172.16357667 67.27845905 172.25230135 65.69140625 172.30517578 C43.70579917 173.07081846 22.34802984 177.34683155 1.44921875 184.06640625 C0.51803223 184.36530762 -0.4131543 184.66420898 -1.37255859 184.97216797 C-31.09250451 194.72064766 -59.23254654 209.79693563 -84.55078125 228.06640625 C-85.26782227 228.58380371 -85.98486328 229.10120117 -86.72363281 229.63427734 C-110.11883407 246.63277498 -132.63062338 266.30385277 -150.55078125 289.06640625 C-152.30850664 291.20241887 -154.08523705 293.32229581 -155.86328125 295.44140625 C-159.23152811 299.43829626 -159.23152811 299.43829626 -162.23919678 303.70133972 C-164.55078125 306.06640625 -164.55078125 306.06640625 -167.84112549 306.66767883 C-169.14684509 306.65657578 -170.4525647 306.64547272 -171.79785156 306.6340332 C-172.52019989 306.63476334 -173.24254822 306.63549347 -173.98678589 306.63624573 C-176.36826354 306.63276935 -178.74777149 306.59391052 -181.12890625 306.5546875 C-182.78227673 306.54535944 -184.43566105 306.53824329 -186.08905029 306.5332489 C-190.4360993 306.51417826 -194.78231003 306.46507771 -199.12902832 306.409729 C-203.56637227 306.35853746 -208.00385198 306.33573511 -212.44140625 306.31054688 C-221.1449155 306.25695828 -229.84774404 306.17164567 -238.55078125 306.06640625 C-238.57448337 277.52109106 -238.59193867 248.97577741 -238.60259342 220.43045425 C-238.60361275 217.75425465 -238.60465409 215.07805506 -238.60571289 212.40185547 C-238.6059752 211.73694028 -238.60623751 211.07202509 -238.60650777 210.38696095 C-238.61051814 200.47102467 -238.61752951 190.55509361 -238.6262207 180.63916016 C-238.67768195 120.77390465 -238.62972521 60.92344464 -237.55078125 1.06640625 C-206.48830983 0.89431913 -175.42580918 0.72797214 -144.36328125 0.56640625 C-142.6497282 0.55748344 -142.6497282 0.55748344 -140.90155792 0.54838037 C-41.17460321 0.02963576 -41.17460321 0.02963576 0 0 Z " fill="#A60E11" transform="translate(447.55078125,534.93359375)"/>
<path d="M0 0 C134.52267434 0 134.52267434 0 175 39.625 C194.47173778 59.16740135 205.41607424 83.28306292 211 110 C211.1757959 110.73984131 211.3515918 111.47968262 211.53271484 112.24194336 C212.12779962 115.75431156 212.20036829 119.22112438 212.23828125 122.7734375 C212.24812042 123.52549973 212.25795959 124.27756195 212.26809692 125.05241394 C212.70468457 167.16526873 203.29147802 205.33567752 173.41015625 236.44921875 C171.0014557 238.90130758 171.0014557 238.90130758 169.171875 241.44140625 C166.22236344 244.91610063 162.81489213 247.51187778 159.1875 250.25 C158.43557373 250.81920166 157.68364746 251.38840332 156.90893555 251.97485352 C138.12034659 265.98484181 117.51825494 274.93997043 94.375 278.8125 C93.66061768 278.9364917 92.94623535 279.0604834 92.21020508 279.18823242 C84.66101754 280.33194656 77.87945828 280 70 280 C70 254.26 70 228.52 70 202 C46.9 202 23.8 202 0 202 C0 135.34 0 68.68 0 0 Z " fill="#8BA735" transform="translate(835,164)"/>
<path d="M0 0 C0.82177734 0.44021484 1.64355469 0.88042969 2.49023438 1.33398438 C29.52485878 16.06669212 48.395726 37.93998736 57.6875 67.375 C58.25984375 69.13650391 58.25984375 69.13650391 58.84375 70.93359375 C65.04559624 90.44725996 65.25965213 113.86264772 58.6875 133.375 C58.47319336 134.03564453 58.25888672 134.69628906 58.03808594 135.37695312 C48.54479529 164.31283466 29.58234808 188.51724553 2.33984375 202.703125 C-5.94536808 206.82107532 -14.34382634 210.05435569 -23.3125 212.375 C-24.3025 212.67277344 -25.2925 212.97054687 -26.3125 213.27734375 C-53.56999958 220.52596802 -83.08951545 213.85818352 -107.22265625 200.28515625 C-134.13364883 183.64865135 -153.71748072 157.51959404 -161.01049805 126.64550781 C-167.77359668 95.76437988 -161.57976023 66.12230816 -145.3125 39.375 C-142.56331347 35.17343356 -139.50679671 31.24668648 -136.3125 27.375 C-135.56613281 26.40240234 -135.56613281 26.40240234 -134.8046875 25.41015625 C-130.41727126 19.88201178 -124.87314472 15.66595143 -119.3125 11.375 C-118.53003906 10.76527344 -117.74757813 10.15554688 -116.94140625 9.52734375 C-83.95540199 -14.89231202 -36.4223894 -19.68695567 0 0 Z " fill="#CB3424" transform="translate(1023.3125,580.625)"/>
<path d="M0 0 C0 40.92 0 81.84 0 124 C35.64 124 71.28 124 108 124 C108 135.88 108 147.76 108 160 C102.39 160.33 96.78 160.66 91 161 C73.14281341 162.94009153 56.09599859 166.50313995 39 172 C38.06881348 172.29890137 37.13762695 172.59780273 36.17822266 172.90576172 C6.45827674 182.65424141 -21.68176529 197.73052938 -47 216 C-47.71704102 216.51739746 -48.43408203 217.03479492 -49.17285156 217.56787109 C-72.56805282 234.56636873 -95.07984213 254.23744652 -113 277 C-114.75772539 279.13601262 -116.5344558 281.25588956 -118.3125 283.375 C-121.68133244 287.37337098 -121.68133244 287.37337098 -124.69415283 291.63493347 C-127 294 -127 294 -130.25238037 294.60127258 C-131.54033508 294.59016953 -132.82828979 294.57906647 -134.15527344 294.56762695 C-134.86786819 294.56835709 -135.58046295 294.56908722 -136.31465149 294.56983948 C-138.66367443 294.56636345 -141.01069975 294.52750664 -143.359375 294.48828125 C-144.99032508 294.47895305 -146.62128919 294.47183697 -148.2522583 294.46684265 C-152.54012899 294.44777302 -156.82714968 294.39867346 -161.11468506 294.34332275 C-165.49170432 294.29212895 -169.86886125 294.26932839 -174.24609375 294.24414062 C-182.83111877 294.19055384 -191.41545358 294.10524255 -200 294 C-200.25587159 285.94170631 -200.45080189 277.88513214 -200.56993389 269.82376957 C-200.62714081 266.07953135 -200.70458731 262.33808815 -200.82983398 258.59545898 C-200.95015008 254.97715197 -201.0152786 251.36151563 -201.04364967 247.74136162 C-201.06383968 246.3667845 -201.1032746 244.9923397 -201.16303062 243.61891365 C-201.61067545 232.89504148 -201.61067545 232.89504148 -197.60510254 228.18228149 C-194.83270524 225.89047327 -192.04420947 223.91056908 -189 222 C-187.7919719 221.13340409 -186.58582715 220.26416728 -185.3828125 219.390625 C-181.60152887 216.90604055 -177.80985411 214.44050034 -174 212 C-173.24493164 211.51015625 -172.48986328 211.0203125 -171.71191406 210.515625 C-132.03851414 184.85508377 -88.51102506 166.4928832 -42 158 C-42 157.34 -42 156.68 -42 156 C-43.52029885 154.50174677 -43.52029885 154.50174677 -45.5 152.9375 C-62.40373093 138.44433633 -73.00997279 118.17774772 -75 96 C-76.86078533 70.45354666 -71.03172696 49.23839911 -55 29 C-54.52046875 28.36707031 -54.0409375 27.73414063 -53.546875 27.08203125 C-41.01829304 11.34930045 -20.14509236 0 0 0 Z " fill="#F8BF2D" transform="translate(410,547)"/>
<path d="M0 0 C0 44.22 0 88.44 0 134 C-77.55 134 -155.1 134 -235 134 C-231.09545239 128.14317859 -227.42666302 122.88098821 -222.8125 117.6875 C-222.24571533 117.04288818 -221.67893066 116.39827637 -221.0949707 115.73413086 C-219.40342675 113.81660554 -217.70313751 111.90722829 -216 110 C-215.53432617 109.4750293 -215.06865234 108.95005859 -214.58886719 108.40917969 C-208.86246871 101.96857561 -202.89020712 95.79473445 -196.8125 89.6875 C-195.83253052 88.70052124 -195.83253052 88.70052124 -194.83276367 87.69360352 C-190.38584157 83.26124496 -185.77402378 79.0767744 -181 75 C-180.16855469 74.28714844 -179.33710938 73.57429687 -178.48046875 72.83984375 C-159.10864978 56.7681643 -138.31086741 42.6510925 -116 31 C-115.04432129 30.49710449 -114.08864258 29.99420898 -113.10400391 29.47607422 C-99.57790629 22.43787842 -86.02475202 16.6427014 -71.5625 11.875 C-70.8706662 11.64684601 -70.1788324 11.41869202 -69.46603394 11.18362427 C-56.73611248 7.02149244 -44.07219096 3.79029488 -30.8125 1.8125 C-29.17571289 1.54663086 -29.17571289 1.54663086 -27.50585938 1.27539062 C-18.06253749 -0.1457717 -9.83197462 0 0 0 Z " fill="#870B0D" transform="translate(518,707)"/>
<path d="M0 0 C0 53.46 0 106.92 0 162 C-46.53 162 -93.06 162 -141 162 C-141 108.87 -141 55.74 -141 1 C-133.11119731 7.76183088 -133.11119731 7.76183088 -129.84375 11.0234375 C-129.13089844 11.735 -128.41804687 12.4465625 -127.68359375 13.1796875 C-126.96300781 13.90414062 -126.24242187 14.62859375 -125.5 15.375 C-124.77941406 16.09171875 -124.05882812 16.8084375 -123.31640625 17.546875 C-119.23328132 21.63738351 -115.34503891 25.83197771 -111.57226562 30.20947266 C-109.48653395 32.58474534 -107.26418975 34.79539419 -105 37 C-102.10408064 39.81971095 -99.367864 42.70304198 -96.734375 45.765625 C-92.78898412 50.31799909 -88.54505017 54.52990708 -84.25 58.75 C-82.75284743 60.22156022 -81.25796734 61.69543684 -79.765625 63.171875 C-79.11368164 63.8122168 -78.46173828 64.45255859 -77.79003906 65.11230469 C-76.02093941 66.97791823 -74.4986495 68.91346328 -73 71 C-69.04120261 70.45133938 -67.24103729 68.6025644 -64.48046875 65.80859375 C-63.19366211 64.51405273 -63.19366211 64.51405273 -61.88085938 63.19335938 C-60.99205078 62.28392578 -60.10324219 61.37449219 -59.1875 60.4375 C-58.31029297 59.55513672 -57.43308594 58.67277344 -56.52929688 57.76367188 C-52.76660768 53.95595423 -49.06172314 50.1356284 -45.58203125 46.06640625 C-40.40073145 40.04222285 -34.62269944 34.56743184 -28.97021484 28.99072266 C-23.64108286 23.72660095 -18.39497923 18.45526997 -13.52441406 12.75585938 C-11.17301347 10.04745562 -8.66484473 7.53280915 -6.125 5 C-5.6403125 4.51144531 -5.155625 4.02289062 -4.65625 3.51953125 C-1.12686012 0 -1.12686012 0 0 0 Z " fill="#176BCB" transform="translate(830,598)"/>
<path d="M0 0 C69.96 0 139.92 0 212 0 C212 57.42 212 114.84 212 174 C211.67 174 211.34 174 211 174 C210.85304688 173.12601563 210.70609375 172.25203125 210.5546875 171.3515625 C205.40121738 143.09632975 193.06570418 118.55214549 173 98 C172.00226563 96.90945312 172.00226563 96.90945312 170.984375 95.796875 C150.34834786 73.77355191 117.42231285 61.92104448 88 60 C88 59.34 88 58.68 88 58 C58.96 58 29.92 58 0 58 C0 38.86 0 19.72 0 0 Z " fill="#245625" transform="translate(835,105)"/>
<path d="M0 0 C23.1 0 46.2 0 70 0 C70 66.66 70 133.32 70 202 C46.9 202 23.8 202 0 202 C0 135.34 0 68.68 0 0 Z " fill="#CBDAA6" transform="translate(835,164)"/>
<path d="M0 0 C1.19625 -0.00257813 2.3925 -0.00515625 3.625 -0.0078125 C9.56246009 0.22583755 9.56246009 0.22583755 12 1.125 C13.546875 3.48828125 13.546875 3.48828125 14.75 6.4375 C15.15734375 7.40300781 15.5646875 8.36851562 15.984375 9.36328125 C16.81322892 11.61712633 17.48823678 13.78312701 18 16.125 C18.66 16.125 19.32 16.125 20 16.125 C19.52721339 11.30257659 18.6547801 8.16488276 16 4.125 C16 3.465 16 2.805 16 2.125 C32.31978628 6.07333539 46.06864755 14.54211092 56.66015625 27.59375 C57.94209854 29.25381295 57.94209854 29.25381295 60 30.125 C59.67 31.775 59.34 33.425 59 35.125 C59.92619141 35.50011719 59.92619141 35.50011719 60.87109375 35.8828125 C66.06757691 38.91488891 67.29010191 46.7942306 68.75 52.25 C69.93524213 56.90270579 70 60.08074494 70 65.125 C65.05 65.455 60.1 65.785 55 66.125 C55.33 66.785 55.66 67.445 56 68.125 C59.27555608 68.59501033 59.27555608 68.59501033 63.0625 68.75 C64.35285156 68.82476563 65.64320313 68.89953125 66.97265625 68.9765625 C68.47119141 69.05003906 68.47119141 69.05003906 70 69.125 C70.14561685 79.9214491 66.37081135 88.49323818 62 98.125 C57.05 98.62 57.05 98.62 52 99.125 C52 99.455 52 99.785 52 100.125 C54.31 100.455 56.62 100.785 59 101.125 C53.56401186 113.02611967 40.69235953 122.73413994 28.765625 127.38671875 C20.73333333 130.125 20.73333333 130.125 18 130.125 C18 130.785 18 131.445 18 132.125 C13.05292745 133.41062176 8.13639649 133.30880452 3.0625 133.3125 C2.18142578 133.32474609 1.30035156 133.33699219 0.39257812 133.34960938 C-8.67755331 133.36999169 -8.67755331 133.36999169 -13 131.125 C-14.4609375 128.7421875 -14.4609375 128.7421875 -15.375 126 C-15.69210937 125.08992188 -16.00921875 124.17984375 -16.3359375 123.2421875 C-16.55507813 122.54351563 -16.77421875 121.84484375 -17 121.125 C-17.66 121.125 -18.32 121.125 -19 121.125 C-18.46228519 124.50492169 -17.85696068 127.81237889 -17 131.125 C-32.59130917 128.07037616 -45.75518257 119.0398764 -55.83203125 106.921875 C-57 105.125 -57 105.125 -57 103.125 C-57.66 103.125 -58.32 103.125 -59 103.125 C-59 102.465 -59 101.805 -59 101.125 C-51.08 100.795 -43.16 100.465 -35 100.125 C-35 99.795 -35 99.465 -35 99.125 C-43.91 98.795 -52.82 98.465 -62 98.125 C-69 81.325 -69 81.325 -69 69.125 C-56.79 68.795 -44.58 68.465 -32 68.125 C-32.33 67.465 -32.66 66.805 -33 66.125 C-51.315 65.63 -51.315 65.63 -70 65.125 C-70 57.39093487 -69.85462527 52.85782137 -67 46.125 C-66.62488281 45.2175 -66.24976563 44.31 -65.86328125 43.375 C-63.49822275 38.12263033 -63.49822275 38.12263033 -62 36.125 C-59.3359375 35.34375 -59.3359375 35.34375 -57 35.125 C-57.66 33.805 -58.32 32.485 -59 31.125 C-48.534723 16.21990851 -34.94900083 6.04114564 -17 2.125 C-16.505 3.61 -16.505 3.61 -16 5.125 C-15.34 5.455 -14.68 5.785 -14 6.125 C-13.773125 5.320625 -13.54625 4.51625 -13.3125 3.6875 C-12.879375 2.841875 -12.44625 1.99625 -12 1.125 C-8.04660478 -0.07758106 -4.10643272 -0.00885007 0 0 Z " fill="#1A0908" transform="translate(415,974.875)"/>
<path d="M0 0 C0 24.09 0 48.18 0 73 C2.31 73 4.62 73 7 73 C28.53176413 75.04629692 46.69320527 84.94625649 60.88671875 101.20703125 C66.41286667 108.51053544 71.15736937 116.45037801 71.09765625 125.765625 C71.09443359 126.65507813 71.09121094 127.54453125 71.08789062 128.4609375 C71.07951172 129.38132812 71.07113281 130.30171875 71.0625 131.25 C71.05798828 132.18585938 71.05347656 133.12171875 71.04882812 134.0859375 C71.03706918 136.39069041 71.02063426 138.69531227 71 141 C59.83717039 141.09332072 48.67443595 141.16407639 37.51129341 141.20724869 C32.32590935 141.22798549 27.1407952 141.25604395 21.95556641 141.30175781 C16.93695355 141.345718 11.91859774 141.36924118 6.89980698 141.37950897 C4.99995765 141.38681147 3.1001199 141.40106663 1.20038223 141.42292023 C-23.95533398 141.70037774 -44.07645669 136.4322441 -62.6875 118.625 C-76.58005548 104.17866847 -81.60909483 85.45407969 -81.2734375 65.7734375 C-80.524324 47.40161444 -71.6627225 30.82772855 -58.3125 18.375 C-47.1341337 9.05233087 -34.26382044 2.82662527 -19.8125 0.875 C-18.62269531 0.70742188 -17.43289063 0.53984375 -16.20703125 0.3671875 C-10.82376634 -0.10266106 -5.40373008 0 0 0 Z " fill="#AE1416" transform="translate(716,979)"/>
<path d="M0 0 C4.82992124 0.51915473 8.23369867 2.85358959 12.18359375 5.47265625 C20.13683843 10.5910525 28.3425065 15.01107209 36.77612305 19.2800293 C39.09619688 20.45455893 41.41072728 21.63949721 43.72460938 22.82617188 C45.22365555 23.591739 46.72299369 24.35673477 48.22265625 25.12109375 C48.90191666 25.46796738 49.58117706 25.814841 50.28102112 26.17222595 C54.46061104 28.28517433 58.68360647 30.1828754 63 32 C65.99482488 33.36285492 68.96540663 34.7758166 71.9375 36.1875 C72.77087891 36.58259766 73.60425781 36.97769531 74.46289062 37.38476562 C80.31478671 40.17032164 86.11921832 43.03995396 91.90405273 45.96166992 C100.19408451 50.13224979 108.60368451 54.04879271 117 58 C117 67.57 117 77.14 117 87 C108.42 87.33 99.84 87.66 91 88 C95.2075 91.0628125 95.2075 91.0628125 99.5 94.1875 C100.36689453 94.82067139 101.23378906 95.45384277 102.12695312 96.10620117 C102.83787109 96.62158447 103.54878906 97.13696777 104.28125 97.66796875 C105.06564453 98.23990967 105.85003906 98.81185059 106.65820312 99.40112305 C108.87711819 100.91610165 111.13130522 102.14555317 113.5 103.40625 C115.65349661 104.73976551 116.77106012 105.52809703 117.88085938 107.81567383 C118.38532455 110.04718724 118.51809676 112.02497155 118.5 114.3125 C118.49790527 115.09705566 118.49581055 115.88161133 118.49365234 116.68994141 C117.79338584 125.69931324 111.92216367 130.99115542 105.4765625 136.7421875 C101.00984833 140.27378776 96.37095675 142.21804706 91 144 C90.20851563 144.26941406 89.41703125 144.53882813 88.6015625 144.81640625 C85.52755916 145.84278466 82.4406996 146.82527674 79.34960938 147.79882812 C75.19644845 149.14281239 71.71318578 150.6522634 68 153 C67.34 153 66.68 153 66 153 C68.66928401 157.27367956 68.66928401 157.27367956 72.25 160.75 C75.09547561 164.40846864 74.30700798 168.53132827 74 173 C73.34 173 72.68 173 72 173 C71.86464844 172.40574219 71.72929687 171.81148437 71.58984375 171.19921875 C66.15593373 150.27703826 46.60531432 135.27390329 30.9296875 121.6796875 C23.67717303 115.36677005 16.5974022 108.85703774 9.63452148 102.2265625 C6.7027471 99.44716101 3.78380765 96.77243233 0.55859375 94.3359375 C-6.60286261 88.72018501 -6.60286261 88.72018501 -7.6953125 83.98828125 C-7.50401078 75.17777428 -3.29368266 64.29368266 3 58 C6.23329291 58.35892902 8.27978923 59.73351888 10.84375 61.65234375 C22.52116025 69.96675105 31.68247996 72.93965218 46 73 C45.69320312 72.4328125 45.38640625 71.865625 45.0703125 71.28125 C44.00194485 69.00414523 43.40432027 66.95335745 42.875 64.5 C42.62363281 63.37078125 42.62363281 63.37078125 42.3671875 62.21875 C42 60 42 60 42 56 C40.2828479 56.05498657 40.2828479 56.05498657 38.53100586 56.11108398 C34.26170541 56.23830362 29.9925704 56.31833043 25.72192383 56.38452148 C23.87788673 56.4196075 22.03404277 56.46729136 20.19067383 56.52807617 C17.53157859 56.61352914 14.87506694 56.65280344 12.21484375 56.68359375 C11.39789536 56.71972275 10.58094696 56.75585175 9.73924255 56.79307556 C4.93395085 56.79633162 2.5172655 56.04834155 -0.96704102 52.64379883 C-3.57316447 49.73919993 -5.3874693 46.88162667 -6.875 43.25 C-7.26429688 42.32703125 -7.65359375 41.4040625 -8.0546875 40.453125 C-11.18680964 32.32513861 -11.51024027 21.81039349 -8.375 13.5625 C-6.09384923 8.72941437 -3.13058342 4.32020512 0 0 Z " fill="#F6C12E" transform="translate(285,108)"/>
<path d="M0 0 C0 0.66 0 1.32 0 2 C2.97 2.495 2.97 2.495 6 3 C6 48.87 6 94.74 6 142 C-17.68544015 142 -38.9314454 137.20657806 -56.6796875 120.45703125 C-62.4728579 114.32251243 -71 104.8949013 -71 96 C-71.66 96 -72.32 96 -73 96 C-73.48173829 93.33377553 -73.96044625 90.66706329 -74.4375 88 C-74.57220703 87.25621094 -74.70691406 86.51242187 -74.84570312 85.74609375 C-76.07692749 78.83922538 -77.15050359 72.04028718 -77.0625 65 C-77.05347656 64.05125 -77.04445313 63.1025 -77.03515625 62.125 C-77.02355469 61.42375 -77.01195312 60.7225 -77 60 C-76.34 60 -75.68 60 -75 60 C-75.0515625 59.00484375 -75.103125 58.0096875 -75.15625 56.984375 C-74.98813948 52.69755685 -74.02825416 49.20553804 -72.5 45.25 C-72.23155273 44.55116699 -71.96310547 43.85233398 -71.68652344 43.13232422 C-64.47011951 25.27192973 -49.23981549 12.73201177 -32 5 C-29.16074357 3.9370109 -26.29523579 3.06174498 -23.375 2.25 C-22.60172363 2.0331958 -21.82844727 1.8163916 -21.03173828 1.59301758 C-13.92972527 -0.26168078 -7.3380266 -0.53088617 0 0 Z " fill="#C0281F" transform="translate(615,979)"/>
<path d="M0 0 C0 46.86 0 93.72 0 142 C-23.92410508 142 -44.9425127 136.07605441 -62.72265625 119.36328125 C-78.12474908 103.37997737 -81.68075548 84.19777689 -81.30859375 62.76953125 C-81.04297532 55.92407049 -79.88115107 50.27374908 -77 44 C-76.25363281 42.3603125 -76.25363281 42.3603125 -75.4921875 40.6875 C-71.69452878 33.0568555 -67.0540326 26.96936082 -61 21 C-60.38640625 20.37609375 -59.7728125 19.7521875 -59.140625 19.109375 C-42.63156049 3.44692918 -22.00195407 0 0 0 Z " fill="#D02922" transform="translate(939,979)"/>
<path d="M0 0 C1.10189477 0.94092205 2.20327436 1.88244743 3.30444336 2.82421875 C3.91783066 3.34846436 4.53121796 3.87270996 5.16319275 4.4128418 C18.24380597 15.71560781 30.28358054 28.20323673 42.43969727 40.4765625 C43.07492813 41.11605835 43.710159 41.7555542 44.36463928 42.41442871 C45.5548393 43.61278796 46.74296287 44.81321515 47.92845154 46.01623535 C50.7868384 48.89158757 53.70011784 51.63665048 56.77734375 54.27734375 C61.88288649 58.69440948 66.59379581 63.48835507 71.34375 68.28125 C72.32176419 69.26368378 73.30008251 70.24581488 74.27868652 71.22766113 C77.87498984 74.83719318 81.46576596 78.45220706 85.05670166 82.06707764 C88.10355579 85.1338075 91.15255126 88.19837914 94.20429993 91.26023865 C95.61758629 92.67991157 97.02777111 94.10266999 98.43786621 95.5255127 C102.95282397 100.05752451 107.51363759 104.45233552 112.38705444 108.59864807 C117.23571691 112.81124066 121.27356273 117.91805928 125 123.125 C127.65489655 126.76911828 130.70724139 129.58333062 134.16796875 132.45703125 C134.77253906 132.96621094 135.37710938 133.47539062 136 134 C136.5878125 134.45890625 137.175625 134.9178125 137.78125 135.390625 C139 137 139 137 138.92578125 139.27734375 C138.72339844 140.15519531 138.52101563 141.03304687 138.3125 141.9375 C138.10367188 142.9171875 137.89484375 143.896875 137.6796875 144.90625 C137.45539063 145.9271875 137.23109375 146.948125 137 148 C136.63072463 149.97640341 136.27649579 151.95567847 135.9375 153.9375 C135.70353516 155.25041016 135.70353516 155.25041016 135.46484375 156.58984375 C133.87805478 168.230741 133.53313477 180.02597716 132.9375 191.75 C132.84587577 193.52605058 132.75408016 195.30209233 132.66210938 197.078125 C132.43943238 201.38531749 132.21906784 205.6926225 132 210 C130.21279413 207.31919119 128.66994159 204.58732701 127.13354492 201.7590332 C114.82507132 179.26551639 97.32150321 162.15051831 79.30810547 144.17773438 C76.7476383 141.62300197 74.19174211 139.06375065 71.63711929 136.50317574 C69.63989953 134.50231866 67.6402751 132.50387834 65.63994598 130.50613022 C64.24513295 129.11229112 62.85230202 127.7164694 61.45953369 126.32058716 C57.09054005 121.96757751 52.65975295 117.78060629 47.98361206 113.76123047 C44.13479296 110.34390023 40.55264862 106.65317228 36.93359375 102.99609375 C36.09586929 102.15458267 35.25814484 101.31307159 34.39503479 100.44606018 C31.74006742 97.77896861 29.08837781 95.10865591 26.4375 92.4375 C22.93913566 88.91242816 19.43739994 85.3907557 15.93359375 81.87109375 C15.14174179 81.07094345 14.34988983 80.27079315 13.53404236 79.44639587 C12.77958328 78.68863358 12.02512421 77.93087128 11.24780273 77.15014648 C10.1757383 76.05742432 10.1757383 76.05742432 9.08201599 74.94262695 C7.09593096 72.97504259 7.09593096 72.97504259 4.91322327 71.65209961 C2.73491225 70.23602254 1.43334527 69.18015071 0 67 C-0.96853786 61.91391924 -0.81584066 56.90498503 -0.68359375 51.7578125 C-0.6705255 50.26425503 -0.66056712 48.77066739 -0.65357971 47.27706909 C-0.62694889 43.36031128 -0.55827524 39.44539273 -0.48065186 35.52935791 C-0.40883157 31.52763753 -0.37702851 27.52561766 -0.34179688 23.5234375 C-0.2668944 15.68145089 -0.14754665 7.84095471 0 0 Z " fill="#F7C22E" transform="translate(210,181)"/>
<path d="M0 0 C3.33939805 -0.00221756 6.67848109 -0.02051751 10.01782227 -0.03930664 C12.13956593 -0.04223556 14.26131116 -0.0442237 16.38305664 -0.04516602 C17.38189377 -0.05235153 18.3807309 -0.05953705 19.40983582 -0.06694031 C20.78816338 -0.06232536 20.78816338 -0.06232536 22.19433594 -0.05761719 C23.0033989 -0.05904221 23.81246185 -0.06046722 24.64604187 -0.06193542 C26.62133789 0.18530273 26.62133789 0.18530273 28.62133789 2.18530273 C27.5655957 2.29487305 26.50985352 2.40444336 25.42211914 2.51733398 C21.36934235 2.94587253 17.32060493 3.40540573 13.27270508 3.87768555 C11.55256484 4.07725983 9.83187839 4.27220162 8.1105957 4.46166992 C-38.5444591 9.69452731 -83.60351407 30.92700588 -121.37866211 58.18530273 C-122.09570312 58.7027002 -122.81274414 59.22009766 -123.55151367 59.75317383 C-146.94671493 76.75167147 -169.45850423 96.42274926 -187.37866211 119.18530273 C-189.1363875 121.32131535 -190.91311791 123.44119229 -192.69116211 125.56030273 C-196.05999455 129.55867371 -196.05999455 129.55867371 -199.07281494 133.82023621 C-201.37866211 136.18530273 -201.37866211 136.18530273 -204.63104248 136.78657532 C-205.91899719 136.77547226 -207.2069519 136.7643692 -208.53393555 136.75292969 C-209.2465303 136.75365982 -209.95912506 136.75438995 -210.6933136 136.75514221 C-213.04233654 136.75166618 -215.38936186 136.71280938 -217.73803711 136.67358398 C-219.36898719 136.66425579 -220.9999513 136.6571397 -222.63092041 136.65214539 C-226.9187911 136.63307576 -231.20581179 136.58397619 -235.49334717 136.52862549 C-239.87036643 136.47743169 -244.24752336 136.45463112 -248.62475586 136.42944336 C-257.20978088 136.37585657 -265.79411569 136.29054528 -274.37866211 136.18530273 C-268.18909422 127.7748618 -268.18909422 127.7748618 -264.57397461 123.96655273 C-263.9075293 123.26143555 -263.24108398 122.55631836 -262.55444336 121.82983398 C-261.87768555 121.12213867 -261.20092773 120.41444336 -260.50366211 119.68530273 C-259.83463867 118.97760742 -259.16561523 118.26991211 -258.47631836 117.54077148 C-252.07130596 110.79020928 -245.61937772 104.1472373 -238.55444336 98.08374023 C-236.07214013 95.91785268 -233.66811066 93.67653316 -231.25366211 91.43530273 C-224.89849402 85.65471148 -218.21397168 80.38380127 -211.37866211 75.18530273 C-210.67209473 74.64357422 -209.96552734 74.1018457 -209.23754883 73.54370117 C-181.34196245 52.22789417 -149.48704298 33.17387656 -116.37866211 21.18530273 C-115.54818359 20.88027832 -114.71770508 20.57525391 -113.86206055 20.26098633 C-94.11430151 13.04640603 -74.59933136 7.27408285 -53.73510742 4.52075195 C-48.68187285 3.80140422 -43.67503871 2.79763577 -38.66381836 1.83374023 C-25.88395166 -0.25973823 -12.90885638 -0.00096342 0 0 Z " fill="#EFE6DA" transform="translate(484.378662109375,704.814697265625)"/>
<path d="M0 0 C0 53.46 0 106.92 0 162 C-46.53 162 -93.06 162 -141 162 C-141 108.87 -141 55.74 -141 1 C-133.11119731 7.76183088 -133.11119731 7.76183088 -129.84375 11.0234375 C-129.13089844 11.735 -128.41804687 12.4465625 -127.68359375 13.1796875 C-126.96300781 13.90414062 -126.24242187 14.62859375 -125.5 15.375 C-124.77941406 16.09171875 -124.05882812 16.8084375 -123.31640625 17.546875 C-119.23328132 21.63738351 -115.34503891 25.83197771 -111.57226562 30.20947266 C-109.48653395 32.58474534 -107.26418975 34.79539419 -105 37 C-102.10312247 39.82064391 -99.36739621 42.70484864 -96.734375 45.76953125 C-92.10562473 51.11165067 -87.03072373 55.98520694 -81.96484375 60.90820312 C-81.23910156 61.62298828 -80.51335938 62.33777344 -79.765625 63.07421875 C-79.11368164 63.70932373 -78.46173828 64.34442871 -77.79003906 64.9987793 C-75.83719854 67.18200813 -74.4302335 69.4501532 -73 72 C-74 73 -74 73 -76.62586975 73.12025452 C-77.79613205 73.11803391 -78.96639435 73.11581329 -80.17211914 73.11352539 C-80.82644393 73.11364593 -81.48076872 73.11376646 -82.15492153 73.11389065 C-84.28170052 73.11314179 -86.40839285 73.10551481 -88.53515625 73.09765625 C-90.47980774 73.09614563 -90.47980774 73.09614563 -92.46374512 73.09460449 C-97.33000568 73.08935257 -102.19625368 73.07539147 -107.0625 73.0625 C-117.931875 73.041875 -128.80125 73.02125 -140 73 C-140 102.04 -140 131.08 -140 161 C-71.69 160.505 -71.69 160.505 -2 160 C-5.96 155.05 -9.92 150.1 -14 145 C-15.381875 143.2675 -16.76375 141.535 -18.1875 139.75 C-23.49378209 133.11986021 -28.88180276 126.55703226 -34.296875 120.015625 C-40.24119302 112.82890428 -46.141197 105.61990738 -51.86865234 98.25878906 C-56.04529082 92.90270118 -60.34235768 87.64705754 -64.67407227 82.41577148 C-67.41784203 79.07351561 -69.89914393 75.80050698 -72 72 C-70.989375 71.154375 -69.97875 70.30875 -68.9375 69.4375 C-64.60305112 65.64485723 -60.51433104 61.62724707 -56.4375 57.5625 C-55.81286865 56.94238037 -55.1882373 56.32226074 -54.54467773 55.68334961 C-51.49714858 52.62622571 -48.55904294 49.52759029 -45.75390625 46.24609375 C-40.50405972 40.16883778 -34.68318147 34.62710307 -28.97021484 28.99072266 C-23.64108286 23.72660095 -18.39497923 18.45526997 -13.52441406 12.75585938 C-11.17301347 10.04745562 -8.66484473 7.53280915 -6.125 5 C-5.6403125 4.51144531 -5.155625 4.02289062 -4.65625 3.51953125 C-1.12686012 0 -1.12686012 0 0 0 Z " fill="#0B56B1" transform="translate(830,598)"/>
<path d="M0 0 C5.9714013 5.9714013 6.52366626 17.01269423 6.65820312 25.03271484 C6.64176758 26.749021 6.64176758 26.749021 6.625 28.5 C6.61662109 29.71252441 6.60824219 30.92504883 6.59960938 32.17431641 C6.04147096 54.72251472 -2.50831534 73.75031242 -18 90 C-34.25455957 105.396233 -56.2927765 114.35447332 -78.484375 114.22705078 C-79.83529146 114.22648578 -81.18620853 114.22680496 -82.53712463 114.22793579 C-86.18328342 114.22850684 -89.82930915 114.21679298 -93.47543716 114.20278788 C-97.29375779 114.19023892 -101.11208186 114.18910675 -104.93041992 114.18673706 C-112.15149847 114.18053449 -119.37251607 114.16414031 -126.59356785 114.14403808 C-134.8184976 114.12164092 -143.04343034 114.11067607 -151.26838303 114.10064721 C-168.1789572 114.07977293 -185.08947215 114.04462086 -202 114 C-201.06684879 112.90062509 -200.13212916 111.80258136 -199.19677734 110.70507812 C-198.67642914 110.09345825 -198.15608093 109.48183838 -197.6199646 108.85168457 C-195.07679756 105.94474255 -192.36657224 103.21862335 -189.625 100.5 C-189.05120605 99.92813965 -188.47741211 99.3562793 -187.88623047 98.76708984 C-184.49910295 95.41437852 -181.06539076 92.1933461 -177.35629272 89.19541931 C-175.36379543 87.33895768 -173.74691453 85.51757892 -172.03359985 83.41651917 C-166.55723494 76.94538662 -161.65697547 71.37679876 -152.88333702 70.40528774 C-148.43506238 70.21999231 -144.03207465 70.34473062 -139.5859375 70.52734375 C-137.63992772 70.54819814 -135.69382318 70.56143229 -133.74771118 70.56752014 C-128.65372135 70.5995491 -123.56553291 70.71567622 -118.47351074 70.85620117 C-110.35180645 71.06929872 -102.22872193 71.16524926 -94.10472488 71.23736763 C-91.30684313 71.27601887 -88.51306643 71.35843573 -85.71640015 71.44749451 C-63.51292168 71.93801418 -42.51967737 65.22347564 -26 50 C-13.39187132 37.53726984 -6.05210828 23.20843312 -1.796875 6.1875 C-1 3 -1 3 0 0 Z " fill="#EA5150" transform="translate(496,1042)"/>
<path d="M0 0 C1.18193436 -0.00043808 2.36386871 -0.00087616 3.58161926 -0.00132751 C7.44488698 0.00074385 11.30770758 0.02399696 15.17089844 0.04760742 C17.86659501 0.05488886 20.56229118 0.05762436 23.25799561 0.06047058 C29.60067124 0.06974554 35.94318927 0.09429669 42.28579593 0.12451905 C49.51445121 0.15820594 56.74311454 0.17458475 63.97182894 0.18960536 C78.82472855 0.22085111 93.67749053 0.27352167 108.53027344 0.34057617 C107.5877614 1.44885785 106.64399214 2.55607042 105.69970703 3.6628418 C105.17428314 4.27953735 104.64885925 4.89623291 104.10751343 5.53161621 C99.09560205 11.27985178 93.53012943 16.7156985 87.71777344 21.65307617 C83.05836662 25.61647201 78.81865732 30.00120538 74.54077148 34.3671875 C73.67899292 35.24153442 73.67899292 35.24153442 72.79980469 36.13354492 C72.2903833 36.65456787 71.78096191 37.17559082 71.25610352 37.71240234 C66.8000027 41.91635429 64.31858491 43.83898514 58.01855469 43.85473633 C56.71950195 43.86799957 55.42044922 43.88126282 54.08203125 43.89492798 C52.66894489 43.8899504 51.25585895 43.88485081 49.84277344 43.87963867 C48.37889139 43.88955854 46.91502182 43.90150467 45.45117188 43.91537476 C41.59607663 43.94772306 37.74126493 43.95812379 33.88604736 43.96221924 C27.7456169 43.97096924 21.60542002 44.00705142 15.46517944 44.05439377 C13.34005624 44.06678995 11.21523919 44.06623619 9.09008789 44.06411743 C-13.79397649 44.13012038 -33.13562596 50.0303399 -50.09472656 65.77807617 C-50.87847656 66.62370117 -51.66222656 67.46932617 -52.46972656 68.34057617 C-53.24896484 69.12948242 -53.24896484 69.12948242 -54.04394531 69.93432617 C-66.88067873 83.54991758 -72.75143755 101.02925743 -74.46972656 119.34057617 C-75.12972656 119.34057617 -75.78972656 119.34057617 -76.46972656 119.34057617 C-77.45314271 116.61287451 -78.43157709 113.88355512 -79.40722656 111.15307617 C-79.68501953 110.38415039 -79.9628125 109.61522461 -80.24902344 108.82299805 C-80.51650391 108.07211914 -80.78398437 107.32124023 -81.05957031 106.54760742 C-81.42876587 105.518573 -81.42876587 105.518573 -81.80541992 104.46875 C-87.289891 86.89868957 -84.00725187 64.25318672 -76.21972656 47.84057617 C-64.19913763 25.93413291 -46.04033736 9.85016534 -21.91766739 2.57041454 C-14.48361438 0.54925619 -7.68150872 -0.0761295 0 0 Z " fill="#D32922" transform="translate(411.4697265625,924.659423828125)"/>
<path d="M0 0 C15.12831262 0 15.12831262 0 21.5625 1.6875 C22.27865479 1.86829102 22.99480957 2.04908203 23.73266602 2.23535156 C34.82474283 5.15020286 43.43460812 9.28666281 52 17 C52.62519531 17.52078125 53.25039063 18.0415625 53.89453125 18.578125 C62.26557176 26.06104157 69.14804546 38.66091783 70.29736328 49.91064453 C70.43866698 53.15556502 70.46778718 56.3771737 70.4375 59.625 C70.42847656 60.7785498 70.41945313 61.93209961 70.41015625 63.12060547 C70.01357099 82.71026488 62.41768405 99.94133611 50 115 C49.48308594 115.63035156 48.96617187 116.26070313 48.43359375 116.91015625 C37.92317862 128.47424709 22.18275232 135.56189379 7 138 C4.69 138 2.38 138 0 138 C0 92.46 0 46.92 0 0 Z " fill="#255626" transform="translate(905,228)"/>
<path d="M0 0 C2.68696094 3.35870117 4.79228051 6.19919926 6.9375 9.8125 C11.93184061 17.75222097 17.9852411 24.82542869 24 32 C24.49661133 32.5971582 24.99322266 33.19431641 25.50488281 33.80957031 C44.97783687 57.19031718 65.91338408 78.14245657 92 94 C92.61617188 94.37463379 93.23234375 94.74926758 93.8671875 95.13525391 C100.09649193 98.88802211 105.90896161 102.21603459 113 104 C113 104.33 113 104.66 113 105 C111.94039062 105.29390625 111.94039062 105.29390625 110.859375 105.59375 C71.91107408 116.9455161 34.26691143 138.45776711 2.70385742 163.72143555 C1 165 1 165 0 165 C0 110.55 0 56.1 0 0 Z " fill="#CD2621" transform="translate(210,613)"/>
<path d="M0 0 C41.91 0 83.82 0 127 0 C121.70835386 13.22911536 112.67342804 24.2484228 103.11328125 34.640625 C100.98118454 36.94737522 100.98118454 36.94737522 99.21875 39.40625 C96.2428695 42.88509622 92.83136061 45.49944662 89.1875 48.25 C88.43557373 48.81920166 87.68364746 49.38840332 86.90893555 49.97485352 C68.12034659 63.98484181 47.51825494 72.93997043 24.375 76.8125 C23.30342651 76.99848755 23.30342651 76.99848755 22.21020508 77.18823242 C14.66101754 78.33194656 7.87945828 78 0 78 C0 52.26 0 26.52 0 0 Z " fill="#CBDAA8" transform="translate(905,366)"/>
<path d="M0 0 C4.19522009 1.8598332 6.11621492 4.58975445 8.625 8.3125 C9.51360832 9.59384882 10.40428335 10.87376653 11.296875 12.15234375 C11.97266602 13.12276611 11.97266602 13.12276611 12.66210938 14.11279297 C15.03912701 17.46577587 17.56980604 20.69408428 20.09033203 23.94018555 C23.60245123 28.47042006 27.06019692 33.0396298 30.5 37.625 C31.27512939 38.65633057 31.27512939 38.65633057 32.06591797 39.70849609 C32.54947754 40.35383301 33.03303711 40.99916992 33.53125 41.6640625 C34.17416992 42.52185303 34.17416992 42.52185303 34.83007812 43.39697266 C37.28639047 46.76261265 38.24920315 48.52361211 38.22705078 52.6550293 C38.22682419 54.06615242 38.22682419 54.06615242 38.22659302 55.50578308 C38.21627045 56.51836685 38.20594788 57.53095062 38.1953125 58.57421875 C38.1924826 59.61318802 38.18965271 60.65215729 38.18673706 61.72261047 C38.17553282 65.04435697 38.15042764 68.36583485 38.125 71.6875 C38.11497052 73.93814715 38.10584462 76.18879852 38.09765625 78.43945312 C38.0755927 83.95972722 38.04211271 89.47984442 38 95 C30.44391604 87.46648312 23.55942787 79.56761575 17.04125977 71.13012695 C13.67331918 66.79019429 10.12340009 62.68065901 6.36328125 58.671875 C5 57 5 57 5 55 C1.40538188 58.51072219 -1.95201894 62.15360749 -5.1875 66 C-5.6609082 66.56106445 -6.13431641 67.12212891 -6.62207031 67.70019531 C-12.35920525 74.55192999 -17.75318427 81.66489973 -23.109375 88.81640625 C-23.73328125 89.64011719 -24.3571875 90.46382812 -25 91.3125 C-25.53625 92.03050781 -26.0725 92.74851562 -26.625 93.48828125 C-27.305625 94.23658203 -27.305625 94.23658203 -28 95 C-28.66 95 -29.32 95 -30 95 C-31.35382149 93.51261765 -32.63139886 91.95569449 -33.875 90.375 C-37.50130261 85.8392067 -41.20314141 81.39381853 -45 77 C-48.74106971 72.6516911 -52.46317782 68.29038044 -56.125 63.875 C-56.82882812 63.02679687 -57.53265625 62.17859375 -58.2578125 61.3046875 C-59.80720104 59.25504795 -60.9549366 57.33792533 -62 55 C-65.5707206 58.43823803 -68.63142133 61.96775437 -71.625 65.9375 C-72.49675493 67.08512254 -73.36917545 68.23223973 -74.2421875 69.37890625 C-74.69174805 69.97074707 -75.14130859 70.56258789 -75.60449219 71.17236328 C-87.81502838 87.16397874 -87.81502838 87.16397874 -94 94 C-94.33 94 -94.66 94 -95 94 C-95.14539828 89.6991499 -95.28764506 85.39820923 -95.42724609 81.09716797 C-95.47492895 79.64076069 -95.52340289 78.18437905 -95.57275391 76.72802734 C-95.71572187 72.50026032 -95.83853485 68.27262751 -95.94168091 64.04370117 C-95.99846238 62.05388345 -96.08367758 60.06494101 -96.16967773 58.07617188 C-96.37295135 51.13260342 -96.2919898 46.35475831 -92.0625 40.75 C-91.15282011 39.42634835 -90.24403852 38.10207909 -89.3359375 36.77734375 C-88.81741211 36.04370605 -88.29888672 35.31006836 -87.76464844 34.55419922 C-85.6819846 31.53969603 -83.70025082 28.46516824 -81.7265625 25.37890625 C-80.59166393 23.611 -79.45613885 21.84349738 -78.32052612 20.0760498 C-77.57097652 18.9093794 -76.82204479 17.74231177 -76.07376099 16.5748291 C-75.00750797 14.9167746 -73.93161524 13.26493162 -72.85546875 11.61328125 C-72.23309326 10.65204346 -71.61071777 9.69080566 -70.96948242 8.70043945 C-68.87756995 5.83213106 -66.5687292 3.44380451 -64 1 C-58.14619749 7.24147155 -53.27704334 14.10212014 -48.36328125 21.07958984 C-46.02720808 24.37034048 -43.63974682 27.62311641 -41.25 30.875 C-40.78779053 31.50422363 -40.32558105 32.13344727 -39.84936523 32.78173828 C-36.59283361 37.20798928 -33.31141754 41.6146092 -30 46 C-26.12550904 41.47511487 -23.14619392 36.51169212 -20.0625 31.4375 C-13.56380908 20.83299254 -6.82796495 10.39478711 0 0 Z " fill="#EEE3D8" transform="translate(1001,623)"/>
<path d="M0 0 C0.33 0 0.66 0 1 0 C1 66.66 1 133.32 1 202 C24.1 202 47.2 202 71 202 C71 227.74 71 253.48 71 280 C47.57 280 24.14 280 0 280 C0 187.6 0 95.2 0 0 Z " fill="#819F37" transform="translate(834,164)"/>
<path d="M0 0 C4.57750622 2.41189567 7.7668373 5.57063724 11.3125 9.25 C15.42156409 13.4420173 19.56435387 17.4619676 24.04296875 21.26171875 C27.2871953 24.14331718 30.28651872 27.26723544 33.3125 30.375 C35.36251567 32.37734089 37.4194884 34.23615009 39.59375 36.09375 C45.7191192 41.40316945 51.31997698 47.26317952 57.00927734 53.02978516 C58.49359897 54.5324377 59.98111204 56.03188165 61.46875 57.53125 C62.33951172 58.41361328 63.21027344 59.29597656 64.10742188 60.20507812 C66.28150122 62.3540954 68.54681864 64.36701583 70.859375 66.3659668 C74.9994578 69.9562387 78.90408908 73.74267079 82.78125 77.61328125 C83.48020386 78.30890671 84.17915771 79.00453217 84.89929199 79.72123718 C86.35929204 81.17621692 87.81797954 82.63251487 89.27539062 84.09008789 C91.51673765 86.32922111 93.76600014 88.56020278 96.015625 90.79101562 C97.43798773 92.21044893 98.85988023 93.63035363 100.28125 95.05078125 C100.9561145 95.71846024 101.630979 96.38613922 102.32629395 97.0740509 C102.94113647 97.69197006 103.555979 98.30988922 104.18945312 98.9465332 C104.73380005 99.48945511 105.27814697 100.03237701 105.83898926 100.5917511 C107 102 107 102 107 104 C107.66 104 108.32 104 109 104 C110.19921875 105.22265625 110.19921875 105.22265625 111.6875 107.0625 C116.15240271 112.34787629 121.08792162 117.13936167 126.02026367 121.98266602 C126.6619751 122.61615967 127.30368652 123.24965332 127.96484375 123.90234375 C128.5487085 124.47460693 129.13257324 125.04687012 129.73413086 125.63647461 C131 127 131 127 131 128 C93.70206342 127.86655479 57.19010794 109.57344335 31 84 C24.64021264 77.57086916 19.48329444 70.85356682 15 63 C14.41347656 61.97519531 13.82695312 60.95039063 13.22265625 59.89453125 C3.13554369 41.06672597 -0.45087585 21.14106781 0 0 Z " fill="#F4BF2E" transform="translate(210,322)"/>
<path d="M0 0 C28.38 0 56.76 0 86 0 C86 19.14 86 38.28 86 58 C57.62 58 29.24 58 0 58 C0 38.86 0 19.72 0 0 Z " fill="#829F36" transform="translate(748,105)"/>
<path d="M0 0 C10.9234233 4.69002948 21.70766637 9.67488208 32.43380737 14.79806519 C33.85409205 15.47490608 35.27608045 16.14818329 36.69973755 16.81790161 C38.7227523 17.77093092 40.73892723 18.73715028 42.75390625 19.70703125 C43.93283447 20.2688208 45.1117627 20.83061035 46.32641602 21.40942383 C49 23 49 23 50 26 C49.03701897 28.86800872 47.99998112 31.63389979 46.875 34.4375 C44.2829607 41.21118967 41.9907608 47.97289613 40.1875 55 C39.89625244 56.07979126 39.89625244 56.07979126 39.59912109 57.18139648 C37.40274662 66.09127204 36.98038008 74.68638925 36 84 C14.55 84 -6.9 84 -29 84 C-27.41172761 61.76418652 -23.18294234 41.84977001 -13 22 C-12.66532715 21.34161133 -12.3306543 20.68322266 -11.98583984 20.00488281 C-10.95983929 17.99734335 -9.92129031 15.99703354 -8.875 14 C-8.40646606 13.101604 -8.40646606 13.101604 -7.9284668 12.18505859 C-5.60334204 7.84522991 -2.91479596 3.95363328 0 0 Z " fill="#8DACCF" transform="translate(391,270)"/>
<path d="M0 0 C26.73 0 53.46 0 81 0 C81 23.1 81 46.2 81 70 C57.31455985 70 36.0685546 65.20657806 18.3203125 48.45703125 C12.5271421 42.32251243 4 32.8949013 4 24 C3.34 24 2.68 24 2 24 C0.14793949 15.748409 0 8.67220863 0 0 Z " fill="#EE6260" transform="translate(540,1051)"/>
<path d="M0 0 C21.12 0 42.24 0 64 0 C64.495 10.395 64.495 10.395 65 21 C65.6732596 26.18084527 66.39275052 31.2456412 67.3125 36.375 C67.53252686 37.65286377 67.75255371 38.93072754 67.97924805 40.24731445 C69.37140714 48.11680371 71.00360273 55.82623361 73.30078125 63.48046875 C74 66 74 66 74 69 C64.6198139 73.20491101 55.23521155 76.71801585 45.3125 79.4375 C43.91523682 79.82542725 43.91523682 79.82542725 42.48974609 80.22119141 C33.11377676 82.70521887 33.11377676 82.70521887 29 82 C17.61451986 71.58856284 11.51629953 53.33569829 7 39 C6.42958984 37.205625 6.42958984 37.205625 5.84765625 35.375 C2.31011916 23.62770704 0 12.31292098 0 0 Z " fill="#8DACCF" transform="translate(362,366)"/>
<path d="M0 0 C0.33 0 0.66 0 1 0 C1 42.24 1 84.48 1 128 C-40.91 128 -82.82 128 -126 128 C-126 127.67 -126 127.34 -126 127 C-124.86046875 126.85304688 -123.7209375 126.70609375 -122.546875 126.5546875 C-93.59507908 122.56272247 -69.41513234 111.72605868 -47 93 C-46.15179687 92.33871094 -45.30359375 91.67742187 -44.4296875 90.99609375 C-40.8231497 88.0331664 -37.98655272 84.5714193 -35 81 C-34.38125 80.28070313 -33.7625 79.56140625 -33.125 78.8203125 C-13.96577623 55.87559693 -4.18201278 29.29402279 0 0 Z " fill="#235625" transform="translate(1046,316)"/>
<path d="M0 0 C43.89 0 87.78 0 133 0 C133 9.9 133 19.8 133 30 C89.11 30 45.22 30 0 30 C0 20.1 0 10.2 0 0 Z " fill="#EEE4DA" transform="translate(906,727)"/>
<path d="M0 0 C20.90159023 0 41.00941975 8.18028493 56.03125 22.80859375 C68.51840042 35.71551457 74 50.12980075 74 68 C49.58 68 25.16 68 0 68 C0 45.56 0 23.12 0 0 Z " fill="#DF3A38" transform="translate(790,1052)"/>
<path d="M0 0 C22.01828027 0 40.53961818 8.05303241 56.35546875 23.265625 C69.92448069 37.35739619 71 48.14649236 71 68 C47.57 68 24.14 68 0 68 C0 45.56 0 23.12 0 0 Z " fill="#EA504E" transform="translate(716,1052)"/>
<path d="M0 0 C8.40348965 6.0591199 13.93655091 12.68275453 16 23 C16.93981334 33.70068167 14.76284152 43.50218866 8 52 C1.65297585 59.08505022 -6.28548184 63.32210711 -15.75390625 64.4453125 C-26.5554726 64.7723024 -33.93067782 62.83524409 -42.25 55.9375 C-50.28441983 48.27000643 -53.99545638 39.84228069 -54.3125 28.8125 C-54.14478157 18.49781646 -50.33792734 11.41359133 -43.2265625 4.09375 C-30.97066705 -7.43109204 -14.49128945 -7.90600728 0 0 Z " fill="#F5B5AF" transform="translate(823,984)"/>
<path d="M0 0 C0 5.28 0 10.56 0 16 C-1.17175781 16.61746094 -2.34351563 17.23492187 -3.55078125 17.87109375 C-12.79790768 22.8204405 -21.27624668 27.81404876 -29 35 C-29.50837402 35.46212891 -30.01674805 35.92425781 -30.54052734 36.40039062 C-42.41265935 47.27160181 -51.05772695 60.05913253 -59 74 C-64.48256175 72.37004921 -69.44307912 69.95139528 -74.5546875 67.4296875 C-75.45623566 66.9885965 -76.35778381 66.54750549 -77.28665161 66.0930481 C-80.15117571 64.6905527 -83.01310845 63.28285825 -85.875 61.875 C-87.82274767 60.92022808 -89.77066255 59.9657972 -91.71875 59.01171875 C-96.4811104 56.67842552 -101.24135688 54.3408643 -106 52 C-99.41696648 34.50313268 -73.71012638 20.36884031 -57.3671875 12.8125 C-42.82816218 6.34223007 -28.3455548 2.76357624 -12.62890625 0.515625 C-11.92838135 0.41540039 -11.22785645 0.31517578 -10.50610352 0.21191406 C-7.01581269 -0.08322207 -3.50274684 0 0 0 Z " fill="#8BABCE" transform="translate(506,209)"/>
<path d="M0 0 C0.33 0 0.66 0 1 0 C1.33 10.23 1.66 20.46 2 31 C16.52 31 31.04 31 46 31 C46 28.03 46 25.06 46 22 C46.13472056 19.97678585 46.29570865 17.95487706 46.5 15.9375 C46.5928125 14.99777344 46.685625 14.05804687 46.78125 13.08984375 C46.8534375 12.40019531 46.925625 11.71054688 47 11 C47.33 11 47.66 11 48 11 C48.12375 11.804375 48.2475 12.60875 48.375 13.4375 C48.684375 14.7059375 48.684375 14.7059375 49 16 C49.66 16.33 50.32 16.66 51 17 C51.027193 18.58323688 51.04648306 20.16661062 51.0625 21.75 C51.07410156 22.63171875 51.08570313 23.5134375 51.09765625 24.421875 C51 27 51 27 50 31 C61.88 31 73.76 31 86 31 C86 31.33 86 31.66 86 32 C81.05 32.495 81.05 32.495 76 33 C76 33.33 76 33.66 76 34 C78.31 34.33 80.62 34.66 83 35 C77.56401186 46.90111967 64.69235953 56.60913994 52.765625 61.26171875 C44.73333333 64 44.73333333 64 42 64 C42 64.66 42 65.32 42 66 C37.05292745 67.28562176 32.13639649 67.18380452 27.0625 67.1875 C25.74088867 67.20586914 25.74088867 67.20586914 24.39257812 67.22460938 C15.32244669 67.24499169 15.32244669 67.24499169 11 65 C9.5390625 62.6171875 9.5390625 62.6171875 8.625 59.875 C8.30789063 58.96492188 7.99078125 58.05484375 7.6640625 57.1171875 C7.33535156 56.06917969 7.33535156 56.06917969 7 55 C6.34 55 5.68 55 5 55 C5.53771481 58.37992169 6.14303932 61.68737889 7 65 C-8.59130917 61.94537616 -21.75518257 52.9148764 -31.83203125 40.796875 C-33 39 -33 39 -33 37 C-33.66 37 -34.32 37 -35 37 C-35 36.34 -35 35.68 -35 35 C-27.08 34.67 -19.16 34.34 -11 34 C-11 33.67 -11 33.34 -11 33 C-19.91 32.67 -28.82 32.34 -38 32 C-38 31.67 -38 31.34 -38 31 C-26.12 31 -14.24 31 -2 31 C-2.495 29.02 -2.495 29.02 -3 27 C-4.11425435 7.07451052 -4.11425435 7.07451052 0 0 Z " fill="#0A0505" transform="translate(391,1041)"/>
<path d="M0 0 C0.33 0 0.66 0 1 0 C1.33 8.25 1.66 16.5 2 25 C-2.65109627 24.33555768 -7.29488447 23.65543024 -11.9375 22.9375 C-13.65259766 22.67259766 -13.65259766 22.67259766 -15.40234375 22.40234375 C-16.25957031 22.26957031 -17.11679687 22.13679687 -18 22 C-18 21.67 -18 21.34 -18 21 C-36.05406338 18.05298173 -54.0607972 17.793183 -72.3125 17.8125 C-73.89581116 17.81340637 -73.89581116 17.81340637 -75.5111084 17.81433105 C-97.74085381 17.84881664 -119.5634608 18.22824409 -141.31640625 23.29296875 C-145 24 -145 24 -148 23 C-148 22.34 -148 21.68 -148 21 C-149.52029885 19.50174677 -149.52029885 19.50174677 -151.5 17.9375 C-162.92583955 8.22248134 -162.92583955 8.22248134 -165 2 C-164 1 -164 1 -161.33411407 0.87974548 C-159.53441792 0.8830764 -159.53441792 0.8830764 -157.69836426 0.88647461 C-157.03259636 0.88632575 -156.36682847 0.88617689 -155.68088579 0.88602352 C-153.43371015 0.88672205 -151.18661468 0.89458243 -148.93945312 0.90234375 C-147.3350377 0.90426143 -145.73062168 0.90572593 -144.12620544 0.9067688 C-140.66342573 0.90993772 -137.20067018 0.91621809 -133.73789978 0.92483521 C-128.26834287 0.9383089 -122.79879413 0.94424134 -117.32922363 0.94897461 C-104.73089183 0.9610423 -92.13258109 0.98310008 -79.53426361 1.00520325 C-67.9914413 1.02535251 -56.44862601 1.0434292 -44.90578985 1.05341816 C-39.46264549 1.05841774 -34.0195379 1.06830291 -28.57640839 1.08184814 C-25.19702276 1.08927934 -21.81764229 1.0926177 -18.43824959 1.0948143 C-16.86480975 1.09669495 -15.29137095 1.10031285 -13.71793938 1.10574722 C-11.57914732 1.11290469 -9.44043763 1.11400361 -7.30163574 1.11352539 C-5.50193958 1.11685631 -5.50193958 1.11685631 -3.66588593 1.12025452 C-1.07903433 1.30387574 -1.07903433 1.30387574 0 0 Z " fill="#F9AA20" transform="translate(516,682)"/>
<path d="M0 0 C2.98827756 0.65151278 5.54922245 1.63234762 8.30078125 2.9609375 C9.11353516 3.35023438 9.92628906 3.73953125 10.76367188 4.140625 C12.0253418 4.75164062 12.0253418 4.75164062 13.3125 5.375 C18.8333763 8.03462961 24.36223368 10.59495288 30 13 C34.15430982 14.87738303 38.29577154 16.78255071 42.4375 18.6875 C43.55060547 19.19861328 44.66371094 19.70972656 45.81054688 20.23632812 C48.54072597 21.49010136 51.27053171 22.7446803 54 24 C54.02945031 27.31248078 54.04694801 30.62492711 54.0625 33.9375 C54.07087891 34.86369141 54.07925781 35.78988281 54.08789062 36.74414062 C54.09111328 37.66259766 54.09433594 38.58105469 54.09765625 39.52734375 C54.10289307 40.35999756 54.10812988 41.19265137 54.11352539 42.05053711 C53.95966273 46.04798822 53.4417715 50.02405646 53 54 C31.22 54 9.44 54 -13 54 C-13 42.73015873 -13 42.73015873 -11.8984375 37.8984375 C-11.65826904 36.83818359 -11.41810059 35.77792969 -11.1706543 34.68554688 C-10.77680542 33.04682617 -10.77680542 33.04682617 -10.375 31.375 C-10.10792236 30.23869141 -9.84084473 29.10238281 -9.56567383 27.93164062 C-7.23761866 18.34449032 -4.42707948 8.85415896 0 0 Z " fill="#8BABCE" transform="translate(452,300)"/>
<path d="M0 0 C14.52 0 29.04 0 44 0 C44 19.8 44 39.6 44 60 C29.48 60 14.96 60 0 60 C-1.12528752 49.87241231 -1.12528752 49.87241231 -1.12939453 45.83496094 C-1.13254669 44.93082458 -1.13569885 44.02668823 -1.13894653 43.09515381 C-1.1369223 42.1510968 -1.13489807 41.20703979 -1.1328125 40.234375 C-1.13376923 39.23794983 -1.13472595 38.24152466 -1.13571167 37.21490479 C-1.136388 35.12406348 -1.13457216 33.03322001 -1.13037109 30.94238281 C-1.12499225 27.74539497 -1.13034635 24.54854616 -1.13671875 21.3515625 C-1.13605832 19.31249969 -1.13477787 17.27343697 -1.1328125 15.234375 C-1.13483673 14.28222107 -1.13686096 13.33006714 -1.13894653 12.34906006 C-1.13579437 11.45753235 -1.13264221 10.56600464 -1.12939453 9.64746094 C-1.12859894 8.86852478 -1.12780334 8.08958862 -1.12698364 7.28704834 C-1 5 -1 5 0 0 Z " fill="#EC5956" transform="translate(393,1012)"/>
<path d="M0 0 C0 24.09 0 48.18 0 73 C-22.77 73 -45.54 73 -69 73 C-67.91907646 68.67630582 -67.08673396 67.73737474 -63.9921875 64.734375 C-63.16976562 63.92613281 -62.34734375 63.11789062 -61.5 62.28515625 C-60.200625 61.03025391 -60.200625 61.03025391 -58.875 59.75 C-52.02656184 53.13115841 -52.02656184 53.13115841 -45.6015625 46.109375 C-40.42340305 40.06138158 -34.6338763 34.57845887 -28.97021484 28.99072266 C-23.64108286 23.72660095 -18.39497923 18.45526997 -13.52441406 12.75585938 C-11.17301347 10.04745562 -8.66484473 7.53280915 -6.125 5 C-5.39796875 4.26716797 -5.39796875 4.26716797 -4.65625 3.51953125 C-1.12686012 0 -1.12686012 0 0 0 Z " fill="#0F61C1" transform="translate(830,598)"/>
<path d="M0 0 C20.79 0 41.58 0 63 0 C59.11685466 12.94381779 53.84708412 22.86306062 45 33 C44.30003906 33.82113281 43.60007812 34.64226562 42.87890625 35.48828125 C33.44897035 46.29656785 23.20826042 54.62157692 11 62 C7.82613634 58.45708243 6.68733827 54.50418839 5.5 50 C5.17962769 48.78473633 5.17962769 48.78473633 4.8527832 47.54492188 C1.06074221 32.04988255 0 15.89294533 0 0 Z " fill="#8CABCE" transform="translate(438,366)"/>
<path d="M0 0 C0 23.76 0 47.52 0 72 C-13.89363731 66.65629334 -13.89363731 66.65629334 -19.8515625 63.171875 C-22.04704035 61.97434163 -24.2249021 61.07283608 -26.5625 60.1875 C-33.96543991 57.3600697 -40.95228852 53.60255227 -48 50 C-42.03478121 29.70626573 -21.83260725 10.87381224 -3.70703125 0.71484375 C-2 0 -2 0 0 0 Z " fill="#8BABCF" transform="translate(506,239)"/>
<path d="M0 0 C14.52 0 29.04 0 44 0 C44 9.24 44 18.48 44 28 C29.48 28 14.96 28 0 28 C0 35.59 0 43.18 0 51 C-0.33 51 -0.66 51 -1 51 C-1.0253794 44.54045451 -1.04287928 38.0809219 -1.05493164 31.62133789 C-1.05995675 29.4243929 -1.06677788 27.22745124 -1.07543945 25.03051758 C-1.08758475 21.87059708 -1.09324659 18.71072085 -1.09765625 15.55078125 C-1.10281754 14.57039383 -1.10797882 13.59000641 -1.11329651 12.57991028 C-1.11337204 11.65933334 -1.11344757 10.73875641 -1.11352539 9.7902832 C-1.115746 8.9842012 -1.11796661 8.1781192 -1.12025452 7.34761047 C-1 5 -1 5 0 0 Z " fill="#EA5653" transform="translate(393,1012)"/>
<path d="M0 0 C11.88 0 23.76 0 36 0 C36 9.24 36 18.48 36 28 C21.81 28 7.62 28 -7 28 C-7 16.19332608 -4.76417661 10.71939737 0 0 Z " fill="#EFADA7" transform="translate(352,1012)"/>
<path d="M0 0 C14.19 0 28.38 0 43 0 C41.84774209 13.8270949 41.84774209 13.8270949 39 20.1875 C38.72671875 20.84041016 38.4534375 21.49332031 38.171875 22.16601562 C36.20778707 26.79221293 36.20778707 26.79221293 35 28 C32.3337397 28.08855161 29.69352886 28.11524673 27.02734375 28.09765625 C26.22970108 28.0962413 25.43205841 28.09482635 24.61024475 28.09336853 C22.05262565 28.08775316 19.49509282 28.07519812 16.9375 28.0625 C15.20768355 28.05748698 13.47786574 28.05292373 11.74804688 28.04882812 C7.49863761 28.03862791 3.24941584 28.01905568 -1 28 C-0.67 18.76 -0.34 9.52 0 0 Z " fill="#F1AEA7" transform="translate(442,1044)"/>
<path d="M0 0 C13.86 0 27.72 0 42 0 C42.33 9.24 42.66 18.48 43 28 C31.12 28 19.24 28 7 28 C1.85702407 16.68545295 0 12.08085946 0 0 Z " fill="#F1AAA3" transform="translate(346,1044)"/>
<path d="M0 0 C1.794375 -0.00386719 1.794375 -0.00386719 3.625 -0.0078125 C9.50586366 0.22361038 9.50586366 0.22361038 12 1.125 C13.4765625 3.3125 13.4765625 3.3125 14.625 6.125 C15.03492188 7.1253125 15.44484375 8.125625 15.8671875 9.15625 C16.24101562 10.1359375 16.61484375 11.115625 17 12.125 C17.31195313 12.8984375 17.62390625 13.671875 17.9453125 14.46875 C20.23566536 20.60600622 20.37049064 25.20039709 21 32.125 C7.14 32.125 -6.72 32.125 -21 32.125 C-21 21.3035448 -18.56157901 10.03000008 -12 1.125 C-8.15083213 -0.28014606 -4.06739567 -0.00876594 0 0 Z " fill="#E54E4C" transform="translate(415,974.875)"/>
<path d="M0 0 C13.86 0 27.72 0 42 0 C41.30753934 6.23214591 40.53236692 11.36889555 38.625 17.1875 C38.41617188 17.85974609 38.20734375 18.53199219 37.9921875 19.22460938 C36.67600279 23.3457121 35.25222212 27.28213585 33 31 C30.05865668 31.73533583 27.97205793 31.97563887 25 32 C24.08992188 32.03738281 23.17984375 32.07476563 22.2421875 32.11328125 C17.10082791 32.24636821 12.69594126 32.34797063 8 30 C6.58432822 27.52559933 5.65404481 25.52379372 4.75 22.875 C4.50040527 22.19501953 4.25081055 21.51503906 3.99365234 20.81445312 C1.35415258 13.4932129 0 7.8973659 0 0 Z " fill="#E64D4A" transform="translate(394,1076)"/>
<path d="M0 0 C12.21 0 24.42 0 37 0 C41.721327 10.62298576 43 15.34044739 43 27 C29.14 27 15.28 27 1 27 C0.67 18.09 0.34 9.18 0 0 Z " fill="#EE5E5C" transform="translate(441,1012)"/>
<path d="M0 0 C1 2 1 2 0.328125 4.28515625 C-0.02765625 5.20167969 -0.3834375 6.11820313 -0.75 7.0625 C-1.12253906 8.04992187 -1.49507813 9.03734375 -1.87890625 10.0546875 C-2.24886719 11.02664063 -2.61882812 11.99859375 -3 13 C-3.57490849 14.55797713 -4.13865494 16.12015141 -4.6875 17.6875 C-4.91824219 18.33074219 -5.14898437 18.97398437 -5.38671875 19.63671875 C-6.26486738 23.02066729 -6.56637037 26.53096295 -7 30 C-18.22 30 -29.44 30 -41 30 C-32.60772366 15.31351641 -19.16676861 5.46591974 -2.9375 0.75 C-1.968125 0.5025 -0.99875 0.255 0 0 Z " fill="#D93731" transform="translate(397,977)"/>
<path d="M0 0 C1.39120471 0.00015906 2.78241534 0.00585033 4.17358398 0.01586914 C4.90463852 0.01728409 5.63569305 0.01869904 6.38890076 0.02015686 C8.73253406 0.02577131 11.07607313 0.03832617 13.41967773 0.05102539 C15.00496282 0.05603853 16.59024939 0.06060176 18.17553711 0.06469727 C22.06945383 0.07574542 25.96329979 0.09301967 29.85717773 0.11352539 C22.5257293 15.27817196 6.95685427 23.92809688 -8.23657227 29.32836914 C-11.14282227 30.11352539 -11.14282227 30.11352539 -13.14282227 29.11352539 C-12.65362305 27.97077148 -12.65362305 27.97077148 -12.15454102 26.80493164 C-8.54886656 18.28532916 -5.29269856 10.31253577 -4.14282227 1.11352539 C-3.14282227 0.11352539 -3.14282227 0.11352539 0 0 Z " fill="#E9625F" transform="translate(444.142822265625,1075.886474609375)"/>
<path d="M0 0 C11.22 0 22.44 0 34 0 C34.99 4.95 35.98 9.9 37 15 C38.49897082 19.39016165 38.49897082 19.39016165 40.1328125 23.73046875 C40.9269622 25.80885152 41.5116029 27.8321149 42 30 C26.40869083 26.94537616 13.24481743 17.9148764 3.16796875 5.796875 C2 4 2 4 2 2 C1.34 2 0.68 2 0 2 C0 1.34 0 0.68 0 0 Z " fill="#B41B1A" transform="translate(356,1076)"/>
<path d="M0 0 C16.51182864 3.99479725 31.95984388 13.04481445 42 27 C42.495 28.485 42.495 28.485 43 30 C31.78 30 20.56 30 9 30 C8.443125 27.23625 7.88625 24.4725 7.3125 21.625 C5.94715156 15.17284299 4.27428524 9.51201294 0.953125 3.75 C0 2 0 2 0 0 Z " fill="#B71B1A" transform="translate(431,977)"/>
<path d="M0 0 C14.19 0.33 28.38 0.66 43 1 C43.99 5.29 44.98 9.58 46 14 C46.495 15.98 46.495 15.98 47 18 C34.80482218 18.08361043 25.76119615 18.08220457 16 10 C10.65427959 6.09251231 6.72601672 3.28621348 0 3 C0 2.01 0 1.02 0 0 Z " fill="#0A4694" transform="translate(284,163)"/>
<path d="M0 0 C97.68 0 195.36 0 296 0 C296 0.33 296 0.66 296 1 C294.35614791 1.00634791 294.35614791 1.00634791 292.67908669 1.01282406 C266.0488227 1.11588577 239.41858651 1.22461703 212.78837013 1.33933926 C199.91035506 1.39468527 187.03233722 1.44816951 174.15429688 1.49731445 C162.93357934 1.54013942 151.71288231 1.58641311 140.49219644 1.63687855 C134.54753471 1.6634931 128.60287709 1.6883465 122.65819168 1.70907402 C117.06867742 1.72861755 111.47920225 1.75275441 105.88972282 1.78049088 C103.83294698 1.78987344 101.77616255 1.79754436 99.7193737 1.80341911 C96.92181013 1.81165985 94.12434198 1.82593073 91.32681274 1.84178162 C90.50386644 1.84275972 89.68092014 1.84373783 88.83303607 1.84474558 C84.78538416 1.77969914 84.78538416 1.77969914 81 3 C80.67 3.66 80.34 4.32 80 5 C77.69 4.34 75.38 3.68 73 3 C73 2.34 73 1.68 73 1 C48.91 1 24.82 1 0 1 C0 0.67 0 0.34 0 0 Z " fill="#043A88" transform="translate(210,105)"/>
<path d="M0 0 C14.52 0 29.04 0 44 0 C44 1.32 44 2.64 44 4 C29.48 4 14.96 4 0 4 C0 2.68 0 1.36 0 0 Z " fill="#F69E92" transform="translate(393,1040)"/>
<path d="M0 0 C20.79 0 41.58 0 63 0 C62.34 2.31 61.68 4.62 61 7 C60.34 7.33 59.68 7.66 59 8 C59.33 6.35 59.66 4.7 60 3 C40.86 2.67 21.72 2.34 2 2 C2 4.97 2 7.94 2 11 C1.34 11 0.68 11 0 11 C0 7.37 0 3.74 0 0 Z " fill="#80A3CC" transform="translate(438,366)"/>
<path d="M0 0 C0.33 0 0.66 0 1 0 C1 2.31 1 4.62 1 7 C-3.95 7.33 -8.9 7.66 -14 8 C-13.67 8.99 -13.34 9.98 -13 11 C-17.62 11 -22.24 11 -27 11 C-27.33 10.01 -27.66 9.02 -28 8 C-34.93 7.505 -34.93 7.505 -42 7 C-42 6.67 -42 6.34 -42 6 C-28.14 6 -14.28 6 0 6 C0 4.02 0 2.04 0 0 Z " fill="#3F1816" transform="translate(484,1033)"/>
<path d="M0 0 C6.74080425 5.52650334 12.8071129 11.69449559 18.9375 17.875 C20.01343727 18.95596274 21.08960731 20.03669383 22.16601562 21.1171875 C24.78003292 23.74212641 27.39088596 26.37018628 30 29 C29.34 29.66 28.68 30.32 28 31 C24.0028282 27.07686396 20.01551815 23.14406663 16.03710938 19.2019043 C14.68171912 17.86162086 13.32365134 16.52403958 11.96289062 15.18920898 C10.00985501 13.2724725 8.06658612 11.34629362 6.125 9.41796875 C5.51253418 8.82098679 4.90006836 8.22400482 4.26904297 7.6089325 C2.78799711 6.1284853 1.38606682 4.56972594 0 3 C0 2.01 0 1.02 0 0 Z " fill="#1A4C95" transform="translate(286,322)"/>
<path d="M0 0 C0.33 0 0.66 0 1 0 C1.20496094 1.03640625 1.40992188 2.0728125 1.62109375 3.140625 C1.89317769 4.51042689 2.16531596 5.88021799 2.4375 7.25 C2.57220703 7.93191406 2.70691406 8.61382813 2.84570312 9.31640625 C3.49220711 12.56469458 4.15002695 15.79815978 5 19 C3.68 19.99 2.36 20.98 1 22 C-0.32 16.39 -1.64 10.78 -3 5 C-2.34 4.67 -1.68 4.34 -1 4 C-0.34786708 1.97536745 -0.34786708 1.97536745 0 0 Z " fill="#250807" transform="translate(393,1076)"/>
<path d="M0 0 C0.33 0 0.66 0 1 0 C1.93307819 7.23135601 2.07891069 14.30043057 1.96289062 21.57763672 C1.92464598 24.96743605 2.00183668 28.01069741 2.578125 31.3671875 C3 34 3 34 1.75 36.875 C1.1725 37.57625 0.595 38.2775 0 39 C-0.99 39 -1.98 39 -3 39 C-2.84587646 38.4313623 -2.69175293 37.86272461 -2.53295898 37.27685547 C-0.60559406 29.04295474 -0.73574323 20.28448129 -0.4375 11.875 C-0.39431641 10.72773438 -0.35113281 9.58046875 -0.30664062 8.3984375 C-0.20166354 5.59904857 -0.09950535 2.79958785 0 0 Z " fill="#3B607B" transform="translate(343,353)"/>
<path d="M0 0 C2 4 2 4 3 7 C2.1875 9.19140625 2.1875 9.19140625 1 11.5625 C-0.18955305 13.85923547 -0.18955305 13.85923547 -1 16 C-0.67 16.66 -0.34 17.32 0 18 C-4.67201205 19.20568053 -9.21496292 19.09382426 -14 19 C-14 18.67 -14 18.34 -14 18 C-10.04 17.505 -10.04 17.505 -6 17 C-4.02 11.39 -2.04 5.78 0 0 Z " fill="#270E0D" transform="translate(433,1089)"/>
<path d="M0 0 C3.29150125 -0.08685287 6.5827096 -0.14033895 9.875 -0.1875 C10.81214844 -0.21263672 11.74929688 -0.23777344 12.71484375 -0.26367188 C13.61074219 -0.27333984 14.50664062 -0.28300781 15.4296875 -0.29296875 C16.25710449 -0.3086792 17.08452148 -0.32438965 17.93701172 -0.34057617 C18.61779785 -0.22818604 19.29858398 -0.1157959 20 0 C20.66 0.99 21.32 1.98 22 3 C11.77 3 1.54 3 -9 3 C-9 2.67 -9 2.34 -9 2 C-4.545 1.505 -4.545 1.505 0 1 C0 0.67 0 0.34 0 0 Z " fill="#010000" transform="translate(413,1073)"/>
<path d="M0 0 C-1.25 1.5 -1.25 1.5 -3 3 C-4.32 3 -5.64 3 -7 3 C-7.26683594 3.58265625 -7.53367187 4.1653125 -7.80859375 4.765625 C-9.02386752 7.04476137 -10.37069172 8.80462832 -12.0625 10.75 C-12.85333984 11.67039062 -12.85333984 11.67039062 -13.66015625 12.609375 C-14.10230469 13.06828125 -14.54445313 13.5271875 -15 14 C-15.33 14 -15.66 14 -16 14 C-16.3046875 11.796875 -16.3046875 11.796875 -16 9 C-13.8828125 6.578125 -13.8828125 6.578125 -11.125 4.25 C-10.22007812 3.47140625 -9.31515625 2.6928125 -8.3828125 1.890625 C-5.03752852 -0.7636659 -4.0258404 -1.20775212 0 0 Z " fill="#EEB3AE" transform="translate(792,983)"/>
<path d="M0 0 C-1.3584202 3.04332765 -2.88463024 5.12309151 -5.2578125 7.453125 C-5.88300781 8.071875 -6.50820313 8.690625 -7.15234375 9.328125 C-7.80332031 9.96234375 -8.45429688 10.5965625 -9.125 11.25 C-9.78371094 11.8996875 -10.44242187 12.549375 -11.12109375 13.21875 C-12.74296643 14.81711727 -14.3693281 16.41061897 -16 18 C-16.99 17.67 -17.98 17.34 -19 17 C-16.21641519 14.15862758 -13.42184273 11.32831845 -10.625 8.5 C-9.43390625 7.28376953 -9.43390625 7.28376953 -8.21875 6.04296875 C-7.45820313 5.27597656 -6.69765625 4.50898438 -5.9140625 3.71875 C-5.2123291 3.00654297 -4.5105957 2.29433594 -3.78759766 1.56054688 C-2 0 -2 0 0 0 Z " fill="#0D4A9E" transform="translate(482,240)"/>
<path d="M0 0 C4.70040169 1.56680056 7.46649103 4.79791657 10 9 C10.56347541 12.42457037 10.44320719 15.56690304 10 19 C9.34 19 8.68 19 8 19 C7.84144531 18.38253906 7.68289063 17.76507813 7.51953125 17.12890625 C5.79195772 10.85810067 3.38825255 5.54441326 0 0 Z " fill="#C8B25B" transform="translate(349,262)"/>
<path d="M0 0 C0.33 0 0.66 0 1 0 C1 7.59 1 15.18 1 23 C0.01 23 -0.98 23 -2 23 C-2 17.72 -2 12.44 -2 7 C-1.67 7 -1.34 7 -1 7 C-0.67 4.69 -0.34 2.38 0 0 Z " fill="#2E0B09" transform="translate(789,1097)"/>
<path d="M0 0 C2.79489786 4.19234679 3.4403651 8.38005004 2.61328125 13.30078125 C2.13362212 15.21601593 1.57352257 17.11074919 1 19 C0.67 19 0.34 19 0 19 C-0.58366173 16.39896388 -1.14234362 13.79662294 -1.6875 11.1875 C-1.93983398 10.08051758 -1.93983398 10.08051758 -2.19726562 8.95117188 C-2.63671875 6.79296875 -2.63671875 6.79296875 -3 3 C-1.58203125 0.98828125 -1.58203125 0.98828125 0 0 Z " fill="#1C0504" transform="translate(436,989)"/>
<path d="M0 0 C7.26 0 14.52 0 22 0 C22 0.33 22 0.66 22 1 C21.27554687 1.03738281 20.55109375 1.07476562 19.8046875 1.11328125 C14.13808848 1.49860998 9.85096382 1.984536 5 5 C3.35 3.35 1.7 1.7 0 0 Z " fill="#174C8C" transform="translate(375,195)"/>
<path d="M0 0 C-4.47576003 4.32142347 -10.0157324 6.54629565 -16 8 C-18.16381836 7.53979492 -18.16381836 7.53979492 -20 7 C-17.04738074 5.63311253 -14.08709966 4.28370462 -11.125 2.9375 C-10.28324219 2.54755859 -9.44148438 2.15761719 -8.57421875 1.75585938 C-7.76855469 1.39169922 -6.96289062 1.02753906 -6.1328125 0.65234375 C-5.38918457 0.31195068 -4.64555664 -0.02844238 -3.87939453 -0.37915039 C-2 -1 -2 -1 0 0 Z " fill="#9A2E2C" transform="translate(434,725)"/>
<path d="M0 0 C0.99 0.33 1.98 0.66 3 1 C3 8.26 3 15.52 3 23 C-1.34057339 16.48913992 -0.11335361 7.55690715 0 0 Z " fill="#BA4646" transform="translate(540,1052)"/>
<path d="M0 0 C4.31730413 0.47409648 6.33647461 3.03396703 9.25 6.0625 C10.14203125 6.98160156 11.0340625 7.90070313 11.953125 8.84765625 C12.62859375 9.55792969 13.3040625 10.26820313 14 11 C13.34 11.66 12.68 12.32 12 13 C10.82737096 11.88121617 9.66204862 10.75476949 8.5 9.625 C7.52546875 8.68527344 7.52546875 8.68527344 6.53125 7.7265625 C5 6 5 6 5 4 C4.360625 3.71125 3.72125 3.4225 3.0625 3.125 C1 2 1 2 0 0 Z " fill="#205196" transform="translate(272,310)"/>
<path d="M0 0 C1.65 0.66 3.3 1.32 5 2 C5 2.99 5 3.98 5 5 C-1.6 4.67 -8.2 4.34 -15 4 C-15 3.67 -15 3.34 -15 3 C-10.05 3 -5.1 3 0 3 C0 2.01 0 1.02 0 0 Z " fill="#365C7D" transform="translate(326,176)"/>
<path d="M0 0 C-0.85464844 0.26554688 -1.70929688 0.53109375 -2.58984375 0.8046875 C-3.69457031 1.15789063 -4.79929687 1.51109375 -5.9375 1.875 C-7.03964844 2.22304688 -8.14179688 2.57109375 -9.27734375 2.9296875 C-12.12878804 3.70024295 -12.12878804 3.70024295 -13 6 C-15.88511836 6.93571406 -17.36622435 7.2877684 -20.16796875 6.015625 C-20.77253906 5.68046875 -21.37710937 5.3453125 -22 5 C-19.08919272 3.96189556 -16.17062342 2.94762359 -13.25 1.9375 C-12.425 1.64294922 -11.6 1.34839844 -10.75 1.04492188 C-9.95078125 0.77099609 -9.1515625 0.49707031 -8.328125 0.21484375 C-7.5949707 -0.04176025 -6.86181641 -0.29836426 -6.10644531 -0.56274414 C-3.72635182 -1.05680388 -2.28425328 -0.76066537 0 0 Z " fill="#A23C39" transform="translate(459,717)"/>
<path d="M0 0 C0.33 0 0.66 0 1 0 C1.33 3.96 1.66 7.92 2 12 C1.01 12.33 0.02 12.66 -1 13 C-1.66 10.36 -2.32 7.72 -3 5 C-2.34 4.67 -1.68 4.34 -1 4 C-0.34786708 1.97536745 -0.34786708 1.97536745 0 0 Z " fill="#160504" transform="translate(393,1076)"/>
<path d="M0 0 C4.29 0 8.58 0 13 0 C12.67 0.99 12.34 1.98 12 3 C8.37 3 4.74 3 1 3 C0.67 2.01 0.34 1.02 0 0 Z " fill="#0B0807" transform="translate(362,1041)"/>
<path d="M0 0 C0.33 0.99 0.66 1.98 1 3 C-0.2578125 5.0078125 -0.2578125 5.0078125 -2.125 7.125 C-2.72570312 7.82882812 -3.32640625 8.53265625 -3.9453125 9.2578125 C-6.31139318 11.264033 -7.95461799 11.65225742 -11 12 C-7.49102731 7.81576108 -3.91939465 3.80411834 0 0 Z " fill="#0A54A9" transform="translate(827,600)"/>
<path d="M0 0 C3.45201639 1.47721422 5.64961936 3.43794001 8.25 6.125 C8.95640625 6.84945313 9.6628125 7.57390625 10.390625 8.3203125 C11.18726563 9.15175781 11.18726563 9.15175781 12 10 C11.34 10.66 10.68 11.32 10 12 C8.32737283 10.38113585 6.66204463 8.7547271 5 7.125 C4.071875 6.22007812 3.14375 5.31515625 2.1875 4.3828125 C0 2 0 2 0 0 Z " fill="#154A99" transform="translate(304,341)"/>
<path d="M0 0 C0.99 0.33 1.98 0.66 3 1 C4.1875 4.5625 4.1875 4.5625 5 8 C3.68 8.33 2.36 8.66 1 9 C-1.09230769 4.56923077 -1.09230769 4.56923077 -0.625 1.6875 C-0.41875 1.130625 -0.2125 0.57375 0 0 Z " fill="#0D0302" transform="translate(396,1095)"/>
<path d="M0 0 C0.66 0.66 1.32 1.32 2 2 C-2.62 6.62 -7.24 11.24 -12 16 C-12 13 -12 13 -9.8828125 10.625 C-8.97273438 9.75875 -8.06265625 8.8925 -7.125 8 C-4.39565456 5.38729326 -2.09873823 3.14810735 0 0 Z " fill="#0D1218" transform="translate(482,399)"/>
<path d="M0 0 C2 3 2 3 2 5 C2.66 5 3.32 5 4 5 C4 7.64 4 10.28 4 13 C3.34 13 2.68 13 2 13 C1.46845258 11.39935157 0.95011647 9.79431126 0.4375 8.1875 C0.14746094 7.29417969 -0.14257812 6.40085937 -0.44140625 5.48046875 C-1 3 -1 3 0 0 Z " fill="#C42320" transform="translate(333,1031)"/>
<path d="M0 0 C0.66 0.66 1.32 1.32 2 2 C1.54109375 2.38671875 1.0821875 2.7734375 0.609375 3.171875 C-2.725081 6.00195951 -5.96501303 8.84361355 -9 12 C-9 9 -9 9 -7.03125 6.73828125 C-5.77828125 5.53751953 -5.77828125 5.53751953 -4.5 4.3125 C-3.6646875 3.50425781 -2.829375 2.69601562 -1.96875 1.86328125 C-1.3190625 1.24839844 -0.669375 0.63351562 0 0 Z " fill="#8F1818" transform="translate(315,803)"/>
<path d="M0 0 C7.48291572 6.15034169 7.48291572 6.15034169 10 10 C7 10 7 10 4.95703125 8.25 C4.24933594 7.5075 3.54164063 6.765 2.8125 6 C2.09707031 5.2575 1.38164062 4.515 0.64453125 3.75 C0.10183594 3.1725 -0.44085938 2.595 -1 2 C-0.67 1.34 -0.34 0.68 0 0 Z " fill="#184D92" transform="translate(230,267)"/>
<path d="M0 0 C-1.25 1.5 -1.25 1.5 -3 3 C-4.32 3 -5.64 3 -7 3 C-7.639375 3.53625 -8.27875 4.0725 -8.9375 4.625 C-9.618125 5.07875 -10.29875 5.5325 -11 6 C-13.75 5.1875 -13.75 5.1875 -16 4 C-16 3.67 -16 3.34 -16 3 C-14.80375 2.71125 -13.6075 2.4225 -12.375 2.125 C-9.71169737 1.46861868 -7.22160592 0.7261206 -4.625 -0.1875 C-2 -1 -2 -1 0 0 Z " fill="#351110" transform="translate(449,1151)"/>
<path d="M0 0 C-0.99 1.485 -0.99 1.485 -2 3 C-5.0390625 3.29296875 -5.0390625 3.29296875 -8.625 3.1875 C-9.81351563 3.16042969 -11.00203125 3.13335937 -12.2265625 3.10546875 C-13.14179687 3.07066406 -14.05703125 3.03585937 -15 3 C-15 2.67 -15 2.34 -15 2 C-13.43883181 1.66048381 -11.87598662 1.32867456 -10.3125 1 C-9.44238281 0.814375 -8.57226562 0.62875 -7.67578125 0.4375 C-5.06287036 0.01027953 -2.64186962 -0.07616201 0 0 Z " fill="#396337" transform="translate(944,440)"/>
<path d="M0 0 C7.48291572 6.15034169 7.48291572 6.15034169 10 10 C6.7451198 9.41978222 5.06347592 8.47352859 2.75 6.125 C2.22921875 5.61195313 1.7084375 5.09890625 1.171875 4.5703125 C0 3 0 3 0 0 Z " fill="#D3B135" transform="translate(319,287)"/>
<path d="M0 0 C3.21043882 1.38188453 5.04936365 2.92421903 7.25 5.625 C8.03117188 6.57246094 8.03117188 6.57246094 8.828125 7.5390625 C9.40820312 8.26222656 9.40820312 8.26222656 10 9 C7 9 7 9 5.17578125 7.5390625 C4.56089844 6.90742188 3.94601563 6.27578125 3.3125 5.625 C2.68988281 4.99851562 2.06726563 4.37203125 1.42578125 3.7265625 C0 2 0 2 0 0 Z " fill="#124898" transform="translate(239,277)"/>
<path d="M0 0 C0.33 0.99 0.66 1.98 1 3 C-1.64 5.31 -4.28 7.62 -7 10 C-7.66 9.67 -8.32 9.34 -9 9 C-6.03 6.03 -3.06 3.06 0 0 Z " fill="#D94749" transform="translate(335,1115)"/>
<path d="M0 0 C0.7734375 0.2165625 0.7734375 0.2165625 1.5625 0.4375 C4.18902145 1.09004275 4.18902145 1.09004275 7.6875 1.4375 C8.780625 1.623125 9.87375 1.80875 11 2 C11.33 2.66 11.66 3.32 12 4 C7.58980132 5.47006623 4.30611969 4.43537323 0 3 C0 2.01 0 1.02 0 0 Z " fill="#1D4C80" transform="translate(284,163)"/>
<path d="M0 0 C0.33 0 0.66 0 1 0 C1.24809955 2.6244748 1.4741699 5.24767145 1.6875 7.875 C1.79674805 8.99455078 1.79674805 8.99455078 1.90820312 10.13671875 C2.07421875 12.3046875 2.07421875 12.3046875 2 16 C1.01 16.66 0.02 17.32 -1 18 C-0.505 9.09 -0.505 9.09 0 0 Z " fill="#F0EDE4" transform="translate(907,699)"/>
<path d="M0 0 C0.66 0.99 1.32 1.98 2 3 C-0.70883293 6.81243153 -2.6225669 8.44648311 -7 10 C-6.02223933 8.51990357 -5.0427506 7.04094856 -4.0625 5.5625 C-3.51722656 4.73878906 -2.97195313 3.91507813 -2.41015625 3.06640625 C-1 1 -1 1 0 0 Z " fill="#932323" transform="translate(290,831)"/>
<path d="M0 0 C0.66 0.99 1.32 1.98 2 3 C-0.64 4.98 -3.28 6.96 -6 9 C-6 6 -6 6 -4.6875 4.39453125 C-4.130625 3.87246094 -3.57375 3.35039063 -3 2.8125 C-2.443125 2.28269531 -1.88625 1.75289062 -1.3125 1.20703125 C-0.6628125 0.60955078 -0.6628125 0.60955078 0 0 Z " fill="#DB494A" transform="translate(309,1140)"/>
<path d="M0 0 C0.99 0.33 1.98 0.66 3 1 C3.33 3.31 3.66 5.62 4 8 C2.35 8.33 0.7 8.66 -1 9 C-0.67 6.03 -0.34 3.06 0 0 Z " fill="#210B0B" transform="translate(436,1076)"/>
<path d="M0 0 C2.31 0 4.62 0 7 0 C7 0.66 7 1.32 7 2 C6.01 2.33 5.02 2.66 4 3 C3.67 3.66 3.34 4.32 3 5 C1.68 4.67 0.36 4.34 -1 4 C-0.67 2.68 -0.34 1.36 0 0 Z " fill="#261413" transform="translate(800,1048)"/>
<path d="M0 0 C3.96 0 7.92 0 12 0 C12.33 0.99 12.66 1.98 13 3 C8.65535464 2.39174965 4.32448133 1.73832608 0 1 C0 0.67 0 0.34 0 0 Z " fill="#ECA32D" transform="translate(505,704)"/>
<path d="M0 0 C0.99 0.66 1.98 1.32 3 2 C0.36 3.98 -2.28 5.96 -5 8 C-5.33 7.01 -5.66 6.02 -6 5 C-2.25 2 -2.25 2 0 2 C0 1.34 0 0.68 0 0 Z " fill="#140505" transform="translate(313,1133)"/>
<path d="M0 0 C0.66 0.33 1.32 0.66 2 1 C2 4.96 2 8.92 2 13 C1.67 13 1.34 13 1 13 C0.63779734 11.20994059 0.28547531 9.41787943 -0.0625 7.625 C-0.25972656 6.62726563 -0.45695313 5.62953125 -0.66015625 4.6015625 C-1 2 -1 2 0 0 Z " fill="#0B0503" transform="translate(787,1096)"/>
<path d="M0 0 C-2.06756277 2.7972908 -3.14440371 3.02692273 -6.6875 3.6875 C-7.780625 3.790625 -8.87375 3.89375 -10 4 C-4.75 -1.425 -4.75 -1.425 0 0 Z " fill="#DDA29E" transform="translate(792,983)"/>
<path d="M0 0 C2.31 0.66 4.62 1.32 7 2 C7 2.66 7 3.32 7 4 C5 5.625 5 5.625 3 7 C0 2.25 0 2.25 0 0 Z " fill="#9A1717" transform="translate(431,977)"/>
<path d="M0 0 C-2.71733757 1.81155838 -4.90595092 3.01896005 -8 4 C-10.16015625 3.55078125 -10.16015625 3.55078125 -12 3 C-10.75823305 2.29773859 -9.50614401 1.61370891 -8.25 0.9375 C-7.20585937 0.36322266 -7.20585937 0.36322266 -6.140625 -0.22265625 C-3.63859372 -1.1312406 -2.4667645 -0.88336837 0 0 Z " fill="#F2AB2B" transform="translate(294,730)"/>
<path d="M0 0 C0.99 0 1.98 0 3 0 C4.38671875 1.53125 4.38671875 1.53125 5.6875 3.5 C6.12449219 4.1496875 6.56148438 4.799375 7.01171875 5.46875 C7.33785156 5.9740625 7.66398437 6.479375 8 7 C5 7 5 7 2.3125 4.625 C0 2 0 2 0 0 Z " fill="#254D84" transform="translate(319,426)"/>
<path d="M0 0 C1.17539996 0.92652701 2.34010577 1.86663387 3.5 2.8125 C4.1496875 3.33457031 4.799375 3.85664063 5.46875 4.39453125 C7 6 7 6 7 9 C5.82460004 8.07347299 4.65989423 7.13336613 3.5 6.1875 C2.52546875 5.40439453 2.52546875 5.40439453 1.53125 4.60546875 C0 3 0 3 0 0 Z " fill="#265691" transform="translate(286,322)"/>
<path d="M0 0 C1.17539996 0.92652701 2.34010577 1.86663387 3.5 2.8125 C4.1496875 3.33457031 4.799375 3.85664063 5.46875 4.39453125 C7 6 7 6 7 9 C4.95880212 7.38405168 2.95927063 5.7143618 1 4 C1 3.34 1 2.68 1 2 C0.34 1.67 -0.32 1.34 -1 1 C-0.67 0.67 -0.34 0.34 0 0 Z " fill="#124999" transform="translate(332,244)"/>
<path d="M0 0 C0.33 0 0.66 0 1 0 C0.67 3.96 0.34 7.92 0 12 C-0.66 12 -1.32 12 -2 12 C-2.17835515 7.45194365 -1.99785435 4.1205746 0 0 Z " fill="#DFC137" transform="translate(280,183)"/>
<path d="M0 0 C4.43090471 1.20842856 6.98112756 2.51668565 10 6 C8.02 6 6.04 6 4 6 C3.67 4.68 3.34 3.36 3 2 C2.01 2 1.02 2 0 2 C0 1.34 0 0.68 0 0 Z " fill="#F1C63D" transform="translate(293,169)"/>
<path d="M0 0 C0.99 0.33 1.98 0.66 3 1 C1.38405168 3.04119788 -0.2856382 5.04072937 -2 7 C-2.66 7 -3.32 7 -4 7 C-2.92598892 4.08482708 -2.22189824 2.22189824 0 0 Z " fill="#DDB732" transform="translate(288,166)"/>
<path d="M0 0 C0.66 0.99 1.32 1.98 2 3 C1.67 3.99 1.34 4.98 1 6 C-0.98 6 -2.96 6 -5 6 C-3.35 4.02 -1.7 2.04 0 0 Z " fill="#E2484C" transform="translate(301,1148)"/>
<path d="M0 0 C0.66 0.66 1.32 1.32 2 2 C1.57347992 5.83868076 -0.45335584 9.5032393 -2 13 C-3.18771723 9.57056481 -2.80226223 7.62215325 -1.5625 4.25 C-1.27503906 3.45078125 -0.98757813 2.6515625 -0.69140625 1.828125 C-0.46324219 1.22484375 -0.23507812 0.6215625 0 0 Z " fill="#BC3F3E" transform="translate(496,1042)"/>
<path d="M0 0 C6.0546875 -0.1953125 6.0546875 -0.1953125 8 0 C8.66 0.66 9.32 1.32 10 2 C9.34 2 8.68 2 8 2 C7.67 2.66 7.34 3.32 7 4 C4.69 3.34 2.38 2.68 0 2 C0 1.34 0 0.68 0 0 Z " fill="#144782" transform="translate(283,106)"/>
<path d="M0 0 C2 3 2 3 1.625 5.6875 C1.41875 6.450625 1.2125 7.21375 1 8 C0.01 8 -0.98 8 -2 8 C-1.125 2.25 -1.125 2.25 0 0 Z " fill="#D1948C" transform="translate(350,1016)"/>
<path d="M0 0 C0.66 0 1.32 0 2 0 C1.40312566 3.34249629 0.26396123 5.46436342 -2 8 C-2.66 8 -3.32 8 -4 8 C-2.87548273 5.0280615 -1.77706209 2.66559313 0 0 Z " fill="#ECD7CD" transform="translate(910,663)"/>
<path d="M0 0 C0.66 0 1.32 0 2 0 C0.92598892 2.91517292 0.22189824 4.77810176 -2 7 C-2.99 6.67 -3.98 6.34 -5 6 C-3.38405168 3.95880212 -1.7143618 1.95927063 0 0 Z " fill="#2F6031" transform="translate(1014,393)"/>
<path d="M0 0 C3.25543229 0.34879632 4.01873107 1.02133261 6.25 3.5625 C6.8275 4.366875 7.405 5.17125 8 6 C7.01 6 6.02 6 5 6 C4.731875 5.360625 4.46375 4.72125 4.1875 4.0625 C3.11332248 1.66868314 3.11332248 1.66868314 0 1 C0 0.67 0 0.34 0 0 Z " fill="#255391" transform="translate(262,300)"/>
<path d="M0 0 C3.34373475 0.55728913 6.03312999 1.35173889 9 3 C9 3.66 9 4.32 9 5 C6.03 4.01 3.06 3.02 0 2 C0 1.34 0 0.68 0 0 Z " fill="#83A5C9" transform="translate(478,297)"/>
<path d="M0 0 C3.36720387 1.39332574 4.9859524 2.9789286 7 6 C4 6 4 6 1.8125 4.125 C0 2 0 2 0 0 Z " fill="#E7BE30" transform="translate(280,250)"/>
<path d="M0 0 C-5.75 4 -5.75 4 -8 4 C-5.97675095 -0.48005146 -4.79569304 -1.43870791 0 0 Z " fill="#FAC643" transform="translate(305,759)"/>
<path d="M0 0 C0.66 0 1.32 0 2 0 C2.33 0.99 2.66 1.98 3 3 C0.525 4.485 0.525 4.485 -2 6 C-2.33 5.34 -2.66 4.68 -3 4 C-1.625 2 -1.625 2 0 0 Z " fill="#D54D38" transform="translate(937,678)"/>
<path d="M0 0 C0.66 0 1.32 0 2 0 C0.60667426 3.36720387 -0.9789286 4.9859524 -4 7 C-4 6.01 -4 5.02 -4 4 C-3.34 4 -2.68 4 -2 4 C-1.34 2.68 -0.68 1.36 0 0 Z " fill="#DAB438" transform="translate(392,238)"/>
</svg>
